<svg width="178" height="55" viewBox="0 0 178 55" fill="none" xmlns="http://www.w3.org/2000/svg">
<mask id="mask0_10016_9897" style="mask-type:luminance" maskUnits="userSpaceOnUse" x="29" y="8" width="118" height="39">
<path d="M146.588 8.59375H29.6665V46.4062H146.588V8.59375Z" fill="white"/>
</mask>
<g mask="url(#mask0_10016_9897)">
<path d="M126.027 21.9273V31.5243H132.331V26.1066H138.684C142.003 26.1066 144.845 24.3596 145.92 21.9053H126.027V21.9273Z" fill="white" fill-opacity="0.5"/>
<path d="M144.01 14.94C142.768 13.9007 141.12 13.2373 139.329 13.2373H125.741C125.765 13.7238 125.836 14.2103 125.956 14.6746C125.98 14.7852 126.003 14.8736 126.051 14.9842C126.075 15.0284 126.075 15.0727 126.099 15.1169C127.221 18.4338 130.565 20.8219 134.529 20.8219H146.183C146.255 20.446 146.302 20.0701 146.302 19.6942C146.278 17.7926 145.395 16.1119 144.01 14.94Z" fill="white" fill-opacity="0.5"/>
<path d="M114.826 15.1611L110.408 24.0282H109.955V13.2373H103.674V31.5244H108.999C110.408 31.5244 111.674 30.7726 112.247 29.6006L116.665 20.7335H117.119V31.5244H123.4V13.2373H118.074C116.689 13.2373 115.423 13.9891 114.826 15.1611Z" fill="white" fill-opacity="0.5"/>
<path d="M85.596 15.6476L88.2229 24.0504H88.6766L91.3035 15.6476C91.7574 14.2324 93.1425 13.2373 94.7424 13.2373H101.023V31.5244H94.7424V20.7114H94.2887L90.7065 31.5024H86.2169L82.6347 20.7114H82.181V31.5024H75.9004V13.2373H82.181C83.7333 13.2373 85.1423 14.2103 85.596 15.6476Z" fill="white" fill-opacity="0.5"/>
<path d="M37.7384 46.4061C38.9803 46.4061 40.0071 45.7427 40.0071 44.1727V42.8017C40.0071 41.2318 39.0042 40.5684 37.7384 40.5684C36.4966 40.5684 35.4696 41.2318 35.4696 42.8017V44.1727C35.4457 45.7207 36.4727 46.4061 37.7384 46.4061ZM36.8547 42.9787C36.8547 42.0277 37.2369 41.7845 37.7384 41.7845C38.2637 41.7845 38.622 42.0277 38.622 42.9787V43.9737C38.622 44.9245 38.2398 45.1677 37.7384 45.1677C37.213 45.1677 36.8547 44.9245 36.8547 43.9737V42.9787Z" fill="white" fill-opacity="0.5"/>
<path d="M49.8932 44.615L48.6275 44.2391C48.5559 44.9246 48.2692 45.1679 47.7918 45.1679C47.2663 45.1679 46.9081 44.9246 46.9081 43.9737V42.9788C46.9081 42.028 47.2902 41.7846 47.7918 41.7846C48.1977 41.7846 48.4603 42.0058 48.5559 42.4258L49.8454 42.1385C49.6067 41.0328 48.8901 40.5464 47.8155 40.5464C46.5737 40.5464 45.5469 41.2097 45.5469 42.7797V44.1508C45.5469 45.7207 46.55 46.3841 47.8155 46.3841C48.914 46.4061 49.6782 45.8755 49.8932 44.615Z" fill="white" fill-opacity="0.5"/>
<path d="M30.6455 46.4065H32.0306V44.8365H32.6276C33.7978 44.8365 34.8007 44.3279 34.8007 43.0454V42.6031C34.8007 41.5196 34.2276 40.812 32.8186 40.812H30.2396L29.8096 41.9619H30.6455V46.4065ZM32.0306 41.9399H32.7232C33.1769 41.9399 33.3917 42.1387 33.3917 42.6031V42.979C33.3917 43.5098 32.9858 43.6866 32.556 43.6866H32.0306V41.9399Z" fill="white" fill-opacity="0.5"/>
<path d="M45.1173 44.615L43.8516 44.2391C43.7799 44.9246 43.4933 45.1679 43.0157 45.1679C42.4904 45.1679 42.1322 44.9246 42.1322 43.9737V42.9788C42.1322 42.028 42.5143 41.7846 43.0157 41.7846C43.4218 41.7846 43.6844 42.0058 43.7799 42.4258L45.0695 42.1385C44.8308 41.0328 44.1143 40.5464 43.0396 40.5464C41.7978 40.5464 40.771 41.2097 40.771 42.7797V44.1508C40.771 45.7207 41.7739 46.3841 43.0396 46.3841C44.1621 46.4061 44.9263 45.8755 45.1173 44.615Z" fill="white" fill-opacity="0.5"/>
<path d="M58.2042 46.4061L60.1387 43.1776V46.4061H61.4999V40.7896H60.3535L58.4192 44.0179V40.7896H56.652L56.2222 41.9394H57.0579V46.4061H58.2042Z" fill="white" fill-opacity="0.5"/>
<path d="M59.2069 40.2811C60.0427 40.2811 60.9025 39.9052 61.1412 38.8437L60.0188 38.5342C59.8994 39.0428 59.6368 39.264 59.2309 39.264C58.8248 39.264 58.5621 39.0428 58.4428 38.5342L57.3203 38.8437C57.5114 39.9052 58.371 40.2811 59.2069 40.2811Z" fill="white" fill-opacity="0.5"/>
<path d="M77.6433 42.5143V42.8682C77.6433 43.819 78.2166 44.217 78.5986 44.3939L77.5479 46.4282H79.0047L79.8882 44.6814H80.3897V46.4282H81.7748V41.9615H82.1807L82.6106 40.8117H79.6256C78.4792 40.7895 77.6433 41.3424 77.6433 42.5143ZM80.4137 41.9393V43.5536H79.936C79.5538 43.5536 79.0284 43.4653 79.0284 42.8682V42.5586C79.0284 42.0942 79.3388 41.9615 79.8404 41.9615H80.4137V41.9393Z" fill="white" fill-opacity="0.5"/>
<path d="M64.6519 46.4061C65.7743 46.4061 66.5385 45.8755 66.7296 44.615L65.4639 44.2391C65.3923 44.9246 65.1056 45.1679 64.6281 45.1679C64.1027 45.1679 63.7444 44.9246 63.7444 43.9737V42.9788C63.7444 42.028 64.1266 41.7846 64.6281 41.7846C65.034 41.7846 65.2967 41.9836 65.3923 42.4258L66.6818 42.1385C66.4669 41.0328 65.7265 40.5464 64.6519 40.5464C63.41 40.5464 62.3832 41.2097 62.3832 42.7797V44.1508C62.3593 45.7207 63.3624 46.4061 64.6519 46.4061Z" fill="white" fill-opacity="0.5"/>
<path d="M68.6165 44.1286H69.0224L70.1688 46.4061H71.7211L70.1927 43.3988L71.6017 40.7896H70.0494L68.9985 43.0451H68.6165V40.7896H67.2314V46.4061H68.6165V44.1286Z" fill="white" fill-opacity="0.5"/>
<path d="M54.168 46.4061H55.5052V40.7896H54.383L52.4246 44.0179V40.7896H50.6575L50.2275 41.9394H51.0634V46.4061H52.2098L54.168 43.1776V46.4061Z" fill="white" fill-opacity="0.5"/>
<path d="M75.0164 40.7896H73.3926L72.9628 41.9394H73.6792L72.0552 46.4061H73.4165L73.727 45.4331H75.4941L75.8523 46.4061H77.2135L75.0164 40.7896ZM74.0612 44.3718L74.5627 42.8017L75.136 44.3718H74.0612Z" fill="white" fill-opacity="0.5"/>
<path d="M85.0225 41.9394H85.8584V46.4061H87.2434V41.9394H88.8196V46.4061H90.2047V40.7896H85.4523L85.0225 41.9394Z" fill="white" fill-opacity="0.5"/>
<path d="M93.9303 40.7896H91.3512L90.9214 41.9394H91.7571V46.4061H93.1422V44.8362H93.7394C94.9095 44.8362 95.9125 44.3276 95.9125 43.0451V42.6027C95.9125 41.4972 95.3393 40.7896 93.9303 40.7896ZM94.5275 43.0007C94.5275 43.5315 94.1214 43.7083 93.6916 43.7083H93.1422V41.9394H93.8348C94.2886 41.9394 94.5035 42.1384 94.5035 42.6027V43.0007H94.5275Z" fill="white" fill-opacity="0.5"/>
<path d="M98.014 44.1286H99.805L100.235 43.0007H98.014V41.9394H100.259L100.713 40.7896H96.6289V46.4061H100.402L100.856 45.2341H98.014V44.1286Z" fill="white" fill-opacity="0.5"/>
<path d="M104.2 43.3766L102.623 40.7896H101.573V46.4061H102.886V43.3546L103.77 44.7255H104.606L105.489 43.3546V46.4061H106.803V40.7896H105.752L104.2 43.3766Z" fill="white" fill-opacity="0.5"/>
<path d="M109.979 42.4038H109.406V40.7896H108.021V46.4061H110.17C111.579 46.4061 112.152 45.6321 112.152 44.5045V44.1727C112.152 42.8902 111.149 42.4038 109.979 42.4038ZM110.767 44.4381C110.767 45.0572 110.48 45.2562 110.098 45.2562H109.429V43.5093H109.955C110.385 43.5093 110.791 43.6642 110.791 44.1949V44.4381H110.767Z" fill="white" fill-opacity="0.5"/>
<path d="M114.348 44.1286H116.14L116.569 43.0007H114.348V41.9394H116.593L117.047 40.7896H112.963V46.4061H116.737L117.19 45.2341H114.348V44.1286Z" fill="white" fill-opacity="0.5"/>
<path d="M120.367 40.7896H117.788L117.358 41.9394H118.194V46.4061H119.579V44.8362H120.176C121.346 44.8362 122.349 44.3276 122.349 43.0451V42.6027C122.349 41.4972 121.776 40.7896 120.367 40.7896ZM120.964 43.0007C120.964 43.5315 120.558 43.7083 120.128 43.7083H119.579V41.9394H120.271C120.725 41.9394 120.94 42.1384 120.94 42.6027V43.0007H120.964Z" fill="white" fill-opacity="0.5"/>
<path d="M122.803 44.1948H125.334L125.836 42.8901H123.28L122.803 44.1948Z" fill="white" fill-opacity="0.5"/>
<path d="M126.36 41.9394H127.196V43.5978C127.196 44.5045 127.124 45.2562 126.408 45.2562H126.026L126.456 46.4061H127.005C128.127 46.4061 128.486 45.2784 128.486 43.5756V41.9614H129.584V46.4061H130.969V40.7896H126.742L126.36 41.9394Z" fill="white" fill-opacity="0.5"/>
<path d="M133.908 44.0179V40.7896H132.164L131.71 41.9394H132.57V46.4061H133.693L135.651 43.1776V46.4061H137.012V40.7896H135.866L133.908 44.0179Z" fill="white" fill-opacity="0.5"/>
<path d="M142.146 40.7896H138.397V46.4061H139.782V41.9394H141.692L142.146 40.7896Z" fill="white" fill-opacity="0.5"/>
<path d="M144.39 40.7896H142.767L142.337 41.9394H143.053L141.429 46.4061H142.791L143.101 45.4331H144.868L145.226 46.4061H146.588L144.39 40.7896ZM143.435 44.3718L143.937 42.8017L144.51 44.3718H143.435Z" fill="white" fill-opacity="0.5"/>
<path d="M59.47 23.6078H59.1356C58.5625 21.5513 57.9894 19.7161 57.3446 17.9028H58.1088C57.7984 17.0625 57.464 16.0011 56.4611 14.7628C56.867 13.9004 57.2492 13.1265 57.2968 12.1978H56.8909C56.9387 11.4238 56.7476 10.7826 56.3894 10.2961C56.3655 10.274 56.3655 10.2519 56.3416 10.2297L56.3178 10.2076C55.4341 8.96933 53.2133 8.12906 51.9476 8.92511C51.2071 9.38948 50.4669 9.87596 49.7266 10.3403C48.8191 10.075 47.8639 9.92018 46.9086 9.89806C45.6429 9.87596 44.3056 9.87596 42.9682 9.89806C42.0131 9.92018 41.0578 10.0529 40.1504 10.3182C39.4099 9.83174 38.6935 9.36736 37.9294 8.90299C36.6397 8.08483 34.3472 8.99146 33.4874 10.274C33.4874 10.274 33.4874 10.274 33.4874 10.2961C32.9143 11.0921 32.7232 12.3083 33.4874 14.0331C33.6069 14.2764 33.7263 14.5417 33.8457 14.7849C33.0815 15.7358 32.6039 16.7087 32.1979 17.925H33.0098C32.6756 18.8536 32.3651 19.8046 32.0547 20.7774H31.2427C30.789 22.2589 30.3352 23.829 29.8815 25.5758L29.6665 26.3941L30.3829 26.969C32.5323 28.6716 34.4666 30.109 36.4249 31.4357H39.0518C36.4487 29.7551 34.0846 28.0083 31.3859 25.8855C32.2695 22.5022 33.1532 19.6497 34.2755 16.6645C34.5383 15.9348 34.9203 15.2714 35.374 14.6523C34.9442 13.8341 33.7024 11.844 34.8248 10.1413C35.374 9.32314 36.5443 9.0799 37.4039 9.63272C38.2637 10.1855 39.1234 10.7383 40.0069 11.3133C40.9383 11.0037 41.9413 10.8047 43.016 10.7826C44.3056 10.7605 45.619 10.7605 46.9086 10.7826C47.9593 10.8047 48.9624 10.9816 49.9177 11.3133C50.8012 10.7383 51.661 10.1855 52.5207 9.63272C53.3803 9.0799 54.5506 9.32314 55.0997 10.1413C56.2222 11.844 54.9804 13.8341 54.5506 14.6523C55.0043 15.2714 55.3625 15.9348 55.6491 16.6645C56.7715 19.6275 57.6551 22.4802 58.5386 25.8855C53.9775 29.4897 50.3236 31.9885 44.9743 35.0179C45.4757 35.3055 45.9533 35.5708 46.4549 35.836C49.8459 33.8902 52.6161 32.1211 55.5058 30.0205H54.2401C54.5745 29.7773 54.9088 29.5561 55.2193 29.3129H56.4611C58.0849 28.1189 59.2791 27.1459 60.2342 26.4161C59.9715 25.4653 59.7804 24.6913 59.47 23.6078Z" fill="white" fill-opacity="0.5"/>
<path d="M37.4761 32.1655C39.3388 33.4039 41.2732 34.5979 43.4464 35.8363C43.9478 35.5709 44.4493 35.2833 44.9269 35.018C43.1836 34.023 41.6313 33.0943 40.1508 32.1655H37.4761Z" fill="white" fill-opacity="0.5"/>
<path d="M41.9889 18.1023L40.1023 17.5273C40.0784 17.5273 40.0545 17.5273 40.0545 17.5493C40.0308 17.5715 40.0308 17.5937 40.0308 17.5937L40.4128 19.2963C40.4128 19.3185 40.4367 19.3405 40.4606 19.3405C40.4845 19.3405 40.5084 19.3405 40.5084 19.3405C41.1054 18.854 41.583 18.5223 42.0128 18.2128C42.0368 18.1906 42.0368 18.1686 42.0368 18.1686C42.0368 18.1243 42.0128 18.1243 41.9889 18.1023Z" fill="white" fill-opacity="0.5"/>
<path d="M49.3687 19.3405C49.3926 19.3626 49.4163 19.3626 49.4163 19.3405C49.4402 19.3405 49.4402 19.3185 49.4641 19.2963L49.8463 17.5937C49.8463 17.5715 49.8463 17.5493 49.8224 17.5493C49.7985 17.5273 49.7746 17.5273 49.7746 17.5273L47.888 18.1023C47.8641 18.1023 47.8403 18.1243 47.8403 18.1464C47.8403 18.1686 47.8403 18.1906 47.8641 18.1906C48.2941 18.5002 48.7478 18.854 49.3687 19.3405Z" fill="white" fill-opacity="0.5"/>
<path d="M45.9531 18.102C45.7382 17.7703 45.3561 17.5713 44.9502 17.5713C44.5441 17.5713 44.1382 17.7703 43.9471 18.102C43.8038 18.3231 43.159 19.3624 42.0365 21.1535C41.8456 21.4411 41.75 21.7948 41.75 22.1265C41.75 23.4754 41.75 24.7579 41.75 25.6645C41.75 28.6275 48.1262 28.6055 48.1262 25.6424C48.1262 24.7357 48.1262 23.4754 48.1262 22.1265C48.1262 21.7726 48.0308 21.4411 47.8397 21.1535L47.6964 20.9323L45.9531 18.102ZM46.9562 24.2493C46.7412 25.0233 46.5501 25.6202 46.192 26.3941C46.192 26.4163 46.1681 26.4385 46.1442 26.4385C45.2843 26.5047 44.5919 26.5047 43.7321 26.4385C43.7084 26.4385 43.6844 26.4163 43.6844 26.3941C43.3262 25.6202 43.1351 25.0233 42.9203 24.2493C42.9203 24.2271 42.9203 24.205 42.944 24.183C43.6127 23.6522 44.1382 23.2985 44.9023 22.8561C44.9263 22.8561 44.9502 22.8561 44.9739 22.8561C45.7382 23.2985 46.2874 23.6522 46.9322 24.183C46.9562 24.205 46.9562 24.2271 46.9562 24.2493Z" fill="white" fill-opacity="0.5"/>
<path d="M67.2551 31.4804L67.1357 22.7017L67.2551 13.127L67.5177 22.7459L67.2551 31.4804Z" fill="white" fill-opacity="0.5" stroke="white" stroke-opacity="0.5" stroke-width="0.5" stroke-miterlimit="10"/>
</g>
</svg>
