<svg width="178" height="55" viewBox="0 0 178 55" fill="none" xmlns="http://www.w3.org/2000/svg">
<path fill-rule="evenodd" clip-rule="evenodd" d="M76.1204 27.6379L76.3649 26.2529C76.9153 23.7236 76.0591 23.2419 73.6135 23.2419H71.6569C69.1501 23.2419 67.9884 23.543 67.2546 27.1562L67.0101 28.5413C66.4599 31.1306 67.3158 31.5522 69.7614 31.5522H71.718C74.2861 31.5522 75.4478 31.3114 76.1204 27.6379ZM69.0278 18.9663H76.854C81.073 18.9663 83.5185 20.0503 82.4181 25.1689L81.7455 28.4208C80.8894 33.118 79.7277 35.8278 74.4083 35.8278H66.582C62.3632 35.8278 59.9175 34.7439 61.0181 29.6251L61.6907 26.3733C62.5466 21.6763 63.6473 18.9663 69.0278 18.9663Z" fill="white" fill-opacity="0.5"/>
<path fill-rule="evenodd" clip-rule="evenodd" d="M47.2 26.9154H52.6415C53.9256 26.9154 55.393 26.3733 55.393 24.6872C55.393 23.7236 54.537 23.2419 53.3753 23.2419H47.9336L47.2 26.9154ZM42.981 18.9663H56.8605C60.4678 19.0265 61.8741 21.1342 61.8741 23.6635C61.8741 30.3479 56.7381 31.0704 51.1741 31.0704H46.3438L45.3657 35.8278H41.8805C40.2908 35.7676 39.6793 35.5266 40.1074 33.2986L42.981 18.9663Z" fill="white" fill-opacity="0.5"/>
<path fill-rule="evenodd" clip-rule="evenodd" d="M89.9383 26.3735H95.3798C96.7251 26.3735 98.0703 26.253 98.0703 24.5066C98.0703 23.5431 97.2141 23.2421 96.0524 23.2421H90.6108L89.9383 26.3735ZM99.5375 18.9664C103.145 19.0267 104.551 20.773 104.551 23.3023C104.551 27.0961 102.167 28.722 99.9045 29.3243L103.023 35.8279H99.3541C97.5199 35.8279 96.7862 35.5871 95.9913 33.7805L94.5239 30.2878H89.1434L88.0428 35.7677H84.5576C82.968 35.7075 82.3565 35.4666 82.7846 33.2386L85.6583 18.9062H99.5375V18.9664Z" fill="white" fill-opacity="0.5"/>
<path d="M123.2 18.9663H105.101L104.734 20.8934C104.306 23.0612 105.101 23.4225 107.302 23.4225H110.421L107.975 35.8881H113.722L116.168 23.4225H122.344L123.2 18.9663Z" fill="white" fill-opacity="0.5"/>
<path fill-rule="evenodd" clip-rule="evenodd" d="M145.823 27.7584H152.059L152.854 23.6635L145.823 27.7584ZM152.976 18.9663H159.335L157.623 27.7584H160.374L159.641 31.5522H156.889L156.033 35.8881H150.469L151.325 31.6124H138.485L138.791 29.9263C139.036 28.8424 139.219 28.3003 140.564 27.1562L152.976 18.9663Z" fill="white" fill-opacity="0.5"/>
<path d="M125.4 30.8296C125.706 29.565 126.256 29.3843 127.724 29.3843H133.288C138.485 29.3843 140.686 27.4573 140.686 23.3624C140.686 20.1105 137.384 18.9663 132.126 18.9663H123.199L122.282 23.3624H133.104C134.327 23.3624 134.633 23.6635 134.633 24.2656C134.633 25.1088 134.021 25.3496 132.371 25.3496H128.091C121.059 25.3496 120.448 27.1562 119.775 30.649L118.797 35.7676H134.694C136.712 35.7676 137.323 35.587 137.873 33.5394L138.301 31.492H125.156L125.4 30.8296Z" fill="white" fill-opacity="0.5"/>
<path d="M34.0539 25.4099H29.4683C28.1232 25.4099 27.5728 25.1088 27.5728 24.3259C27.5728 23.4828 28.1232 23.2419 30.1408 23.2419H37.2334C40.1071 23.2419 40.2905 22.7601 40.7186 20.7729L41.0242 18.9663H29.6517C25.9832 19.0265 23.1095 19.1469 22.4369 22.2783L21.9478 24.9883C21.4586 27.939 23.9042 29.3843 26.9615 29.3843H31.547C32.8922 29.3843 33.4426 29.6855 33.4426 30.4682C33.4426 31.3114 32.8922 31.5522 30.8745 31.5522H23.0482C20.6025 31.5522 19.8688 32.3351 19.441 34.5029L19.1963 35.8278H28.8568C35.3379 35.8278 39.0677 35.1654 39.0677 29.7456C39.0677 26.9755 37.1111 25.4099 34.0539 25.4099Z" fill="white" fill-opacity="0.5"/>
</svg>
