<svg width="178" height="55" viewBox="0 0 178 55" fill="none" xmlns="http://www.w3.org/2000/svg">
<mask id="mask0_10016_9935" style="mask-type:luminance" maskUnits="userSpaceOnUse" x="19" y="10" width="140" height="35">
<path d="M158.804 10.3125H19.1963V44.6875H158.804V10.3125Z" fill="white"/>
</mask>
<g mask="url(#mask0_10016_9935)">
<path d="M31.1724 33.9429L33.1377 31.0989C34.6126 32.4271 36.824 33.2815 38.8215 33.2815C40.357 33.2815 41.4323 32.742 41.4323 31.6365C41.4323 30.4674 40.5727 30.0252 38.3292 29.6149C35.2278 29.0472 31.909 28.2867 31.909 24.3371C31.909 20.9553 34.6058 18.9956 38.2685 18.9956C41.6161 18.9956 43.6437 19.8799 45.4574 21.3673L43.5224 24.2416C41.8621 23.0725 40.234 22.4092 38.6983 22.4092C37.2842 22.4092 36.4869 22.9769 36.4869 23.8949C36.4869 24.9048 37.3769 25.3098 39.4047 25.6955C42.6307 26.2649 46.0406 27.0237 46.0406 30.8478C46.0406 34.9157 42.6005 36.5341 38.8215 36.5341C35.2278 36.5341 32.8309 35.3987 31.1724 33.9429Z" fill="white" fill-opacity="0.5"/>
<path d="M57.7333 18.9956C61.4516 18.9956 64.0305 21.9352 64.0305 27.7489C64.0305 33.5627 61.4196 36.4387 57.671 36.4387C55.4594 36.4387 53.9239 35.618 52.6952 34.1976V42.5107H47.7295V23.8949C47.7295 21.8714 47.6065 20.6387 47.2676 19.7862L52.1102 18.9956C52.3563 19.5968 52.5722 21.1446 52.5722 22.0943C53.6475 20.5715 55.306 18.9956 57.7333 18.9956ZM59.0817 27.7825C59.0817 24.9684 58.1277 23.198 55.9163 23.198C54.6572 23.198 53.5211 23.9905 52.6917 24.843V31.0671C53.7655 32.1105 54.6572 32.6164 55.9786 32.6164C58.0401 32.6164 59.085 30.8478 59.085 27.7825H59.0817Z" fill="white" fill-opacity="0.5"/>
<path d="M65.7686 27.7825C65.7686 21.1764 70.1611 18.9956 74.1558 18.9956C78.1186 18.9956 82.5112 21.1764 82.5112 27.7825C82.5112 34.3267 78.1186 36.5341 74.1558 36.5341C70.1931 36.5341 65.7686 34.3232 65.7686 27.7825ZM77.5675 27.8126C77.5675 25.0004 76.615 22.7239 74.1576 22.7239C71.7979 22.7239 70.7173 24.7792 70.7173 27.8126C70.7173 30.6248 71.6377 32.963 74.1576 32.963C76.492 32.963 77.5675 30.8778 77.5675 27.8126Z" fill="white" fill-opacity="0.5"/>
<path d="M89.8211 22.2819C90.7145 20.8668 92.3411 18.9956 95.1374 18.9956C95.3445 19.0049 95.551 19.0262 95.756 19.0592L95.3835 23.5145C95.0051 23.4556 94.6231 23.4243 94.2406 23.4209C92.2753 23.4209 90.8005 24.4944 89.8784 25.7202V36.1804H84.9329V23.8949C84.9329 21.8714 84.8099 20.6387 84.4712 19.7862L89.2952 18.9956C89.5414 19.5968 89.7553 21.3355 89.7553 22.2819H89.8211Z" fill="white" fill-opacity="0.5"/>
<path d="M105.473 32.3314C106.229 32.3175 106.981 32.2119 107.715 32.0167L108.667 35.6814C107.809 35.9963 106.488 36.4083 104.06 36.4083C99.206 36.4083 99.1134 33.6598 99.1134 30.499V23.4013H96.5327L96.8311 19.0166H99.1134V14.5081L104.028 13.5601V19.0219H108.242V23.4013H104.028V30.0197C104.028 31.509 104.367 32.3314 105.473 32.3314Z" fill="white" fill-opacity="0.5"/>
<path d="M109.193 33.9429L111.16 31.0989C112.633 32.4271 114.845 33.2815 116.842 33.2815C118.378 33.2815 119.453 32.742 119.453 31.6365C119.453 30.4674 118.594 30.0252 116.352 29.6149C113.247 29.0472 109.93 28.2867 109.93 24.3371C109.93 20.9553 112.627 18.9956 116.289 18.9956C119.639 18.9956 121.666 19.8799 123.478 21.3673L121.543 24.2416C119.885 23.0725 118.257 22.4092 116.719 22.4092C115.307 22.4092 114.508 22.9769 114.508 23.8949C114.508 24.9048 115.4 25.3098 117.427 25.6955C120.653 26.2649 124.063 27.0237 124.063 30.8478C124.063 34.9157 120.621 36.5341 116.842 36.5341C113.251 36.5341 110.852 35.3987 109.193 33.9429Z" fill="white" fill-opacity="0.5"/>
<path d="M135.795 22.2819C136.685 20.8668 138.313 18.9956 141.108 18.9956C141.316 19.0051 141.524 19.0262 141.73 19.0592L141.361 23.5145C140.982 23.4558 140.6 23.4245 140.218 23.4209C138.252 23.4209 136.776 24.4944 135.855 25.7202V36.1804H130.91V23.8949C130.91 21.8714 130.787 20.6387 130.448 19.7862L135.272 18.9956C135.518 19.5968 135.732 21.3355 135.732 22.2819H135.795Z" fill="white" fill-opacity="0.5"/>
<path d="M153.398 33.4388C152.414 34.7336 150.572 36.5341 147.715 36.5341C144.918 36.5341 142.921 35.1191 142.921 31.6366V19.022H147.868V30.1526C147.868 31.6684 148.421 32.4891 149.803 32.4891C151.123 32.4891 152.262 31.7639 153.368 30.7841V19.022H158.314V31.2899C158.314 33.3115 158.437 34.8591 158.804 35.7117L153.858 36.5323C153.612 35.8709 153.459 34.2913 153.459 33.4371L153.398 33.4388Z" fill="white" fill-opacity="0.5"/>
<path d="M21.9268 16.0427C21.1997 16.0334 20.5051 15.7237 19.994 15.1807C19.4828 14.6378 19.1963 13.9053 19.1963 13.142C19.198 12.7679 19.2701 12.3979 19.4083 12.0531C19.5467 11.7083 19.7484 11.3955 20.002 11.1326C20.2557 10.8697 20.5562 10.6619 20.8866 10.5211C21.2169 10.3803 21.5703 10.3093 21.9268 10.3121C22.2834 10.3095 22.6367 10.3807 22.9669 10.5216C23.2971 10.6625 23.5976 10.8703 23.8512 11.1331C24.1049 11.3959 24.3066 11.7086 24.4448 12.0534C24.5832 12.3981 24.6555 12.768 24.6576 13.142C24.6571 13.9051 24.3703 14.6373 23.8594 15.1802C23.3482 15.7231 22.654 16.033 21.9268 16.0427Z" fill="white" fill-opacity="0.5"/>
<path d="M21.9268 23.2032C21.2 23.1944 20.5058 22.8852 19.9947 22.343C19.4835 21.8007 19.1966 21.0689 19.1963 20.3061C19.198 19.9319 19.2701 19.5619 19.4083 19.2171C19.5467 18.8723 19.7484 18.5595 20.002 18.2965C20.2557 18.0337 20.5562 17.8259 20.8866 17.6852C21.2169 17.5444 21.5703 17.4732 21.9268 17.4762C22.2834 17.4736 22.6367 17.5447 22.9669 17.6857C23.2971 17.8264 23.5976 18.0342 23.8512 18.297C24.1049 18.56 24.3066 18.8726 24.4448 19.2174C24.5832 19.562 24.6555 19.9321 24.6576 20.3061C24.6567 21.0687 24.3696 21.8002 23.8587 22.3425C23.3475 22.8847 22.6535 23.1939 21.9268 23.2032Z" fill="white" fill-opacity="0.5"/>
<path d="M21.9268 30.3646C21.2004 30.3558 20.5063 30.047 19.9952 29.505C19.4842 28.9631 19.1972 28.2316 19.1963 27.4692C19.1979 27.095 19.2698 26.725 19.408 26.38C19.5462 26.0351 19.7479 25.7221 20.0015 25.4593C20.2552 25.1963 20.5559 24.9885 20.8862 24.8477C21.2168 24.7071 21.5703 24.6362 21.9268 24.6393C22.2834 24.6365 22.6369 24.7075 22.9673 24.8483C23.2974 24.989 23.5981 25.1968 23.8517 25.4598C24.1054 25.7226 24.3072 26.0354 24.4454 26.3802C24.5836 26.7251 24.6557 27.0952 24.6576 27.4692C24.6562 28.2314 24.3689 28.9626 23.858 29.5045C23.347 30.0463 22.6533 30.3553 21.9268 30.3646Z" fill="white" fill-opacity="0.5"/>
<path d="M21.9268 37.5261C21.2 37.5172 20.5058 37.2082 19.9947 36.6659C19.4835 36.1235 19.1966 35.3916 19.1963 34.6288C19.198 34.2548 19.2701 33.8848 19.4083 33.54C19.5467 33.195 19.7484 32.8822 20.002 32.6194C20.2557 32.3565 20.5562 32.1488 20.8866 32.0079C21.2169 31.8671 21.5703 31.7962 21.9268 31.7989C22.2834 31.7963 22.6367 31.8677 22.9669 32.0084C23.2971 32.1494 23.5976 32.3572 23.8512 32.62C24.1049 32.8828 24.3066 33.1956 24.4448 33.5402C24.5832 33.885 24.6555 34.2548 24.6576 34.6288C24.6567 35.3914 24.3696 36.1231 23.8587 36.6654C23.3475 37.2075 22.6535 37.5167 21.9268 37.5261Z" fill="white" fill-opacity="0.5"/>
<path d="M127.054 36.7585C126.327 36.7498 125.633 36.4408 125.122 35.8983C124.61 35.356 124.324 34.6242 124.323 33.8614C124.323 33.1016 124.611 32.3728 125.123 31.8354C125.635 31.2981 126.33 30.9961 127.054 30.9961C127.778 30.9961 128.473 31.2981 128.985 31.8354C129.497 32.3728 129.785 33.1016 129.785 33.8614C129.784 34.6242 129.497 35.356 128.986 35.8983C128.475 36.4408 127.781 36.7498 127.054 36.7585Z" fill="white" fill-opacity="0.5"/>
<path d="M21.9268 44.6878C21.2009 44.679 20.5074 44.3707 19.9964 43.8294C19.4855 43.2882 19.198 42.5577 19.1963 41.796C19.198 41.4218 19.2701 41.0518 19.4083 40.707C19.5467 40.3622 19.7484 40.0494 20.002 39.7864C20.2557 39.5236 20.5562 39.3158 20.8866 39.1751C21.2169 39.0341 21.5703 38.9631 21.9268 38.9659C22.2834 38.9635 22.6367 39.0346 22.9669 39.1754C23.2971 39.3164 23.5976 39.5241 23.8512 39.7869C24.1049 40.0497 24.3066 40.3626 24.4448 40.7072C24.5832 41.0519 24.6555 41.4218 24.6576 41.796C24.6553 42.5576 24.3677 43.2879 23.8569 43.8289C23.346 44.37 22.6526 44.6785 21.9268 44.6878Z" fill="white" fill-opacity="0.5"/>
</g>
</svg>
