<svg width="178" height="55" viewBox="0 0 178 55" fill="none" xmlns="http://www.w3.org/2000/svg">
<path opacity="0.41" fill-rule="evenodd" clip-rule="evenodd" d="M33.3314 22.8595C32.4588 24.7501 30.5392 26.1251 28.4451 26.1251C27.049 26.1251 25.6529 25.6095 24.7804 24.5782C23.7333 23.547 23.2098 22.3439 23.2098 20.9689C23.2098 18.9064 24.4314 17.0157 26.5255 16.1564C28.4451 15.297 30.7137 15.8126 32.2843 17.3595C33.8549 18.7345 34.2039 20.9689 33.3314 22.8595ZM37.5196 17.7032C38.0431 16.3282 39.0902 15.6407 40.4863 16.1564C41.8824 16.672 42.4059 17.8751 41.8824 19.0782C41.8824 19.0782 36.298 33.3439 30.1902 41.0782C28.2706 43.4845 24.6059 46.0626 20.9412 46.2345C19.8941 46.4064 18.8471 46.4064 17.9745 46.2345C16.4039 46.0626 16.0549 45.0314 16.0549 44.172C16.2294 44.6876 17.102 46.0626 19.1961 43.3126C20.9412 41.0782 21.9882 38.1564 21.8137 35.2345C21.8137 31.4532 19.5451 28.0157 19.5451 28.0157L14.4843 18.9064C13.7863 17.7032 14.8333 16.1564 16.0549 15.6407C17.2765 15.297 18.149 15.9845 18.8471 17.1876L24.9549 27.672V27.8439C25.8275 29.047 27.2235 29.7345 28.6196 29.7345C31.4118 29.7345 33.1569 28.0157 34.0294 26.1251C35.0765 23.2032 37.5196 17.7032 37.5196 17.7032Z" fill="url(#paint0_linear_10016_9993)"/>
<path opacity="0.4" fill-rule="evenodd" clip-rule="evenodd" d="M60.0312 33.8594H64.2195V13.2344H60.0312V33.8594ZM76.6097 22.8594C76.0862 22.3438 75.3881 22.1719 74.341 22.1719C73.294 22.1719 72.4214 22.3438 71.8979 22.8594C71.3744 23.375 70.8509 23.8906 70.6763 24.75H77.4822C77.3077 24.0625 77.1332 23.375 76.6097 22.8594ZM71.7234 29.7344C72.4214 30.25 73.4685 30.5937 74.6901 30.5937C76.6097 30.5937 78.1803 30.0781 79.5763 29.2188L81.3214 32.3125C80.2744 33 79.2273 33.5156 78.1803 33.8594C77.1332 34.2031 75.7371 34.375 74.5156 34.375C73.1195 34.375 72.0724 34.2031 71.0254 33.8594C69.9783 33.5156 69.1058 33 68.4077 32.3125C67.7097 31.625 67.1861 30.7656 66.8371 29.9062C66.4881 28.875 66.3136 27.8438 66.3136 26.8125C66.3136 25.7813 66.4881 24.75 66.8371 23.7188C67.1861 22.6875 67.7097 22 68.4077 21.3125C69.1058 20.625 69.9783 20.1094 71.0254 19.5937C72.0724 19.25 73.1195 18.9062 74.341 18.9062C75.3881 18.9062 76.4352 19.0781 77.3077 19.4219C78.1803 19.7656 79.0528 20.2813 79.5763 20.7969C80.2744 21.4844 80.7979 22.1719 81.1469 23.0312C81.496 23.8906 81.6705 24.9219 81.6705 25.9531V26.9844C81.6705 27.3281 81.496 27.6719 81.496 28.0156H70.5018C70.6763 28.5312 71.0254 29.2187 71.7234 29.7344ZM110.639 28.0156C110.639 28.7031 110.29 29.2187 109.767 29.7344C109.069 30.25 108.196 30.4219 106.974 30.4219C106.276 30.4219 105.753 30.25 105.404 30.0781C105.055 29.7344 104.88 29.3906 104.88 28.875C104.88 28.3594 105.055 28.0156 105.578 27.6719C106.102 27.3281 106.8 27.1562 107.672 27.1562C108.719 27.1562 109.767 27.3281 110.639 27.5V28.0156ZM116.223 30.5937H115.7C115.176 30.5937 114.827 30.25 114.827 29.3906V24.9219C114.827 23.8906 114.653 23.0312 114.478 22.3437C114.129 21.4844 113.78 20.9688 113.257 20.2813C112.733 19.7656 112.035 19.25 111.163 18.9062C110.29 18.5625 109.243 18.3906 108.021 18.3906C106.8 18.3906 105.753 18.5625 104.706 18.7344C103.659 19.0781 102.612 19.4219 101.565 20.1094L103.135 23.2031C104.706 22.5156 106.276 22.1719 108.021 22.1719C108.894 22.1719 109.592 22.3437 110.116 22.6875C110.639 23.0312 110.814 23.5469 110.814 24.2344V24.75C110.29 24.5781 109.941 24.5781 109.418 24.4062C108.894 24.4062 108.37 24.2344 107.672 24.2344C106.625 24.2344 105.578 24.4063 104.88 24.5781C104.008 24.75 103.31 25.0938 102.612 25.4375C101.914 25.7813 101.565 26.2969 101.216 26.9844C100.867 27.5 100.692 28.3594 100.692 29.0469C100.692 30.5937 101.216 31.7969 102.263 32.6563C103.31 33.5156 104.706 33.8594 106.451 33.8594C107.672 33.8594 108.545 33.6875 109.418 33.3438C110.29 33 110.988 32.3125 111.512 31.625C111.686 32.4844 112.035 33 112.559 33.3438C113.082 33.6875 113.78 33.8594 114.653 33.8594C115.002 33.8594 115.351 33.8594 115.7 33.6875C115.874 33.6875 116.049 33.5156 116.223 33.5156V30.5937ZM94.5842 28.5313C93.8862 29.7344 92.6646 30.4219 91.094 30.4219C90.0469 30.4219 89.1744 30.0781 88.6509 29.3906C88.1273 28.7031 87.7783 27.6719 87.7783 26.4687C87.7783 25.2656 88.1273 24.2344 88.9999 23.5469C89.8724 22.8594 90.9195 22.3437 92.3156 22.3437C92.8391 22.3437 93.1881 22.3438 93.7116 22.5156C94.0607 22.5156 94.5842 22.6875 94.9332 22.8594V28.5313H94.5842ZM98.7724 19.9375C97.8999 19.5938 96.8528 19.25 95.8058 19.0781C94.7587 18.9063 93.5371 18.7344 92.3156 18.7344C91.094 18.7344 89.8724 18.9062 88.8254 19.25C87.7783 19.5937 86.9058 20.1094 86.0332 20.7969C85.1607 21.4844 84.6371 22.3437 84.1136 23.2031C83.5901 24.2344 83.4156 25.2656 83.4156 26.4687C83.4156 27.8437 83.5901 28.875 83.9391 29.9062C84.2881 30.9375 84.8116 31.625 85.5097 32.3125C86.2077 33 86.9058 33.3438 87.7783 33.6875C88.6509 34.0313 89.5234 34.2031 90.5705 34.2031C91.443 34.2031 92.3156 34.0313 93.0136 33.8594C93.7116 33.6875 94.2352 33.3438 94.7587 32.8281V34.375C94.7587 35.4063 94.2352 36.0937 93.5371 36.6094C92.8391 37.125 91.792 37.4687 90.5705 37.4687C89.5234 37.4687 88.4763 37.2969 87.6038 36.9531L86.5567 40.3906C86.7312 40.3906 89.5234 41.0781 90.745 41.0781C92.1411 41.0781 93.1881 40.9063 94.2352 40.5625C95.2822 40.2188 96.1548 39.7031 96.8528 39.0156C97.5509 38.3281 98.9469 36.9531 98.9469 33.6875L98.7724 19.9375ZM118.318 33.8594H122.68V12.7188H118.318V33.8594ZM132.278 30.4219C132.976 30.4219 133.5 30.25 134.023 30.0781C134.547 29.9063 135.07 29.5625 135.419 29.2188C135.769 28.875 136.118 28.3594 136.467 27.8438C136.641 27.3281 136.816 26.6406 136.816 25.9531C136.816 24.5781 136.467 23.7187 135.769 23.0312C135.07 22.3437 134.198 22 133.151 22C131.755 22 130.533 22.5156 129.486 23.375V30.0781C130.533 30.4219 131.406 30.4219 132.278 30.4219ZM129.661 19.5937C130.184 19.25 130.882 18.9062 131.58 18.7344C132.278 18.5625 132.976 18.3906 133.849 18.3906C134.896 18.3906 135.943 18.5625 136.816 18.9062C137.688 19.25 138.561 19.7656 139.259 20.2813C139.957 20.9688 140.48 21.6562 140.829 22.6875C141.178 23.7187 141.353 24.75 141.353 26.125C141.353 27.3281 141.178 28.5313 140.655 29.5625C140.131 30.5938 139.608 31.4531 138.735 32.1406C137.863 32.8281 136.99 33.3438 135.769 33.6875C134.721 34.0313 133.5 34.2031 132.278 34.2031C131.057 34.2031 129.835 34.0313 128.788 33.8594C127.741 33.6875 126.519 33.3438 125.298 33V12.7188H129.661V19.5937ZM153.394 22.6875C152.87 22.1719 152.172 22 151.125 22C150.078 22 149.206 22.1719 148.682 22.6875C147.984 23.2031 147.635 23.7188 147.286 24.5781H154.267C154.092 23.7188 153.918 23.2031 153.394 22.6875ZM148.333 29.7344C149.031 30.25 150.078 30.5937 151.3 30.5937C153.219 30.5937 154.965 30.0781 156.361 29.2188L158.28 32.3125C157.233 33 156.186 33.5156 154.965 33.8594C153.743 34.2031 152.521 34.375 151.125 34.375C149.729 34.375 148.508 34.2031 147.461 33.8594C146.414 33.5156 145.541 33 144.843 32.3125C144.145 31.625 143.621 30.7656 143.272 29.7344C142.923 28.7031 142.749 27.6719 142.749 26.4687C142.749 25.4375 142.923 24.2344 143.272 23.375C143.621 22.3438 144.145 21.4844 145.018 20.7969C145.716 20.1094 146.588 19.5938 147.635 19.0781C148.682 18.7344 149.904 18.3906 151.125 18.3906C152.172 18.3906 153.219 18.5625 154.092 18.9062C154.965 19.25 155.837 19.7656 156.535 20.4531C157.233 21.1406 157.757 21.8281 158.106 22.6875C158.455 23.5469 158.629 24.5781 158.629 25.6094V26.6406C158.629 26.9844 158.455 27.3281 158.455 27.6719H147.112C147.286 28.5313 147.635 29.2187 148.333 29.7344ZM169.623 29.9062C169.274 30.0781 168.925 30.25 168.402 30.4219C168.053 30.5938 167.529 30.5937 167.006 30.5937C166.308 30.5937 165.784 30.4219 165.435 30.0781C165.086 29.7344 164.912 29.2188 164.912 28.5313V22.5156H169.972V18.7344H164.912V15.125H160.549V19.0781H158.106V19.5937C160.374 21.1406 160.549 24.2344 160.549 25.0938V29.2188C160.549 31.1094 161.072 32.4844 161.945 33.3438C162.992 34.375 164.214 34.8906 166.133 34.8906C167.18 34.8906 168.053 34.7188 168.751 34.5469C169.623 34.375 170.321 34.0313 171.019 33.5156L169.623 29.9062Z" fill="white"/>
<g opacity="0.41">
<path opacity="0.4" d="M28.7942 29.3906L27.5726 29.5625C27.9216 29.5625 28.2706 29.7344 28.6196 29.7344C31.4118 29.7344 33.1569 28.0156 34.0295 26.125C35.6 23.0312 37.8687 17.5312 37.8687 17.5312C38.2177 16.8437 38.7412 16.1563 39.2647 15.9844C39.0902 15.9844 38.9157 15.8125 38.9157 15.8125C37.5196 15.4687 36.4726 16.8437 36.1236 17.875C35.7746 18.9062 34.7275 29.5625 28.7942 29.3906ZM24.4314 27.3281L24.7804 27.8438V28.0156L24.9549 28.1875C24.7804 27.8437 24.6059 27.6719 24.4314 27.3281ZM18.1491 42.4531C17.6255 42.625 17.102 42.625 16.9275 42.625C16.5785 42.625 16.0549 42.4531 16.0549 42.4531V44.1719C16.2295 44.6875 17.102 45.8906 19.1961 43.3125C20.9412 41.0781 21.9883 38.1563 21.8138 35.2344C21.8138 31.4531 19.5451 28.0156 19.5451 28.0156L14.4844 18.9062C13.7863 17.7031 14.8334 16.1563 16.0549 15.6406H16.404L16.2295 15.4688C15.5314 15.4688 14.8334 15.4687 14.3098 15.8125C13.0883 16.3281 12.0412 18.0469 13.2628 19.7656C15.8804 22.8594 18.1491 26.125 20.0687 29.7344C22.6863 34.5469 22.1628 40.7344 18.1491 42.4531Z" fill="#6B605E"/>
</g>
<path opacity="0.41" d="M23.5589 24.7502C24.7805 25.7815 26.3511 26.1252 27.9217 25.9533C26.8746 25.7815 25.8276 25.2658 25.1295 24.5783C24.0825 23.5471 23.5589 22.344 23.5589 20.969C23.5589 18.9065 24.7805 17.0158 26.8746 16.1565C27.2236 15.9846 27.5727 15.9846 27.9217 15.8127C27.3982 15.8127 27.0491 15.6408 26.5256 15.8127C24.4315 15.9846 22.5119 17.3596 21.9884 19.4221C21.2903 21.1408 21.9884 23.3752 23.5589 24.7502Z" fill="#6B605E"/>
<path opacity="0.4" d="M21.8138 37.1252C21.8138 37.6408 21.6392 38.1565 21.4647 38.6721C21.6392 38.3283 21.6392 37.8127 21.8138 37.1252ZM20.2432 42.1096C20.7667 41.0783 21.2902 40.0471 21.4647 39.0158C21.1157 40.0471 20.7667 41.0783 20.2432 42.1096Z" fill="#B2B2B2"/>
<path opacity="0.4" d="M45.3727 10.4844V10.1406C45.3727 9.96875 45.1981 9.96875 45.1981 9.79687V9.625C45.0236 9.28125 44.6746 8.9375 44.3256 8.76562L44.1511 8.59375H43.6276C43.4531 8.42187 43.104 8.42188 42.9295 8.25C40.3119 7.39063 34.9021 6.70312 28.4452 6.70312C21.9883 6.70312 16.404 7.39063 13.9609 8.25C13.6119 8.25 13.2629 8.42187 13.0883 8.59375C13.0883 8.59375 12.9138 8.59375 12.7393 8.76562H12.5648C12.3903 9.10937 12.0413 9.28125 11.8668 9.625C11.6923 9.79687 11.5178 10.1406 11.3432 10.3125V10.4844C10.2962 12.8906 9.59814 18.5625 9.59814 25.0938C9.59814 31.625 10.2962 37.4688 11.3432 39.7031C11.5178 40.0469 11.6923 40.2188 11.8668 40.5625C12.0413 40.9063 12.3903 41.0781 12.5648 41.25C12.7393 41.4219 13.0883 41.5938 13.2629 41.7656H13.4374C14.4844 42.1094 15.5315 42.4531 16.5785 42.625H16.753C16.9276 42.625 17.2766 42.4531 17.9746 42.4531C21.9883 40.7344 22.5119 34.5469 19.8942 29.5625C17.9746 25.9531 15.706 22.6875 13.0883 19.5938C11.8668 17.875 13.0883 16.1563 14.1354 15.6406C14.6589 15.4688 15.357 15.4688 15.8805 15.6406L16.055 15.8125C17.1021 15.6406 17.9746 16.3281 18.4981 17.3594L24.606 27.8438L24.4315 27.3281C24.606 27.6719 24.7805 27.8438 24.955 28.0156C25.8276 29.0469 27.0491 29.7344 28.4452 29.7344C28.0962 29.7344 27.7472 29.7344 27.3981 29.5625L28.6197 29.3906C34.553 29.3906 35.7746 18.9063 35.9491 17.875C36.1236 16.8437 37.1707 15.6406 38.7413 15.8125C38.9158 15.8125 39.0903 15.8125 39.0903 15.9844C39.6138 15.8125 40.1374 15.8125 40.6609 15.9844C42.057 16.5 42.5805 17.7031 42.057 18.9063C42.057 18.9063 36.4727 33.1719 30.3648 40.9063C29.6668 41.7656 28.7942 42.625 27.7472 43.3125H30.7138C31.7609 43.3125 32.808 43.3125 33.855 43.1406C38.0432 42.7969 41.3589 42.2813 43.104 41.7656H43.2785C43.453 41.5938 43.8021 41.5938 43.9766 41.4219C44.3256 41.25 44.5001 40.9063 44.8491 40.5625C45.0236 40.3906 45.1981 40.0469 45.3727 39.875V39.7031C46.4197 37.2969 47.1178 31.7969 47.1178 25.0938C46.9432 18.5625 46.2452 12.8906 45.3727 10.4844ZM33.6805 22.6875C32.8079 24.5781 30.8883 25.9531 28.7942 25.9531C27.3981 25.9531 26.0021 25.4375 25.1295 24.4062C24.0825 23.375 23.5589 22.1719 23.5589 20.7969C23.5589 18.7344 24.7805 16.8438 26.8746 15.9844C28.7942 15.125 31.0629 15.6406 32.6334 17.1875C34.0295 18.5625 34.553 20.7969 33.6805 22.6875Z" fill="#B2B2B2"/>
<defs>
<linearGradient id="paint0_linear_10016_9993" x1="27.6493" y1="20.5409" x2="24.4961" y2="48.1842" gradientUnits="userSpaceOnUse">
<stop offset="0.31" stop-color="white"/>
<stop offset="0.47" stop-color="#FAFAFA"/>
<stop offset="0.64" stop-color="#EDEDED"/>
<stop offset="0.83" stop-color="#DADADA"/>
<stop offset="1" stop-color="#C6C6C6"/>
</linearGradient>
</defs>
</svg>
