<svg width="178" height="55" viewBox="0 0 178 55" fill="none" xmlns="http://www.w3.org/2000/svg">
<path fill-rule="evenodd" clip-rule="evenodd" d="M36.8278 13.75V29.0044C36.8278 31.5872 36.3111 33.4701 35.185 35.0259C32.7314 38.4194 28.1416 40.6101 25.4289 41.25C22.7159 40.6101 18.1261 38.4194 15.6726 35.0259C14.5471 33.4701 14.0298 31.5872 14.0298 29.0044V13.75H36.8278ZM15.7995 15.4626V29.0044C15.7995 31.2245 16.2076 32.779 17.1212 34.0441C19.2013 36.9205 23.1368 38.8279 25.4289 39.4769C27.7202 38.8279 31.6564 36.9205 33.7359 34.0441C34.6507 32.779 35.0581 31.2245 35.0581 29.0044V15.4626H15.7995Z" fill="white" fill-opacity="0.5"/>
<path opacity="0.6" fill-rule="evenodd" clip-rule="evenodd" d="M24.5521 37.3825C22.4948 36.5577 19.949 34.9515 18.5358 32.9977C18.0715 32.3547 17.5371 31.5732 17.5371 29.2114C18.0393 30.2537 19.3705 30.9372 20.8114 30.9372H24.5521V37.3825Z" fill="white" fill-opacity="0.5"/>
<path fill-rule="evenodd" clip-rule="evenodd" d="M21.8428 29.2188H24.9597C25.856 29.2188 26.3055 28.787 26.3055 28.787V37.3828C28.3443 36.542 30.9323 34.9405 32.3142 33.0421C32.7825 32.3986 33.3205 31.3583 33.3205 28.9965V17.1875H26.3055C26.3055 18.8512 26.3055 24.1581 26.3055 24.2308C26.3055 24.6654 26.0377 24.9219 25.5865 24.9219H24.3927C23.9406 24.9219 23.6751 24.6654 23.6751 24.2308V17.1875H17.5371V25.073C17.5371 27.5471 17.8153 29.2188 21.8428 29.2188Z" fill="white" fill-opacity="0.5"/>
<path fill-rule="evenodd" clip-rule="evenodd" d="M44.6349 22.9886C45.6034 21.4959 47.3552 20.625 49.2662 20.625C51.0822 20.625 52.4744 21.1071 53.4133 21.9012L52.1317 23.6349C51.3462 23.0632 50.499 22.7977 49.2769 22.7977C48.2679 22.7977 47.2754 23.2798 46.7042 24.0587C46.3914 24.486 46.202 25.0822 46.202 25.8926V29.1098C46.202 29.9178 46.3914 30.5162 46.7042 30.9425C47.2754 31.7214 48.2679 32.2046 49.2769 32.2046C50.6918 32.2046 51.7163 31.7983 52.5208 31.2661L53.7523 33.0196C52.629 33.8592 51.3415 34.375 49.2746 34.375C47.3646 34.375 45.6034 33.5041 44.6349 32.0126C44.1304 31.2359 43.8423 30.323 43.8423 28.9164V26.0836C43.8423 24.677 44.1304 23.7653 44.6349 22.9886ZM123.482 30.9425C123.795 30.5162 123.984 29.9178 123.984 29.1098V25.8926C123.984 25.0822 123.795 24.486 123.482 24.0587C122.913 23.2798 121.919 22.7977 120.912 22.7977C119.902 22.7977 118.91 23.2798 118.34 24.0587C118.027 24.486 117.838 25.0822 117.838 25.8926V29.1098C117.838 29.9178 118.027 30.5162 118.34 30.9425C118.91 31.7214 119.901 32.2046 120.91 32.2046C121.919 32.2046 122.913 31.7214 123.482 30.9425ZM120.912 20.625C122.821 20.625 124.583 21.4959 125.552 22.9886C126.057 23.7653 126.345 24.677 126.345 26.0836V28.9164C126.345 30.323 126.057 31.2359 125.552 32.0126C124.583 33.5041 122.82 34.375 120.91 34.375C119.001 34.375 117.239 33.5041 116.269 32.0126C115.764 31.2359 115.476 30.323 115.476 28.9164V26.0836C115.476 24.677 115.764 23.7653 116.269 22.9886C117.239 21.4959 119.001 20.625 120.912 20.625ZM58.3849 28.5077H63.9158V34.0943H66.2851V20.922H63.9158V26.3467H58.3849V20.922H56.0037V34.0943H58.3849V28.5077ZM129.206 20.922V34.0943H131.603V25.2498L137.108 33.7265L137.215 34.0943H139.476V20.922H137.108V29.7478L131.576 21.2888L131.469 20.9242L129.206 20.922ZM93.0293 26.4469L89.8675 32.5447H88.2885L85.128 26.4469V34.0943H82.7576V20.922L85.0554 20.9242L85.128 21.3085L88.893 28.672H89.2333L93.0293 21.3237L93.1197 20.9242L95.3996 20.922V34.0943H93.0293V26.4469ZM157.649 34.0943H160.019V23.0935H163.97V20.922H153.699V23.0935H157.649V34.0943ZM112.616 34.0943H110.245V20.9254L112.616 20.922V34.0943ZM147.681 24.1577L146.029 28.8233H149.404L147.751 24.1577H147.681ZM144.065 34.0943H141.464L146.588 20.922H148.845L153.968 34.0943H151.369L150.16 30.9961H145.275L144.065 34.0943ZM72.8371 28.8233L74.4888 24.1577H74.559L76.2118 28.8233H72.8371ZM68.2724 34.0943H70.8725L72.0827 30.9961H76.9674L78.1764 34.0943H80.7766L75.6537 20.922H73.3939L68.2724 34.0943ZM105.669 25.208C105.669 25.9124 105.398 26.4725 104.955 26.8264C104.608 27.1035 104.163 27.3295 103.26 27.3295H100.937V23.0935H103.26C104.163 23.0935 104.608 23.3217 104.955 23.5988C105.398 23.9516 105.669 24.5035 105.669 25.208ZM106.45 21.8721C105.698 21.2654 104.77 20.922 103.316 20.922L98.5652 20.9254V34.0943H100.937V29.501H103.316C104.77 29.501 105.698 29.1576 106.45 28.552C107.345 27.8336 108.028 26.7577 108.028 25.2115C108.028 23.6663 107.345 22.5904 106.45 21.8721Z" fill="white" fill-opacity="0.5"/>
</svg>
