<svg width="178" height="55" viewBox="0 0 178 55" fill="none" xmlns="http://www.w3.org/2000/svg">
<mask id="mask0_10016_9973" style="mask-type:luminance" maskUnits="userSpaceOnUse" x="19" y="12" width="140" height="31">
<path d="M158.804 12.0312H19.1963V42.9688H158.804V12.0312Z" fill="white"/>
</mask>
<g mask="url(#mask0_10016_9973)">
<path fill-rule="evenodd" clip-rule="evenodd" d="M20.6461 42.9688C19.8453 42.9688 19.1963 42.365 19.1963 41.6199V13.3801C19.1963 12.635 19.8453 12.0312 20.6461 12.0312H72.4699C76.4102 12.0312 79.6036 15.0028 79.6036 18.6684V41.6199C79.6036 42.365 78.9546 42.9688 78.1537 42.9688H20.6461ZM63.6506 18.8633V21.5363H60.4103V36.1883H57.5558V21.5363H54.2893V18.8633H63.6506ZM70.9945 29.1098H67.8823L69.4509 22.0308L70.9945 29.1098ZM71.3283 31.8818L72.3569 36.1883H75.2115L71.2512 18.8633H67.625L63.6647 36.1883H66.5193L67.5737 31.8818H71.3283ZM41.2978 18.8633H51.6604V21.4414H45.7766L49.1544 27.496L45.7569 33.6634L51.6677 33.6944L51.653 36.2725L41.3175 36.2184L46.1183 27.5038L41.2978 18.8633ZM36.0639 18.8863L31.6549 26.665L27.2236 18.8863H24.5387V36.1245H27.2236V24.2254L31.6559 31.4225L36.0639 24.2254L36.086 36.1273L38.7709 36.1218L38.7321 18.8825L36.0639 18.8863Z" fill="white" fill-opacity="0.5"/>
<path fill-rule="evenodd" clip-rule="evenodd" d="M83.6304 18.7031H87.8135C88.532 18.7031 89.2079 18.7828 89.8408 18.9422C90.4739 19.1017 91.0729 19.3533 91.6374 19.6974C92.2019 20.0413 92.6511 20.5363 92.9848 21.1824C93.3183 21.8283 93.4851 22.5961 93.4851 23.4853V24.4418C93.4851 26.3211 92.6297 27.6217 90.9188 28.3432L93.7675 36.322H90.7649L88.3781 29.199H86.4789V36.322H83.6304V18.7031ZM90.6877 24.0642V23.863C90.6877 22.9737 90.4568 22.3401 89.9949 21.9625C89.5328 21.5851 88.9513 21.3962 88.2498 21.3962H86.4789V26.5057H88.2498C88.9341 26.5057 89.5115 26.317 89.9822 25.9395C90.4527 25.5619 90.6877 24.9368 90.6877 24.0642ZM103.871 36.322L102.845 31.9425H99.0977L98.0454 36.322H95.1969L99.149 18.7031H102.768L106.72 36.322H103.871ZM99.4057 29.1235H102.511L100.971 21.9249L99.4057 29.1235ZM115.694 18.7031V21.4215H112.461V36.322H109.612V21.4215H106.353V18.7031H115.694ZM117.765 36.322V18.7031H120.716V36.322H117.765ZM130.923 18.7031H133.669V36.322H130.871L125.765 25.0963V36.322H122.993V18.7031H125.816L130.923 29.9289V18.7031ZM135.946 30.4322V24.5678C135.946 23.4434 136.091 22.4744 136.382 21.6605C136.673 20.8467 137.07 20.2175 137.575 19.7728C138.08 19.3282 138.627 19.001 139.217 18.7913C139.807 18.5814 140.445 18.4766 141.129 18.4766C141.796 18.4766 142.417 18.5773 142.989 18.7785C143.563 18.98 144.102 19.2988 144.607 19.735C145.111 20.1714 145.509 20.7922 145.8 21.5976C146.091 22.403 146.244 23.3595 146.262 24.4669V24.7187H143.49V24.5425C143.457 23.3846 143.226 22.5373 142.797 22.0003C142.37 21.4634 141.814 21.1949 141.129 21.1949C139.572 21.1949 138.794 22.378 138.794 24.7438V30.2309C138.794 32.6138 139.572 33.8051 141.129 33.8051C141.831 33.8051 142.4 33.5325 142.836 32.9871C143.272 32.4417 143.49 31.5566 143.49 30.3316V29.199H141.207V26.4806H146.262V30.4322C146.262 31.5566 146.117 32.5298 145.826 33.352C145.535 34.1743 145.137 34.8076 144.633 35.2523C144.128 35.6971 143.584 36.02 143.002 36.2215C142.421 36.4227 141.796 36.5234 141.129 36.5234C140.445 36.5234 139.807 36.4186 139.217 36.2087C138.627 35.999 138.08 35.6718 137.575 35.2272C137.07 34.7825 136.673 34.1533 136.382 33.3395C136.091 32.5256 135.946 31.5566 135.946 30.4322ZM148.23 30.8602H150.976C150.976 31.8502 151.216 32.5885 151.694 33.0751C152.173 33.5619 152.764 33.8051 153.465 33.8051C154.27 33.8051 154.886 33.587 155.314 33.1506C155.741 32.7143 155.955 32.102 155.955 31.3132C155.955 30.4743 155.719 29.866 155.249 29.4884C154.779 29.111 153.996 28.7963 152.902 28.5445C152.49 28.4606 152.123 28.3642 151.798 28.255C151.472 28.1461 151.101 27.9656 150.681 27.714C150.262 27.4622 149.911 27.177 149.629 26.8582C149.347 26.5394 149.107 26.1073 148.91 25.5619C148.713 25.0166 148.616 24.4083 148.616 23.7371C148.616 22.7807 148.756 21.95 149.039 21.2453C149.321 20.5404 149.706 19.9951 150.193 19.6092C150.681 19.2232 151.207 18.938 151.772 18.7535C152.337 18.5689 152.943 18.4766 153.594 18.4766C154.244 18.4766 154.847 18.573 155.404 18.766C155.959 18.959 156.481 19.2653 156.968 19.6847C157.456 20.1042 157.846 20.6956 158.137 21.4593C158.428 22.2228 158.573 23.1246 158.573 24.1649H155.827C155.827 23.1918 155.617 22.4534 155.198 21.95C154.779 21.4466 154.248 21.1949 153.607 21.1949C152.965 21.1949 152.447 21.4046 152.054 21.8242C151.661 22.2437 151.464 22.8226 151.464 23.561C151.464 23.8965 151.524 24.1986 151.644 24.4669C151.763 24.7356 151.901 24.9452 152.054 25.0963C152.208 25.2474 152.426 25.3815 152.708 25.499C152.991 25.6164 153.217 25.6962 153.389 25.7381C153.56 25.78 153.791 25.8347 154.082 25.9017C154.168 25.9184 154.227 25.9268 154.261 25.9268C157.29 26.5645 158.804 28.2676 158.804 31.0363C158.804 32.0432 158.663 32.9117 158.381 33.6414C158.098 34.3714 157.7 34.9418 157.186 35.3531C156.674 35.7641 156.114 36.062 155.506 36.2465C154.899 36.4311 154.218 36.5234 153.465 36.5234C152.798 36.5234 152.169 36.4268 151.58 36.234C150.989 36.041 150.437 35.7347 149.924 35.3153C149.41 34.8958 149 34.3044 148.692 33.5407C148.385 32.7773 148.23 31.8837 148.23 30.8602Z" fill="white" fill-opacity="0.5"/>
</g>
</svg>
