<svg width="178" height="36" viewBox="0 0 178 36" fill="none" xmlns="http://www.w3.org/2000/svg">
<path d="M0 4.27759V31.0125C0 33.375 1.91515 35.2901 4.27759 35.2901H31.0125C33.375 35.2901 35.2901 33.375 35.2901 31.0125V8.90655C35.2901 7.23596 33.9358 5.88168 32.2652 5.88168H32.1812C30.557 5.88168 29.2404 4.56502 29.2404 2.94084C29.2404 1.31666 27.9237 0 26.2995 0H4.27759C1.91514 0 0 1.91515 0 4.27759Z" fill="#009CF3"/>
<path fill-rule="evenodd" clip-rule="evenodd" d="M24.7577 11.8171C25.2362 11.8171 25.624 11.4293 25.624 10.9509V8.35203C25.624 7.87361 25.2362 7.48576 24.7577 7.48576H16.0951H12.63C12.1516 7.48576 11.7637 7.8736 11.7637 8.35203L11.7637 11.8171L11.7637 13.8314C11.7637 14.3098 12.1516 14.6977 12.63 14.6977H15.2288C15.7072 14.6977 16.0951 14.3098 16.0951 13.8314V12.6834C16.0951 12.205 16.4829 11.8171 16.9613 11.8171L24.7577 11.8171ZM19.9935 21.3461C20.4719 21.3461 20.8597 20.9583 20.8597 20.4798V17.881C20.8597 17.4026 20.4719 17.0147 19.9935 17.0147H16.095L12.6301 17.0147C12.1517 17.0147 11.7639 17.4026 11.7639 17.881L11.7637 26.9769C11.7637 27.4553 12.1515 27.8431 12.63 27.8431H15.2288C15.7072 27.8431 16.095 27.4553 16.095 26.9769V22.2124C16.095 21.7339 16.4829 21.3461 16.9613 21.3461L19.9935 21.3461Z" fill="white"/>
<path d="M57.1479 9.096C57.8704 9.096 58.1035 9.32909 58.1035 10.0517V11.6133C58.1035 12.3126 57.8704 12.5457 57.1479 12.5457H50.6215V15.8788H55.9825C56.705 15.8788 56.9381 16.1119 56.9381 16.8344V18.3961C56.9381 19.0954 56.705 19.3284 55.9825 19.3284H50.6215V24.6894C50.6215 25.412 50.3651 25.6451 49.6658 25.6451H47.7779C47.0786 25.6451 46.8222 25.412 46.8222 24.6894V10.0517C46.8222 9.32909 47.0786 9.096 47.7779 9.096H57.1479ZM64.241 19.9112C64.241 21.5894 65.2432 22.545 67.2011 22.545C69.1824 22.545 70.1613 21.5894 70.1613 19.9112V10.0517C70.1613 9.32909 70.3944 9.096 71.117 9.096H73.005C73.7042 9.096 73.9606 9.32909 73.9606 10.0517V19.8179C73.9606 23.5706 71.6298 25.9947 67.2011 25.9947C62.7958 25.9947 60.465 23.5706 60.465 19.8179V10.0517C60.465 9.32909 60.6981 9.096 61.4206 9.096H63.3086C64.0079 9.096 64.241 9.32909 64.241 10.0517V19.9112ZM76.5806 13.9675C76.5806 10.9607 78.8649 8.74637 83.2236 8.74637C86.6266 8.74637 88.398 9.88849 89.4702 12.1727C89.7966 12.8254 89.6101 13.1517 88.9575 13.4314L87.186 14.2006C86.58 14.4803 86.3236 14.3637 85.974 13.7344C85.4845 12.7554 84.692 12.196 83.2236 12.196C81.3123 12.196 80.4732 12.6855 80.4732 13.8043C80.4732 15.063 82.0814 15.3194 83.9694 15.5292C86.6965 15.8555 90.0063 16.5547 90.0063 20.657C90.0063 23.8503 87.3725 25.9947 83.0837 25.9947C79.4476 25.9947 77.443 24.6661 76.534 22.2187C76.3009 21.5428 76.4874 21.2397 77.14 21.0067L78.8416 20.4006C79.5175 20.1442 79.7739 20.2608 80.0769 20.96C80.5431 21.9623 81.592 22.5683 83.0837 22.5683C85.0649 22.5683 86.1837 22.0555 86.1837 20.727C86.1837 19.5615 84.7619 19.2352 83.0371 19.0487C80.2401 18.7224 76.5806 18.2562 76.5806 13.9675ZM92.516 10.0283C92.516 9.32909 92.7491 9.096 93.4483 9.096H95.383C96.0822 9.096 96.3153 9.32909 96.3153 10.0283V24.7127C96.3153 25.412 96.0822 25.6451 95.383 25.6451H93.4483C92.7491 25.6451 92.516 25.412 92.516 24.7127V10.0283ZM99.1859 15.0164C99.1859 11.1472 101.657 8.74637 106.062 8.74637C110.491 8.74637 112.961 11.1472 112.961 15.0164V19.7247C112.961 23.5939 110.491 25.9947 106.062 25.9947C101.657 25.9947 99.1859 23.5939 99.1859 19.7247V15.0164ZM109.162 14.9464C109.162 13.1284 108.043 12.2193 106.062 12.2193C104.104 12.2193 102.985 13.1284 102.985 14.9464V19.7946C102.985 21.6127 104.104 22.5217 106.062 22.5217C108.043 22.5217 109.162 21.6127 109.162 19.7946V14.9464ZM128.317 9.096C129.016 9.096 129.249 9.32909 129.249 10.0517V24.6894C129.249 25.412 129.016 25.6451 128.317 25.6451H126.429C125.963 25.6451 125.706 25.5285 125.497 25.2022L120.928 18.2562C119.786 16.5314 119.157 14.5269 118.97 13.8976H118.807C118.947 14.5735 119.46 16.648 119.46 19.1187V24.6894C119.46 25.412 119.203 25.6451 118.504 25.6451H116.779C116.08 25.6451 115.824 25.412 115.824 24.6894V10.0517C115.824 9.32909 116.08 9.096 116.779 9.096H118.714C119.203 9.096 119.413 9.23585 119.623 9.53886L124.285 16.6013C125.497 18.4194 125.986 20.2375 126.196 20.7736H126.382C126.149 20.051 125.637 18.1164 125.637 15.6224V10.0517C125.637 9.32909 125.87 9.096 126.592 9.096H128.317Z" fill="#009CF3"/>
<path d="M139.79 9.096C143.263 9.096 145.5 11.1938 145.5 14.69C145.5 18.1863 143.309 20.2608 139.79 20.2608H136.387V24.6894C136.387 25.412 136.13 25.6451 135.431 25.6451H133.543C132.844 25.6451 132.588 25.412 132.588 24.6894V10.0517C132.588 9.32909 132.844 9.096 133.543 9.096H139.79ZM139.394 16.7878C140.746 16.7878 141.561 16.0186 141.561 14.69C141.561 13.3615 140.769 12.5457 139.394 12.5457H136.387V16.7878H139.394ZM147.497 15.0164C147.497 11.1472 149.968 8.74637 154.373 8.74637C158.802 8.74637 161.273 11.1472 161.273 15.0164V19.7247C161.273 23.5939 158.802 25.9947 154.373 25.9947C149.968 25.9947 147.497 23.5939 147.497 19.7247V15.0164ZM157.473 14.9464C157.473 13.1284 156.355 12.2193 154.373 12.2193C152.415 12.2193 151.297 13.1284 151.297 14.9464V19.7946C151.297 21.6127 152.415 22.5217 154.373 22.5217C156.355 22.5217 157.473 21.6127 157.473 19.7946V14.9464ZM163.552 13.9675C163.552 10.9607 165.837 8.74637 170.195 8.74637C173.598 8.74637 175.37 9.88849 176.442 12.1727C176.768 12.8254 176.582 13.1517 175.929 13.4314L174.158 14.2006C173.552 14.4803 173.295 14.3637 172.946 13.7344C172.456 12.7554 171.664 12.196 170.195 12.196C168.284 12.196 167.445 12.6855 167.445 13.8043C167.445 15.063 169.053 15.3194 170.941 15.5292C173.668 15.8555 176.978 16.5547 176.978 20.657C176.978 23.8503 174.344 25.9947 170.055 25.9947C166.419 25.9947 164.415 24.6661 163.506 22.2187C163.273 21.5428 163.459 21.2397 164.112 21.0067L165.813 20.4006C166.489 20.1442 166.746 20.2608 167.049 20.96C167.515 21.9623 168.564 22.5683 170.055 22.5683C172.037 22.5683 173.155 22.0555 173.155 20.727C173.155 19.5615 171.734 19.2352 170.009 19.0487C167.212 18.7224 163.552 18.2562 163.552 13.9675Z" fill="white"/>
<rect x="30.9258" width="4.27759" height="4.27759" rx="2.13879" fill="#009CF3"/>
</svg>
