<?xml version="1.0" encoding="utf-8"?><svg xmlns="http://www.w3.org/2000/svg" xmlns:xlink="http://www.w3.org/1999/xlink"><symbol viewBox="0 0 22 24" id="basket" xmlns="http://www.w3.org/2000/svg"><g clip-path="url(#aa)"><path d="M10.363 18.443a2.046 2.046 0 0 0-2.045 2.042 2.046 2.046 0 0 0 4.09 0 2.046 2.046 0 0 0-2.045-2.042Zm6.134 0a2.046 2.046 0 0 0-2.045 2.042 2.046 2.046 0 0 0 4.089 0 2.046 2.046 0 0 0-2.044-2.042Zm3.978-8.199L7.413 6.891a.614.614 0 0 0-.75.73L8.67 16.4h-.786L5.482 5.895a.613.613 0 0 0-.474-.464l-4.27-.882A.614.614 0 0 0 .489 5.75l3.885.802L6.797 17.15a.613.613 0 0 0 .598.477h12.07a.615.615 0 0 0 .607-.53l.858-6.175a.613.613 0 0 0-.455-.678Zm-8.14 3.91a.613.613 0 0 1-1.227 0v-2.696a.613.613 0 0 1 1.227 0v2.696Zm2.625 0a.613.613 0 0 1-1.227 0v-1.88a.613.613 0 0 1 1.227 0v1.88Zm2.625 0a.613.613 0 0 1-1.227 0v-1.226a.613.613 0 0 1 1.227 0v1.226Z"/></g><path fill-rule="evenodd" clip-rule="evenodd" d="M16.268 4.568a2.996 2.996 0 0 0-1.693-.523c-.627 0-1.21.193-1.693.523-.28-.843-.492-1.752-.492-2.383C12.39.98 13.37 0 14.575 0s2.185.98 2.185 2.185c0 .631-.212 1.54-.492 2.383Zm-4.722 2.274.024.006v-.011l-.024.005Zm4.972 1.217c-1.333-.33-2.766-.681-4.129-1.013a2.185 2.185 0 1 1 4.129 1.013Zm4.436 1.103c-.866-.217-2.155-.538-3.618-.9a2.995 2.995 0 0 0 .243-1.425c.87.18 1.762.45 2.308.765.596.344.969.928 1.067 1.56ZM9.869 6.439c-.36-.086-.706-.167-1.03-.243a2.19 2.19 0 0 1-.376-2.667 2.188 2.188 0 0 1 3.147-.7c.098.738.338 1.599.61 2.353a3.01 3.01 0 0 0-.449.774c-.628.113-1.305.278-1.902.483Zm10.124.075a3.43 3.43 0 0 1-.217.114c-.696-.295-1.587-.526-2.397-.672a3.01 3.01 0 0 0-.449-.774c.262-.727.494-1.553.599-2.273.095-.067.189-.128.278-.18a2.188 2.188 0 0 1 2.986.8 2.188 2.188 0 0 1-.8 2.985Z"/><defs><clipPath id="aa"><path transform="translate(0 3.064)" d="M0 0h20.936v20.936H0z"/></clipPath></defs></symbol><symbol viewBox="0 0 344.96 344.96" id="check" xmlns="http://www.w3.org/2000/svg"><g data-name="Слой 2"><path class="bcls-1" d="m321.85 86.24-40-23.11-23.1-40H212.5L172.48 0l-40 23.11H86.24l-23.11 40-40 23.1v46.21L0 172.48l23.11 40v46.21l40 23.11 23.11 40h46.21l40 23.1 40-23.11h46.21l23.11-40 40-23.11V212.5l23.11-40-23.11-40V86.24ZM156.91 243.07a16.79 16.79 0 0 1-23.34 0l-50.45-50.44a16.19 16.19 0 0 1 0-22.89l13.35-13.35a16.19 16.19 0 0 1 22.89 0l25.87 25.87 80.34-80.35a16.19 16.19 0 0 1 22.89 0l13.35 13.35a16.19 16.19 0 0 1 0 22.89Z" data-name="Capa 1"/></g></symbol><symbol viewBox="0 0 16 16" id="chevron-left" xmlns="http://www.w3.org/2000/svg"><path d="M3 6.268c-1.333.77-1.333 2.694 0 3.464l6 3.464c1.333.77 3-.192 3-1.732V4.536c0-1.54-1.667-2.502-3-1.732L3 6.268Z"/></symbol><symbol viewBox="0 0 16 16" id="chevron-right" xmlns="http://www.w3.org/2000/svg"><path d="M13 6.268c1.333.77 1.333 2.694 0 3.464l-6 3.464c-1.333.77-3-.192-3-1.732V4.536c0-1.54 1.667-2.502 3-1.732l6 3.464Z"/></symbol><symbol viewBox="0 0 15 15" id="clock" xmlns="http://www.w3.org/2000/svg"><g clip-path="url(#ea)"><path d="M7.75.258a6.892 6.892 0 1 0 6.893 6.892A6.9 6.9 0 0 0 7.75.258Zm0 12.061a5.169 5.169 0 1 1 0-10.337 5.169 5.169 0 0 1 0 10.337Z"/><path d="m6.89 6.607-1.38.862a.861.861 0 1 0 .916 1.46l1.647-1.033a1.149 1.149 0 0 0 .54-.977V4.722a.861.861 0 0 0-1.724 0v1.885Z"/></g><defs><clipPath id="ea"><path transform="translate(.859 .258)" d="M0 0h13.784v13.784H0z"/></clipPath></defs></symbol><symbol viewBox="0 0 16 16" id="cloud" xmlns="http://www.w3.org/2000/svg"><g clip-path="url(#fa)"><path d="M14.946 6.667a5.512 5.512 0 0 0-2.961-2.042A5.451 5.451 0 1 0 1.734 8.25a3.853 3.853 0 0 0-1.609 4.213 3.9 3.9 0 0 0 3.838 2.87h6.424a5.527 5.527 0 0 0 5.533-4.505 5.417 5.417 0 0 0-.974-4.161Zm-1 3.822a3.576 3.576 0 0 1-3.56 2.845H3.964a1.927 1.927 0 0 1-1.896-1.362A1.867 1.867 0 0 1 3.4 9.675a1 1 0 0 0 .553-1.563 3.447 3.447 0 0 1 2.772-5.504c.75-.003 1.48.241 2.078.694A3.475 3.475 0 0 1 10.147 5.6a1 1 0 0 0 .858.859 3.488 3.488 0 0 1 2.329 1.39 3.437 3.437 0 0 1 .614 2.64h-.002Z"/></g><defs><clipPath id="fa"><path d="M0 0h16v16H0z"/></clipPath></defs></symbol><symbol viewBox="0 0 16 16" id="comment" xmlns="http://www.w3.org/2000/svg"><g clip-path="url(#ga)"><path d="M12.333 0H3.667A3.671 3.671 0 0 0 0 3.667v6a3.671 3.671 0 0 0 3.667 3.666h.958L7.36 15.62a1 1 0 0 0 1.282 0l2.734-2.286h.958A3.671 3.671 0 0 0 16 9.667v-6A3.671 3.671 0 0 0 12.333 0ZM14 9.667a1.667 1.667 0 0 1-1.667 1.666h-1.322a1 1 0 0 0-.641.234L8 13.548l-2.37-1.981a1 1 0 0 0-.641-.234H3.667A1.667 1.667 0 0 1 2 9.667v-6A1.667 1.667 0 0 1 3.667 2h8.666A1.666 1.666 0 0 1 14 3.667v6Z"/><path d="M5 6h2a1 1 0 0 0 0-2H5a1 1 0 0 0 0 2Zm6 1.333H5a1 1 0 1 0 0 2h6a1 1 0 1 0 0-2Z"/></g><defs><clipPath id="ga"><path d="M0 0h16v16H0z"/></clipPath></defs></symbol><symbol viewBox="0 0 16 16" id="download" xmlns="http://www.w3.org/2000/svg"><g clip-path="url(#ha)"><path d="M5.9 11.8a3 3 0 0 0 4.243 0l2.142-2.141a1 1 0 1 0-1.414-1.414l-1.856 1.854L9 1a1 1 0 0 0-2 0l.014 9.085-1.84-1.841a1 1 0 0 0-1.415 1.414L5.901 11.8Z"/><path d="M15 9.666a1 1 0 0 0-1 1v3.061c0 .15-.122.272-.273.273H2.273A.273.273 0 0 1 2 13.727v-3.06a1 1 0 1 0-2 0v3.06A2.275 2.275 0 0 0 2.273 16h11.454A2.275 2.275 0 0 0 16 13.727v-3.06a1 1 0 0 0-1-1Z"/></g><defs><clipPath id="ha"><path d="M0 0h16v16H0z"/></clipPath></defs></symbol><symbol viewBox="0 0 24 24" id="fb" xmlns="http://www.w3.org/2000/svg"><path d="M13.397 20.997v-8.196h2.765l.411-3.209h-3.176V7.548c0-.926.258-1.56 1.587-1.56h1.684v-2.86A22.108 22.108 0 0 0 14.201 3c-2.444 0-4.122 1.492-4.122 4.231v2.355H7.332v3.21h2.753v8.201h3.312Z"/></symbol><symbol viewBox="0 0 16 16" id="globe" xmlns="http://www.w3.org/2000/svg"><g clip-path="url(#ja)"><path d="M8 0a8 8 0 1 0 8 8 8.009 8.009 0 0 0-8-8Zm5.96 7.333h-2.318a12.245 12.245 0 0 0-1.526-4.94 6.008 6.008 0 0 1 3.845 4.94Zm-7.503 2h3.086A11.298 11.298 0 0 1 8 13.267a11.293 11.293 0 0 1-1.543-3.934Zm-.088-2A10.83 10.83 0 0 1 8 2.733a10.827 10.827 0 0 1 1.631 4.6H6.37Zm-.485-4.94a12.245 12.245 0 0 0-1.526 4.94H2.039a6.009 6.009 0 0 1 3.845-4.94Zm-3.73 6.94h2.273a12.612 12.612 0 0 0 1.457 4.274 6.013 6.013 0 0 1-3.73-4.274Zm7.962 4.274a12.588 12.588 0 0 0 1.457-4.274h2.272a6.013 6.013 0 0 1-3.729 4.274Z"/></g><defs><clipPath id="ja"><path d="M0 0h16v16H0z"/></clipPath></defs></symbol><symbol viewBox="0 0 24 24" id="instagram" xmlns="http://www.w3.org/2000/svg"><path d="M11.999 7.377a4.624 4.624 0 1 0 0 9.248 4.624 4.624 0 0 0 0-9.248Zm0 7.627a3.004 3.004 0 1 1 0-6.008 3.004 3.004 0 0 1 0 6.008Zm4.807-6.719a1.078 1.078 0 1 0 0-2.156 1.078 1.078 0 0 0 0 2.156Z"/><path d="M20.533 6.11A4.605 4.605 0 0 0 17.9 3.48a6.607 6.607 0 0 0-2.186-.42c-.963-.042-1.268-.054-3.71-.054s-2.755 0-3.71.054a6.554 6.554 0 0 0-2.184.42 4.6 4.6 0 0 0-2.633 2.63 6.585 6.585 0 0 0-.419 2.186c-.043.962-.056 1.267-.056 3.71 0 2.442 0 2.753.056 3.71.015.748.156 1.486.419 2.187a4.61 4.61 0 0 0 2.634 2.632 6.583 6.583 0 0 0 2.185.45c.963.042 1.268.055 3.71.055s2.755 0 3.71-.055a6.616 6.616 0 0 0 2.186-.42 4.613 4.613 0 0 0 2.633-2.632c.263-.7.404-1.438.419-2.186.043-.962.056-1.267.056-3.71s0-2.753-.056-3.71a6.583 6.583 0 0 0-.421-2.217Zm-1.218 9.533a5.046 5.046 0 0 1-.311 1.688 2.987 2.987 0 0 1-1.712 1.71c-.535.2-1.1.305-1.67.312-.95.044-1.218.055-3.654.055-2.438 0-2.687 0-3.655-.055a4.961 4.961 0 0 1-1.67-.311 2.984 2.984 0 0 1-1.718-1.711 5.08 5.08 0 0 1-.311-1.67c-.043-.95-.053-1.217-.053-3.653 0-2.437 0-2.686.053-3.655a5.038 5.038 0 0 1 .311-1.687c.305-.79.93-1.41 1.719-1.712a5.01 5.01 0 0 1 1.669-.311c.95-.043 1.218-.055 3.655-.055s2.687 0 3.654.055a4.96 4.96 0 0 1 1.67.31 2.99 2.99 0 0 1 1.712 1.713 5.06 5.06 0 0 1 .311 1.669c.043.95.054 1.218.054 3.655 0 2.436 0 2.698-.043 3.654h-.011v-.001Z"/></symbol><symbol viewBox="0 0 14 15" id="poker" xmlns="http://www.w3.org/2000/svg"><g clip-path="url(#la)"><path d="M6.892.258a6.892 6.892 0 1 0 6.892 6.892A6.899 6.899 0 0 0 6.892.258Zm4.949 5.407-1.649.495a3.45 3.45 0 0 0-2.31-2.31l.495-1.649a5.184 5.184 0 0 1 3.464 3.464Zm-4.525 3.57a.53.53 0 0 1-.848 0L5.381 7.788a1.061 1.061 0 0 1 0-1.273l1.087-1.45a.53.53 0 0 1 .848 0l1.087 1.45a1.061 1.061 0 0 1 0 1.272l-1.087 1.45ZM5.407 2.202l.495 1.649a3.45 3.45 0 0 0-2.31 2.31l-1.649-.495a5.187 5.187 0 0 1 3.464-3.464ZM1.943 8.634l1.649-.495a3.451 3.451 0 0 0 2.31 2.31l-.495 1.649a5.187 5.187 0 0 1-3.464-3.463v-.001Zm6.432 3.464-.494-1.649a3.451 3.451 0 0 0 2.31-2.31l1.649.495a5.184 5.184 0 0 1-3.463 3.465l-.002-.001Z"/></g><defs><clipPath id="la"><path transform="translate(0 .258)" d="M0 0h13.784v13.784H0z"/></clipPath></defs></symbol><symbol viewBox="0 0 16 16" id="telegram" xmlns="http://www.w3.org/2000/svg"><path d="m14.629 3.698-2.012 9.618c-.152.679-.548.848-1.11.528l-3.066-2.29-1.48 1.442c-.163.166-.3.305-.616.305l.22-3.165 5.683-5.204c.247-.223-.054-.347-.384-.123L4.839 9.29l-3.024-.959c-.658-.208-.67-.667.137-.986L13.78 2.727c.548-.208 1.027.124.849.971Z"/></symbol><symbol viewBox="0 0 25 25" id="tg" xmlns="http://www.w3.org/2000/svg"><g clip-path="url(#na)"><path d="m9.468 15.82-.397 5.588c.568 0 .814-.244 1.11-.537l2.665-2.547 5.521 4.044c1.013.564 1.727.267 2-.932l3.625-16.984V4.45c.322-1.497-.54-2.083-1.527-1.716L1.159 10.892c-1.454.565-1.432 1.375-.247 1.743l5.447 1.694L19.01 6.412c.595-.394 1.137-.176.692.218L9.468 15.82Z"/></g><defs><clipPath id="na"><path transform="translate(.044 .628)" d="M0 0h24.018v24.018H0z"/></clipPath></defs></symbol><symbol viewBox="0 0 16 16" id="viber" xmlns="http://www.w3.org/2000/svg"><path d="M8 1.335c-1.071.013-3.374.19-4.662 1.37-.958.948-1.292 2.35-1.331 4.084-.033 1.728-.072 4.973 3.058 5.856v1.346s-.02.538.337.648c.438.14.688-.275 1.105-.72l.778-.879c2.142.178 3.782-.232 3.97-.293.435-.139 2.883-.451 3.283-3.696.41-3.351-.2-5.463-1.301-6.418h-.007c-.332-.306-1.668-1.279-4.652-1.29 0 0-.222-.014-.578-.008Zm.037.942a7.02 7.02 0 0 1 .488.011c2.527.007 3.732.767 4.017 1.023.927.794 1.405 2.697 1.055 5.495-.332 2.713-2.317 2.885-2.685 3.002-.156.05-1.6.406-3.42.289 0 0-1.356 1.634-1.78 2.055-.067.074-.146.095-.196.085-.071-.018-.093-.107-.089-.229l.013-2.233c-2.655-.733-2.498-3.5-2.47-4.946.033-1.446.304-2.628 1.113-3.43 1.088-.982 3.043-1.115 3.953-1.122Zm.2 1.446a.166.166 0 1 0 0 .332 3.136 3.136 0 0 1 2.242.883c.606.588.9 1.378.912 2.411 0 .092.074.167.167.167V7.51a.167.167 0 0 0 .168-.165 3.588 3.588 0 0 0-1.009-2.646c-.66-.645-1.496-.977-2.48-.977Zm-2.198.382a.523.523 0 0 0-.342.067H5.69a2.61 2.61 0 0 0-.637.523 1.003 1.003 0 0 0-.256.525.71.71 0 0 0 .026.302l.01.006c.172.504.396.988.67 1.444a8.48 8.48 0 0 0 1.29 1.762l.015.022.024.017.015.018.017.015c.532.505 1.127.94 1.769 1.295.734.4 1.18.588 1.447.667v.004c.078.024.15.034.221.034.228-.016.444-.109.613-.262a2.53 2.53 0 0 0 .517-.638v-.004c.128-.241.085-.469-.1-.623-.37-.323-.77-.61-1.195-.857-.285-.155-.574-.061-.69.095l-.25.315c-.129.156-.361.134-.361.134l-.007.004C7.093 8.527 6.63 6.772 6.63 6.772s-.022-.239.139-.36l.312-.252c.15-.122.254-.41.094-.695a7.498 7.498 0 0 0-.856-1.194.475.475 0 0 0-.28-.167Zm2.486.495c-.221 0-.221.334.003.334A2.098 2.098 0 0 1 10 5.572 1.94 1.94 0 0 1 10.5 7a.168.168 0 0 0 .167.165l.007.009a.169.169 0 0 0 .167-.167c.015-.662-.191-1.218-.595-1.663C9.84 4.9 9.273 4.65 8.549 4.6h-.024Zm.274.898c-.228-.006-.236.335-.01.341.55.029.816.306.851.877a.166.166 0 0 0 .165.163h.007a.168.168 0 0 0 .16-.178c-.039-.744-.445-1.164-1.166-1.202H8.8Z"/></symbol><symbol viewBox="0 0 25 25" id="vk" xmlns="http://www.w3.org/2000/svg"><g clip-path="url(#pa)"><path d="M20.017 13.665c-.388-.49-.277-.709 0-1.147.006-.005 3.21-4.434 3.541-5.936l.002-.001c.164-.548 0-.95-.793-.95H20.14c-.669 0-.977.345-1.142.731 0 0-1.337 3.2-3.229 5.275-.61.6-.892.792-1.226.792-.164 0-.419-.192-.419-.74V6.581c0-.657-.187-.95-.74-.95h-4.13c-.419 0-.668.306-.668.591 0 .623.946.766 1.044 2.517v3.8c0 .832-.151.986-.486.986-.893 0-3.06-3.214-4.344-6.891-.259-.714-.512-1.002-1.186-1.002H.99c-.75 0-.901.345-.901.731 0 .683.893 4.076 4.15 8.56 2.173 3.06 5.23 4.718 8.013 4.718 1.672 0 1.876-.368 1.876-1.002 0-2.924-.15-3.2.687-3.2.388 0 1.056.192 2.618 1.668 1.784 1.75 2.077 2.534 3.076 2.534h2.626c.748 0 1.128-.368.91-1.095-.5-1.528-3.874-4.671-4.027-4.881Z"/></g><defs><clipPath id="pa"><path transform="translate(.088 .628)" d="M0 0h24.018v24.018H0z"/></clipPath></defs></symbol><symbol viewBox="0 0 16 16" id="whatsapp" xmlns="http://www.w3.org/2000/svg"><path fill-rule="evenodd" clip-rule="evenodd" d="M12.269 3.755A5.947 5.947 0 0 0 8.035 2 5.994 5.994 0 0 0 2.05 7.985a5.98 5.98 0 0 0 .799 2.992L2 14.077l3.173-.832c.877.477 1.86.728 2.86.728h.002a5.993 5.993 0 0 0 5.533-8.276 5.953 5.953 0 0 0-1.3-1.942Zm-4.234 9.208h-.002c-.89 0-1.765-.24-2.532-.694l-.181-.108-1.883.494.502-1.835-.118-.188a4.965 4.965 0 0 1-.76-2.647 4.982 4.982 0 0 1 6.88-4.597c.604.25 1.152.618 1.613 1.081a4.946 4.946 0 0 1 1.455 3.52 4.982 4.982 0 0 1-4.974 4.974Zm2.729-3.726c-.15-.075-.885-.436-1.022-.486-.137-.05-.236-.075-.336.074-.1.15-.387.486-.474.586-.087.1-.175.112-.324.038-.15-.075-.631-.233-1.203-.742a4.505 4.505 0 0 1-.832-1.036c-.087-.15-.009-.231.066-.306.068-.066.15-.174.224-.262.075-.087.1-.149.15-.249.05-.1.025-.187-.013-.262-.037-.075-.337-.811-.461-1.11-.121-.29-.244-.252-.336-.256a6.418 6.418 0 0 0-.286-.005.55.55 0 0 0-.4.186c-.137.15-.523.512-.523 1.248s.536 1.447.61 1.547c.075.1 1.055 1.61 2.555 2.258.358.154.636.246.853.315.358.114.684.098.942.06.287-.043.885-.362 1.01-.711.124-.35.124-.649.087-.711-.038-.063-.138-.101-.287-.176Z"/></symbol><symbol viewBox="0 0 25 25" id="youtube" xmlns="http://www.w3.org/2000/svg"><path d="M22.791 7.009a2.82 2.82 0 0 0-1.984-1.985c-1.762-.482-8.81-.482-8.81-.482s-7.048 0-8.81.464a2.878 2.878 0 0 0-1.985 2.003C.74 8.77.74 12.424.74 12.424s0 3.673.463 5.416a2.821 2.821 0 0 0 1.985 1.985c1.78.482 8.81.482 8.81.482s7.048 0 8.81-.464a2.821 2.821 0 0 0 1.985-1.984c.463-1.762.463-5.416.463-5.416s.019-3.672-.464-5.434ZM9.753 15.8V9.05l5.86 3.376-5.86 3.375Z"/></symbol></svg>