<svg width="126" height="33" viewBox="0 0 126 33" fill="none" xmlns="http://www.w3.org/2000/svg">
<path d="M19.8435 15.141C19.8103 11.5441 22.8642 9.79417 23.0038 9.7127C21.2743 7.25411 18.5935 6.91819 17.6515 6.89141C15.4 6.66039 13.216 8.20496 12.0691 8.20496C10.8993 8.20496 9.13314 6.91373 7.22961 6.95167C4.7801 6.9885 2.48854 8.37125 1.23173 10.5185C-1.362 14.8966 0.572426 21.3304 3.05742 24.8693C4.3005 26.6025 5.75304 28.5377 7.65427 28.4696C9.5143 28.3948 10.2091 27.3134 12.4537 27.3134C14.6777 27.3134 15.3302 28.4696 17.2692 28.4261C19.2654 28.3948 20.5222 26.6851 21.7218 24.9363C23.1583 22.9498 23.7352 20.9934 23.7581 20.893C23.7112 20.8773 19.8812 19.4522 19.8435 15.141Z" fill="white"/>
<path d="M16.1806 4.56339C17.1811 3.34359 17.8655 1.68407 17.6755 0C16.2276 0.062497 14.4168 0.976515 13.374 2.16954C12.4514 3.22083 11.6273 4.94396 11.8402 6.56441C13.4667 6.68271 15.1367 5.76423 16.1806 4.56339Z" fill="white"/>
<path d="M46.7623 28.2211H44.1628L42.7389 23.8586H37.7895L36.4331 28.2211H33.9023L38.806 13.3691H41.8346L46.7623 28.2211ZM42.3097 22.0283L41.022 18.1502C40.8857 17.754 40.6305 16.821 40.2539 15.3523H40.2081C40.0582 15.984 39.8167 16.917 39.4847 18.1502L38.2199 22.0283H42.3097V22.0283Z" fill="white"/>
<path d="M59.3725 22.7345C59.3725 24.5558 58.8677 25.9955 57.8581 27.0524C56.9539 27.9932 55.831 28.463 54.4906 28.463C53.0438 28.463 52.0045 27.9563 51.3715 26.943H51.3257V32.5845H48.8853V21.037C48.8853 19.892 48.8544 18.7168 48.7949 17.5115H50.9411L51.0773 19.209H51.1231C51.9369 17.93 53.172 17.2917 54.8294 17.2917C56.1252 17.2917 57.2068 17.7905 58.0722 18.7894C58.9398 19.7893 59.3725 21.104 59.3725 22.7345ZM56.8863 22.8216C56.8863 21.7792 56.646 20.9199 56.1629 20.2436C55.6353 19.5382 54.9267 19.1856 54.0385 19.1856C53.4364 19.1856 52.8893 19.382 52.4005 19.7692C51.9106 20.1599 51.5901 20.6699 51.4402 21.3015C51.3646 21.5962 51.3268 21.8372 51.3268 22.0269V23.8126C51.3268 24.5916 51.5718 25.2489 52.0617 25.7857C52.5516 26.3225 53.188 26.5903 53.971 26.5903C54.8901 26.5903 55.6055 26.2444 56.1171 25.5547C56.6299 24.8639 56.8863 23.9532 56.8863 22.8216Z" fill="white"/>
<path d="M72.0061 22.7345C72.0061 24.5558 71.5013 25.9955 70.4906 27.0524C69.5875 27.9932 68.4646 28.463 67.1242 28.463C65.6774 28.463 64.6381 27.9563 64.0063 26.943H63.9605V32.5845H61.5201V21.037C61.5201 19.892 61.4892 18.7168 61.4297 17.5115H63.5759L63.7121 19.209H63.7579C64.5706 17.93 65.8056 17.2917 67.4642 17.2917C68.7588 17.2917 69.8405 17.7905 70.7081 18.7894C71.5723 19.7893 72.0061 21.104 72.0061 22.7345ZM69.52 22.8216C69.52 21.7792 69.2784 20.9199 68.7954 20.2436C68.2677 19.5382 67.5615 19.1856 66.6721 19.1856C66.0689 19.1856 65.5229 19.382 65.033 19.7692C64.5431 20.1599 64.2237 20.6699 64.0738 21.3015C63.9994 21.5962 63.9605 21.8372 63.9605 22.0269V23.8126C63.9605 24.5916 64.2054 25.2489 64.693 25.7857C65.1829 26.3214 65.8194 26.5903 66.6046 26.5903C67.5237 26.5903 68.2391 26.2444 68.7508 25.5547C69.2636 24.8639 69.52 23.9532 69.52 22.8216Z" fill="white"/>
<path d="M86.1312 24.0559C86.1312 25.3192 85.6814 26.3471 84.7783 27.1406C83.7859 28.0077 82.4043 28.4407 80.629 28.4407C78.9899 28.4407 77.6758 28.1327 76.6812 27.5155L77.2466 25.5324C78.318 26.164 79.4935 26.481 80.7744 26.481C81.6935 26.481 82.4089 26.2779 82.9228 25.8739C83.4345 25.4699 83.6897 24.9275 83.6897 24.2512C83.6897 23.6485 83.4791 23.1407 83.0568 22.7289C82.6367 22.3171 81.935 21.9343 80.9552 21.5806C78.2882 20.6107 76.9559 19.19 76.9559 17.3218C76.9559 16.1009 77.4229 15.0998 78.358 14.3209C79.2898 13.5408 80.5328 13.1513 82.0873 13.1513C83.4734 13.1513 84.6249 13.3868 85.5441 13.8566L84.934 15.7962C84.0755 15.3409 83.1048 15.1132 82.0186 15.1132C81.1601 15.1132 80.4894 15.3197 80.0086 15.7304C79.6023 16.0976 79.3985 16.5451 79.3985 17.0752C79.3985 17.6622 79.6309 18.1477 80.0979 18.5294C80.5042 18.882 81.2425 19.2637 82.3139 19.6755C83.6245 20.19 84.5871 20.7915 85.2064 21.4812C85.8233 22.1687 86.1312 23.0291 86.1312 24.0559Z" fill="white"/>
<path d="M94.2 19.2971H91.5101V24.4966C91.5101 25.8191 91.984 26.4798 92.934 26.4798C93.3701 26.4798 93.7318 26.443 94.018 26.3693L94.0855 28.1761C93.6048 28.3514 92.9718 28.4395 92.1877 28.4395C91.2239 28.4395 90.4708 28.1527 89.9271 27.5802C89.3857 27.0066 89.1132 26.0445 89.1132 24.6931V19.2949H87.5107V17.5092H89.1132V15.5484L91.5101 14.8431V17.5092H94.2V19.2971Z" fill="white"/>
<path d="M106.336 22.778C106.336 24.4241 105.853 25.7756 104.889 26.8325C103.878 27.9206 102.537 28.463 100.864 28.463C99.2526 28.463 97.9694 27.9418 97.0125 26.8994C96.0556 25.8571 95.5771 24.5413 95.5771 22.9554C95.5771 21.2959 96.0693 19.9366 97.0572 18.8797C98.0427 17.8217 99.3728 17.2928 101.045 17.2928C102.657 17.2928 103.954 17.8139 104.932 18.8574C105.869 19.8696 106.336 21.1765 106.336 22.778ZM103.804 22.855C103.804 21.8673 103.587 21.0203 103.149 20.3138C102.637 19.4589 101.906 19.0326 100.958 19.0326C99.9771 19.0326 99.232 19.4601 98.7203 20.3138C98.2819 21.0214 98.0656 21.8818 98.0656 22.8996C98.0656 23.8873 98.2819 24.7344 98.7203 25.4397C99.248 26.2946 99.9851 26.7209 100.936 26.7209C101.868 26.7209 102.599 26.2856 103.127 25.4174C103.577 24.6975 103.804 23.8415 103.804 22.855Z" fill="white"/>
<path d="M114.269 19.6041C114.027 19.5606 113.77 19.5382 113.499 19.5382C112.641 19.5382 111.977 19.8541 111.51 20.4868C111.104 21.0449 110.9 21.7502 110.9 22.6017V28.2208H108.461L108.484 20.8841C108.484 19.6498 108.453 18.526 108.392 17.5127H110.518L110.607 19.5617H110.675C110.932 18.8575 111.338 18.2905 111.895 17.8653C112.438 17.4825 113.026 17.2917 113.659 17.2917C113.884 17.2917 114.088 17.3073 114.269 17.3352V19.6041Z" fill="white"/>
<path d="M125.183 22.3595C125.183 22.7858 125.154 23.1451 125.094 23.4387H117.772C117.801 24.4966 118.155 25.3058 118.835 25.8638C119.452 26.3626 120.249 26.6126 121.229 26.6126C122.313 26.6126 123.302 26.4441 124.192 26.1059L124.574 27.7576C123.535 28.1996 122.307 28.4194 120.892 28.4194C119.188 28.4194 117.851 27.9306 116.879 26.9541C115.908 25.9776 115.421 24.6663 115.421 23.0213C115.421 21.4064 115.874 20.0616 116.779 18.9891C117.727 17.8441 119.008 17.2715 120.619 17.2715C122.202 17.2715 123.401 17.8441 124.214 18.9891C124.859 19.8986 125.183 21.0236 125.183 22.3595ZM122.856 21.7423C122.872 21.037 122.713 20.4276 122.382 19.9132C121.96 19.2514 121.311 18.921 120.437 18.921C119.639 18.921 118.99 19.2435 118.495 19.8908C118.088 20.4053 117.847 21.0225 117.772 21.7412H122.856V21.7423Z" fill="white"/>
<path d="M41.5033 4.23196C41.5033 5.54551 41.0993 6.5343 40.2923 7.19833C39.5448 7.81103 38.4826 8.11793 37.1068 8.11793C36.4246 8.11793 35.8408 8.08892 35.3521 8.03088V0.853774C35.9896 0.753332 36.6764 0.701996 37.4181 0.701996C38.7287 0.701996 39.7165 0.979884 40.3827 1.53566C41.129 2.16398 41.5033 3.06237 41.5033 4.23196ZM40.2385 4.26432C40.2385 3.4128 40.0073 2.75993 39.5448 2.3046C39.0824 1.85038 38.4071 1.62271 37.5177 1.62271C37.14 1.62271 36.8183 1.64726 36.5516 1.6986V7.15481C36.6993 7.17713 36.9694 7.18717 37.362 7.18717C38.28 7.18717 38.9886 6.9383 39.4876 6.44056C39.9867 5.94281 40.2385 5.2174 40.2385 4.26432Z" fill="white"/>
<path d="M48.2096 5.37918C48.2096 6.1883 47.9726 6.85121 47.4988 7.37128C47.002 7.90585 46.3438 8.17258 45.522 8.17258C44.7299 8.17258 44.0992 7.91701 43.6288 7.40364C43.1595 6.89139 42.9248 6.24521 42.9248 5.46623C42.9248 4.65154 43.1663 3.98305 43.6516 3.4641C44.137 2.94515 44.7894 2.68512 45.6113 2.68512C46.4033 2.68512 47.0398 2.94069 47.5217 3.45294C47.9795 3.95068 48.2096 4.59351 48.2096 5.37918ZM46.9654 5.41713C46.9654 4.93166 46.8578 4.51539 46.6437 4.16831C46.3919 3.74868 46.0336 3.53887 45.5678 3.53887C45.0859 3.53887 44.7196 3.74868 44.4678 4.16831C44.2526 4.51539 44.1461 4.93836 44.1461 5.43833C44.1461 5.9238 44.2537 6.34008 44.4678 6.68716C44.7276 7.10678 45.0893 7.31659 45.5563 7.31659C46.0142 7.31659 46.3736 7.10343 46.6323 6.676C46.8543 6.32222 46.9654 5.9026 46.9654 5.41713Z" fill="white"/>
<path d="M57.2011 2.79242L55.5128 8.05333H54.414L53.7146 5.76884C53.5372 5.19855 53.3929 4.63162 53.2808 4.06914H53.259C53.1549 4.64724 53.0106 5.21306 52.8252 5.76884L52.0823 8.05333H50.9709L49.3833 2.79242H50.6161L51.2262 5.29341C51.3738 5.8849 51.4951 6.44849 51.5924 6.98195H51.6142C51.7035 6.54224 51.8511 5.982 52.0594 5.30458L52.8252 2.79354H53.8027L54.5364 5.25101C54.7139 5.85031 54.8581 6.42729 54.9691 6.98307H55.0023C55.0836 6.4418 55.206 5.86482 55.3686 5.25101L56.0233 2.79354H57.2011V2.79242Z" fill="white"/>
<path d="M63.42 8.05316H62.2205V5.03991C62.2205 4.11138 61.8588 3.64712 61.1331 3.64712C60.7771 3.64712 60.4898 3.77434 60.2666 4.02991C60.0457 4.28548 59.9335 4.5868 59.9335 4.93165V8.05204H58.7339V4.29552C58.7339 3.83349 58.719 3.3324 58.6904 2.79002H59.7446L59.8007 3.61252H59.8339C59.9736 3.35695 60.1819 3.14603 60.4554 2.97751C60.7805 2.78109 61.1445 2.68176 61.5428 2.68176C62.0465 2.68176 62.4654 2.84024 62.7985 3.1583C63.2129 3.54779 63.42 4.12924 63.42 4.90152V8.05316V8.05316Z" fill="white"/>
<path d="M66.7277 8.05321H65.5293V0.378357H66.7277V8.05321Z" fill="white"/>
<path d="M73.7906 5.37918C73.7906 6.1883 73.5537 6.85121 73.0798 7.37128C72.583 7.90585 71.9237 8.17258 71.103 8.17258C70.3098 8.17258 69.6791 7.91701 69.2098 7.40364C68.7405 6.89139 68.5059 6.24521 68.5059 5.46623C68.5059 4.65154 68.7474 3.98305 69.2327 3.4641C69.718 2.94515 70.3705 2.68512 71.1912 2.68512C71.9844 2.68512 72.6197 2.94069 73.1027 3.45294C73.5606 3.95068 73.7906 4.59351 73.7906 5.37918ZM72.5453 5.41713C72.5453 4.93166 72.4377 4.51539 72.2236 4.16831C71.973 3.74868 71.6135 3.53887 71.1488 3.53887C70.6658 3.53887 70.2995 3.74868 70.0488 4.16831C69.8336 4.51539 69.7272 4.93836 69.7272 5.43833C69.7272 5.9238 69.8348 6.34008 70.0488 6.68716C70.3087 7.10678 70.6704 7.31659 71.1374 7.31659C71.5952 7.31659 71.9535 7.10343 72.2122 6.676C72.4354 6.32222 72.5453 5.9026 72.5453 5.41713Z" fill="white"/>
<path d="M79.5967 8.05316H78.5196L78.4303 7.44717H78.3971C78.0286 7.9304 77.5032 8.17258 76.821 8.17258C76.3116 8.17258 75.8996 8.01299 75.5894 7.69604C75.3078 7.4081 75.167 7.04986 75.167 6.62466C75.167 5.98183 75.4417 5.4919 75.9946 5.15263C76.5463 4.81336 77.3223 4.64708 78.3216 4.65489V4.55668C78.3216 3.86363 77.9484 3.51767 77.201 3.51767C76.6687 3.51767 76.1995 3.64824 75.7943 3.90716L75.5504 3.13934C76.0518 2.8369 76.671 2.68512 77.4013 2.68512C78.8115 2.68512 79.5189 3.41053 79.5189 4.86135V6.79876C79.5189 7.3244 79.5452 7.74291 79.5967 8.05316ZM78.3514 6.24521V5.43387C77.0282 5.41155 76.3666 5.76533 76.3666 6.49409C76.3666 6.76863 76.4421 6.97397 76.5966 7.11124C76.7512 7.24851 76.948 7.31659 77.1827 7.31659C77.446 7.31659 77.692 7.23512 77.9164 7.0733C78.1419 6.91036 78.2804 6.7039 78.3319 6.45056C78.3445 6.39364 78.3514 6.32445 78.3514 6.24521Z" fill="white"/>
<path d="M86.4126 8.05321H85.3481L85.292 7.20838H85.2588C84.9188 7.85121 84.3396 8.17262 83.5258 8.17262C82.8756 8.17262 82.3342 7.92375 81.905 7.42601C81.4758 6.92826 81.2617 6.28209 81.2617 5.4886C81.2617 4.63708 81.4941 3.94738 81.9611 3.42062C82.4132 2.92957 82.9672 2.68405 83.6265 2.68405C84.3511 2.68405 84.8581 2.92176 85.1466 3.3983H85.1695V0.378357H86.3702V6.63587C86.3702 7.14812 86.3839 7.62019 86.4126 8.05321ZM85.1695 5.83457V4.95738C85.1695 4.8056 85.158 4.68284 85.1363 4.58909C85.0688 4.30785 84.9234 4.07126 84.7025 3.88042C84.4793 3.68958 84.2103 3.5936 83.9001 3.5936C83.4525 3.5936 83.1023 3.76659 82.8447 4.11367C82.5895 4.46075 82.4601 4.90381 82.4601 5.44508C82.4601 5.96514 82.5826 6.38699 82.8287 6.71176C83.0885 7.05772 83.4388 7.2307 83.8772 7.2307C84.271 7.2307 84.5857 7.08674 84.825 6.79769C85.0562 6.53096 85.1695 6.20955 85.1695 5.83457Z" fill="white"/>
<path d="M96.6715 5.37918C96.6715 6.1883 96.4345 6.85121 95.9607 7.37128C95.4639 7.90585 94.8069 8.17258 93.9839 8.17258C93.193 8.17258 92.5623 7.91701 92.0907 7.40364C91.6214 6.89139 91.3867 6.24521 91.3867 5.46623C91.3867 4.65154 91.6282 3.98305 92.1136 3.4641C92.5989 2.94515 93.2513 2.68512 94.0743 2.68512C94.8653 2.68512 95.5028 2.94069 95.9836 3.45294C96.4414 3.95068 96.6715 4.59351 96.6715 5.37918ZM95.4284 5.41713C95.4284 4.93166 95.3208 4.51539 95.1068 4.16831C94.8538 3.74868 94.4967 3.53887 94.0297 3.53887C93.5489 3.53887 93.1826 3.74868 92.9297 4.16831C92.7145 4.51539 92.608 4.93836 92.608 5.43833C92.608 5.9238 92.7156 6.34008 92.9297 6.68716C93.1895 7.10678 93.5512 7.31659 94.0182 7.31659C94.4761 7.31659 94.8366 7.10343 95.0953 6.676C95.3162 6.32222 95.4284 5.9026 95.4284 5.41713Z" fill="white"/>
<path d="M103.122 8.05316H101.924V5.03991C101.924 4.11138 101.562 3.64712 100.835 3.64712C100.479 3.64712 100.192 3.77434 99.9697 4.02991C99.7477 4.28548 99.6366 4.5868 99.6366 4.93165V8.05204H98.4359V4.29552C98.4359 3.83349 98.4222 3.3324 98.3936 2.79002H99.4466L99.5027 3.61252H99.5359C99.6767 3.35695 99.885 3.14603 100.157 2.97751C100.484 2.78109 100.847 2.68176 101.246 2.68176C101.748 2.68176 102.167 2.84024 102.5 3.1583C102.916 3.54779 103.122 4.12924 103.122 4.90152V8.05316V8.05316Z" fill="white"/>
<path d="M111.195 3.66833H109.874V6.22401C109.874 6.87354 110.109 7.1983 110.573 7.1983C110.789 7.1983 110.967 7.18044 111.108 7.14361L111.139 8.03085C110.902 8.11789 110.591 8.16142 110.207 8.16142C109.733 8.16142 109.365 8.0208 109.098 7.73957C108.83 7.45833 108.697 6.98514 108.697 6.32111V3.66833H107.909V2.79226H108.697V1.82802L109.873 1.48206V2.79114H111.194V3.66833H111.195Z" fill="white"/>
<path d="M117.545 8.05321H116.344V5.06228C116.344 4.11925 115.983 3.64717 115.258 3.64717C114.702 3.64717 114.322 3.9206 114.113 4.46745C114.078 4.5824 114.057 4.72301 114.057 4.88818V8.05209H112.859V0.378357H114.057V3.54896H114.08C114.458 2.97198 114.999 2.68405 115.701 2.68405C116.198 2.68405 116.609 2.84252 116.935 3.16059C117.341 3.55677 117.545 4.14603 117.545 4.92501V8.05321V8.05321Z" fill="white"/>
<path d="M124.096 5.17378C124.096 5.38359 124.08 5.55992 124.052 5.70389H120.454C120.47 6.22395 120.642 6.62014 120.975 6.89468C121.28 7.1402 121.672 7.26297 122.153 7.26297C122.685 7.26297 123.17 7.18038 123.608 7.01409L123.795 7.82655C123.284 8.04306 122.682 8.15131 121.985 8.15131C121.149 8.15131 120.491 7.91137 120.015 7.43148C119.536 6.9516 119.299 6.30765 119.299 5.49966C119.299 4.70617 119.52 4.04549 119.965 3.51873C120.43 2.95625 121.059 2.67502 121.852 2.67502C122.628 2.67502 123.217 2.95625 123.616 3.51873C123.937 3.96513 124.096 4.51756 124.096 5.17378ZM122.952 4.87134C122.961 4.52426 122.882 4.22517 122.719 3.97295C122.511 3.64819 122.194 3.48525 121.765 3.48525C121.373 3.48525 121.054 3.64372 120.81 3.96179C120.611 4.21512 120.493 4.51756 120.454 4.87134H122.952Z" fill="white"/>
</svg>
