<svg width="77" height="20" viewBox="0 0 77 20" fill="none" xmlns="http://www.w3.org/2000/svg">
<g clip-path="url(#clip0_10045_7788)">
<path d="M0.000976562 4.22002V9.46233H7.05793V3.30261L0.000976562 4.22002Z" fill="white"/>
<path d="M8.06641 3.17175V9.46253H16.1315V2.12329L8.06641 3.17175Z" fill="white"/>
<path d="M8.06641 10.5109V16.8016L16.1315 17.8501V10.5109H8.06641Z" fill="white"/>
<path d="M0.000976562 10.511V15.7533L7.05793 16.6707V10.511H0.000976562Z" fill="white"/>
</g>
<path d="M26.0418 4.81783C26.0859 4.93928 26.0528 5 25.9148 5H25.6277C25.3959 5 25.3297 4.96688 25.2855 4.8344L25.0316 4.1223H23.508L23.2486 4.8344C23.2044 4.96688 23.1382 5 22.9063 5H22.6524C22.5144 5 22.4813 4.93928 22.5254 4.81783L23.9055 1.22974C23.9551 1.10277 24.0103 1.07517 24.1373 1.07517H24.4299C24.5568 1.07517 24.6176 1.10277 24.6617 1.22422L26.0418 4.81783ZM24.4188 2.38897C24.3029 2.04672 24.2919 1.72103 24.2863 1.71551H24.2477C24.2477 1.72103 24.2422 2.04672 24.1263 2.38345L23.7012 3.55372H24.8384L24.4188 2.38897ZM28.6258 2.14056C28.7914 2.14056 28.8301 2.1792 28.7694 2.33377L27.7481 4.85096C27.6984 4.9724 27.6432 5.00552 27.5163 5.00552H27.3341C27.2072 5.00552 27.1464 4.9724 27.1023 4.85096L26.0866 2.33929C26.0258 2.1792 26.059 2.14056 26.2246 2.14056H26.4399C26.6441 2.14056 26.6993 2.17368 26.7435 2.31169L27.2568 3.63652C27.3562 3.89597 27.4059 4.2051 27.4114 4.22718H27.439C27.45 4.2051 27.4942 3.90701 27.588 3.64204L28.0959 2.31169C28.1511 2.17368 28.1953 2.14056 28.405 2.14056H28.6258ZM29.1609 2.63185C29.3486 2.27304 29.7295 2.05776 30.3036 2.05776C31.2089 2.05776 31.4849 2.54353 31.4849 3.19491V4.62463C31.4849 4.81783 31.4407 4.87304 31.2862 4.93928C31.0819 5.0276 30.7452 5.0828 30.2925 5.0828C29.3155 5.0828 29.0615 4.76263 29.0615 4.18854C29.0615 3.52612 29.4314 3.29979 30.3146 3.29979C30.5299 3.29979 30.7507 3.32187 30.8445 3.32739V3.17283C30.8445 2.82506 30.7065 2.62633 30.2925 2.62633C30.0165 2.62633 29.8288 2.71466 29.7129 2.8913C29.6356 3.00722 29.6025 3.02379 29.4755 2.9741L29.2547 2.88026C29.1333 2.82506 29.0947 2.75882 29.1609 2.63185ZM30.8445 3.85181C30.7286 3.84629 30.4581 3.82421 30.2428 3.82421C29.8233 3.82421 29.7129 3.95669 29.7129 4.18302C29.7129 4.40934 29.8012 4.55287 30.2318 4.55287C30.5133 4.55287 30.6845 4.53079 30.7838 4.50871C30.828 4.49215 30.8445 4.48111 30.8445 4.43142V3.85181ZM32.5202 1.06965C32.7741 1.06965 32.8569 1.14693 32.8569 1.40086V1.45054C32.8569 1.70447 32.7741 1.78727 32.5202 1.78727H32.4816C32.2276 1.78727 32.1448 1.70447 32.1448 1.45054V1.40086C32.1448 1.14693 32.2276 1.06965 32.4816 1.06965H32.5202ZM32.6527 2.14056C32.7797 2.14056 32.8238 2.1792 32.8238 2.30617V4.82888C32.8238 4.95584 32.7797 5 32.6527 5H32.3491C32.2221 5 32.1835 4.95584 32.1835 4.82888V2.30617C32.1835 2.1792 32.2221 2.14056 32.3491 2.14056H32.6527ZM34.2284 4.82888C34.2284 4.95584 34.1842 5 34.0573 5H33.7592C33.6267 5 33.5881 4.95584 33.5881 4.82888V1.08621C33.5881 0.959248 33.6267 0.915087 33.7592 0.915087H34.0573C34.1842 0.915087 34.2284 0.959248 34.2284 1.08621V4.82888ZM34.9476 2.63185C35.1353 2.27304 35.5161 2.05776 36.0902 2.05776C36.9955 2.05776 37.2716 2.54353 37.2716 3.19491V4.62463C37.2716 4.81783 37.2274 4.87304 37.0728 4.93928C36.8686 5.0276 36.5319 5.0828 36.0792 5.0828C35.1021 5.0828 34.8482 4.76263 34.8482 4.18854C34.8482 3.52612 35.2181 3.29979 36.1013 3.29979C36.3166 3.29979 36.5374 3.32187 36.6312 3.32739V3.17283C36.6312 2.82506 36.4932 2.62633 36.0792 2.62633C35.8032 2.62633 35.6155 2.71466 35.4996 2.8913C35.4223 3.00722 35.3892 3.02379 35.2622 2.9741L35.0414 2.88026C34.92 2.82506 34.8813 2.75882 34.9476 2.63185ZM36.6312 3.85181C36.5153 3.84629 36.2448 3.82421 36.0295 3.82421C35.61 3.82421 35.4996 3.95669 35.4996 4.18302C35.4996 4.40934 35.5879 4.55287 36.0185 4.55287C36.3 4.55287 36.4711 4.53079 36.5705 4.50871C36.6147 4.49215 36.6312 4.48111 36.6312 4.43142V3.85181ZM38.4338 0.915087C38.5608 0.915087 38.5995 0.959248 38.5995 1.08621V2.1516C38.7651 2.11296 38.9914 2.05776 39.2619 2.05776C40.0513 2.05776 40.4101 2.46625 40.4101 3.16731V3.91253C40.4101 4.66879 40.0071 5.0828 39.1625 5.0828C38.7154 5.0828 38.3566 4.98896 38.1634 4.90616C37.9867 4.82336 37.9591 4.77919 37.9591 4.60255V1.08621C37.9591 0.959248 38.0033 0.915087 38.1302 0.915087H38.4338ZM39.7697 3.18387C39.7697 2.8361 39.56 2.64289 39.168 2.64289C38.9362 2.64289 38.7319 2.6981 38.5995 2.74226V4.3707C38.5995 4.3983 38.605 4.41486 38.6436 4.43142C38.7706 4.47559 38.9362 4.49767 39.1183 4.49767C39.56 4.49767 39.7697 4.30446 39.7697 3.89597V3.18387ZM41.7293 4.82888C41.7293 4.95584 41.6852 5 41.5582 5H41.2601C41.1276 5 41.089 4.95584 41.089 4.82888V1.08621C41.089 0.959248 41.1276 0.915087 41.2601 0.915087H41.5582C41.6852 0.915087 41.7293 0.959248 41.7293 1.08621V4.82888ZM42.3988 3.25011C42.3988 2.48281 42.846 2.05776 43.6795 2.05776C44.5572 2.05776 44.9547 2.56561 44.9547 3.20043V3.53716C44.9547 3.68068 44.8995 3.77453 44.7063 3.77453H43.0392V3.97877C43.0392 4.33758 43.2655 4.53079 43.6685 4.53079C43.9942 4.53079 44.2039 4.42038 44.3198 4.23822C44.4082 4.11678 44.4689 4.10022 44.6014 4.17198L44.7946 4.27686C44.9215 4.33758 44.9381 4.43142 44.8608 4.55287C44.6621 4.87856 44.2922 5.0828 43.6685 5.0828C42.7632 5.0828 42.3988 4.58047 42.3988 3.90149V3.25011ZM44.3143 3.16179C44.3143 2.80298 44.099 2.59873 43.6795 2.59873C43.2655 2.59873 43.0392 2.80298 43.0392 3.16179V3.28323H44.3143V3.16179ZM46.7976 3.16179C46.7976 2.47729 47.2503 2.05776 48.0672 2.05776C48.8953 2.05776 49.3424 2.47729 49.3424 3.16179V3.97877C49.3424 4.66327 48.8953 5.0828 48.0672 5.0828C47.2503 5.0828 46.7976 4.66327 46.7976 3.97877V3.16179ZM48.7021 3.16179C48.7021 2.82506 48.4757 2.63737 48.0672 2.63737C47.6643 2.63737 47.4379 2.82506 47.4379 3.16179V3.97877C47.4379 4.30998 47.6643 4.50319 48.0672 4.50319C48.4757 4.50319 48.7021 4.30998 48.7021 3.97877V3.16179ZM50.2034 2.24544C50.4242 2.15712 50.7609 2.05776 51.2908 2.05776C52.0747 2.05776 52.439 2.46625 52.439 3.16731V4.82888C52.439 4.95584 52.3949 5 52.2679 5H51.9643C51.8373 5 51.7987 4.95584 51.7987 4.82888V3.18387C51.7987 2.81954 51.6 2.64289 51.197 2.64289C50.9817 2.64289 50.8106 2.67602 50.6671 2.71466C50.6395 2.7257 50.6284 2.74778 50.6284 2.76986V4.82888C50.6284 4.95584 50.5898 5 50.4628 5H50.1592C50.0322 5 49.9881 4.95584 49.9881 4.82888V2.56009C49.9881 2.38345 50.0267 2.31721 50.2034 2.24544ZM33.7238 8.68757C34.0386 8.68757 34.0911 8.81873 34.0124 9.1204L31.8482 17.6327C31.7695 17.9475 31.599 18 31.2974 18H30.576C30.2612 18 30.0907 17.9344 30.0251 17.6459L28.6479 12.4388C28.543 12.0191 28.4512 11.4551 28.438 10.9567H28.3462C28.3331 11.4551 28.2413 11.9797 28.1233 12.4257L26.7329 17.6327C26.6543 17.9475 26.4837 18 26.1821 18H25.4738C25.159 18 24.9885 17.9475 24.9098 17.6459L22.7588 9.1204C22.6801 8.81873 22.7194 8.68757 23.0473 8.68757H23.9655C24.3327 8.68757 24.4901 8.75315 24.5557 9.08105L25.6312 13.9734C25.723 14.4324 25.8148 15.4948 25.8411 15.7309H25.9197C25.9329 15.4555 26.0509 14.4849 26.1821 13.9734L27.5068 9.1204C27.5986 8.7925 27.7691 8.72692 28.097 8.72692H28.8053C29.1463 8.72692 29.3168 8.7925 29.3955 9.1204L30.694 13.9734C30.8383 14.5373 30.9563 15.4817 30.9694 15.7309H31.0481C31.0613 15.5211 31.1793 14.498 31.2842 13.9865L32.3335 9.08105C32.3991 8.75315 32.5565 8.68757 32.9237 8.68757H33.7238ZM36.1158 8.66134C36.7191 8.66134 36.9159 8.84496 36.9159 9.4483V9.56635C36.9159 10.1697 36.7191 10.3664 36.1158 10.3664H36.024C35.4206 10.3664 35.2239 10.1697 35.2239 9.56635V9.4483C35.2239 8.84496 35.4206 8.66134 36.024 8.66134H36.1158ZM36.4306 11.2059C36.7322 11.2059 36.8372 11.2977 36.8372 11.5993V17.5934C36.8372 17.8951 36.7322 18 36.4306 18H35.7092C35.4075 18 35.3157 17.8951 35.3157 17.5934V11.5993C35.3157 11.2977 35.4075 11.2059 35.7092 11.2059H36.4306ZM39.099 11.4551C39.6236 11.2452 40.4237 11.0091 41.6828 11.0091C43.5453 11.0091 44.411 11.9797 44.411 13.6455V17.5934C44.411 17.8951 44.3061 18 44.0044 18H43.283C42.9813 18 42.8895 17.8951 42.8895 17.5934V13.6848C42.8895 12.8191 42.4173 12.3994 41.4599 12.3994C40.9483 12.3994 40.5417 12.4781 40.2007 12.5699C40.1351 12.5962 40.1089 12.6486 40.1089 12.7011V17.5934C40.1089 17.8951 40.0171 18 39.7154 18H38.994C38.6924 18 38.5874 17.8951 38.5874 17.5934V12.2027C38.5874 11.783 38.6793 11.6256 39.099 11.4551ZM45.9159 13.7504C45.9159 11.9797 46.834 11.0091 48.6571 11.0091C49.2998 11.0091 49.8507 11.114 50.2179 11.1796V8.70068C50.2179 8.39901 50.3098 8.29409 50.6114 8.29409H51.3328C51.6345 8.29409 51.7394 8.39901 51.7394 8.70068V17.0556C51.7394 17.4885 51.6345 17.6065 51.2148 17.777C50.6901 17.9738 49.9556 18.1967 48.7621 18.1967C46.8078 18.1967 45.9159 17.2262 45.9159 15.5473V13.7504ZM50.2179 12.5699C49.9163 12.5044 49.4703 12.3994 48.9457 12.3994C47.9095 12.3994 47.4373 12.8585 47.4373 13.7897V15.4948C47.4373 16.3474 47.9489 16.8064 48.9063 16.8064C49.3785 16.8064 49.7851 16.754 50.113 16.6622C50.2048 16.6228 50.2179 16.5966 50.2179 16.5179V12.5699ZM53.2739 13.6323C53.2739 12.0059 54.3494 11.0091 56.2906 11.0091C58.258 11.0091 59.3204 12.0059 59.3204 13.6323V15.5735C59.3204 17.1999 58.258 18.1967 56.2906 18.1967C54.3494 18.1967 53.2739 17.1999 53.2739 15.5735V13.6323ZM57.7989 13.6323C57.7989 12.8323 57.2612 12.3863 56.2906 12.3863C55.3331 12.3863 54.7954 12.8323 54.7954 13.6323V15.5735C54.7954 16.3605 55.3331 16.8196 56.2906 16.8196C57.2612 16.8196 57.7989 16.3605 57.7989 15.5735V13.6323ZM69.0156 11.2059C69.409 11.2059 69.4615 11.2977 69.3566 11.678L67.599 17.6459C67.5203 17.9344 67.3498 18.0131 67.0481 18.0131H66.6022C66.2874 18.0131 66.13 17.9344 66.0382 17.6459L65.0807 14.2881C64.9102 13.6586 64.8578 12.9896 64.8446 12.9372H64.7791C64.7659 12.9896 64.7004 13.6586 64.5299 14.2881L63.5724 17.6459C63.4937 17.9344 63.3232 18.0131 63.0215 18.0131H62.5887C62.287 18.0131 62.1165 17.9344 62.0378 17.6459L60.2934 11.678C60.1753 11.2977 60.2278 11.2059 60.6213 11.2059H61.1328C61.6181 11.2059 61.7886 11.2714 61.8542 11.6125L62.6018 14.5505C62.7198 15.1276 62.7985 16.085 62.8248 16.1506H62.8903C62.9035 16.085 62.9953 15.1538 63.1658 14.5373L64.0314 11.6649C64.1364 11.3108 64.2151 11.2452 64.7004 11.2452H65.002C65.4873 11.2452 65.566 11.3108 65.671 11.6518L66.5497 14.5373C66.7465 15.2063 66.8121 16.085 66.8252 16.1506H66.9039C66.917 16.085 66.9563 15.285 67.1268 14.5373L67.8482 11.6125C67.9269 11.2714 68.0843 11.2059 68.5827 11.2059H69.0156ZM70.3208 13.1208C70.3208 11.8748 71.2127 11.0091 73.0227 11.0091C74.5442 11.0091 75.4099 11.56 75.8296 12.4125C75.987 12.7142 75.9083 12.8716 75.6197 13.0028L75.0295 13.2389C74.7409 13.37 74.6491 13.3307 74.4786 13.0552C74.2556 12.6617 73.9015 12.3732 73.0621 12.3732C72.2095 12.3732 71.8292 12.6093 71.8292 13.0815C71.8292 13.6979 72.3538 13.8028 73.3638 13.8947C74.9246 14.0521 76.0394 14.4062 76.0394 16.0064C76.0394 17.2917 75.0688 18.1967 73.2064 18.1967C71.6587 18.1967 70.675 17.6327 70.2815 16.6097C70.1765 16.3343 70.2421 16.1637 70.5438 16.0588L71.134 15.8752C71.3963 15.7834 71.5406 15.8227 71.6718 16.1244C71.8816 16.6359 72.3538 16.8458 73.1539 16.8458C74.0851 16.8458 74.5442 16.5835 74.5442 16.0719C74.5442 15.4555 74.0327 15.3374 72.9703 15.2325C71.6849 15.1013 70.3208 14.8259 70.3208 13.1208Z" fill="white"/>
<defs>
<clipPath id="clip0_10045_7788">
<rect width="16.1302" height="16.7754" fill="white" transform="translate(0 1.599)"/>
</clipPath>
</defs>
</svg>
