<svg width="123" height="29" viewBox="0 0 123 29" fill="none" xmlns="http://www.w3.org/2000/svg">
<path d="M24.0086 20.8456L27.0032 21.5945C28.3589 21.9335 29.6731 20.9123 29.6731 19.5199V5.07683C29.6731 3.85089 28.8363 2.78198 27.6427 2.48348L19.0572 0.336434C17.7015 -0.0026161 16.3873 1.01864 16.3873 2.4111V5.01474L10.9779 3.66193C9.62211 3.3229 8.30775 4.34414 8.30775 5.7366V8.34022L2.89807 6.98738C1.54234 6.64838 0.228027 7.6696 0.228027 9.06206V23.5051C0.228027 24.731 1.06495 25.7999 2.25854 26.0984L10.8439 28.2455C12.1997 28.5845 13.514 27.5632 13.514 26.1708L13.5162 11.7471C13.5162 10.5288 12.7459 9.82406 12.4665 9.60758C12.4131 9.56631 12.3984 9.4893 12.4367 9.43366C12.4742 9.37895 12.542 9.35315 12.6054 9.37231C13.7367 9.71426 14.8192 10.8753 14.9272 12.3352L15.3006 23.3652C15.3129 23.7274 15.5468 24.0416 15.8836 24.1598L18.9236 24.92C20.2794 25.2592 21.5937 24.2378 21.5937 22.8453L21.5959 8.42497C21.5959 7.20643 20.8271 6.50007 20.5477 6.28359C20.4945 6.24233 20.4798 6.16531 20.5179 6.10968C20.5556 6.05496 20.6233 6.02916 20.6868 6.04833C21.8181 6.39027 22.9005 7.55132 23.0086 9.01121L23.382 20.0405C23.3949 20.4175 23.6488 20.7417 24.0086 20.8456Z" fill="white"/>
<path d="M53.6617 28.1868H50.9302L46.5962 22.1303H44.3162V28.1868H41.9912V12.2548H47.5894C48.6729 12.2548 49.6435 12.4657 50.5014 12.8875C51.3592 13.3094 52.0213 13.8969 52.4878 14.6502C52.9694 15.3885 53.2102 16.2397 53.2102 17.2038C53.2102 18.4092 52.8414 19.4412 52.1041 20.2998C51.3667 21.1435 50.381 21.701 49.147 21.9722L53.6617 28.1868ZM44.3162 14.4016V20.0062H47.5894C48.5526 20.0062 49.3275 19.75 49.9144 19.2377C50.5164 18.7104 50.8174 18.0325 50.8174 17.2038C50.8174 16.3753 50.5164 15.7049 49.9144 15.1926C49.3275 14.6652 48.5526 14.4016 47.5894 14.4016H44.3162ZM59.8311 28.4128C59.0035 28.4128 58.2586 28.2095 57.5964 27.8026C56.9342 27.3808 56.415 26.8083 56.0388 26.0852C55.6625 25.3469 55.4745 24.5182 55.4745 23.5993V16.5034H57.6867V23.4186C57.6867 24.3074 57.9349 25.0306 58.4316 25.5879C58.9282 26.1454 59.5677 26.4241 60.3503 26.4241C61.1629 26.4241 61.8403 26.1379 62.382 25.5654C62.9237 24.9929 63.1946 24.2773 63.1946 23.4186V16.5034H65.4068V28.1868H63.8266L63.3075 26.4241C62.9312 27.0569 62.4346 27.5466 61.8176 27.893C61.2156 28.2395 60.5536 28.4128 59.8311 28.4128ZM73.6538 28.4128C72.1941 28.4128 70.9224 28.0362 69.8387 27.2829C68.7703 26.5145 68.0405 25.475 67.6492 24.1642L69.8839 23.8026C70.3203 24.6463 70.8396 25.2715 71.4416 25.6783C72.0435 26.07 72.7809 26.266 73.6538 26.266C74.5417 26.266 75.264 26.07 75.8207 25.6783C76.3776 25.2715 76.656 24.7217 76.656 24.0286C76.656 23.5165 76.4981 23.087 76.1821 22.7405C75.881 22.394 75.4972 22.1153 75.0308 21.9043C74.5642 21.6935 73.9547 21.4599 73.2022 21.2039C72.1941 20.8724 71.3663 20.541 70.7191 20.2095C70.0721 19.8781 69.5227 19.411 69.0713 18.8084C68.6348 18.1907 68.4166 17.4072 68.4166 16.4582C68.4166 15.5693 68.6348 14.7933 69.0713 14.1304C69.5227 13.4525 70.1398 12.9327 70.9224 12.5711C71.705 12.2096 72.5777 12.0288 73.5409 12.0288C74.8802 12.0288 76.0315 12.3829 76.9947 13.091C77.9578 13.7839 78.6425 14.7406 79.0488 15.9609L76.8592 16.3226C76.5582 15.6295 76.1293 15.1022 75.5725 14.7406C75.0156 14.3639 74.361 14.1756 73.6087 14.1756C72.7959 14.1756 72.1263 14.3716 71.5995 14.7631C71.0728 15.1399 70.8094 15.6597 70.8094 16.3226C70.8094 16.8197 70.96 17.2415 71.261 17.588C71.577 17.9346 71.9607 18.2132 72.4123 18.4242C72.8787 18.6352 73.4957 18.8761 74.2632 19.1473C75.2414 19.4788 76.0541 19.8177 76.7011 20.1643C77.3633 20.4958 77.9202 20.9702 78.3716 21.588C78.8231 22.2057 79.0488 22.9816 79.0488 23.9157C79.0488 24.8196 78.8081 25.6106 78.3265 26.2885C77.8599 26.9664 77.2129 27.4937 76.3851 27.8704C75.5725 28.232 74.662 28.4128 73.6538 28.4128ZM88.3934 26.2433L88.1902 28.1868H86.1361C84.917 28.1868 83.9915 27.8855 83.3595 27.2829C82.7275 26.6802 82.4115 25.814 82.4115 24.684V18.4694H80.4023V16.5034H82.4115L83.021 13.1135H84.6237V16.5034H88.1902V18.4694H84.6237V24.684C84.6237 25.7235 85.1278 26.2433 86.1361 26.2433H88.3934ZM95.7707 28.4128C94.5819 28.4128 93.521 28.1566 92.5879 27.6445C91.6547 27.1322 90.9249 26.4166 90.3982 25.4975C89.8715 24.5786 89.6081 23.5315 89.6081 22.3564C89.6081 21.1812 89.8715 20.1341 90.3982 19.2152C90.9249 18.2961 91.6547 17.5805 92.5879 17.0682C93.521 16.5409 94.5819 16.2774 95.7707 16.2774C96.9596 16.2774 98.0205 16.5409 98.9536 17.0682C99.8866 17.5805 100.617 18.2961 101.143 19.2152C101.67 20.1341 101.933 21.1812 101.933 22.3564C101.933 23.5315 101.67 24.5786 101.143 25.4975C100.617 26.4166 99.8866 27.1322 98.9536 27.6445C98.0205 28.1566 96.9596 28.4128 95.7707 28.4128ZM95.7707 26.3789C96.9144 26.3789 97.84 26.0098 98.5473 25.2715C99.2696 24.5334 99.6307 23.5617 99.6307 22.3564C99.6307 21.151 99.2696 20.1793 98.5473 19.4412C97.84 18.6879 96.9144 18.3111 95.7707 18.3111C94.6271 18.3111 93.7015 18.6879 92.9942 19.4412C92.2869 20.1793 91.9333 21.151 91.9333 22.3564C91.9333 23.5465 92.2869 24.5182 92.9942 25.2715C93.7015 26.0098 94.6271 26.3789 95.7707 26.3789ZM104.306 28.1868V16.5034H105.908L106.382 18.1755C106.729 17.588 107.157 17.1663 107.669 16.9101C108.181 16.6389 108.79 16.5034 109.498 16.5034H110.039L110.22 18.6277H108.956C108.143 18.6277 107.534 18.8611 107.127 19.3281C106.721 19.7952 106.518 20.4279 106.518 21.2264V28.1868H104.306ZM122.867 22.266C122.867 22.5672 122.86 22.8009 122.845 22.9665H113.206C113.326 24.0061 113.732 24.8346 114.425 25.4523C115.117 26.07 115.997 26.3789 117.066 26.3789C117.803 26.3789 118.458 26.2358 119.03 25.9496C119.617 25.6483 120.06 25.2565 120.361 24.7744L122.438 25.1134C121.987 26.1679 121.257 26.9816 120.249 27.5541C119.255 28.1266 118.149 28.4128 116.93 28.4128C115.771 28.4128 114.733 28.1566 113.815 27.6445C112.897 27.1172 112.182 26.394 111.671 25.475C111.159 24.5559 110.903 23.5165 110.903 22.3564C110.903 21.1812 111.159 20.1341 111.671 19.2152C112.182 18.2961 112.89 17.5805 113.793 17.0682C114.695 16.5409 115.726 16.2774 116.885 16.2774C118.029 16.2774 119.052 16.5409 119.955 17.0682C120.873 17.5805 121.588 18.2961 122.1 19.2152C122.611 20.1191 122.867 21.136 122.867 22.266ZM116.885 18.2434C115.997 18.2434 115.23 18.5071 114.583 19.0344C113.951 19.5617 113.529 20.2698 113.319 21.1587H120.452C120.256 20.2848 119.835 19.5842 119.188 19.0569C118.556 18.5146 117.788 18.2434 116.885 18.2434Z" fill="white"/>
<path d="M41.9556 9.315V6.43514H42.1453C42.3912 6.43514 42.5877 6.37526 42.7354 6.25571C42.8829 6.13617 43.0058 5.89705 43.1042 5.53837C43.2095 5.17267 43.2903 4.63464 43.3466 3.92433L43.6521 0H48.3308V6.43514H49.4162V9.315H48.3308V7.43724H43.041V9.315H41.9556ZM47.2454 6.43514V1.00217H44.6531L44.432 3.97708C44.3476 5.16563 44.1298 5.98496 43.7786 6.43514H47.2454ZM52.8664 7.5428C52.3115 7.5428 51.8162 7.42321 51.3806 7.18402C50.9451 6.945 50.6043 6.61086 50.3584 6.18187C50.1126 5.75287 49.9896 5.26408 49.9896 4.71552C49.9896 4.16696 50.1126 3.67817 50.3584 3.24917C50.6043 2.82017 50.9451 2.48611 51.3806 2.24699C51.8162 2.00085 52.3115 1.87776 52.8664 1.87776C53.4213 1.87776 53.9166 2.00085 54.3523 2.24699C54.7877 2.48611 55.1285 2.82017 55.3743 3.24917C55.6202 3.67817 55.7431 4.16696 55.7431 4.71552C55.7431 5.26408 55.6202 5.75287 55.3743 6.18187C55.1285 6.61086 54.7877 6.945 54.3523 7.18402C53.9166 7.42321 53.4213 7.5428 52.8664 7.5428ZM52.8664 6.59323C53.4003 6.59323 53.8324 6.42094 54.1626 6.07639C54.4997 5.73177 54.6683 5.27815 54.6683 4.71552C54.6683 4.15289 54.4997 3.69927 54.1626 3.35467C53.8324 3.00302 53.4003 2.8272 52.8664 2.8272C52.3325 2.8272 51.9005 3.00302 51.5703 3.35467C51.2401 3.69927 51.075 4.15289 51.075 4.71552C51.075 5.27112 51.2401 5.72474 51.5703 6.07639C51.9005 6.42094 52.3325 6.59323 52.8664 6.59323ZM59.3585 7.5428C58.8176 7.5428 58.3293 7.42321 57.8939 7.18402C57.4652 6.93798 57.1316 6.60025 56.8927 6.17133C56.654 5.74233 56.5345 5.25705 56.5345 4.71552C56.5345 4.16696 56.654 3.67817 56.8927 3.24917C57.1316 2.82017 57.4652 2.48611 57.8939 2.24699C58.3223 2.00085 58.8106 1.87776 59.3585 1.87776C59.9416 1.87776 60.4615 2.01842 60.918 2.29973C61.3817 2.58105 61.7119 2.98545 61.9086 3.51291L60.9392 3.67114C60.8127 3.41796 60.6125 3.21401 60.3385 3.05929C60.0715 2.90457 59.766 2.8272 59.4218 2.8272C58.8878 2.8272 58.4524 3.00302 58.115 3.35467C57.785 3.70632 57.6199 4.15992 57.6199 4.71552C57.6199 5.27112 57.785 5.72474 58.115 6.07639C58.4524 6.42094 58.8878 6.59323 59.4218 6.59323C59.78 6.59323 60.0961 6.51247 60.3701 6.35062C60.6511 6.1889 60.8548 5.9744 60.9813 5.70715L61.9508 5.86539C61.7541 6.39989 61.4169 6.8148 60.9392 7.11028C60.4685 7.39857 59.9416 7.5428 59.3585 7.5428ZM65.1391 7.43724H64.1065V2.9327H62.2202V1.98326H67.0254V2.9327H65.1391V7.43724ZM71.904 1.98326H72.9682L70.6921 8.26004C70.5236 8.73123 70.3023 9.07239 70.0283 9.28335C69.7544 9.49431 69.389 9.59987 68.9325 9.59987H68.121L68.0262 8.65047H68.9957C69.1994 8.65047 69.3574 8.60462 69.4698 8.51325C69.5823 8.4289 69.6771 8.27766 69.7544 8.05968L69.8702 7.74316L67.4466 1.98326H68.5531L70.2813 6.19242H70.4288L71.904 1.98326ZM74.9349 7.43724H73.9021V1.98326H78.5387V7.43724H77.5059V2.9327H74.9349V7.43724ZM83.6198 4.20916V1.98326H84.6526V7.43724H83.6198V5.1586H80.9959V7.43724H79.9633V1.98326H80.9959V4.20916H83.6198ZM88.6365 7.5428C88.0816 7.5428 87.5863 7.42321 87.1508 7.18402C86.7152 6.945 86.3744 6.61086 86.1286 6.18187C85.8827 5.75287 85.7598 5.26408 85.7598 4.71552C85.7598 4.16696 85.8827 3.67817 86.1286 3.24917C86.3744 2.82017 86.7152 2.48611 87.1508 2.24699C87.5863 2.00085 88.0816 1.87776 88.6365 1.87776C89.1916 1.87776 89.6867 2.00085 90.1223 2.24699C90.558 2.48611 90.8986 2.82017 91.1445 3.24917C91.3903 3.67817 91.5133 4.16696 91.5133 4.71552C91.5133 5.26408 91.3903 5.75287 91.1445 6.18187C90.8986 6.61086 90.558 6.945 90.1223 7.18402C89.6867 7.42321 89.1916 7.5428 88.6365 7.5428ZM88.6365 6.59323C89.1704 6.59323 89.6024 6.42094 89.9326 6.07639C90.2698 5.73177 90.4385 5.27815 90.4385 4.71552C90.4385 4.15289 90.2698 3.69927 89.9326 3.35467C89.6024 3.00302 89.1704 2.8272 88.6365 2.8272C88.1026 2.8272 87.6705 3.00302 87.3404 3.35467C87.0102 3.69927 86.8451 4.15289 86.8451 4.71552C86.8451 5.27112 87.0102 5.72474 87.3404 6.07639C87.6705 6.42094 88.1026 6.59323 88.6365 6.59323ZM98.7665 4.57839C99.0477 4.68388 99.2724 4.85618 99.4411 5.0953C99.6166 5.32739 99.7044 5.60167 99.7044 5.91814C99.7044 6.20649 99.6202 6.46662 99.4515 6.6988C99.29 6.9308 99.0617 7.1137 98.7665 7.24733C98.4715 7.37394 98.1343 7.43724 97.7549 7.43724H95.1522V1.98326H97.6601C98.0185 1.98326 98.3381 2.04655 98.619 2.17314C98.9 2.29973 99.1179 2.47204 99.2724 2.69007C99.4339 2.90808 99.5147 3.15775 99.5147 3.43907C99.5147 3.70632 99.4481 3.93839 99.3146 4.13532C99.1881 4.3252 99.0054 4.47289 98.7665 4.57839ZM96.1848 2.85885V4.19861H97.6601C97.899 4.19861 98.0957 4.13883 98.2502 4.01927C98.4049 3.89268 98.4821 3.73092 98.4821 3.53401C98.4821 3.33708 98.4049 3.17533 98.2502 3.04873C98.0957 2.92214 97.899 2.85885 97.6601 2.85885H96.1848ZM97.7549 6.56158C98.0289 6.56158 98.2502 6.49126 98.4189 6.35062C98.5874 6.21001 98.6718 6.02715 98.6718 5.80211C98.6718 5.57705 98.5874 5.3942 98.4189 5.25354C98.2502 5.11289 98.0289 5.04255 97.7549 5.04255H96.1848V6.56158H97.7549Z" fill="white"/>
</svg>
