<svg width="128" height="34" viewBox="0 0 128 34" fill="none" xmlns="http://www.w3.org/2000/svg">
<g clip-path="url(#clip0_10017_10287)">
<path d="M0.277344 7.04229V15.7907H12.054V5.51132L0.277344 7.04229Z" fill="white"/>
<path d="M13.7368 5.29295V15.791H27.1958V3.54327L13.7368 5.29295Z" fill="white"/>
<path d="M13.7368 17.5405V28.0385L27.1958 29.7882V17.5405H13.7368Z" fill="white"/>
<path d="M0.277344 17.5407V26.2891L12.054 27.8201V17.5407H0.277344Z" fill="white"/>
</g>
<path d="M41.346 11.8178C41.3901 11.9393 41.357 12 41.219 12H40.9319C40.7001 12 40.6339 11.9669 40.5897 11.8344L40.3358 11.1223H38.8122L38.5528 11.8344C38.5086 11.9669 38.4424 12 38.2105 12H37.9566C37.8186 12 37.7855 11.9393 37.8296 11.8178L39.2097 8.22974C39.2593 8.10277 39.3145 8.07517 39.4415 8.07517H39.7341C39.861 8.07517 39.9218 8.10277 39.9659 8.22422L41.346 11.8178ZM39.723 9.38897C39.6071 9.04672 39.5961 8.72103 39.5905 8.71551H39.5519C39.5519 8.72103 39.5464 9.04672 39.4305 9.38345L39.0054 10.5537H40.1426L39.723 9.38897ZM43.93 9.14056C44.0956 9.14056 44.1343 9.1792 44.0736 9.33377L43.0523 11.851C43.0026 11.9724 42.9474 12.0055 42.8205 12.0055H42.6383C42.5114 12.0055 42.4506 11.9724 42.4065 11.851L41.3908 9.33929C41.33 9.1792 41.3632 9.14056 41.5288 9.14056H41.7441C41.9483 9.14056 42.0035 9.17368 42.0477 9.31169L42.561 10.6365C42.6604 10.896 42.7101 11.2051 42.7156 11.2272H42.7432C42.7542 11.2051 42.7984 10.907 42.8922 10.642L43.4001 9.31169C43.4553 9.17368 43.4995 9.14056 43.7092 9.14056H43.93ZM44.4651 9.63185C44.6528 9.27304 45.0337 9.05776 45.6078 9.05776C46.5131 9.05776 46.7891 9.54353 46.7891 10.1949V11.6246C46.7891 11.8178 46.7449 11.873 46.5904 11.9393C46.3861 12.0276 46.0494 12.0828 45.5967 12.0828C44.6197 12.0828 44.3657 11.7626 44.3657 11.1885C44.3657 10.5261 44.7356 10.2998 45.6188 10.2998C45.8341 10.2998 46.0549 10.3219 46.1487 10.3274V10.1728C46.1487 9.82506 46.0107 9.62633 45.5967 9.62633C45.3207 9.62633 45.133 9.71466 45.0171 9.8913C44.9398 10.0072 44.9067 10.0238 44.7797 9.9741L44.5589 9.88026C44.4375 9.82506 44.3989 9.75882 44.4651 9.63185ZM46.1487 10.8518C46.0328 10.8463 45.7623 10.8242 45.547 10.8242C45.1275 10.8242 45.0171 10.9567 45.0171 11.183C45.0171 11.4093 45.1054 11.5529 45.536 11.5529C45.8175 11.5529 45.9887 11.5308 46.088 11.5087C46.1322 11.4921 46.1487 11.4811 46.1487 11.4314V10.8518ZM47.8244 8.06965C48.0783 8.06965 48.1611 8.14693 48.1611 8.40086V8.45054C48.1611 8.70447 48.0783 8.78727 47.8244 8.78727H47.7858C47.5318 8.78727 47.449 8.70447 47.449 8.45054V8.40086C47.449 8.14693 47.5318 8.06965 47.7858 8.06965H47.8244ZM47.9569 9.14056C48.0839 9.14056 48.128 9.1792 48.128 9.30617V11.8289C48.128 11.9558 48.0839 12 47.9569 12H47.6533C47.5263 12 47.4877 11.9558 47.4877 11.8289V9.30617C47.4877 9.1792 47.5263 9.14056 47.6533 9.14056H47.9569ZM49.5326 11.8289C49.5326 11.9558 49.4884 12 49.3615 12H49.0634C48.9309 12 48.8923 11.9558 48.8923 11.8289V8.08621C48.8923 7.95925 48.9309 7.91509 49.0634 7.91509H49.3615C49.4884 7.91509 49.5326 7.95925 49.5326 8.08621V11.8289ZM50.2518 9.63185C50.4395 9.27304 50.8203 9.05776 51.3944 9.05776C52.2997 9.05776 52.5758 9.54353 52.5758 10.1949V11.6246C52.5758 11.8178 52.5316 11.873 52.377 11.9393C52.1728 12.0276 51.8361 12.0828 51.3834 12.0828C50.4063 12.0828 50.1524 11.7626 50.1524 11.1885C50.1524 10.5261 50.5223 10.2998 51.4055 10.2998C51.6208 10.2998 51.8416 10.3219 51.9354 10.3274V10.1728C51.9354 9.82506 51.7974 9.62633 51.3834 9.62633C51.1074 9.62633 50.9197 9.71466 50.8038 9.8913C50.7265 10.0072 50.6934 10.0238 50.5664 9.9741L50.3456 9.88026C50.2242 9.82506 50.1855 9.75882 50.2518 9.63185ZM51.9354 10.8518C51.8195 10.8463 51.549 10.8242 51.3337 10.8242C50.9142 10.8242 50.8038 10.9567 50.8038 11.183C50.8038 11.4093 50.8921 11.5529 51.3227 11.5529C51.6042 11.5529 51.7753 11.5308 51.8747 11.5087C51.9189 11.4921 51.9354 11.4811 51.9354 11.4314V10.8518ZM53.738 7.91509C53.865 7.91509 53.9037 7.95925 53.9037 8.08621V9.1516C54.0693 9.11296 54.2956 9.05776 54.5661 9.05776C55.3555 9.05776 55.7143 9.46625 55.7143 10.1673V10.9125C55.7143 11.6688 55.3113 12.0828 54.4667 12.0828C54.0196 12.0828 53.6608 11.989 53.4676 11.9062C53.2909 11.8234 53.2633 11.7792 53.2633 11.6025V8.08621C53.2633 7.95925 53.3075 7.91509 53.4344 7.91509H53.738ZM55.0739 10.1839C55.0739 9.8361 54.8642 9.64289 54.4722 9.64289C54.2404 9.64289 54.0361 9.6981 53.9037 9.74226V11.3707C53.9037 11.3983 53.9092 11.4149 53.9478 11.4314C54.0748 11.4756 54.2404 11.4977 54.4225 11.4977C54.8642 11.4977 55.0739 11.3045 55.0739 10.896V10.1839ZM57.0335 11.8289C57.0335 11.9558 56.9894 12 56.8624 12H56.5643C56.4318 12 56.3932 11.9558 56.3932 11.8289V8.08621C56.3932 7.95925 56.4318 7.91509 56.5643 7.91509H56.8624C56.9894 7.91509 57.0335 7.95925 57.0335 8.08621V11.8289ZM57.703 10.2501C57.703 9.48281 58.1502 9.05776 58.9837 9.05776C59.8614 9.05776 60.2589 9.56561 60.2589 10.2004V10.5372C60.2589 10.6807 60.2037 10.7745 60.0104 10.7745H58.3434V10.9788C58.3434 11.3376 58.5697 11.5308 58.9727 11.5308C59.2983 11.5308 59.5081 11.4204 59.624 11.2382C59.7124 11.1168 59.7731 11.1002 59.9056 11.172L60.0988 11.2769C60.2257 11.3376 60.2423 11.4314 60.165 11.5529C59.9663 11.8786 59.5964 12.0828 58.9727 12.0828C58.0674 12.0828 57.703 11.5805 57.703 10.9015V10.2501ZM59.6185 10.1618C59.6185 9.80298 59.4032 9.59873 58.9837 9.59873C58.5697 9.59873 58.3434 9.80298 58.3434 10.1618V10.2832H59.6185V10.1618ZM62.1018 10.1618C62.1018 9.47729 62.5545 9.05776 63.3714 9.05776C64.1995 9.05776 64.6466 9.47729 64.6466 10.1618V10.9788C64.6466 11.6633 64.1995 12.0828 63.3714 12.0828C62.5545 12.0828 62.1018 11.6633 62.1018 10.9788V10.1618ZM64.0063 10.1618C64.0063 9.82506 63.7799 9.63737 63.3714 9.63737C62.9685 9.63737 62.7421 9.82506 62.7421 10.1618V10.9788C62.7421 11.31 62.9685 11.5032 63.3714 11.5032C63.7799 11.5032 64.0063 11.31 64.0063 10.9788V10.1618ZM65.5076 9.24544C65.7284 9.15712 66.0651 9.05776 66.595 9.05776C67.3789 9.05776 67.7432 9.46625 67.7432 10.1673V11.8289C67.7432 11.9558 67.6991 12 67.5721 12H67.2685C67.1415 12 67.1029 11.9558 67.1029 11.8289V10.1839C67.1029 9.81954 66.9042 9.64289 66.5012 9.64289C66.2859 9.64289 66.1148 9.67602 65.9713 9.71466C65.9437 9.7257 65.9326 9.74778 65.9326 9.76986V11.8289C65.9326 11.9558 65.894 12 65.767 12H65.4634C65.3364 12 65.2923 11.9558 65.2923 11.8289V9.56009C65.2923 9.38345 65.3309 9.31721 65.5076 9.24544ZM49.028 15.6876C49.3428 15.6876 49.3953 15.8187 49.3166 16.1204L47.1524 24.6327C47.0737 24.9475 46.9032 25 46.6015 25H45.8802C45.5654 25 45.3949 24.9344 45.3293 24.6459L43.9521 19.4388C43.8472 19.0191 43.7554 18.4551 43.7422 17.9567H43.6504C43.6373 18.4551 43.5455 18.9797 43.4275 19.4257L42.0371 24.6327C41.9584 24.9475 41.7879 25 41.4863 25H40.778C40.4632 25 40.2927 24.9475 40.214 24.6459L38.063 16.1204C37.9843 15.8187 38.0236 15.6876 38.3515 15.6876H39.2696C39.6369 15.6876 39.7943 15.7531 39.8599 16.0811L40.9354 20.9734C41.0272 21.4324 41.119 22.4948 41.1453 22.7309H41.2239C41.2371 22.4555 41.3551 21.4849 41.4863 20.9734L42.811 16.1204C42.9028 15.7925 43.0733 15.7269 43.4012 15.7269H44.1095C44.4505 15.7269 44.621 15.7925 44.6997 16.1204L45.9982 20.9734C46.1425 21.5373 46.2605 22.4817 46.2736 22.7309H46.3523C46.3655 22.5211 46.4835 21.498 46.5884 20.9865L47.6377 16.0811C47.7033 15.7531 47.8607 15.6876 48.2279 15.6876H49.028ZM51.42 15.6613C52.0233 15.6613 52.2201 15.845 52.2201 16.4483V16.5663C52.2201 17.1697 52.0233 17.3664 51.42 17.3664H51.3282C50.7248 17.3664 50.5281 17.1697 50.5281 16.5663V16.4483C50.5281 15.845 50.7248 15.6613 51.3282 15.6613H51.42ZM51.7348 18.2059C52.0364 18.2059 52.1414 18.2977 52.1414 18.5993V24.5934C52.1414 24.8951 52.0364 25 51.7348 25H51.0134C50.7117 25 50.6199 24.8951 50.6199 24.5934V18.5993C50.6199 18.2977 50.7117 18.2059 51.0134 18.2059H51.7348ZM54.4032 18.4551C54.9278 18.2452 55.7279 18.0091 56.987 18.0091C58.8495 18.0091 59.7152 18.9797 59.7152 20.6455V24.5934C59.7152 24.8951 59.6103 25 59.3086 25H58.5872C58.2855 25 58.1937 24.8951 58.1937 24.5934V20.6848C58.1937 19.8191 57.7215 19.3994 56.7641 19.3994C56.2525 19.3994 55.8459 19.4781 55.5049 19.5699C55.4393 19.5962 55.4131 19.6486 55.4131 19.7011V24.5934C55.4131 24.8951 55.3213 25 55.0196 25H54.2982C53.9966 25 53.8916 24.8951 53.8916 24.5934V19.2027C53.8916 18.783 53.9835 18.6256 54.4032 18.4551ZM61.2201 20.7504C61.2201 18.9797 62.1382 18.0091 63.9613 18.0091C64.604 18.0091 65.1549 18.114 65.5221 18.1796V15.7007C65.5221 15.399 65.614 15.2941 65.9156 15.2941H66.637C66.9387 15.2941 67.0436 15.399 67.0436 15.7007V24.0556C67.0436 24.4885 66.9387 24.6065 66.519 24.777C65.9943 24.9738 65.2598 25.1967 64.0663 25.1967C62.112 25.1967 61.2201 24.2262 61.2201 22.5473V20.7504ZM65.5221 19.5699C65.2205 19.5044 64.7745 19.3994 64.2499 19.3994C63.2137 19.3994 62.7415 19.8585 62.7415 20.7897V22.4948C62.7415 23.3474 63.2531 23.8064 64.2105 23.8064C64.6827 23.8064 65.0893 23.754 65.4172 23.6622C65.509 23.6228 65.5221 23.5966 65.5221 23.5179V19.5699ZM68.5781 20.6323C68.5781 19.0059 69.6536 18.0091 71.5948 18.0091C73.5622 18.0091 74.6246 19.0059 74.6246 20.6323V22.5735C74.6246 24.1999 73.5622 25.1967 71.5948 25.1967C69.6536 25.1967 68.5781 24.1999 68.5781 22.5735V20.6323ZM73.1031 20.6323C73.1031 19.8323 72.5654 19.3863 71.5948 19.3863C70.6373 19.3863 70.0996 19.8323 70.0996 20.6323V22.5735C70.0996 23.3605 70.6373 23.8196 71.5948 23.8196C72.5654 23.8196 73.1031 23.3605 73.1031 22.5735V20.6323ZM84.3198 18.2059C84.7132 18.2059 84.7657 18.2977 84.6608 18.678L82.9032 24.6459C82.8245 24.9344 82.654 25.0131 82.3523 25.0131H81.9064C81.5916 25.0131 81.4342 24.9344 81.3424 24.6459L80.3849 21.2881C80.2144 20.6586 80.162 19.9896 80.1488 19.9372H80.0833C80.0701 19.9896 80.0046 20.6586 79.8341 21.2881L78.8766 24.6459C78.7979 24.9344 78.6274 25.0131 78.3257 25.0131H77.8929C77.5912 25.0131 77.4207 24.9344 77.342 24.6459L75.5976 18.678C75.4795 18.2977 75.532 18.2059 75.9255 18.2059H76.437C76.9223 18.2059 77.0928 18.2714 77.1584 18.6125L77.906 21.5505C78.024 22.1276 78.1027 23.085 78.129 23.1506H78.1945C78.2077 23.085 78.2995 22.1538 78.47 21.5373L79.3356 18.6649C79.4406 18.3108 79.5193 18.2452 80.0046 18.2452H80.3062C80.7915 18.2452 80.8702 18.3108 80.9752 18.6518L81.8539 21.5373C82.0507 22.2063 82.1163 23.085 82.1294 23.1506H82.2081C82.2212 23.085 82.2605 22.285 82.431 21.5373L83.1524 18.6125C83.2311 18.2714 83.3885 18.2059 83.8869 18.2059H84.3198ZM85.625 20.1208C85.625 18.8748 86.5169 18.0091 88.3269 18.0091C89.8484 18.0091 90.7141 18.56 91.1338 19.4125C91.2912 19.7142 91.2125 19.8716 90.9239 20.0028L90.3337 20.2389C90.0451 20.37 89.9533 20.3307 89.7828 20.0552C89.5598 19.6617 89.2057 19.3732 88.3663 19.3732C87.5137 19.3732 87.1334 19.6093 87.1334 20.0815C87.1334 20.6979 87.658 20.8028 88.668 20.8947C90.2288 21.0521 91.3436 21.4062 91.3436 23.0064C91.3436 24.2917 90.373 25.1967 88.5106 25.1967C86.9629 25.1967 85.9792 24.6327 85.5857 23.6097C85.4807 23.3343 85.5463 23.1637 85.848 23.0588L86.4382 22.8752C86.7005 22.7834 86.8448 22.8227 86.976 23.1244C87.1858 23.6359 87.658 23.8458 88.4581 23.8458C89.3893 23.8458 89.8484 23.5835 89.8484 23.0719C89.8484 22.4555 89.3369 22.3374 88.2745 22.2325C86.9891 22.1013 85.625 21.8259 85.625 20.1208Z" fill="white"/>
<defs>
<clipPath id="clip0_10017_10287">
<rect width="26.9181" height="27.9948" fill="white" transform="translate(0.275879 2.66837)"/>
</clipPath>
</defs>
</svg>
