<svg width="93" height="27" viewBox="0 0 93 27" fill="none" xmlns="http://www.w3.org/2000/svg">
<g clip-path="url(#clip0_10044_7769)">
<g clip-path="url(#clip1_10044_7769)">
<path d="M0.277344 4.04229V12.7907H12.054V2.51132L0.277344 4.04229Z" fill="white"/>
<path d="M13.7368 2.29295V12.791H27.1958V0.543274L13.7368 2.29295Z" fill="white"/>
<path d="M13.7368 14.5405V25.0385L27.1958 26.7882V14.5405H13.7368Z" fill="white"/>
<path d="M0.277344 14.5407V23.2891L12.054 24.8201V14.5407H0.277344Z" fill="white"/>
</g>
<path d="M41.346 8.81783C41.3901 8.93928 41.357 9 41.219 9H40.9319C40.7001 9 40.6339 8.96688 40.5897 8.8344L40.3358 8.1223H38.8122L38.5528 8.8344C38.5086 8.96688 38.4424 9 38.2105 9H37.9566C37.8186 9 37.7855 8.93928 37.8296 8.81783L39.2097 5.22974C39.2593 5.10277 39.3145 5.07517 39.4415 5.07517H39.7341C39.861 5.07517 39.9218 5.10277 39.9659 5.22422L41.346 8.81783ZM39.723 6.38897C39.6071 6.04672 39.5961 5.72103 39.5905 5.71551H39.5519C39.5519 5.72103 39.5464 6.04672 39.4305 6.38345L39.0054 7.55372H40.1426L39.723 6.38897ZM43.93 6.14056C44.0956 6.14056 44.1343 6.1792 44.0736 6.33377L43.0523 8.85096C43.0026 8.9724 42.9474 9.00552 42.8205 9.00552H42.6383C42.5114 9.00552 42.4506 8.9724 42.4065 8.85096L41.3908 6.33929C41.33 6.1792 41.3632 6.14056 41.5288 6.14056H41.7441C41.9483 6.14056 42.0035 6.17368 42.0477 6.31169L42.561 7.63652C42.6604 7.89597 42.7101 8.2051 42.7156 8.22718H42.7432C42.7542 8.2051 42.7984 7.90701 42.8922 7.64204L43.4001 6.31169C43.4553 6.17368 43.4995 6.14056 43.7092 6.14056H43.93ZM44.4651 6.63185C44.6528 6.27304 45.0337 6.05776 45.6078 6.05776C46.5131 6.05776 46.7891 6.54353 46.7891 7.19491V8.62463C46.7891 8.81783 46.7449 8.87304 46.5904 8.93928C46.3861 9.0276 46.0494 9.0828 45.5967 9.0828C44.6197 9.0828 44.3657 8.76263 44.3657 8.18854C44.3657 7.52612 44.7356 7.29979 45.6188 7.29979C45.8341 7.29979 46.0549 7.32187 46.1487 7.32739V7.17283C46.1487 6.82506 46.0107 6.62633 45.5967 6.62633C45.3207 6.62633 45.133 6.71466 45.0171 6.8913C44.9398 7.00722 44.9067 7.02379 44.7797 6.9741L44.5589 6.88026C44.4375 6.82506 44.3989 6.75882 44.4651 6.63185ZM46.1487 7.85181C46.0328 7.84629 45.7623 7.82421 45.547 7.82421C45.1275 7.82421 45.0171 7.95669 45.0171 8.18302C45.0171 8.40934 45.1054 8.55287 45.536 8.55287C45.8175 8.55287 45.9887 8.53079 46.088 8.50871C46.1322 8.49215 46.1487 8.48111 46.1487 8.43142V7.85181ZM47.8244 5.06965C48.0783 5.06965 48.1611 5.14693 48.1611 5.40086V5.45054C48.1611 5.70447 48.0783 5.78727 47.8244 5.78727H47.7858C47.5318 5.78727 47.449 5.70447 47.449 5.45054V5.40086C47.449 5.14693 47.5318 5.06965 47.7858 5.06965H47.8244ZM47.9569 6.14056C48.0839 6.14056 48.128 6.1792 48.128 6.30617V8.82888C48.128 8.95584 48.0839 9 47.9569 9H47.6533C47.5263 9 47.4877 8.95584 47.4877 8.82888V6.30617C47.4877 6.1792 47.5263 6.14056 47.6533 6.14056H47.9569ZM49.5326 8.82888C49.5326 8.95584 49.4884 9 49.3615 9H49.0634C48.9309 9 48.8923 8.95584 48.8923 8.82888V5.08621C48.8923 4.95925 48.9309 4.91509 49.0634 4.91509H49.3615C49.4884 4.91509 49.5326 4.95925 49.5326 5.08621V8.82888ZM50.2518 6.63185C50.4395 6.27304 50.8203 6.05776 51.3944 6.05776C52.2997 6.05776 52.5758 6.54353 52.5758 7.19491V8.62463C52.5758 8.81783 52.5316 8.87304 52.377 8.93928C52.1728 9.0276 51.8361 9.0828 51.3834 9.0828C50.4063 9.0828 50.1524 8.76263 50.1524 8.18854C50.1524 7.52612 50.5223 7.29979 51.4055 7.29979C51.6208 7.29979 51.8416 7.32187 51.9354 7.32739V7.17283C51.9354 6.82506 51.7974 6.62633 51.3834 6.62633C51.1074 6.62633 50.9197 6.71466 50.8038 6.8913C50.7265 7.00722 50.6934 7.02379 50.5664 6.9741L50.3456 6.88026C50.2242 6.82506 50.1855 6.75882 50.2518 6.63185ZM51.9354 7.85181C51.8195 7.84629 51.549 7.82421 51.3337 7.82421C50.9142 7.82421 50.8038 7.95669 50.8038 8.18302C50.8038 8.40934 50.8921 8.55287 51.3227 8.55287C51.6042 8.55287 51.7753 8.53079 51.8747 8.50871C51.9189 8.49215 51.9354 8.48111 51.9354 8.43142V7.85181ZM53.738 4.91509C53.865 4.91509 53.9037 4.95925 53.9037 5.08621V6.1516C54.0693 6.11296 54.2956 6.05776 54.5661 6.05776C55.3555 6.05776 55.7143 6.46625 55.7143 7.16731V7.91253C55.7143 8.66879 55.3113 9.0828 54.4667 9.0828C54.0196 9.0828 53.6608 8.98896 53.4676 8.90616C53.2909 8.82336 53.2633 8.77919 53.2633 8.60255V5.08621C53.2633 4.95925 53.3075 4.91509 53.4344 4.91509H53.738ZM55.0739 7.18387C55.0739 6.8361 54.8642 6.64289 54.4722 6.64289C54.2404 6.64289 54.0361 6.6981 53.9037 6.74226V8.3707C53.9037 8.3983 53.9092 8.41486 53.9478 8.43142C54.0748 8.47559 54.2404 8.49767 54.4225 8.49767C54.8642 8.49767 55.0739 8.30446 55.0739 7.89597V7.18387ZM57.0335 8.82888C57.0335 8.95584 56.9894 9 56.8624 9H56.5643C56.4318 9 56.3932 8.95584 56.3932 8.82888V5.08621C56.3932 4.95925 56.4318 4.91509 56.5643 4.91509H56.8624C56.9894 4.91509 57.0335 4.95925 57.0335 5.08621V8.82888ZM57.703 7.25011C57.703 6.48281 58.1502 6.05776 58.9837 6.05776C59.8614 6.05776 60.2589 6.56561 60.2589 7.20043V7.53716C60.2589 7.68068 60.2037 7.77453 60.0104 7.77453H58.3434V7.97877C58.3434 8.33758 58.5697 8.53079 58.9727 8.53079C59.2983 8.53079 59.5081 8.42038 59.624 8.23822C59.7124 8.11678 59.7731 8.10022 59.9056 8.17198L60.0988 8.27686C60.2257 8.33758 60.2423 8.43142 60.165 8.55287C59.9663 8.87856 59.5964 9.0828 58.9727 9.0828C58.0674 9.0828 57.703 8.58047 57.703 7.90149V7.25011ZM59.6185 7.16179C59.6185 6.80298 59.4032 6.59873 58.9837 6.59873C58.5697 6.59873 58.3434 6.80298 58.3434 7.16179V7.28323H59.6185V7.16179ZM62.1018 7.16179C62.1018 6.47729 62.5545 6.05776 63.3714 6.05776C64.1995 6.05776 64.6466 6.47729 64.6466 7.16179V7.97877C64.6466 8.66327 64.1995 9.0828 63.3714 9.0828C62.5545 9.0828 62.1018 8.66327 62.1018 7.97877V7.16179ZM64.0063 7.16179C64.0063 6.82506 63.7799 6.63737 63.3714 6.63737C62.9685 6.63737 62.7421 6.82506 62.7421 7.16179V7.97877C62.7421 8.30998 62.9685 8.50319 63.3714 8.50319C63.7799 8.50319 64.0063 8.30998 64.0063 7.97877V7.16179ZM65.5076 6.24544C65.7284 6.15712 66.0651 6.05776 66.595 6.05776C67.3789 6.05776 67.7432 6.46625 67.7432 7.16731V8.82888C67.7432 8.95584 67.6991 9 67.5721 9H67.2685C67.1415 9 67.1029 8.95584 67.1029 8.82888V7.18387C67.1029 6.81954 66.9042 6.64289 66.5012 6.64289C66.2859 6.64289 66.1148 6.67602 65.9713 6.71466C65.9437 6.7257 65.9326 6.74778 65.9326 6.76986V8.82888C65.9326 8.95584 65.894 9 65.767 9H65.4634C65.3364 9 65.2923 8.95584 65.2923 8.82888V6.56009C65.2923 6.38345 65.3309 6.31721 65.5076 6.24544ZM49.028 12.6876C49.3428 12.6876 49.3953 12.8187 49.3166 13.1204L47.1524 21.6327C47.0737 21.9475 46.9032 22 46.6015 22H45.8802C45.5654 22 45.3949 21.9344 45.3293 21.6459L43.9521 16.4388C43.8472 16.0191 43.7554 15.4551 43.7422 14.9567H43.6504C43.6373 15.4551 43.5455 15.9797 43.4275 16.4257L42.0371 21.6327C41.9584 21.9475 41.7879 22 41.4863 22H40.778C40.4632 22 40.2927 21.9475 40.214 21.6459L38.063 13.1204C37.9843 12.8187 38.0236 12.6876 38.3515 12.6876H39.2696C39.6369 12.6876 39.7943 12.7531 39.8599 13.0811L40.9354 17.9734C41.0272 18.4324 41.119 19.4948 41.1453 19.7309H41.2239C41.2371 19.4555 41.3551 18.4849 41.4863 17.9734L42.811 13.1204C42.9028 12.7925 43.0733 12.7269 43.4012 12.7269H44.1095C44.4505 12.7269 44.621 12.7925 44.6997 13.1204L45.9982 17.9734C46.1425 18.5373 46.2605 19.4817 46.2736 19.7309H46.3523C46.3655 19.5211 46.4835 18.498 46.5884 17.9865L47.6377 13.0811C47.7033 12.7531 47.8607 12.6876 48.2279 12.6876H49.028ZM51.42 12.6613C52.0233 12.6613 52.2201 12.845 52.2201 13.4483V13.5663C52.2201 14.1697 52.0233 14.3664 51.42 14.3664H51.3282C50.7248 14.3664 50.5281 14.1697 50.5281 13.5663V13.4483C50.5281 12.845 50.7248 12.6613 51.3282 12.6613H51.42ZM51.7348 15.2059C52.0364 15.2059 52.1414 15.2977 52.1414 15.5993V21.5934C52.1414 21.8951 52.0364 22 51.7348 22H51.0134C50.7117 22 50.6199 21.8951 50.6199 21.5934V15.5993C50.6199 15.2977 50.7117 15.2059 51.0134 15.2059H51.7348ZM54.4032 15.4551C54.9278 15.2452 55.7279 15.0091 56.987 15.0091C58.8495 15.0091 59.7152 15.9797 59.7152 17.6455V21.5934C59.7152 21.8951 59.6103 22 59.3086 22H58.5872C58.2855 22 58.1937 21.8951 58.1937 21.5934V17.6848C58.1937 16.8191 57.7215 16.3994 56.7641 16.3994C56.2525 16.3994 55.8459 16.4781 55.5049 16.5699C55.4393 16.5962 55.4131 16.6486 55.4131 16.7011V21.5934C55.4131 21.8951 55.3213 22 55.0196 22H54.2982C53.9966 22 53.8916 21.8951 53.8916 21.5934V16.2027C53.8916 15.783 53.9835 15.6256 54.4032 15.4551ZM61.2201 17.7504C61.2201 15.9797 62.1382 15.0091 63.9613 15.0091C64.604 15.0091 65.1549 15.114 65.5221 15.1796V12.7007C65.5221 12.399 65.614 12.2941 65.9156 12.2941H66.637C66.9387 12.2941 67.0436 12.399 67.0436 12.7007V21.0556C67.0436 21.4885 66.9387 21.6065 66.519 21.777C65.9943 21.9738 65.2598 22.1967 64.0663 22.1967C62.112 22.1967 61.2201 21.2262 61.2201 19.5473V17.7504ZM65.5221 16.5699C65.2205 16.5044 64.7745 16.3994 64.2499 16.3994C63.2137 16.3994 62.7415 16.8585 62.7415 17.7897V19.4948C62.7415 20.3474 63.2531 20.8064 64.2105 20.8064C64.6827 20.8064 65.0893 20.754 65.4172 20.6622C65.509 20.6228 65.5221 20.5966 65.5221 20.5179V16.5699ZM68.5781 17.6323C68.5781 16.0059 69.6536 15.0091 71.5948 15.0091C73.5622 15.0091 74.6246 16.0059 74.6246 17.6323V19.5735C74.6246 21.1999 73.5622 22.1967 71.5948 22.1967C69.6536 22.1967 68.5781 21.1999 68.5781 19.5735V17.6323ZM73.1031 17.6323C73.1031 16.8323 72.5654 16.3863 71.5948 16.3863C70.6373 16.3863 70.0996 16.8323 70.0996 17.6323V19.5735C70.0996 20.3605 70.6373 20.8196 71.5948 20.8196C72.5654 20.8196 73.1031 20.3605 73.1031 19.5735V17.6323ZM84.3198 15.2059C84.7132 15.2059 84.7657 15.2977 84.6608 15.678L82.9032 21.6459C82.8245 21.9344 82.654 22.0131 82.3523 22.0131H81.9064C81.5916 22.0131 81.4342 21.9344 81.3424 21.6459L80.3849 18.2881C80.2144 17.6586 80.162 16.9896 80.1488 16.9372H80.0833C80.0701 16.9896 80.0046 17.6586 79.8341 18.2881L78.8766 21.6459C78.7979 21.9344 78.6274 22.0131 78.3257 22.0131H77.8929C77.5912 22.0131 77.4207 21.9344 77.342 21.6459L75.5976 15.678C75.4795 15.2977 75.532 15.2059 75.9255 15.2059H76.437C76.9223 15.2059 77.0928 15.2714 77.1584 15.6125L77.906 18.5505C78.024 19.1276 78.1027 20.085 78.129 20.1506H78.1945C78.2077 20.085 78.2995 19.1538 78.47 18.5373L79.3356 15.6649C79.4406 15.3108 79.5193 15.2452 80.0046 15.2452H80.3062C80.7915 15.2452 80.8702 15.3108 80.9752 15.6518L81.8539 18.5373C82.0507 19.2063 82.1163 20.085 82.1294 20.1506H82.2081C82.2212 20.085 82.2605 19.285 82.431 18.5373L83.1524 15.6125C83.2311 15.2714 83.3885 15.2059 83.8869 15.2059H84.3198ZM85.625 17.1208C85.625 15.8748 86.5169 15.0091 88.3269 15.0091C89.8484 15.0091 90.7141 15.56 91.1338 16.4125C91.2912 16.7142 91.2125 16.8716 90.9239 17.0028L90.3337 17.2389C90.0451 17.37 89.9533 17.3307 89.7828 17.0552C89.5598 16.6617 89.2057 16.3732 88.3663 16.3732C87.5137 16.3732 87.1334 16.6093 87.1334 17.0815C87.1334 17.6979 87.658 17.8028 88.668 17.8947C90.2288 18.0521 91.3436 18.4062 91.3436 20.0064C91.3436 21.2917 90.373 22.1967 88.5106 22.1967C86.9629 22.1967 85.9792 21.6327 85.5857 20.6097C85.4807 20.3343 85.5463 20.1637 85.848 20.0588L86.4382 19.8752C86.7005 19.7834 86.8448 19.8227 86.976 20.1244C87.1858 20.6359 87.658 20.8458 88.4581 20.8458C89.3893 20.8458 89.8484 20.5835 89.8484 20.0719C89.8484 19.4555 89.3369 19.3374 88.2745 19.2325C86.9891 19.1013 85.625 18.8259 85.625 17.1208Z" fill="white"/>
</g>
<defs>
<clipPath id="clip0_10044_7769">
<rect width="93" height="27" fill="white"/>
</clipPath>
<clipPath id="clip1_10044_7769">
<rect width="26.9181" height="27.9948" fill="white" transform="translate(0.275879 -0.331635)"/>
</clipPath>
</defs>
</svg>
