<svg width="133" height="32" viewBox="0 0 133 32" fill="none" xmlns="http://www.w3.org/2000/svg">
<path d="M43.2012 4.43236C43.2012 5.36424 42.9154 6.11058 42.3525 6.66719C41.7052 7.32704 40.8622 7.65905 39.8292 7.65905C38.8419 7.65905 37.9989 7.32145 37.3073 6.65603C36.6143 5.98084 36.2686 5.1522 36.2686 4.16034C36.2686 3.16848 36.6143 2.33983 37.3073 1.67022C37.9989 0.999217 38.8419 0.661621 39.8292 0.661621C40.3207 0.661621 40.7894 0.760668 41.2366 0.944811C41.6824 1.13035 42.0453 1.38145 42.3082 1.69115L41.7109 2.27985C41.2523 1.75113 40.6279 1.49026 39.8292 1.49026C39.1091 1.49026 38.4847 1.73579 37.9546 2.23102C37.4302 2.72765 37.1673 3.37075 37.1673 4.16034C37.1673 4.94992 37.4302 5.5986 37.9546 6.09523C38.4847 6.58488 39.1091 6.83599 39.8292 6.83599C40.5936 6.83599 41.2366 6.58488 41.7438 6.08965C42.0782 5.76182 42.2682 5.30983 42.3182 4.73229H39.8292V3.92597H43.1498C43.1898 4.10035 43.2012 4.26915 43.2012 4.43236Z" fill="white" stroke="white" stroke-width="0.137356" stroke-miterlimit="10"/>
<path d="M48.4694 1.63673H45.3503V3.75716H48.1622V4.56349H45.3503V6.68392H48.4694V7.50559H44.4673V0.815063H48.4694V1.63673Z" fill="white" stroke="white" stroke-width="0.137356" stroke-miterlimit="10"/>
<path d="M52.1878 7.50559H51.3048V1.63673H49.3916V0.815063H54.1024V1.63673H52.1878V7.50559Z" fill="white" stroke="white" stroke-width="0.137356" stroke-miterlimit="10"/>
<path d="M57.5112 7.50559V0.815063H58.3928V7.50559H57.5112Z" fill="white" stroke="white" stroke-width="0.137356" stroke-miterlimit="10"/>
<path d="M62.3006 7.50559H61.4247V1.63673H59.5044V0.815063H64.2209V1.63673H62.3006V7.50559Z" fill="white" stroke="white" stroke-width="0.137356" stroke-miterlimit="10"/>
<path d="M73.1397 6.64487C72.4639 7.32145 71.6266 7.65905 70.6279 7.65905C69.6234 7.65905 68.7861 7.32145 68.1103 6.64487C67.4359 5.96968 67.1001 5.14104 67.1001 4.16034C67.1001 3.17964 67.4359 2.35099 68.1103 1.6758C68.7861 0.999217 69.6234 0.661621 70.6279 0.661621C71.6209 0.661621 72.4582 0.999216 73.134 1.68138C73.8142 2.36215 74.1499 3.18522 74.1499 4.16034C74.1499 5.14104 73.8141 5.96968 73.1397 6.64487ZM68.7633 6.08407C69.2719 6.58488 69.8906 6.83599 70.6279 6.83599C71.3594 6.83599 71.9838 6.58488 72.4868 6.08407C72.994 5.58326 73.2512 4.94015 73.2512 4.16034C73.2512 3.38052 72.994 2.73741 72.4868 2.2366C71.9838 1.73579 71.3594 1.48468 70.6279 1.48468C69.8906 1.48468 69.2719 1.73579 68.7633 2.2366C68.256 2.73741 67.9988 3.38052 67.9988 4.16034C67.9988 4.94015 68.256 5.58326 68.7633 6.08407Z" fill="white" stroke="white" stroke-width="0.137356" stroke-miterlimit="10"/>
<path d="M75.3887 7.50559V0.815063H76.4603L79.7923 6.01849H79.8309L79.7923 4.73228V0.815063H80.6739V7.50559H79.7537L76.2645 2.04547H76.226L76.2645 3.33726V7.50559H75.3887Z" fill="white" stroke="white" stroke-width="0.137356" stroke-miterlimit="10"/>
<path d="M66.8828 17.2764C64.1981 17.2764 62.0048 19.2713 62.0048 22.0236C62.0048 24.7537 64.1981 26.7695 66.8828 26.7695C69.5733 26.7695 71.7665 24.7537 71.7665 22.0236C71.7665 19.2713 69.5733 17.2764 66.8828 17.2764ZM66.8828 24.9002C65.4097 24.9002 64.1423 23.713 64.1423 22.0236C64.1423 20.3119 65.4097 19.1457 66.8828 19.1457C68.3559 19.1457 69.629 20.3119 69.629 22.0236C69.629 23.713 68.3559 24.9002 66.8828 24.9002ZM56.2395 17.2764C53.549 17.2764 51.3615 19.2713 51.3615 22.0236C51.3615 24.7537 53.549 26.7695 56.2395 26.7695C58.9285 26.7695 61.1175 24.7537 61.1175 22.0236C61.1175 19.2713 58.9285 17.2764 56.2395 17.2764ZM56.2395 24.9002C54.765 24.9002 53.4933 23.713 53.4933 22.0236C53.4933 20.3119 54.765 19.1457 56.2395 19.1457C57.7126 19.1457 58.98 20.3119 58.98 22.0236C58.98 23.713 57.7126 24.9002 56.2395 24.9002ZM43.5744 18.7314V20.7486H48.5081C48.3638 21.8758 47.978 22.7044 47.3865 23.2819C46.6664 23.9794 45.5448 24.7537 43.5744 24.7537C40.5382 24.7537 38.1606 22.3612 38.1606 19.3968C38.1606 16.4324 40.5382 14.0399 43.5744 14.0399C45.2161 14.0399 46.4106 14.6663 47.2922 15.4782L48.7482 14.0567C47.5151 12.9072 45.8748 12.0241 43.5744 12.0241C39.4108 12.0241 35.9116 15.3317 35.9116 19.3968C35.9116 23.4619 39.4108 26.7695 43.5744 26.7695C45.8248 26.7695 47.5151 26.0497 48.8439 24.6993C50.2056 23.3698 50.6299 21.5005 50.6299 19.9911C50.6299 19.5224 50.5899 19.0913 50.5185 18.7314H43.5744ZM95.3636 20.2952C94.9621 19.2336 93.7233 17.2764 91.2 17.2764C88.6995 17.2764 86.6177 19.2001 86.6177 22.0236C86.6177 24.6825 88.6781 26.7695 91.44 26.7695C93.6733 26.7695 94.9621 25.44 95.4922 24.6658L93.8347 23.5874C93.2818 24.377 92.5288 24.9002 91.44 24.9002C90.3584 24.9002 89.5825 24.4161 89.0853 23.4619L95.5879 20.8351L95.3636 20.2952ZM88.7338 21.8758C88.6781 20.0455 90.1898 19.108 91.2729 19.108C92.1216 19.108 92.8417 19.5224 93.0817 20.1152L88.7338 21.8758ZM83.4486 26.4807H85.5861V12.5305H83.4486V26.4807ZM79.948 18.3338H79.8765C79.3965 17.7786 78.4806 17.2764 77.3204 17.2764C74.8857 17.2764 72.6596 19.3633 72.6596 22.039C72.6596 24.6993 74.8857 26.7695 77.3204 26.7695C78.4806 26.7695 79.3965 26.2631 79.8765 25.6911H79.948V26.3719C79.948 28.1868 78.955 29.162 77.3532 29.162C76.0473 29.162 75.2372 28.2412 74.9028 27.467L73.0439 28.2245C73.5797 29.4828 74.9985 31.0313 77.3532 31.0313C79.8594 31.0313 81.9741 29.5916 81.9741 26.0887V17.5651H79.948V18.3338ZM77.5033 24.9002C76.0302 24.9002 74.7971 23.6963 74.7971 22.039C74.7971 20.3663 76.0302 19.1457 77.5033 19.1457C78.955 19.1457 80.0994 20.3663 80.0994 22.039C80.0994 23.6963 78.955 24.9002 77.5033 24.9002ZM105.371 12.5305H100.259V26.4807H102.391V21.195H105.371C107.739 21.195 110.06 19.5224 110.06 16.862C110.06 14.2031 107.733 12.5305 105.371 12.5305ZM105.427 19.2545H102.391V14.471H105.427C107.018 14.471 107.927 15.7614 107.927 16.862C107.927 17.9418 107.018 19.2545 105.427 19.2545ZM118.605 17.2499C117.065 17.2499 115.463 17.9139 114.804 19.3856L116.696 20.1599C117.103 19.3856 117.852 19.1345 118.643 19.1345C119.749 19.1345 120.871 19.7832 120.888 20.9285V21.075C120.502 20.8574 119.676 20.5351 118.661 20.5351C116.623 20.5351 114.547 21.6302 114.547 23.6739C114.547 25.5433 116.216 26.7472 118.092 26.7472C119.526 26.7472 120.318 26.1152 120.815 25.3801H120.888V26.4584H122.947V21.1071C122.947 18.6337 121.055 17.2499 118.605 17.2499ZM118.348 24.8946C117.65 24.8946 116.679 24.557 116.679 23.713C116.679 22.6333 117.89 22.2189 118.939 22.2189C119.878 22.2189 120.318 22.4212 120.888 22.6877C120.721 23.9794 119.582 24.8946 118.348 24.8946ZM130.448 17.5554L127.998 23.6028H127.925L125.392 17.5554H123.093L126.899 26.0064L124.727 30.709H126.955L132.82 17.5554H130.448ZM111.232 26.4807H113.37V12.5305H111.232V26.4807Z" fill="white"/>
<path d="M0.92853 1.41355C0.592757 1.75673 0.398438 2.29102 0.398438 2.98295V27.6637C0.398438 28.3556 0.592757 28.8899 0.92853 29.2331L1.0114 29.3084L15.1768 15.4837V15.1573L1.0114 1.33264L0.92853 1.41355Z" fill="url(#paint0_linear_4780_13879)"/>
<path d="M19.8938 20.0943L15.1772 15.4838V15.1573L19.8995 10.5468L20.0052 10.6068L25.5977 13.7135C27.1937 14.5951 27.1937 16.0459 25.5977 16.9332L20.0052 20.0343L19.8938 20.0943Z" fill="url(#paint1_linear_4780_13879)"/>
<path d="M20.004 20.0343L15.176 15.3206L0.927734 29.2331C1.45783 29.7772 2.32227 29.8427 3.3053 29.2987L20.004 20.0343Z" fill="url(#paint2_linear_4780_13879)"/>
<path d="M20.004 10.6067L3.3053 1.34238C2.32227 0.803903 1.45783 0.869467 0.927734 1.41352L15.176 15.3205L20.004 10.6067Z" fill="url(#paint3_linear_4780_13879)"/>
<defs>
<linearGradient id="paint0_linear_4780_13879" x1="13.9191" y1="27.9207" x2="-4.80503" y2="8.74292" gradientUnits="userSpaceOnUse">
<stop stop-color="#00A0FF"/>
<stop offset="0.0066" stop-color="#00A1FF"/>
<stop offset="0.2601" stop-color="#00BEFF"/>
<stop offset="0.5122" stop-color="#00D2FF"/>
<stop offset="0.7604" stop-color="#00DFFF"/>
<stop offset="1" stop-color="#00E3FF"/>
</linearGradient>
<linearGradient id="paint1_linear_4780_13879" x1="27.6759" y1="15.319" x2="0.0174177" y2="15.319" gradientUnits="userSpaceOnUse">
<stop stop-color="#FFE000"/>
<stop offset="0.4087" stop-color="#FFBD00"/>
<stop offset="0.7754" stop-color="#FFA500"/>
<stop offset="1" stop-color="#FF9C00"/>
</linearGradient>
<linearGradient id="paint2_linear_4780_13879" x1="17.3787" y1="12.7581" x2="-8.01273" y2="-13.2486" gradientUnits="userSpaceOnUse">
<stop stop-color="#FF3A44"/>
<stop offset="1" stop-color="#C31162"/>
</linearGradient>
<linearGradient id="paint3_linear_4780_13879" x1="-2.65884" y1="37.4442" x2="8.67955" y2="25.8312" gradientUnits="userSpaceOnUse">
<stop stop-color="#32A071"/>
<stop offset="0.0685" stop-color="#2DA771"/>
<stop offset="0.4762" stop-color="#15CF74"/>
<stop offset="0.8009" stop-color="#06E775"/>
<stop offset="1" stop-color="#00F076"/>
</linearGradient>
</defs>
</svg>
