<svg width="20" height="20" viewBox="0 0 20 20" fill="none" xmlns="http://www.w3.org/2000/svg">
<g clip-path="url(#clip0_3319_72119)">
<path d="M10 20C15.5228 20 20 15.5228 20 10C20 4.47715 15.5228 0 10 0C4.47715 0 0 4.47715 0 10C0 15.5228 4.47715 20 10 20Z" fill="#039BE5"/>
<path d="M4.57605 9.78329L14.2177 6.06579C14.6652 5.90413 15.0561 6.17496 14.9111 6.85163L14.9119 6.85079L13.2702 14.585C13.1486 15.1333 12.8227 15.2666 12.3669 15.0083L9.86689 13.1658L8.66105 14.3275C8.52772 14.4608 8.41522 14.5733 8.15689 14.5733L8.33439 12.0291L12.9677 7.84329C13.1694 7.66579 12.9227 7.56579 12.6569 7.74246L6.93105 11.3475L4.46272 10.5775C3.92689 10.4075 3.91522 10.0416 4.57605 9.78329Z" fill="white"/>
</g>
<defs>
<clipPath id="clip0_3319_72119">
<rect width="20" height="20" fill="white"/>
</clipPath>
</defs>
</svg>
