<svg width="20" height="20" viewBox="0 0 20 20" fill="none" xmlns="http://www.w3.org/2000/svg">
<g clip-path="url(#clip0_3319_72122)">
<path d="M12.0004 0H7.99992C4.13957 0 0.999023 3.14055 0.999023 7.0009V10.0013C0.999023 12.7115 2.56207 15.171 4.99953 16.3279V19.6692C4.99953 19.9593 5.36246 20.111 5.56863 19.9049L8.47133 17.0022H12.0004C15.8607 17.0022 19.0013 13.8616 19.0013 10.0013V7.0009C19.0013 3.14055 15.8607 0 12.0004 0Z" fill="#665CAC"/>
<path d="M5.99965 16.3279C3.56219 15.1709 1.99914 12.7114 1.99914 10.0012V7.00086C1.99914 3.14055 5.13973 0 9.00004 0H7.99992C4.13957 0 0.999023 3.14055 0.999023 7.0009V10.0013C0.999023 12.7115 2.56207 15.171 4.99953 16.3279V19.6692C4.99953 19.9593 5.36246 20.111 5.56863 19.9049L5.99965 19.4739V16.3279Z" fill="#523494"/>
<path d="M15.0334 12.4258L14.7337 10.8021C14.7089 10.668 14.605 10.5625 14.4713 10.5357L12.114 10.0643C12.0045 10.0425 11.8916 10.0767 11.8128 10.1555L10.8551 11.1132C9.24149 10.3902 8.34594 9.49269 7.55798 7.80983L8.51259 6.85526C8.59137 6.77644 8.62559 6.66339 8.60376 6.55409L8.13231 4.19675C8.10555 4.06304 8.00005 3.95905 7.86591 3.93429L6.24223 3.6346C6.19778 3.62644 6.152 3.62729 6.10786 3.63733C5.67915 3.73472 5.28798 3.95073 4.97661 4.26218C4.43747 4.80132 4.23141 5.58804 4.38079 6.53729C4.63153 8.13128 5.41247 10.3496 6.85329 11.7962L6.87298 11.8157C8.31844 13.2555 10.5368 14.0365 12.1308 14.2873C12.3316 14.3189 12.525 14.3346 12.7105 14.3346C13.4017 14.3346 13.9808 14.1166 14.406 13.6914C14.7174 13.38 14.9335 12.9889 15.0308 12.5602C15.0407 12.516 15.0416 12.4703 15.0334 12.4258Z" fill="white"/>
<path d="M8.18607 7.18122L8.51201 6.85524L8.51236 6.85489L8.18604 7.18118L8.18607 7.18122Z" fill="#E5E5E5"/>
<path d="M11.8125 10.1551L11.4834 10.4842L11.4835 10.4843L11.8126 10.1552L11.8125 10.1551Z" fill="#E5E5E5"/>
<path d="M13.3387 13.7059C13.1532 13.7059 12.9598 13.6902 12.759 13.6586C11.165 13.4078 8.94667 12.6268 7.50116 11.187L7.48147 11.1674C6.04065 9.72084 5.25971 7.50256 5.00897 5.90858C4.88831 5.14166 4.99987 4.48092 5.33147 3.97104C5.20448 4.05577 5.0853 4.15295 4.97612 4.26213C4.43698 4.80127 4.23093 5.58799 4.3803 6.53725C4.63104 8.13123 5.41198 10.3495 6.8528 11.7961L6.87249 11.8156C8.31796 13.2555 10.5363 14.0365 12.1303 14.2872C12.3312 14.3189 12.5246 14.3346 12.71 14.3346C13.4012 14.3346 13.9803 14.1165 14.4055 13.6914C14.5147 13.5822 14.6119 13.4631 14.6966 13.3361C14.3201 13.5809 13.8615 13.7059 13.3387 13.7059Z" fill="#E5E5E5"/>
<path d="M10.6669 5.66739C10.4828 5.66739 10.3335 5.81665 10.3335 6.00075C10.3335 6.18485 10.4828 6.33411 10.6669 6.33411C11.4022 6.33411 12.0004 6.93231 12.0004 7.66762C12.0004 7.84926 12.1521 8.00098 12.3337 8.00098C12.5154 8.00098 12.6671 7.84926 12.6671 7.66762C12.6671 6.56465 11.7698 5.66739 10.6669 5.66739Z" fill="white"/>
<path d="M10.6668 4.33385C10.5435 4.33385 10.419 4.34068 10.2968 4.35416C10.1138 4.37436 9.98185 4.53908 10.002 4.72213C10.0222 4.90518 10.1873 5.03682 10.37 5.01693C10.468 5.00611 10.5678 5.00061 10.6668 5.00061C12.1374 5.00061 13.3338 6.19701 13.3338 7.6676C13.3338 7.76662 13.3283 7.86646 13.3175 7.96443C13.2975 8.14494 13.4317 8.31252 13.6123 8.3324C13.7928 8.35228 13.9603 8.21818 13.9802 8.0376C13.9937 7.91541 14.0005 7.79096 14.0005 7.6676C14.0005 5.82939 12.505 4.33385 10.6668 4.33385Z" fill="white"/>
<path d="M10.6673 3.0004C10.5481 3.0004 10.4275 3.00493 10.3087 3.01395C10.1251 3.02786 9.98755 3.18801 10.0015 3.37157C10.0153 3.55516 10.176 3.69274 10.3591 3.67883C10.4611 3.67106 10.5649 3.66715 10.6673 3.66715C12.8732 3.66715 14.6678 5.46176 14.6678 7.66766C14.6678 7.97977 14.6318 8.29048 14.5608 8.5911C14.52 8.76337 14.6261 8.94243 14.7969 8.98923C14.9767 9.03844 15.1668 8.92575 15.2096 8.74446C15.2925 8.39364 15.3345 8.03137 15.3345 7.66766C15.3345 5.09411 13.2408 3.0004 10.6673 3.0004Z" fill="white"/>
</g>
<defs>
<clipPath id="clip0_3319_72122">
<rect width="20" height="20" fill="white"/>
</clipPath>
</defs>
</svg>
