<svg width="409" height="441" viewBox="0 0 409 441" fill="none" xmlns="http://www.w3.org/2000/svg">
<g opacity="0.1">
<g clip-path="url(#clip0_10003_21343)">
<path d="M409 123.318C393.288 123.318 384.564 108.816 367.999 108.755C351.229 108.692 343.971 123.318 326.981 123.318" stroke="#009CF3" stroke-width="2"/>
<path d="M327.529 123.317C311.818 123.317 303.093 108.816 286.528 108.754C269.758 108.692 262.501 123.317 245.51 123.317" stroke="#009CF3" stroke-width="2"/>
<path d="M245.51 123.317C229.798 123.317 221.074 108.816 204.509 108.754C187.739 108.692 180.481 123.317 163.491 123.317" stroke="#009CF3" stroke-width="2"/>
<path d="M164.038 123.317C148.326 123.317 139.602 108.816 123.037 108.754C106.267 108.692 99.0095 123.317 82.019 123.317" stroke="#009CF3" stroke-width="2"/>
<path d="M82.0195 123.317C66.3078 123.317 57.5835 108.816 41.0184 108.754C24.2484 108.692 16.991 123.317 0.000459923 123.317" stroke="#009CF3" stroke-width="2"/>
<path d="M409 134.194C393.288 134.194 384.564 119.692 367.999 119.631C351.229 119.568 343.971 134.194 326.981 134.194" stroke="#009CF3" stroke-width="2"/>
<path d="M327.529 134.193C311.818 134.193 303.093 119.691 286.528 119.63C269.758 119.567 262.501 134.193 245.51 134.193" stroke="#009CF3" stroke-width="2"/>
<path d="M245.51 134.193C229.798 134.193 221.074 119.691 204.509 119.63C187.739 119.567 180.481 134.193 163.491 134.193" stroke="#009CF3" stroke-width="2"/>
<path d="M164.038 134.193C148.326 134.193 139.602 119.691 123.037 119.63C106.267 119.567 99.0095 134.193 82.019 134.193" stroke="#009CF3" stroke-width="2"/>
<path d="M82.0195 134.193C66.3078 134.193 57.5835 119.691 41.0184 119.63C24.2484 119.567 16.991 134.193 0.000459923 134.193" stroke="#009CF3" stroke-width="2"/>
<path d="M409 145.069C393.288 145.069 384.564 130.568 367.999 130.506C351.229 130.444 343.971 145.069 326.981 145.069" stroke="#009CF3" stroke-width="2"/>
<path d="M327.529 145.069C311.818 145.069 303.093 130.568 286.528 130.506C269.758 130.444 262.501 145.069 245.51 145.069" stroke="#009CF3" stroke-width="2"/>
<path d="M245.51 145.069C229.798 145.069 221.074 130.568 204.509 130.506C187.739 130.444 180.481 145.069 163.491 145.069" stroke="#009CF3" stroke-width="2"/>
<path d="M164.038 145.069C148.326 145.069 139.602 130.568 123.037 130.506C106.267 130.444 99.0095 145.069 82.019 145.069" stroke="#009CF3" stroke-width="2"/>
<path d="M82.0195 145.069C66.3078 145.069 57.5835 130.568 41.0184 130.506C24.2484 130.444 16.991 145.069 0.000459923 145.069" stroke="#009CF3" stroke-width="2"/>
<path d="M409 155.945C393.288 155.945 384.564 141.443 367.999 141.382C351.229 141.319 343.971 155.945 326.981 155.945" stroke="#009CF3" stroke-width="2"/>
<path d="M327.529 155.945C311.818 155.945 303.093 141.443 286.528 141.382C269.758 141.319 262.501 155.945 245.51 155.945" stroke="#009CF3" stroke-width="2"/>
<path d="M245.51 155.945C229.798 155.945 221.074 141.443 204.509 141.382C187.739 141.319 180.481 155.945 163.491 155.945" stroke="#009CF3" stroke-width="2"/>
<path d="M164.038 155.945C148.326 155.945 139.602 141.443 123.037 141.382C106.267 141.319 99.0095 155.945 82.019 155.945" stroke="#009CF3" stroke-width="2"/>
<path d="M82.0195 155.945C66.3078 155.945 57.5835 141.443 41.0184 141.382C24.2484 141.319 16.991 155.945 0.000459923 155.945" stroke="#009CF3" stroke-width="2"/>
<path d="M409 166.82C393.288 166.82 384.564 152.318 367.999 152.257C351.229 152.194 343.971 166.82 326.981 166.82" stroke="#009CF3" stroke-width="2"/>
<path d="M327.529 166.82C311.818 166.82 303.093 152.318 286.528 152.257C269.758 152.194 262.501 166.82 245.51 166.82" stroke="#009CF3" stroke-width="2"/>
<path d="M245.51 166.82C229.798 166.82 221.074 152.318 204.509 152.257C187.739 152.194 180.481 166.82 163.491 166.82" stroke="#009CF3" stroke-width="2"/>
<path d="M164.038 166.82C148.326 166.82 139.602 152.318 123.037 152.257C106.267 152.194 99.0095 166.82 82.019 166.82" stroke="#009CF3" stroke-width="2"/>
<path d="M82.0195 166.82C66.3078 166.82 57.5835 152.318 41.0184 152.257C24.2484 152.194 16.991 166.82 0.000459923 166.82" stroke="#009CF3" stroke-width="2"/>
<path d="M409 177.696C393.288 177.696 384.564 163.194 367.999 163.133C351.229 163.07 343.971 177.696 326.981 177.696" stroke="#009CF3" stroke-width="2"/>
<path d="M327.529 177.695C311.818 177.695 303.093 163.193 286.528 163.132C269.758 163.069 262.501 177.695 245.51 177.695" stroke="#009CF3" stroke-width="2"/>
<path d="M245.51 177.695C229.798 177.695 221.074 163.193 204.509 163.132C187.739 163.069 180.481 177.695 163.491 177.695" stroke="#009CF3" stroke-width="2"/>
<path d="M164.038 177.695C148.326 177.695 139.602 163.193 123.037 163.132C106.267 163.069 99.0095 177.695 82.019 177.695" stroke="#009CF3" stroke-width="2"/>
<path d="M82.0195 177.695C66.3078 177.695 57.5835 163.193 41.0184 163.132C24.2484 163.069 16.991 177.695 0.000459923 177.695" stroke="#009CF3" stroke-width="2"/>
<path d="M409 188.571C393.288 188.571 384.564 174.07 367.999 174.008C351.229 173.946 343.971 188.571 326.981 188.571" stroke="#009CF3" stroke-width="2"/>
<path d="M327.529 188.571C311.818 188.571 303.093 174.069 286.528 174.008C269.758 173.945 262.501 188.571 245.51 188.571" stroke="#009CF3" stroke-width="2"/>
<path d="M245.51 188.571C229.798 188.571 221.074 174.069 204.509 174.008C187.739 173.945 180.481 188.571 163.491 188.571" stroke="#009CF3" stroke-width="2"/>
<path d="M164.038 188.571C148.326 188.571 139.602 174.069 123.037 174.008C106.267 173.945 99.0095 188.571 82.019 188.571" stroke="#009CF3" stroke-width="2"/>
<path d="M82.0195 188.571C66.3078 188.571 57.5835 174.069 41.0184 174.008C24.2484 173.945 16.991 188.571 0.000459923 188.571" stroke="#009CF3" stroke-width="2"/>
<path d="M327.529 199.446C311.818 199.446 303.093 184.945 286.528 184.883C269.758 184.821 262.501 199.446 245.51 199.446" stroke="#009CF3" stroke-width="2"/>
<path d="M245.51 199.446C229.798 199.446 221.074 184.945 204.509 184.883C187.739 184.821 180.481 199.446 163.491 199.446" stroke="#009CF3" stroke-width="2"/>
<path d="M164.039 199.446C148.327 199.446 139.603 184.945 123.038 184.883C106.268 184.821 99.0105 199.446 82.02 199.446" stroke="#009CF3" stroke-width="2"/>
<path d="M82.0195 199.446C66.3078 199.446 57.5835 184.945 41.0184 184.883C24.2484 184.821 16.991 199.446 0.000459923 199.446" stroke="#009CF3" stroke-width="2"/>
<path d="M409 210.322C393.288 210.322 384.564 195.821 367.999 195.759C351.229 195.697 343.971 210.322 326.981 210.322" stroke="#009CF3" stroke-width="2"/>
<path d="M327.529 210.322C311.818 210.322 303.093 195.82 286.528 195.759C269.758 195.696 262.501 210.322 245.51 210.322" stroke="#009CF3" stroke-width="2"/>
<path d="M245.51 210.322C229.798 210.322 221.074 195.82 204.509 195.759C187.739 195.696 180.481 210.322 163.491 210.322" stroke="#009CF3" stroke-width="2"/>
<path d="M164.038 210.322C148.326 210.322 139.602 195.82 123.037 195.759C106.267 195.696 99.0095 210.322 82.019 210.322" stroke="#009CF3" stroke-width="2"/>
<path d="M82.0195 210.322C66.3078 210.322 57.5835 195.82 41.0184 195.759C24.2484 195.696 16.991 210.322 0.000459923 210.322" stroke="#009CF3" stroke-width="2"/>
<path d="M409 221.198C393.288 221.198 384.564 206.696 367.999 206.634C351.229 206.572 343.971 221.198 326.981 221.198" stroke="#009CF3" stroke-width="2"/>
<path d="M327.529 221.197C311.818 221.197 303.093 206.696 286.528 206.634C269.758 206.572 262.501 221.197 245.51 221.197" stroke="#009CF3" stroke-width="2"/>
<path d="M245.51 221.197C229.798 221.197 221.074 206.696 204.509 206.634C187.739 206.572 180.481 221.197 163.491 221.197" stroke="#009CF3" stroke-width="2"/>
<path d="M164.038 221.197C148.326 221.197 139.602 206.696 123.037 206.634C106.267 206.572 99.0095 221.197 82.019 221.197" stroke="#009CF3" stroke-width="2"/>
<path d="M82.0195 221.197C66.3078 221.197 57.5835 206.696 41.0184 206.634C24.2484 206.572 16.991 221.197 0.000459923 221.197" stroke="#009CF3" stroke-width="2"/>
<path d="M327.529 14.5633C311.818 14.5633 303.093 0.0618509 286.528 0.000199195C269.758 -0.0622147 262.501 14.5633 245.51 14.5633" stroke="#009CF3" stroke-width="2"/>
<path d="M245.51 14.5633C229.798 14.5633 221.074 0.0618509 204.509 0.000199195C187.739 -0.0622147 180.481 14.5633 163.491 14.5633" stroke="#009CF3" stroke-width="2"/>
<path d="M327.529 25.4388C311.818 25.4388 303.093 10.9373 286.528 10.8757C269.758 10.8133 262.501 25.4388 245.51 25.4388" stroke="#009CF3" stroke-width="2"/>
<path d="M245.51 25.4388C229.798 25.4388 221.074 10.9373 204.509 10.8757C187.739 10.8133 180.481 25.4388 163.491 25.4388" stroke="#009CF3" stroke-width="2"/>
<path d="M164.039 25.4388C148.327 25.4388 139.603 10.9373 123.038 10.8757C106.268 10.8133 99.0105 25.4388 82.02 25.4388" stroke="#009CF3" stroke-width="2"/>
<path d="M327.529 36.314C311.818 36.314 303.093 21.8126 286.528 21.7509C269.758 21.6885 262.501 36.3141 245.51 36.3141" stroke="#009CF3" stroke-width="2"/>
<path d="M245.51 36.314C229.798 36.314 221.074 21.8126 204.509 21.7509C187.739 21.6885 180.481 36.3141 163.491 36.3141" stroke="#009CF3" stroke-width="2"/>
<path d="M164.039 36.314C148.327 36.314 139.603 21.8126 123.038 21.7509C106.268 21.6885 99.0105 36.3141 82.02 36.3141" stroke="#009CF3" stroke-width="2"/>
<path d="M327.529 47.1893C311.818 47.1893 303.093 32.6878 286.528 32.6262C269.758 32.5638 262.501 47.1893 245.51 47.1893" stroke="#009CF3" stroke-width="2"/>
<path d="M245.51 47.1893C229.798 47.1893 221.074 32.6878 204.509 32.6262C187.739 32.5638 180.481 47.1893 163.491 47.1893" stroke="#009CF3" stroke-width="2"/>
<path d="M164.039 47.1893C148.327 47.1893 139.603 32.6878 123.038 32.6262C106.268 32.5638 99.0105 47.1893 82.02 47.1893" stroke="#009CF3" stroke-width="2"/>
<path d="M245.51 58.0643C229.798 58.0643 221.074 43.5628 204.509 43.5012C187.739 43.4388 180.481 58.0643 163.491 58.0643" stroke="#009CF3" stroke-width="2"/>
<path d="M164.038 58.0643C148.326 58.0643 139.602 43.5628 123.037 43.5012C106.267 43.4388 99.0095 58.0643 82.019 58.0643" stroke="#009CF3" stroke-width="2"/>
<path d="M327.529 68.9395C311.818 68.9395 303.093 54.4381 286.528 54.3764C269.758 54.314 262.501 68.9395 245.51 68.9395" stroke="#009CF3" stroke-width="2"/>
<path d="M245.51 68.9395C229.798 68.9395 221.074 54.4381 204.509 54.3764C187.739 54.314 180.481 68.9395 163.491 68.9395" stroke="#009CF3" stroke-width="2"/>
<path d="M164.039 68.9395C148.327 68.9395 139.603 54.4381 123.038 54.3764C106.268 54.314 99.0105 68.9395 82.02 68.9395" stroke="#009CF3" stroke-width="2"/>
<path d="M82.0195 68.9395C66.3078 68.9395 57.5835 54.4381 41.0184 54.3764C24.2484 54.314 16.991 68.9395 0.000459923 68.9395" stroke="#009CF3" stroke-width="2"/>
<path d="M327.529 79.8155C311.818 79.8155 303.093 65.314 286.528 65.2524C269.758 65.19 262.501 79.8155 245.51 79.8155" stroke="#009CF3" stroke-width="2"/>
<path d="M245.51 79.8155C229.798 79.8155 221.074 65.314 204.509 65.2524C187.739 65.19 180.481 79.8155 163.491 79.8155" stroke="#009CF3" stroke-width="2"/>
<path d="M164.039 79.8155C148.327 79.8155 139.603 65.314 123.038 65.2524C106.268 65.19 99.0105 79.8155 82.02 79.8155" stroke="#009CF3" stroke-width="2"/>
<path d="M82.0195 79.8155C66.3078 79.8155 57.5835 65.314 41.0184 65.2524C24.2484 65.19 16.991 79.8155 0.000459923 79.8155" stroke="#009CF3" stroke-width="2"/>
<path d="M409 90.6913C393.288 90.6913 384.564 76.1898 367.999 76.1281C351.229 76.0657 343.971 90.6913 326.981 90.6913" stroke="#009CF3" stroke-width="2"/>
<path d="M327.529 90.6905C311.818 90.6905 303.093 76.189 286.528 76.1274C269.758 76.065 262.501 90.6905 245.51 90.6905" stroke="#009CF3" stroke-width="2"/>
<path d="M245.51 90.6905C229.798 90.6905 221.074 76.189 204.509 76.1274C187.739 76.065 180.481 90.6905 163.491 90.6905" stroke="#009CF3" stroke-width="2"/>
<path d="M409 101.566C393.288 101.566 384.564 87.065 367.999 87.0034C351.229 86.941 343.971 101.567 326.981 101.567" stroke="#009CF3" stroke-width="2"/>
<path d="M327.529 101.566C311.818 101.566 303.093 87.065 286.528 87.0034C269.758 86.941 262.501 101.567 245.51 101.567" stroke="#009CF3" stroke-width="2"/>
<path d="M245.51 101.566C229.798 101.566 221.074 87.065 204.509 87.0034C187.739 86.941 180.481 101.566 163.491 101.566" stroke="#009CF3" stroke-width="2"/>
<path d="M164.038 101.566C148.326 101.566 139.602 87.065 123.037 87.0034C106.267 86.941 99.0095 101.567 82.019 101.567" stroke="#009CF3" stroke-width="2"/>
<path d="M82.0195 101.566C66.3078 101.566 57.5835 87.065 41.0184 87.0034C24.2484 86.941 16.991 101.567 0.000459923 101.567" stroke="#009CF3" stroke-width="2"/>
<path d="M409 112.442C393.288 112.442 384.564 97.941 367.999 97.8793C351.229 97.8169 343.971 112.442 326.981 112.442" stroke="#009CF3" stroke-width="2"/>
<path d="M327.529 112.442C311.818 112.442 303.093 97.9403 286.528 97.8786C269.758 97.8162 262.501 112.442 245.51 112.442" stroke="#009CF3" stroke-width="2"/>
<path d="M245.51 112.442C229.798 112.442 221.074 97.9403 204.509 97.8786C187.739 97.8162 180.481 112.442 163.491 112.442" stroke="#009CF3" stroke-width="2"/>
<path d="M164.038 112.442C148.326 112.442 139.602 97.9403 123.037 97.8786C106.267 97.8162 99.0095 112.442 82.019 112.442" stroke="#009CF3" stroke-width="2"/>
<path d="M82.0195 112.442C66.3078 112.442 57.5835 97.9403 41.0184 97.8786C24.2484 97.8162 16.991 112.442 0.000459923 112.442" stroke="#009CF3" stroke-width="2"/>
<path d="M409 232.073C393.288 232.073 384.564 217.571 367.999 217.51C351.229 217.447 343.971 232.073 326.981 232.073" stroke="#009CF3" stroke-width="2"/>
<path d="M327.529 232.073C311.818 232.073 303.093 217.571 286.528 217.509C269.758 217.447 262.501 232.073 245.51 232.073" stroke="#009CF3" stroke-width="2"/>
<path d="M245.51 232.073C229.798 232.073 221.074 217.571 204.509 217.509C187.739 217.447 180.481 232.073 163.491 232.073" stroke="#009CF3" stroke-width="2"/>
<path d="M164.038 232.073C148.326 232.073 139.602 217.571 123.037 217.509C106.267 217.447 99.0095 232.073 82.019 232.073" stroke="#009CF3" stroke-width="2"/>
<path d="M82.0195 232.073C66.3078 232.073 57.5835 217.571 41.0184 217.509C24.2484 217.447 16.991 232.073 0.000459923 232.073" stroke="#009CF3" stroke-width="2"/>
<path d="M409 242.948C393.288 242.948 384.564 228.447 367.999 228.385C351.229 228.323 343.971 242.948 326.981 242.948" stroke="#009CF3" stroke-width="2"/>
<path d="M327.529 242.948C311.818 242.948 303.093 228.447 286.528 228.385C269.758 228.323 262.501 242.948 245.51 242.948" stroke="#009CF3" stroke-width="2"/>
<path d="M245.51 242.948C229.798 242.948 221.074 228.447 204.509 228.385C187.739 228.323 180.481 242.948 163.491 242.948" stroke="#009CF3" stroke-width="2"/>
<path d="M164.038 242.948C148.326 242.948 139.602 228.447 123.037 228.385C106.267 228.323 99.0095 242.948 82.019 242.948" stroke="#009CF3" stroke-width="2"/>
<path d="M82.0195 242.948C66.3078 242.948 57.5835 228.447 41.0184 228.385C24.2484 228.323 16.991 242.948 0.000459923 242.948" stroke="#009CF3" stroke-width="2"/>
<path d="M409 253.824C393.288 253.824 384.564 239.322 367.999 239.26C351.229 239.198 343.971 253.824 326.981 253.824" stroke="#009CF3" stroke-width="2"/>
<path d="M327.529 253.823C311.818 253.823 303.093 239.322 286.528 239.26C269.758 239.198 262.501 253.823 245.51 253.823" stroke="#009CF3" stroke-width="2"/>
<path d="M245.51 253.823C229.798 253.823 221.074 239.322 204.509 239.26C187.739 239.198 180.481 253.823 163.491 253.823" stroke="#009CF3" stroke-width="2"/>
<path d="M164.038 253.823C148.326 253.823 139.602 239.322 123.037 239.26C106.267 239.198 99.0095 253.823 82.019 253.823" stroke="#009CF3" stroke-width="2"/>
<path d="M82.0195 253.823C66.3078 253.823 57.5835 239.322 41.0184 239.26C24.2484 239.198 16.991 253.823 0.000459923 253.823" stroke="#009CF3" stroke-width="2"/>
<path d="M409 264.698C393.288 264.698 384.564 250.197 367.999 250.135C351.229 250.073 343.971 264.698 326.981 264.698" stroke="#009CF3" stroke-width="2"/>
<path d="M327.529 264.699C311.818 264.699 303.093 250.197 286.528 250.135C269.758 250.073 262.501 264.699 245.51 264.699" stroke="#009CF3" stroke-width="2"/>
<path d="M245.51 264.699C229.798 264.699 221.074 250.197 204.509 250.135C187.739 250.073 180.481 264.699 163.491 264.699" stroke="#009CF3" stroke-width="2"/>
<path d="M164.038 264.699C148.326 264.699 139.602 250.197 123.037 250.135C106.267 250.073 99.0095 264.699 82.019 264.699" stroke="#009CF3" stroke-width="2"/>
<path d="M82.0195 264.699C66.3078 264.699 57.5835 250.197 41.0184 250.135C24.2484 250.073 16.991 264.699 0.000459923 264.699" stroke="#009CF3" stroke-width="2"/>
<path d="M409 275.574C393.288 275.574 384.564 261.072 367.999 261.01C351.229 260.948 343.971 275.574 326.981 275.574" stroke="#009CF3" stroke-width="2"/>
<path d="M327.529 275.574C311.818 275.574 303.093 261.072 286.528 261.011C269.758 260.948 262.501 275.574 245.51 275.574" stroke="#009CF3" stroke-width="2"/>
<path d="M245.51 275.574C229.798 275.574 221.074 261.072 204.509 261.011C187.739 260.948 180.481 275.574 163.491 275.574" stroke="#009CF3" stroke-width="2"/>
<path d="M164.038 275.574C148.326 275.574 139.602 261.072 123.037 261.011C106.267 260.948 99.0095 275.574 82.019 275.574" stroke="#009CF3" stroke-width="2"/>
<path d="M82.0195 275.574C66.3078 275.574 57.5835 261.072 41.0184 261.011C24.2484 260.948 16.991 275.574 0.000459923 275.574" stroke="#009CF3" stroke-width="2"/>
<path d="M409 297.324C393.288 297.324 384.564 282.823 367.999 282.761C351.229 282.699 343.971 297.324 326.981 297.324" stroke="#009CF3" stroke-width="2"/>
<path d="M327.529 297.324C311.818 297.324 303.093 282.823 286.528 282.761C269.758 282.699 262.501 297.324 245.51 297.324" stroke="#009CF3" stroke-width="2"/>
<path d="M245.51 297.324C229.798 297.324 221.074 282.823 204.509 282.761C187.739 282.699 180.481 297.324 163.491 297.324" stroke="#009CF3" stroke-width="2"/>
<path d="M164.038 297.324C148.326 297.324 139.602 282.823 123.037 282.761C106.267 282.699 99.0095 297.324 82.019 297.324" stroke="#009CF3" stroke-width="2"/>
<path d="M82.0195 297.324C66.3078 297.324 57.5835 282.823 41.0184 282.761C24.2484 282.699 16.991 297.324 0.000459923 297.324" stroke="#009CF3" stroke-width="2"/>
<path d="M409 286.45C393.288 286.45 384.564 271.948 367.999 271.886C351.229 271.824 343.971 286.45 326.981 286.45" stroke="#009CF3" stroke-width="2"/>
<path d="M327.529 286.449C311.818 286.449 303.093 271.948 286.528 271.886C269.758 271.824 262.501 286.449 245.51 286.449" stroke="#009CF3" stroke-width="2"/>
<path d="M245.51 286.449C229.798 286.449 221.074 271.948 204.509 271.886C187.739 271.824 180.481 286.449 163.491 286.449" stroke="#009CF3" stroke-width="2"/>
<path d="M164.038 286.449C148.326 286.449 139.602 271.948 123.037 271.886C106.267 271.824 99.0095 286.449 82.019 286.449" stroke="#009CF3" stroke-width="2"/>
<path d="M82.0195 286.449C66.3078 286.449 57.5835 271.948 41.0184 271.886C24.2484 271.824 16.991 286.449 0.000459923 286.449" stroke="#009CF3" stroke-width="2"/>
<path d="M409 308.2C393.288 308.2 384.564 293.699 367.999 293.637C351.229 293.575 343.971 308.2 326.981 308.2" stroke="#009CF3" stroke-width="2"/>
<path d="M327.529 308.2C311.818 308.2 303.093 293.698 286.528 293.636C269.758 293.574 262.501 308.2 245.51 308.2" stroke="#009CF3" stroke-width="2"/>
<path d="M245.51 308.2C229.798 308.2 221.074 293.698 204.509 293.636C187.739 293.574 180.481 308.2 163.491 308.2" stroke="#009CF3" stroke-width="2"/>
<path d="M164.038 308.2C148.326 308.2 139.602 293.698 123.037 293.636C106.267 293.574 99.0095 308.2 82.019 308.2" stroke="#009CF3" stroke-width="2"/>
<path d="M82.0195 308.2C66.3078 308.2 57.5835 293.698 41.0184 293.636C24.2484 293.574 16.991 308.2 0.000459923 308.2" stroke="#009CF3" stroke-width="2"/>
<path d="M409 319.076C393.288 319.076 384.564 304.575 367.999 304.513C351.229 304.451 343.971 319.077 326.981 319.077" stroke="#009CF3" stroke-width="2"/>
<path d="M327.529 319.076C311.818 319.076 303.093 304.574 286.528 304.512C269.758 304.45 262.501 319.076 245.51 319.076" stroke="#009CF3" stroke-width="2"/>
<path d="M245.51 319.076C229.798 319.076 221.074 304.574 204.509 304.512C187.739 304.45 180.481 319.076 163.491 319.076" stroke="#009CF3" stroke-width="2"/>
<path d="M164.038 319.076C148.326 319.076 139.602 304.574 123.037 304.512C106.267 304.45 99.0095 319.076 82.019 319.076" stroke="#009CF3" stroke-width="2"/>
<path d="M82.0195 319.076C66.3078 319.076 57.5835 304.574 41.0184 304.512C24.2484 304.45 16.991 319.076 0.000459923 319.076" stroke="#009CF3" stroke-width="2"/>
<path d="M409 329.952C393.288 329.952 384.564 315.45 367.999 315.389C351.229 315.326 343.971 329.952 326.981 329.952" stroke="#009CF3" stroke-width="2"/>
<path d="M327.529 329.951C311.818 329.951 303.093 315.45 286.528 315.388C269.758 315.325 262.501 329.951 245.51 329.951" stroke="#009CF3" stroke-width="2"/>
<path d="M245.51 329.951C229.798 329.951 221.074 315.45 204.509 315.388C187.739 315.325 180.481 329.951 163.491 329.951" stroke="#009CF3" stroke-width="2"/>
<path d="M164.038 329.951C148.326 329.951 139.602 315.45 123.037 315.388C106.267 315.325 99.0095 329.951 82.019 329.951" stroke="#009CF3" stroke-width="2"/>
<path d="M82.0195 329.951C66.3078 329.951 57.5835 315.45 41.0184 315.388C24.2484 315.325 16.991 329.951 0.000459923 329.951" stroke="#009CF3" stroke-width="2"/>
<path d="M409 340.827C393.288 340.827 384.564 326.326 367.999 326.264C351.229 326.201 343.971 340.827 326.981 340.827" stroke="#009CF3" stroke-width="2"/>
<path d="M327.529 340.827C311.818 340.827 303.093 326.326 286.528 326.264C269.758 326.202 262.501 340.827 245.51 340.827" stroke="#009CF3" stroke-width="2"/>
<path d="M245.51 340.827C229.798 340.827 221.074 326.326 204.509 326.264C187.739 326.202 180.481 340.827 163.491 340.827" stroke="#009CF3" stroke-width="2"/>
<path d="M164.038 340.827C148.326 340.827 139.602 326.326 123.037 326.264C106.267 326.202 99.0095 340.827 82.019 340.827" stroke="#009CF3" stroke-width="2"/>
<path d="M82.0195 340.827C66.3078 340.827 57.5835 326.326 41.0184 326.264C24.2484 326.202 16.991 340.827 0.000459923 340.827" stroke="#009CF3" stroke-width="2"/>
<path d="M409 351.703C393.288 351.703 384.564 337.202 367.999 337.14C351.229 337.078 343.971 351.703 326.981 351.703" stroke="#009CF3" stroke-width="2"/>
<path d="M327.529 351.702C311.818 351.702 303.093 337.201 286.528 337.139C269.758 337.077 262.501 351.702 245.51 351.702" stroke="#009CF3" stroke-width="2"/>
<path d="M245.51 351.702C229.798 351.702 221.074 337.201 204.509 337.139C187.739 337.077 180.481 351.702 163.491 351.702" stroke="#009CF3" stroke-width="2"/>
<path d="M164.038 351.702C148.326 351.702 139.602 337.201 123.037 337.139C106.267 337.077 99.0095 351.702 82.019 351.702" stroke="#009CF3" stroke-width="2"/>
<path d="M82.0195 351.702C66.3078 351.702 57.5835 337.201 41.0184 337.139C24.2484 337.077 16.991 351.702 0.000459923 351.702" stroke="#009CF3" stroke-width="2"/>
<path d="M409 362.579C393.288 362.579 384.564 348.078 367.999 348.016C351.229 347.954 343.971 362.579 326.981 362.579" stroke="#009CF3" stroke-width="2"/>
<path d="M327.529 362.578C311.818 362.578 303.093 348.077 286.528 348.015C269.758 347.953 262.501 362.578 245.51 362.578" stroke="#009CF3" stroke-width="2"/>
<path d="M245.51 362.578C229.798 362.578 221.074 348.077 204.509 348.015C187.739 347.953 180.481 362.578 163.491 362.578" stroke="#009CF3" stroke-width="2"/>
<path d="M164.038 362.578C148.326 362.578 139.602 348.077 123.037 348.015C106.267 347.953 99.0095 362.578 82.019 362.578" stroke="#009CF3" stroke-width="2"/>
<path d="M82.0195 362.578C66.3078 362.578 57.5835 348.077 41.0184 348.015C24.2484 347.953 16.991 362.578 0.000459923 362.578" stroke="#009CF3" stroke-width="2"/>
<path d="M327.529 373.454C311.818 373.454 303.093 358.953 286.528 358.891C269.758 358.829 262.501 373.454 245.51 373.454" stroke="#009CF3" stroke-width="2"/>
<path d="M164.039 373.454C148.327 373.454 139.603 358.953 123.038 358.891C106.268 358.829 99.0105 373.454 82.02 373.454" stroke="#009CF3" stroke-width="2"/>
<path d="M82.0195 373.454C66.3078 373.454 57.5835 358.953 41.0184 358.891C24.2484 358.829 16.991 373.454 0.000459923 373.454" stroke="#009CF3" stroke-width="2"/>
<path d="M409 384.331C393.288 384.331 384.564 369.829 367.999 369.768C351.229 369.705 343.971 384.331 326.981 384.331" stroke="#009CF3" stroke-width="2"/>
<path d="M327.529 384.33C311.818 384.33 303.093 369.829 286.528 369.767C269.758 369.705 262.501 384.33 245.51 384.33" stroke="#009CF3" stroke-width="2"/>
<path d="M245.51 384.33C229.798 384.33 221.074 369.829 204.509 369.767C187.739 369.705 180.481 384.33 163.491 384.33" stroke="#009CF3" stroke-width="2"/>
<path d="M164.038 384.33C148.326 384.33 139.602 369.829 123.037 369.767C106.267 369.705 99.0095 384.33 82.019 384.33" stroke="#009CF3" stroke-width="2"/>
<path d="M82.0195 384.33C66.3078 384.33 57.5835 369.829 41.0184 369.767C24.2484 369.705 16.991 384.33 0.000459923 384.33" stroke="#009CF3" stroke-width="2"/>
<path d="M409 395.206C393.288 395.206 384.564 380.704 367.999 380.643C351.229 380.58 343.971 395.206 326.981 395.206" stroke="#009CF3" stroke-width="2"/>
<path d="M327.529 395.206C311.818 395.206 303.093 380.704 286.528 380.643C269.758 380.58 262.501 395.206 245.51 395.206" stroke="#009CF3" stroke-width="2"/>
<path d="M245.51 395.206C229.798 395.206 221.074 380.704 204.509 380.643C187.739 380.58 180.481 395.206 163.491 395.206" stroke="#009CF3" stroke-width="2"/>
<path d="M164.038 395.206C148.326 395.206 139.602 380.704 123.037 380.643C106.267 380.58 99.0095 395.206 82.019 395.206" stroke="#009CF3" stroke-width="2"/>
<path d="M82.0195 395.206C66.3078 395.206 57.5835 380.704 41.0184 380.643C24.2484 380.58 16.991 395.206 0.000459923 395.206" stroke="#009CF3" stroke-width="2"/>
<path d="M245.51 406.081C229.798 406.081 221.074 391.579 204.509 391.518C187.739 391.455 180.481 406.081 163.491 406.081" stroke="#009CF3" stroke-width="2"/>
<path d="M164.038 406.081C148.326 406.081 139.602 391.579 123.037 391.518C106.267 391.455 99.0095 406.081 82.019 406.081" stroke="#009CF3" stroke-width="2"/>
<path d="M82.0195 406.081C66.3078 406.081 57.5835 391.579 41.0184 391.518C24.2484 391.455 16.991 406.081 0.000459923 406.081" stroke="#009CF3" stroke-width="2"/>
<path d="M409 416.956C393.288 416.956 384.564 402.455 367.999 402.393C351.229 402.331 343.971 416.956 326.981 416.956" stroke="#009CF3" stroke-width="2"/>
<path d="M327.529 416.956C311.818 416.956 303.093 402.455 286.528 402.393C269.758 402.331 262.501 416.956 245.51 416.956" stroke="#009CF3" stroke-width="2"/>
<path d="M245.51 416.956C229.798 416.956 221.074 402.455 204.509 402.393C187.739 402.331 180.481 416.956 163.491 416.956" stroke="#009CF3" stroke-width="2"/>
<path d="M164.038 416.956C148.326 416.956 139.602 402.455 123.037 402.393C106.267 402.331 99.0095 416.956 82.019 416.956" stroke="#009CF3" stroke-width="2"/>
<path d="M82.0195 416.956C66.3078 416.956 57.5835 402.455 41.0184 402.393C24.2484 402.331 16.991 416.956 0.000459923 416.956" stroke="#009CF3" stroke-width="2"/>
<path d="M327.529 427.831C311.818 427.831 303.093 413.33 286.528 413.268C269.758 413.206 262.501 427.831 245.51 427.831" stroke="#009CF3" stroke-width="2"/>
<path d="M245.51 427.831C229.798 427.831 221.074 413.33 204.509 413.268C187.739 413.206 180.481 427.831 163.491 427.831" stroke="#009CF3" stroke-width="2"/>
<path d="M327.529 438.707C311.818 438.707 303.093 424.205 286.528 424.144C269.758 424.081 262.501 438.707 245.51 438.707" stroke="#009CF3" stroke-width="2"/>
<path d="M245.51 438.707C229.798 438.707 221.074 424.205 204.509 424.144C187.739 424.081 180.481 438.707 163.491 438.707" stroke="#009CF3" stroke-width="2"/>
<path d="M164.039 438.707C148.327 438.707 139.603 424.205 123.038 424.144C106.268 424.081 99.0105 438.707 82.02 438.707" stroke="#009CF3" stroke-width="2"/>
</g>
</g>
<defs>
<clipPath id="clip0_10003_21343">
<rect width="409" height="441" rx="16" transform="matrix(-1 0 0 1 409 0)" fill="white"/>
</clipPath>
</defs>
</svg>
