<svg width="812" height="595" viewBox="0 0 812 595" fill="none" xmlns="http://www.w3.org/2000/svg">
<g opacity="0.1">
<g clip-path="url(#clip0_10017_8835)">
<path d="M0 166.381C31.1929 166.381 48.5136 146.816 81.4008 146.732C114.695 146.648 129.103 166.381 162.835 166.381" stroke="white" stroke-opacity="0.49" stroke-width="2"/>
<path d="M161.746 166.381C192.939 166.381 210.26 146.815 243.147 146.732C276.441 146.648 290.849 166.381 324.581 166.381" stroke="white" stroke-opacity="0.49" stroke-width="2"/>
<path d="M324.582 166.381C355.775 166.381 373.096 146.815 405.983 146.732C439.277 146.648 453.685 166.381 487.417 166.381" stroke="white" stroke-opacity="0.49" stroke-width="2"/>
<path d="M486.329 166.381C517.522 166.381 534.843 146.815 567.73 146.732C601.024 146.648 615.432 166.381 649.164 166.381" stroke="white" stroke-opacity="0.49" stroke-width="2"/>
<path d="M649.164 166.381C680.357 166.381 697.678 146.815 730.565 146.732C763.859 146.648 778.267 166.381 811.999 166.381" stroke="white" stroke-opacity="0.49" stroke-width="2"/>
<path d="M0 181.055C31.1929 181.055 48.5136 161.49 81.4008 161.406C114.695 161.322 129.103 181.055 162.835 181.055" stroke="white" stroke-opacity="0.49" stroke-width="2"/>
<path d="M161.746 181.054C192.939 181.054 210.26 161.488 243.147 161.405C276.441 161.321 290.849 181.054 324.581 181.054" stroke="white" stroke-opacity="0.49" stroke-width="2"/>
<path d="M324.582 181.054C355.775 181.054 373.096 161.488 405.983 161.405C439.277 161.321 453.685 181.054 487.417 181.054" stroke="white" stroke-opacity="0.49" stroke-width="2"/>
<path d="M486.329 181.054C517.522 181.054 534.843 161.488 567.73 161.405C601.024 161.321 615.432 181.054 649.164 181.054" stroke="white" stroke-opacity="0.49" stroke-width="2"/>
<path d="M649.164 181.054C680.357 181.054 697.678 161.488 730.565 161.405C763.859 161.321 778.267 181.054 811.999 181.054" stroke="white" stroke-opacity="0.49" stroke-width="2"/>
<path d="M0 195.729C31.1929 195.729 48.5136 176.163 81.4008 176.08C114.695 175.996 129.103 195.729 162.835 195.729" stroke="white" stroke-opacity="0.49" stroke-width="2"/>
<path d="M161.746 195.728C192.939 195.728 210.26 176.163 243.147 176.08C276.441 175.995 290.849 195.728 324.581 195.728" stroke="white" stroke-opacity="0.49" stroke-width="2"/>
<path d="M324.582 195.728C355.775 195.728 373.096 176.163 405.983 176.08C439.277 175.995 453.685 195.728 487.417 195.728" stroke="white" stroke-opacity="0.49" stroke-width="2"/>
<path d="M486.329 195.728C517.522 195.728 534.843 176.163 567.73 176.08C601.024 175.995 615.432 195.728 649.164 195.728" stroke="white" stroke-opacity="0.49" stroke-width="2"/>
<path d="M649.165 195.728C680.358 195.728 697.679 176.163 730.566 176.08C763.86 175.995 778.268 195.728 812 195.728" stroke="white" stroke-opacity="0.49" stroke-width="2"/>
<path d="M0 210.401C31.1929 210.401 48.5136 190.836 81.4008 190.753C114.695 190.669 129.103 210.401 162.835 210.401" stroke="white" stroke-opacity="0.49" stroke-width="2"/>
<path d="M161.746 210.401C192.939 210.401 210.26 190.836 243.147 190.753C276.441 190.669 290.849 210.401 324.581 210.401" stroke="white" stroke-opacity="0.49" stroke-width="2"/>
<path d="M324.582 210.401C355.775 210.401 373.096 190.836 405.983 190.753C439.277 190.669 453.685 210.401 487.417 210.401" stroke="white" stroke-opacity="0.49" stroke-width="2"/>
<path d="M486.329 210.401C517.522 210.401 534.843 190.836 567.73 190.753C601.024 190.669 615.432 210.401 649.164 210.401" stroke="white" stroke-opacity="0.49" stroke-width="2"/>
<path d="M649.165 210.401C680.358 210.401 697.679 190.836 730.566 190.753C763.86 190.669 778.268 210.401 812 210.401" stroke="white" stroke-opacity="0.49" stroke-width="2"/>
<path d="M0 225.074C31.1929 225.074 48.5136 205.509 81.4008 205.426C114.695 205.341 129.103 225.074 162.835 225.074" stroke="white" stroke-opacity="0.49" stroke-width="2"/>
<path d="M161.746 225.074C192.939 225.074 210.26 205.509 243.147 205.426C276.441 205.342 290.849 225.074 324.581 225.074" stroke="white" stroke-opacity="0.49" stroke-width="2"/>
<path d="M324.582 225.074C355.775 225.074 373.096 205.509 405.983 205.426C439.277 205.342 453.685 225.074 487.417 225.074" stroke="white" stroke-opacity="0.49" stroke-width="2"/>
<path d="M486.329 225.074C517.522 225.074 534.843 205.509 567.73 205.426C601.024 205.342 615.432 225.074 649.164 225.074" stroke="white" stroke-opacity="0.49" stroke-width="2"/>
<path d="M649.165 225.074C680.358 225.074 697.679 205.509 730.566 205.426C763.86 205.342 778.268 225.074 812 225.074" stroke="white" stroke-opacity="0.49" stroke-width="2"/>
<path d="M0 239.748C31.1929 239.748 48.5136 220.183 81.4008 220.1C114.695 220.015 129.103 239.748 162.835 239.748" stroke="white" stroke-opacity="0.49" stroke-width="2"/>
<path d="M161.746 239.747C192.939 239.747 210.26 220.182 243.147 220.099C276.441 220.014 290.849 239.747 324.581 239.747" stroke="white" stroke-opacity="0.49" stroke-width="2"/>
<path d="M324.582 239.747C355.775 239.747 373.096 220.182 405.983 220.099C439.277 220.014 453.685 239.747 487.417 239.747" stroke="white" stroke-opacity="0.49" stroke-width="2"/>
<path d="M486.329 239.747C517.522 239.747 534.843 220.182 567.73 220.099C601.024 220.014 615.432 239.747 649.164 239.747" stroke="white" stroke-opacity="0.49" stroke-width="2"/>
<path d="M649.164 239.747C680.357 239.747 697.678 220.182 730.565 220.099C763.859 220.014 778.267 239.747 811.999 239.747" stroke="white" stroke-opacity="0.49" stroke-width="2"/>
<path d="M0 254.421C31.1929 254.421 48.5136 234.856 81.4008 234.773C114.695 234.689 129.103 254.421 162.835 254.421" stroke="white" stroke-opacity="0.49" stroke-width="2"/>
<path d="M161.746 254.421C192.939 254.421 210.26 234.856 243.147 234.772C276.441 234.688 290.849 254.421 324.581 254.421" stroke="white" stroke-opacity="0.49" stroke-width="2"/>
<path d="M324.582 254.421C355.775 254.421 373.096 234.856 405.983 234.772C439.277 234.688 453.685 254.421 487.417 254.421" stroke="white" stroke-opacity="0.49" stroke-width="2"/>
<path d="M486.329 254.421C517.522 254.421 534.843 234.856 567.73 234.772C601.024 234.688 615.432 254.421 649.164 254.421" stroke="white" stroke-opacity="0.49" stroke-width="2"/>
<path d="M649.165 254.421C680.358 254.421 697.679 234.856 730.566 234.772C763.86 234.688 778.268 254.421 812 254.421" stroke="white" stroke-opacity="0.49" stroke-width="2"/>
<path d="M0 269.095C31.1929 269.095 48.5136 249.529 81.4008 249.446C114.695 249.362 129.103 269.095 162.835 269.095" stroke="white" stroke-opacity="0.49" stroke-width="2"/>
<path d="M161.746 269.094C192.939 269.094 210.26 249.529 243.147 249.446C276.441 249.361 290.849 269.094 324.581 269.094" stroke="white" stroke-opacity="0.49" stroke-width="2"/>
<path d="M324.582 269.094C355.775 269.094 373.096 249.529 405.983 249.446C439.277 249.361 453.685 269.094 487.417 269.094" stroke="white" stroke-opacity="0.49" stroke-width="2"/>
<path d="M486.329 269.094C517.522 269.094 534.843 249.529 567.73 249.446C601.024 249.361 615.432 269.094 649.164 269.094" stroke="white" stroke-opacity="0.49" stroke-width="2"/>
<path d="M649.164 269.094C680.357 269.094 697.678 249.529 730.565 249.446C763.859 249.361 778.267 269.094 811.999 269.094" stroke="white" stroke-opacity="0.49" stroke-width="2"/>
<path d="M0 283.768C31.1929 283.768 48.5136 264.202 81.4008 264.119C114.695 264.035 129.103 283.768 162.835 283.768" stroke="white" stroke-opacity="0.49" stroke-width="2"/>
<path d="M161.746 283.768C192.939 283.768 210.26 264.202 243.147 264.119C276.441 264.035 290.849 283.768 324.581 283.768" stroke="white" stroke-opacity="0.49" stroke-width="2"/>
<path d="M324.582 283.768C355.775 283.768 373.096 264.202 405.983 264.119C439.277 264.035 453.685 283.768 487.417 283.768" stroke="white" stroke-opacity="0.49" stroke-width="2"/>
<path d="M486.329 283.768C517.522 283.768 534.843 264.202 567.73 264.119C601.024 264.035 615.432 283.768 649.164 283.768" stroke="white" stroke-opacity="0.49" stroke-width="2"/>
<path d="M649.165 283.768C680.358 283.768 697.679 264.202 730.566 264.119C763.86 264.035 778.268 283.768 812 283.768" stroke="white" stroke-opacity="0.49" stroke-width="2"/>
<path d="M0 298.441C31.1929 298.441 48.5136 278.876 81.4008 278.792C114.695 278.708 129.103 298.441 162.835 298.441" stroke="white" stroke-opacity="0.49" stroke-width="2"/>
<path d="M161.746 298.441C192.939 298.441 210.26 278.875 243.147 278.792C276.441 278.708 290.849 298.441 324.581 298.441" stroke="white" stroke-opacity="0.49" stroke-width="2"/>
<path d="M324.582 298.441C355.775 298.441 373.096 278.875 405.983 278.792C439.277 278.708 453.685 298.441 487.417 298.441" stroke="white" stroke-opacity="0.49" stroke-width="2"/>
<path d="M486.329 298.441C517.522 298.441 534.843 278.875 567.73 278.792C601.024 278.708 615.432 298.441 649.164 298.441" stroke="white" stroke-opacity="0.49" stroke-width="2"/>
<path d="M649.165 298.441C680.358 298.441 697.679 278.875 730.566 278.792C763.86 278.708 778.268 298.441 812 298.441" stroke="white" stroke-opacity="0.49" stroke-width="2"/>
<path d="M0.000976562 19.649C31.1939 19.649 48.5146 0.0835717 81.4018 0.000390825C114.696 -0.0838184 129.104 19.649 162.836 19.649" stroke="white" stroke-opacity="0.49" stroke-width="2"/>
<path d="M161.746 19.6489C192.939 19.6489 210.26 0.0834496 243.147 0.000268755C276.441 -0.0839404 290.849 19.6489 324.581 19.6489" stroke="white" stroke-opacity="0.49" stroke-width="2"/>
<path d="M324.581 19.6489C355.774 19.6489 373.095 0.0834496 405.982 0.000268755C439.276 -0.0839405 453.684 19.6489 487.416 19.6489" stroke="white" stroke-opacity="0.49" stroke-width="2"/>
<path d="M486.329 19.6489C517.522 19.6489 534.843 0.0834496 567.73 0.000268755C601.024 -0.0839404 615.432 19.6489 649.164 19.6489" stroke="white" stroke-opacity="0.49" stroke-width="2"/>
<path d="M649.164 19.6489C680.357 19.6489 697.678 0.0834496 730.565 0.000268755C763.859 -0.0839404 778.267 19.6489 811.999 19.6489" stroke="white" stroke-opacity="0.49" stroke-width="2"/>
<path d="M0 34.3218C31.1929 34.3218 48.5136 14.7563 81.4008 14.6731C114.695 14.5889 129.103 34.3218 162.835 34.3218" stroke="white" stroke-opacity="0.49" stroke-width="2"/>
<path d="M161.746 34.3223C192.939 34.3223 210.26 14.7568 243.147 14.6736C276.441 14.5894 290.849 34.3223 324.581 34.3223" stroke="white" stroke-opacity="0.49" stroke-width="2"/>
<path d="M324.582 34.3223C355.775 34.3223 373.096 14.7568 405.983 14.6736C439.277 14.5894 453.685 34.3223 487.417 34.3223" stroke="white" stroke-opacity="0.49" stroke-width="2"/>
<path d="M486.329 34.3223C517.522 34.3223 534.843 14.7568 567.73 14.6736C601.024 14.5894 615.432 34.3223 649.164 34.3223" stroke="white" stroke-opacity="0.49" stroke-width="2"/>
<path d="M649.165 34.3223C680.358 34.3223 697.679 14.7568 730.566 14.6736C763.86 14.5894 778.268 34.3223 812 34.3223" stroke="white" stroke-opacity="0.49" stroke-width="2"/>
<path d="M0 48.995C31.1929 48.995 48.5136 29.4295 81.4008 29.3463C114.695 29.2621 129.103 48.995 162.835 48.995" stroke="white" stroke-opacity="0.49" stroke-width="2"/>
<path d="M161.746 48.995C192.939 48.995 210.26 29.4295 243.147 29.3463C276.441 29.2621 290.849 48.995 324.581 48.995" stroke="white" stroke-opacity="0.49" stroke-width="2"/>
<path d="M324.582 48.995C355.775 48.995 373.096 29.4295 405.983 29.3463C439.277 29.2621 453.685 48.995 487.417 48.995" stroke="white" stroke-opacity="0.49" stroke-width="2"/>
<path d="M486.329 48.995C517.522 48.995 534.843 29.4295 567.73 29.3463C601.024 29.2621 615.432 48.995 649.164 48.995" stroke="white" stroke-opacity="0.49" stroke-width="2"/>
<path d="M649.165 48.995C680.358 48.995 697.679 29.4295 730.566 29.3463C763.86 29.2621 778.268 48.995 812 48.995" stroke="white" stroke-opacity="0.49" stroke-width="2"/>
<path d="M0 63.6682C31.1929 63.6682 48.5136 44.1027 81.4008 44.0196C114.695 43.9353 129.103 63.6682 162.835 63.6682" stroke="white" stroke-opacity="0.49" stroke-width="2"/>
<path d="M161.746 63.668C192.939 63.668 210.26 44.1025 243.147 44.0193C276.441 43.9351 290.849 63.668 324.581 63.668" stroke="white" stroke-opacity="0.49" stroke-width="2"/>
<path d="M324.582 63.668C355.775 63.668 373.096 44.1025 405.983 44.0193C439.277 43.9351 453.685 63.668 487.417 63.668" stroke="white" stroke-opacity="0.49" stroke-width="2"/>
<path d="M486.329 63.668C517.522 63.668 534.843 44.1025 567.73 44.0193C601.024 43.9351 615.432 63.668 649.164 63.668" stroke="white" stroke-opacity="0.49" stroke-width="2"/>
<path d="M649.165 63.668C680.358 63.668 697.679 44.1025 730.566 44.0193C763.86 43.9351 778.268 63.668 812 63.668" stroke="white" stroke-opacity="0.49" stroke-width="2"/>
<path d="M0 78.3411C31.1929 78.3411 48.5136 58.7756 81.4008 58.6924C114.695 58.6082 129.103 78.3411 162.835 78.3411" stroke="white" stroke-opacity="0.49" stroke-width="2"/>
<path d="M161.746 78.3407C192.939 78.3407 210.26 58.7752 243.147 58.692C276.441 58.6078 290.849 78.3407 324.581 78.3407" stroke="white" stroke-opacity="0.49" stroke-width="2"/>
<path d="M324.582 78.3407C355.775 78.3407 373.096 58.7752 405.983 58.692C439.277 58.6078 453.685 78.3407 487.417 78.3407" stroke="white" stroke-opacity="0.49" stroke-width="2"/>
<path d="M486.329 78.3406C517.522 78.3406 534.843 58.7751 567.73 58.6919C601.024 58.6077 615.432 78.3406 649.164 78.3406" stroke="white" stroke-opacity="0.49" stroke-width="2"/>
<path d="M649.165 78.3406C680.358 78.3406 697.679 58.7751 730.566 58.6919C763.86 58.6077 778.268 78.3406 812 78.3406" stroke="white" stroke-opacity="0.49" stroke-width="2"/>
<path d="M0 93.0144C31.1929 93.0144 48.5136 73.4489 81.4008 73.3657C114.695 73.2815 129.103 93.0144 162.835 93.0144" stroke="white" stroke-opacity="0.49" stroke-width="2"/>
<path d="M161.746 93.0138C192.939 93.0138 210.26 73.4483 243.147 73.3651C276.441 73.2809 290.849 93.0138 324.581 93.0138" stroke="white" stroke-opacity="0.49" stroke-width="2"/>
<path d="M324.582 93.0138C355.775 93.0138 373.096 73.4483 405.983 73.3651C439.277 73.2809 453.685 93.0138 487.417 93.0138" stroke="white" stroke-opacity="0.49" stroke-width="2"/>
<path d="M486.329 93.0138C517.522 93.0138 534.843 73.4483 567.73 73.3651C601.024 73.2809 615.432 93.0138 649.164 93.0138" stroke="white" stroke-opacity="0.49" stroke-width="2"/>
<path d="M649.165 93.0138C680.358 93.0138 697.679 73.4483 730.566 73.3651C763.86 73.2809 778.268 93.0138 812 93.0138" stroke="white" stroke-opacity="0.49" stroke-width="2"/>
<path d="M0 107.688C31.1929 107.688 48.5136 88.1226 81.4008 88.0395C114.695 87.9552 129.103 107.688 162.835 107.688" stroke="white" stroke-opacity="0.49" stroke-width="2"/>
<path d="M161.746 107.687C192.939 107.687 210.26 88.122 243.147 88.0388C276.441 87.9546 290.849 107.687 324.581 107.687" stroke="white" stroke-opacity="0.49" stroke-width="2"/>
<path d="M324.582 107.687C355.775 107.687 373.096 88.122 405.983 88.0388C439.277 87.9546 453.685 107.687 487.417 107.687" stroke="white" stroke-opacity="0.49" stroke-width="2"/>
<path d="M486.329 107.687C517.522 107.687 534.843 88.122 567.73 88.0388C601.024 87.9546 615.432 107.687 649.164 107.687" stroke="white" stroke-opacity="0.49" stroke-width="2"/>
<path d="M649.165 107.687C680.358 107.687 697.679 88.122 730.566 88.0388C763.86 87.9546 778.268 107.687 812 107.687" stroke="white" stroke-opacity="0.49" stroke-width="2"/>
<path d="M0 122.361C31.1929 122.361 48.5136 102.795 81.4008 102.712C114.695 102.628 129.103 122.361 162.835 122.361" stroke="white" stroke-opacity="0.49" stroke-width="2"/>
<path d="M161.746 122.36C192.939 122.36 210.26 102.795 243.147 102.712C276.441 102.627 290.849 122.36 324.581 122.36" stroke="white" stroke-opacity="0.49" stroke-width="2"/>
<path d="M324.582 122.36C355.775 122.36 373.096 102.795 405.983 102.712C439.277 102.627 453.685 122.36 487.417 122.36" stroke="white" stroke-opacity="0.49" stroke-width="2"/>
<path d="M486.329 122.36C517.522 122.36 534.843 102.795 567.73 102.712C601.024 102.627 615.432 122.36 649.164 122.36" stroke="white" stroke-opacity="0.49" stroke-width="2"/>
<path d="M649.165 122.36C680.358 122.36 697.679 102.795 730.566 102.712C763.86 102.627 778.268 122.36 812 122.36" stroke="white" stroke-opacity="0.49" stroke-width="2"/>
<path d="M0 137.034C31.1929 137.034 48.5136 117.469 81.4008 117.386C114.695 117.301 129.103 137.034 162.835 137.034" stroke="white" stroke-opacity="0.49" stroke-width="2"/>
<path d="M161.746 137.034C192.939 137.034 210.26 117.469 243.147 117.386C276.441 117.301 290.849 137.034 324.581 137.034" stroke="white" stroke-opacity="0.49" stroke-width="2"/>
<path d="M324.582 137.034C355.775 137.034 373.096 117.469 405.983 117.386C439.277 117.301 453.685 137.034 487.417 137.034" stroke="white" stroke-opacity="0.49" stroke-width="2"/>
<path d="M486.329 137.034C517.522 137.034 534.843 117.469 567.73 117.386C601.024 117.301 615.432 137.034 649.164 137.034" stroke="white" stroke-opacity="0.49" stroke-width="2"/>
<path d="M649.165 137.034C680.358 137.034 697.679 117.469 730.566 117.386C763.86 117.301 778.268 137.034 812 137.034" stroke="white" stroke-opacity="0.49" stroke-width="2"/>
<path d="M0 151.708C31.1929 151.708 48.5136 132.142 81.4008 132.059C114.695 131.975 129.103 151.708 162.835 151.708" stroke="white" stroke-opacity="0.49" stroke-width="2"/>
<path d="M161.746 151.707C192.939 151.707 210.26 132.142 243.147 132.058C276.441 131.974 290.849 151.707 324.581 151.707" stroke="white" stroke-opacity="0.49" stroke-width="2"/>
<path d="M324.582 151.707C355.775 151.707 373.096 132.142 405.983 132.058C439.277 131.974 453.685 151.707 487.417 151.707" stroke="white" stroke-opacity="0.49" stroke-width="2"/>
<path d="M486.329 151.707C517.522 151.707 534.843 132.142 567.73 132.058C601.024 131.974 615.432 151.707 649.164 151.707" stroke="white" stroke-opacity="0.49" stroke-width="2"/>
<path d="M649.165 151.707C680.358 151.707 697.679 132.142 730.566 132.058C763.86 131.974 778.268 151.707 812 151.707" stroke="white" stroke-opacity="0.49" stroke-width="2"/>
<path d="M0 313.114C31.1929 313.114 48.5136 293.549 81.4008 293.466C114.695 293.381 129.103 313.114 162.835 313.114" stroke="white" stroke-opacity="0.49" stroke-width="2"/>
<path d="M161.746 313.114C192.939 313.114 210.26 293.549 243.147 293.465C276.441 293.381 290.849 313.114 324.581 313.114" stroke="white" stroke-opacity="0.49" stroke-width="2"/>
<path d="M324.582 313.114C355.775 313.114 373.096 293.549 405.983 293.465C439.277 293.381 453.685 313.114 487.417 313.114" stroke="white" stroke-opacity="0.49" stroke-width="2"/>
<path d="M486.329 313.114C517.522 313.114 534.843 293.549 567.73 293.465C601.024 293.381 615.432 313.114 649.164 313.114" stroke="white" stroke-opacity="0.49" stroke-width="2"/>
<path d="M649.165 313.114C680.358 313.114 697.679 293.549 730.566 293.465C763.86 293.381 778.268 313.114 812 313.114" stroke="white" stroke-opacity="0.49" stroke-width="2"/>
<path d="M0 327.787C31.1929 327.787 48.5136 308.222 81.4008 308.139C114.695 308.054 129.103 327.787 162.835 327.787" stroke="white" stroke-opacity="0.49" stroke-width="2"/>
<path d="M161.746 327.787C192.939 327.787 210.26 308.222 243.147 308.139C276.441 308.054 290.849 327.787 324.581 327.787" stroke="white" stroke-opacity="0.49" stroke-width="2"/>
<path d="M324.582 327.787C355.775 327.787 373.096 308.222 405.983 308.139C439.277 308.054 453.685 327.787 487.417 327.787" stroke="white" stroke-opacity="0.49" stroke-width="2"/>
<path d="M486.329 327.787C517.522 327.787 534.843 308.222 567.73 308.139C601.024 308.054 615.432 327.787 649.164 327.787" stroke="white" stroke-opacity="0.49" stroke-width="2"/>
<path d="M649.165 327.787C680.358 327.787 697.679 308.222 730.566 308.139C763.86 308.054 778.268 327.787 812 327.787" stroke="white" stroke-opacity="0.49" stroke-width="2"/>
<path d="M0 342.46C31.1929 342.46 48.5136 322.895 81.4008 322.812C114.695 322.727 129.103 342.46 162.835 342.46" stroke="white" stroke-opacity="0.49" stroke-width="2"/>
<path d="M161.746 342.46C192.939 342.46 210.26 322.895 243.147 322.811C276.441 322.727 290.849 342.46 324.581 342.46" stroke="white" stroke-opacity="0.49" stroke-width="2"/>
<path d="M324.582 342.46C355.775 342.46 373.096 322.895 405.983 322.811C439.277 322.727 453.685 342.46 487.417 342.46" stroke="white" stroke-opacity="0.49" stroke-width="2"/>
<path d="M486.329 342.46C517.522 342.46 534.843 322.895 567.73 322.811C601.024 322.727 615.432 342.46 649.164 342.46" stroke="white" stroke-opacity="0.49" stroke-width="2"/>
<path d="M649.165 342.46C680.358 342.46 697.679 322.895 730.566 322.811C763.86 322.727 778.268 342.46 812 342.46" stroke="white" stroke-opacity="0.49" stroke-width="2"/>
<path d="M0 357.133C31.1929 357.133 48.5136 337.567 81.4008 337.484C114.695 337.4 129.103 357.133 162.835 357.133" stroke="white" stroke-opacity="0.49" stroke-width="2"/>
<path d="M161.746 357.133C192.939 357.133 210.26 337.568 243.147 337.484C276.441 337.4 290.849 357.133 324.581 357.133" stroke="white" stroke-opacity="0.49" stroke-width="2"/>
<path d="M324.582 357.133C355.775 357.133 373.096 337.568 405.983 337.484C439.277 337.4 453.685 357.133 487.417 357.133" stroke="white" stroke-opacity="0.49" stroke-width="2"/>
<path d="M486.329 357.133C517.522 357.133 534.843 337.568 567.73 337.484C601.024 337.4 615.432 357.133 649.164 357.133" stroke="white" stroke-opacity="0.49" stroke-width="2"/>
<path d="M649.164 357.133C680.357 357.133 697.678 337.568 730.565 337.484C763.859 337.4 778.267 357.133 811.999 357.133" stroke="white" stroke-opacity="0.49" stroke-width="2"/>
<path d="M0 371.806C31.1929 371.806 48.5136 352.24 81.4008 352.157C114.695 352.073 129.103 371.806 162.835 371.806" stroke="white" stroke-opacity="0.49" stroke-width="2"/>
<path d="M161.746 371.806C192.939 371.806 210.26 352.24 243.147 352.157C276.441 352.073 290.849 371.806 324.581 371.806" stroke="white" stroke-opacity="0.49" stroke-width="2"/>
<path d="M324.582 371.806C355.775 371.806 373.096 352.24 405.983 352.157C439.277 352.073 453.685 371.806 487.417 371.806" stroke="white" stroke-opacity="0.49" stroke-width="2"/>
<path d="M486.329 371.806C517.522 371.806 534.843 352.24 567.73 352.157C601.024 352.073 615.432 371.806 649.164 371.806" stroke="white" stroke-opacity="0.49" stroke-width="2"/>
<path d="M649.165 371.806C680.358 371.806 697.679 352.24 730.566 352.157C763.86 352.073 778.268 371.806 812 371.806" stroke="white" stroke-opacity="0.49" stroke-width="2"/>
<path d="M0 401.152C31.1929 401.152 48.5136 381.587 81.4008 381.503C114.695 381.419 129.103 401.152 162.835 401.152" stroke="white" stroke-opacity="0.49" stroke-width="2"/>
<path d="M161.746 401.152C192.939 401.152 210.26 381.587 243.147 381.503C276.441 381.419 290.849 401.152 324.581 401.152" stroke="white" stroke-opacity="0.49" stroke-width="2"/>
<path d="M324.582 401.152C355.775 401.152 373.096 381.587 405.983 381.503C439.277 381.419 453.685 401.152 487.417 401.152" stroke="white" stroke-opacity="0.49" stroke-width="2"/>
<path d="M486.329 401.152C517.522 401.152 534.843 381.587 567.73 381.503C601.024 381.419 615.432 401.152 649.164 401.152" stroke="white" stroke-opacity="0.49" stroke-width="2"/>
<path d="M649.165 401.152C680.358 401.152 697.679 381.587 730.566 381.503C763.86 381.419 778.268 401.152 812 401.152" stroke="white" stroke-opacity="0.49" stroke-width="2"/>
<path d="M0 386.479C31.1929 386.479 48.5136 366.914 81.4008 366.831C114.695 366.746 129.103 386.479 162.835 386.479" stroke="white" stroke-opacity="0.49" stroke-width="2"/>
<path d="M161.746 386.479C192.939 386.479 210.26 366.913 243.147 366.83C276.441 366.746 290.849 386.479 324.581 386.479" stroke="white" stroke-opacity="0.49" stroke-width="2"/>
<path d="M324.582 386.479C355.775 386.479 373.096 366.913 405.983 366.83C439.277 366.746 453.685 386.479 487.417 386.479" stroke="white" stroke-opacity="0.49" stroke-width="2"/>
<path d="M486.329 386.479C517.522 386.479 534.843 366.913 567.73 366.83C601.024 366.746 615.432 386.479 649.164 386.479" stroke="white" stroke-opacity="0.49" stroke-width="2"/>
<path d="M649.165 386.479C680.358 386.479 697.679 366.913 730.566 366.83C763.86 366.746 778.268 386.479 812 386.479" stroke="white" stroke-opacity="0.49" stroke-width="2"/>
<path d="M0 415.826C31.1929 415.826 48.5136 396.26 81.4008 396.177C114.695 396.093 129.103 415.826 162.835 415.826" stroke="white" stroke-opacity="0.49" stroke-width="2"/>
<path d="M161.746 415.825C192.939 415.825 210.26 396.259 243.147 396.176C276.441 396.092 290.849 415.825 324.581 415.825" stroke="white" stroke-opacity="0.49" stroke-width="2"/>
<path d="M324.582 415.825C355.775 415.825 373.096 396.259 405.983 396.176C439.277 396.092 453.685 415.825 487.417 415.825" stroke="white" stroke-opacity="0.49" stroke-width="2"/>
<path d="M486.329 415.825C517.522 415.825 534.843 396.259 567.73 396.176C601.024 396.092 615.432 415.825 649.164 415.825" stroke="white" stroke-opacity="0.49" stroke-width="2"/>
<path d="M649.165 415.825C680.358 415.825 697.679 396.259 730.566 396.176C763.86 396.092 778.268 415.825 812 415.825" stroke="white" stroke-opacity="0.49" stroke-width="2"/>
<path d="M0 430.499C31.1929 430.499 48.5136 410.934 81.4008 410.851C114.695 410.767 129.103 430.499 162.835 430.499" stroke="white" stroke-opacity="0.49" stroke-width="2"/>
<path d="M161.746 430.499C192.939 430.499 210.26 410.933 243.147 410.85C276.441 410.766 290.849 430.499 324.581 430.499" stroke="white" stroke-opacity="0.49" stroke-width="2"/>
<path d="M324.582 430.499C355.775 430.499 373.096 410.933 405.983 410.85C439.277 410.766 453.685 430.499 487.417 430.499" stroke="white" stroke-opacity="0.49" stroke-width="2"/>
<path d="M486.329 430.499C517.522 430.499 534.843 410.933 567.73 410.85C601.024 410.766 615.432 430.499 649.164 430.499" stroke="white" stroke-opacity="0.49" stroke-width="2"/>
<path d="M649.165 430.499C680.358 430.499 697.679 410.933 730.566 410.85C763.86 410.766 778.268 430.499 812 430.499" stroke="white" stroke-opacity="0.49" stroke-width="2"/>
<path d="M0 445.173C31.1929 445.173 48.5136 425.608 81.4008 425.524C114.695 425.44 129.103 445.173 162.835 445.173" stroke="white" stroke-opacity="0.49" stroke-width="2"/>
<path d="M161.746 445.172C192.939 445.172 210.26 425.607 243.147 425.523C276.441 425.439 290.849 445.172 324.581 445.172" stroke="white" stroke-opacity="0.49" stroke-width="2"/>
<path d="M324.582 445.172C355.775 445.172 373.096 425.607 405.983 425.523C439.277 425.439 453.685 445.172 487.417 445.172" stroke="white" stroke-opacity="0.49" stroke-width="2"/>
<path d="M486.329 445.172C517.522 445.172 534.843 425.607 567.73 425.523C601.024 425.439 615.432 445.172 649.164 445.172" stroke="white" stroke-opacity="0.49" stroke-width="2"/>
<path d="M649.165 445.172C680.358 445.172 697.679 425.607 730.566 425.523C763.86 425.439 778.268 445.172 812 445.172" stroke="white" stroke-opacity="0.49" stroke-width="2"/>
<path d="M0 459.846C31.1929 459.846 48.5136 440.28 81.4008 440.197C114.695 440.113 129.103 459.846 162.835 459.846" stroke="white" stroke-opacity="0.49" stroke-width="2"/>
<path d="M161.746 459.846C192.939 459.846 210.26 440.281 243.147 440.198C276.441 440.113 290.849 459.846 324.581 459.846" stroke="white" stroke-opacity="0.49" stroke-width="2"/>
<path d="M324.582 459.846C355.775 459.846 373.096 440.281 405.983 440.198C439.277 440.113 453.685 459.846 487.417 459.846" stroke="white" stroke-opacity="0.49" stroke-width="2"/>
<path d="M486.329 459.846C517.522 459.846 534.843 440.281 567.73 440.198C601.024 440.113 615.432 459.846 649.164 459.846" stroke="white" stroke-opacity="0.49" stroke-width="2"/>
<path d="M649.165 459.846C680.358 459.846 697.679 440.281 730.566 440.198C763.86 440.113 778.268 459.846 812 459.846" stroke="white" stroke-opacity="0.49" stroke-width="2"/>
<path d="M0 474.52C31.1929 474.52 48.5136 454.954 81.4008 454.871C114.695 454.787 129.103 474.52 162.835 474.52" stroke="white" stroke-opacity="0.49" stroke-width="2"/>
<path d="M161.746 474.519C192.939 474.519 210.26 454.954 243.147 454.871C276.441 454.786 290.849 474.519 324.581 474.519" stroke="white" stroke-opacity="0.49" stroke-width="2"/>
<path d="M324.582 474.519C355.775 474.519 373.096 454.954 405.983 454.871C439.277 454.786 453.685 474.519 487.417 474.519" stroke="white" stroke-opacity="0.49" stroke-width="2"/>
<path d="M486.329 474.519C517.522 474.519 534.843 454.954 567.73 454.871C601.024 454.786 615.432 474.519 649.164 474.519" stroke="white" stroke-opacity="0.49" stroke-width="2"/>
<path d="M649.165 474.519C680.358 474.519 697.679 454.954 730.566 454.871C763.86 454.786 778.268 474.519 812 474.519" stroke="white" stroke-opacity="0.49" stroke-width="2"/>
<path d="M0 489.194C31.1929 489.194 48.5136 469.629 81.4008 469.545C114.695 469.461 129.103 489.194 162.835 489.194" stroke="white" stroke-opacity="0.49" stroke-width="2"/>
<path d="M161.746 489.193C192.939 489.193 210.26 469.627 243.147 469.544C276.441 469.46 290.849 489.193 324.581 489.193" stroke="white" stroke-opacity="0.49" stroke-width="2"/>
<path d="M324.582 489.193C355.775 489.193 373.096 469.627 405.983 469.544C439.277 469.46 453.685 489.193 487.417 489.193" stroke="white" stroke-opacity="0.49" stroke-width="2"/>
<path d="M486.329 489.193C517.522 489.193 534.843 469.627 567.73 469.544C601.024 469.46 615.432 489.193 649.164 489.193" stroke="white" stroke-opacity="0.49" stroke-width="2"/>
<path d="M649.164 489.193C680.357 489.193 697.678 469.627 730.565 469.544C763.859 469.46 778.267 489.193 811.999 489.193" stroke="white" stroke-opacity="0.49" stroke-width="2"/>
<path d="M0 503.868C31.1929 503.868 48.5136 484.302 81.4008 484.219C114.695 484.135 129.103 503.868 162.835 503.868" stroke="white" stroke-opacity="0.49" stroke-width="2"/>
<path d="M161.746 503.867C192.939 503.867 210.26 484.301 243.147 484.218C276.441 484.134 290.849 503.867 324.581 503.867" stroke="white" stroke-opacity="0.49" stroke-width="2"/>
<path d="M324.582 503.867C355.775 503.867 373.096 484.301 405.983 484.218C439.277 484.134 453.685 503.867 487.417 503.867" stroke="white" stroke-opacity="0.49" stroke-width="2"/>
<path d="M486.329 503.867C517.522 503.867 534.843 484.301 567.73 484.218C601.024 484.134 615.432 503.867 649.164 503.867" stroke="white" stroke-opacity="0.49" stroke-width="2"/>
<path d="M649.165 503.867C680.358 503.867 697.679 484.301 730.566 484.218C763.86 484.134 778.268 503.867 812 503.867" stroke="white" stroke-opacity="0.49" stroke-width="2"/>
<path d="M0 518.541C31.1929 518.541 48.5136 498.976 81.4008 498.892C114.695 498.808 129.103 518.541 162.835 518.541" stroke="white" stroke-opacity="0.49" stroke-width="2"/>
<path d="M161.746 518.54C192.939 518.54 210.26 498.975 243.147 498.892C276.441 498.808 290.849 518.54 324.581 518.54" stroke="white" stroke-opacity="0.49" stroke-width="2"/>
<path d="M324.582 518.54C355.775 518.54 373.096 498.975 405.983 498.892C439.277 498.808 453.685 518.54 487.417 518.54" stroke="white" stroke-opacity="0.49" stroke-width="2"/>
<path d="M486.329 518.54C517.522 518.54 534.843 498.975 567.73 498.892C601.024 498.808 615.432 518.54 649.164 518.54" stroke="white" stroke-opacity="0.49" stroke-width="2"/>
<path d="M649.165 518.54C680.358 518.54 697.679 498.975 730.566 498.892C763.86 498.808 778.268 518.54 812 518.54" stroke="white" stroke-opacity="0.49" stroke-width="2"/>
<path d="M0 533.214C31.1929 533.214 48.5136 513.649 81.4008 513.565C114.695 513.481 129.103 533.214 162.835 533.214" stroke="white" stroke-opacity="0.49" stroke-width="2"/>
<path d="M161.746 533.215C192.939 533.215 210.26 513.649 243.147 513.566C276.441 513.482 290.849 533.215 324.581 533.215" stroke="white" stroke-opacity="0.49" stroke-width="2"/>
<path d="M324.582 533.215C355.775 533.215 373.096 513.649 405.983 513.566C439.277 513.482 453.685 533.215 487.417 533.215" stroke="white" stroke-opacity="0.49" stroke-width="2"/>
<path d="M486.329 533.215C517.522 533.215 534.843 513.649 567.73 513.566C601.024 513.482 615.432 533.215 649.164 533.215" stroke="white" stroke-opacity="0.49" stroke-width="2"/>
<path d="M649.165 533.215C680.358 533.215 697.679 513.649 730.566 513.566C763.86 513.482 778.268 533.215 812 533.215" stroke="white" stroke-opacity="0.49" stroke-width="2"/>
<path d="M0 547.887C31.1929 547.887 48.5136 528.322 81.4008 528.238C114.695 528.154 129.103 547.887 162.835 547.887" stroke="white" stroke-opacity="0.49" stroke-width="2"/>
<path d="M161.746 547.887C192.939 547.887 210.26 528.322 243.147 528.238C276.441 528.154 290.849 547.887 324.581 547.887" stroke="white" stroke-opacity="0.49" stroke-width="2"/>
<path d="M324.582 547.887C355.775 547.887 373.096 528.322 405.983 528.238C439.277 528.154 453.685 547.887 487.417 547.887" stroke="white" stroke-opacity="0.49" stroke-width="2"/>
<path d="M486.329 547.887C517.522 547.887 534.843 528.322 567.73 528.238C601.024 528.154 615.432 547.887 649.164 547.887" stroke="white" stroke-opacity="0.49" stroke-width="2"/>
<path d="M649.165 547.887C680.358 547.887 697.679 528.322 730.566 528.238C763.86 528.154 778.268 547.887 812 547.887" stroke="white" stroke-opacity="0.49" stroke-width="2"/>
<path d="M0 562.56C31.1929 562.56 48.5136 542.994 81.4008 542.911C114.695 542.827 129.103 562.56 162.835 562.56" stroke="white" stroke-opacity="0.49" stroke-width="2"/>
<path d="M161.746 562.56C192.939 562.56 210.26 542.994 243.147 542.911C276.441 542.827 290.849 562.56 324.581 562.56" stroke="white" stroke-opacity="0.49" stroke-width="2"/>
<path d="M324.582 562.56C355.775 562.56 373.096 542.994 405.983 542.911C439.277 542.827 453.685 562.56 487.417 562.56" stroke="white" stroke-opacity="0.49" stroke-width="2"/>
<path d="M486.329 562.56C517.522 562.56 534.843 542.994 567.73 542.911C601.024 542.827 615.432 562.56 649.164 562.56" stroke="white" stroke-opacity="0.49" stroke-width="2"/>
<path d="M649.165 562.56C680.358 562.56 697.679 542.994 730.566 542.911C763.86 542.827 778.268 562.56 812 562.56" stroke="white" stroke-opacity="0.49" stroke-width="2"/>
<path d="M0 577.233C31.1929 577.233 48.5136 557.668 81.4008 557.584C114.695 557.5 129.103 577.233 162.835 577.233" stroke="white" stroke-opacity="0.49" stroke-width="2"/>
<path d="M161.746 577.233C192.939 577.233 210.26 557.667 243.147 557.584C276.441 557.5 290.849 577.233 324.581 577.233" stroke="white" stroke-opacity="0.49" stroke-width="2"/>
<path d="M324.582 577.233C355.775 577.233 373.096 557.667 405.983 557.584C439.277 557.5 453.685 577.233 487.417 577.233" stroke="white" stroke-opacity="0.49" stroke-width="2"/>
<path d="M486.329 577.233C517.522 577.233 534.843 557.667 567.73 557.584C601.024 557.5 615.432 577.233 649.164 577.233" stroke="white" stroke-opacity="0.49" stroke-width="2"/>
<path d="M649.165 577.233C680.358 577.233 697.679 557.667 730.566 557.584C763.86 557.5 778.268 577.233 812 577.233" stroke="white" stroke-opacity="0.49" stroke-width="2"/>
<path d="M0 591.906C31.1929 591.906 48.5136 572.341 81.4008 572.258C114.695 572.174 129.103 591.906 162.835 591.906" stroke="white" stroke-opacity="0.49" stroke-width="2"/>
<path d="M161.746 591.906C192.939 591.906 210.26 572.341 243.147 572.257C276.441 572.173 290.849 591.906 324.581 591.906" stroke="white" stroke-opacity="0.49" stroke-width="2"/>
<path d="M324.582 591.906C355.775 591.906 373.096 572.341 405.983 572.257C439.277 572.173 453.685 591.906 487.417 591.906" stroke="white" stroke-opacity="0.49" stroke-width="2"/>
<path d="M486.329 591.906C517.522 591.906 534.843 572.341 567.73 572.257C601.024 572.173 615.432 591.906 649.164 591.906" stroke="white" stroke-opacity="0.49" stroke-width="2"/>
<path d="M649.165 591.906C680.358 591.906 697.679 572.341 730.566 572.257C763.86 572.173 778.268 591.906 812 591.906" stroke="white" stroke-opacity="0.49" stroke-width="2"/>
<path d="M0 606.581C31.1929 606.581 48.5136 587.016 81.4008 586.932C114.695 586.848 129.103 606.581 162.835 606.581" stroke="white" stroke-opacity="0.49" stroke-width="2"/>
<path d="M161.746 606.579C192.939 606.579 210.26 587.014 243.147 586.931C276.441 586.846 290.849 606.579 324.581 606.579" stroke="white" stroke-opacity="0.49" stroke-width="2"/>
<path d="M324.582 606.579C355.775 606.579 373.096 587.014 405.983 586.931C439.277 586.846 453.685 606.579 487.417 606.579" stroke="white" stroke-opacity="0.49" stroke-width="2"/>
</g>
</g>
<defs>
<clipPath id="clip0_10017_8835">
<rect width="812" height="595" rx="16" fill="white"/>
</clipPath>
</defs>
</svg>
