<svg width="552" height="595" viewBox="0 0 552 595" fill="none" xmlns="http://www.w3.org/2000/svg">
<g opacity="0.1">
<g clip-path="url(#clip0_10007_7657)">
<path d="M0 166.381C21.205 166.381 32.9797 146.816 55.3365 146.732C77.9698 146.648 87.7647 166.381 110.696 166.381" stroke="#009CF3" stroke-width="2"/>
<path d="M109.956 166.381C131.161 166.381 142.935 146.815 165.292 146.732C187.925 146.648 197.72 166.381 220.651 166.381" stroke="#009CF3" stroke-width="2"/>
<path d="M220.652 166.381C241.857 166.381 253.632 146.815 275.988 146.732C298.622 146.648 308.417 166.381 331.348 166.381" stroke="#009CF3" stroke-width="2"/>
<path d="M330.608 166.381C351.813 166.381 363.588 146.815 385.945 146.732C408.578 146.648 418.373 166.381 441.304 166.381" stroke="#009CF3" stroke-width="2"/>
<path d="M441.304 166.381C462.509 166.381 474.283 146.815 496.64 146.732C519.273 146.648 529.068 166.381 551.999 166.381" stroke="#009CF3" stroke-width="2"/>
<path d="M0 181.055C21.205 181.055 32.9797 161.489 55.3365 161.406C77.9698 161.322 87.7647 181.055 110.696 181.055" stroke="#009CF3" stroke-width="2"/>
<path d="M109.956 181.054C131.161 181.054 142.935 161.488 165.292 161.405C187.925 161.321 197.72 181.054 220.651 181.054" stroke="#009CF3" stroke-width="2"/>
<path d="M220.652 181.054C241.857 181.054 253.632 161.488 275.988 161.405C298.622 161.321 308.417 181.054 331.348 181.054" stroke="#009CF3" stroke-width="2"/>
<path d="M330.608 181.054C351.813 181.054 363.588 161.488 385.945 161.405C408.578 161.321 418.373 181.054 441.304 181.054" stroke="#009CF3" stroke-width="2"/>
<path d="M441.304 181.054C462.509 181.054 474.283 161.488 496.64 161.405C519.273 161.321 529.068 181.054 551.999 181.054" stroke="#009CF3" stroke-width="2"/>
<path d="M0 195.729C21.205 195.729 32.9797 176.163 55.3365 176.08C77.9698 175.996 87.7647 195.729 110.696 195.729" stroke="#009CF3" stroke-width="2"/>
<path d="M109.956 195.728C131.161 195.728 142.935 176.163 165.292 176.08C187.925 175.995 197.72 195.728 220.651 195.728" stroke="#009CF3" stroke-width="2"/>
<path d="M220.652 195.728C241.857 195.728 253.632 176.163 275.988 176.08C298.622 175.995 308.417 195.728 331.348 195.728" stroke="#009CF3" stroke-width="2"/>
<path d="M330.608 195.728C351.813 195.728 363.588 176.163 385.945 176.08C408.578 175.995 418.373 195.728 441.304 195.728" stroke="#009CF3" stroke-width="2"/>
<path d="M441.304 195.728C462.509 195.728 474.284 176.163 496.641 176.08C519.274 175.995 529.069 195.728 552 195.728" stroke="#009CF3" stroke-width="2"/>
<path d="M0 210.401C21.205 210.401 32.9797 190.836 55.3365 190.753C77.9698 190.669 87.7647 210.401 110.696 210.401" stroke="#009CF3" stroke-width="2"/>
<path d="M109.956 210.401C131.161 210.401 142.935 190.836 165.292 190.753C187.925 190.669 197.72 210.401 220.651 210.401" stroke="#009CF3" stroke-width="2"/>
<path d="M220.652 210.401C241.857 210.401 253.632 190.836 275.988 190.753C298.622 190.669 308.417 210.401 331.348 210.401" stroke="#009CF3" stroke-width="2"/>
<path d="M330.608 210.401C351.813 210.401 363.588 190.836 385.945 190.753C408.578 190.669 418.373 210.401 441.304 210.401" stroke="#009CF3" stroke-width="2"/>
<path d="M441.304 210.401C462.509 210.401 474.284 190.836 496.641 190.753C519.274 190.669 529.069 210.401 552 210.401" stroke="#009CF3" stroke-width="2"/>
<path d="M0 225.074C21.205 225.074 32.9797 205.509 55.3365 205.426C77.9698 205.341 87.7647 225.074 110.696 225.074" stroke="#009CF3" stroke-width="2"/>
<path d="M109.956 225.074C131.161 225.074 142.935 205.509 165.292 205.426C187.925 205.341 197.72 225.074 220.651 225.074" stroke="#009CF3" stroke-width="2"/>
<path d="M220.652 225.074C241.857 225.074 253.632 205.509 275.988 205.426C298.622 205.341 308.417 225.074 331.348 225.074" stroke="#009CF3" stroke-width="2"/>
<path d="M330.608 225.074C351.813 225.074 363.588 205.509 385.945 205.426C408.578 205.341 418.373 225.074 441.304 225.074" stroke="#009CF3" stroke-width="2"/>
<path d="M441.304 225.074C462.509 225.074 474.284 205.509 496.641 205.426C519.274 205.341 529.069 225.074 552 225.074" stroke="#009CF3" stroke-width="2"/>
<path d="M0 239.748C21.205 239.748 32.9797 220.183 55.3365 220.1C77.9698 220.015 87.7647 239.748 110.696 239.748" stroke="#009CF3" stroke-width="2"/>
<path d="M109.956 239.747C131.161 239.747 142.935 220.182 165.292 220.098C187.925 220.014 197.72 239.747 220.651 239.747" stroke="#009CF3" stroke-width="2"/>
<path d="M220.652 239.747C241.857 239.747 253.632 220.182 275.988 220.098C298.622 220.014 308.417 239.747 331.348 239.747" stroke="#009CF3" stroke-width="2"/>
<path d="M330.608 239.747C351.813 239.747 363.588 220.182 385.945 220.098C408.578 220.014 418.373 239.747 441.304 239.747" stroke="#009CF3" stroke-width="2"/>
<path d="M441.304 239.747C462.509 239.747 474.283 220.182 496.64 220.098C519.273 220.014 529.068 239.747 551.999 239.747" stroke="#009CF3" stroke-width="2"/>
<path d="M0 254.421C21.205 254.421 32.9797 234.856 55.3365 234.772C77.9698 234.688 87.7647 254.421 110.696 254.421" stroke="#009CF3" stroke-width="2"/>
<path d="M109.956 254.421C131.161 254.421 142.935 234.855 165.292 234.772C187.925 234.688 197.72 254.421 220.651 254.421" stroke="#009CF3" stroke-width="2"/>
<path d="M220.652 254.421C241.857 254.421 253.632 234.855 275.988 234.772C298.622 234.688 308.417 254.421 331.348 254.421" stroke="#009CF3" stroke-width="2"/>
<path d="M330.608 254.421C351.813 254.421 363.588 234.855 385.945 234.772C408.578 234.688 418.373 254.421 441.304 254.421" stroke="#009CF3" stroke-width="2"/>
<path d="M441.304 254.421C462.509 254.421 474.284 234.855 496.641 234.772C519.274 234.688 529.069 254.421 552 254.421" stroke="#009CF3" stroke-width="2"/>
<path d="M109.956 269.094C131.161 269.094 142.935 249.529 165.292 249.446C187.925 249.361 197.72 269.094 220.651 269.094" stroke="#009CF3" stroke-width="2"/>
<path d="M220.651 269.094C241.856 269.094 253.631 249.529 275.988 249.446C298.621 249.361 308.416 269.094 331.347 269.094" stroke="#009CF3" stroke-width="2"/>
<path d="M330.608 269.094C351.813 269.094 363.588 249.529 385.944 249.446C408.578 249.361 418.373 269.094 441.304 269.094" stroke="#009CF3" stroke-width="2"/>
<path d="M441.304 269.094C462.509 269.094 474.283 249.529 496.64 249.446C519.273 249.361 529.068 269.094 551.999 269.094" stroke="#009CF3" stroke-width="2"/>
<path d="M0 283.768C21.205 283.768 32.9797 264.202 55.3365 264.119C77.9698 264.035 87.7647 283.768 110.696 283.768" stroke="#009CF3" stroke-width="2"/>
<path d="M109.956 283.768C131.161 283.768 142.935 264.202 165.292 264.119C187.925 264.035 197.72 283.768 220.651 283.768" stroke="#009CF3" stroke-width="2"/>
<path d="M220.652 283.768C241.857 283.768 253.632 264.202 275.988 264.119C298.622 264.035 308.417 283.768 331.348 283.768" stroke="#009CF3" stroke-width="2"/>
<path d="M330.608 283.768C351.813 283.768 363.588 264.202 385.945 264.119C408.578 264.035 418.373 283.768 441.304 283.768" stroke="#009CF3" stroke-width="2"/>
<path d="M441.304 283.768C462.509 283.768 474.284 264.202 496.641 264.119C519.274 264.035 529.069 283.768 552 283.768" stroke="#009CF3" stroke-width="2"/>
<path d="M0 298.441C21.205 298.441 32.9797 278.875 55.3365 278.792C77.9698 278.708 87.7647 298.441 110.696 298.441" stroke="#009CF3" stroke-width="2"/>
<path d="M109.956 298.44C131.161 298.44 142.935 278.875 165.292 278.792C187.925 278.708 197.72 298.44 220.651 298.44" stroke="#009CF3" stroke-width="2"/>
<path d="M220.652 298.44C241.857 298.44 253.632 278.875 275.988 278.792C298.622 278.708 308.417 298.44 331.348 298.44" stroke="#009CF3" stroke-width="2"/>
<path d="M330.608 298.44C351.813 298.44 363.588 278.875 385.945 278.792C408.578 278.708 418.373 298.44 441.304 298.44" stroke="#009CF3" stroke-width="2"/>
<path d="M441.304 298.44C462.509 298.44 474.284 278.875 496.641 278.792C519.274 278.708 529.069 298.44 552 298.44" stroke="#009CF3" stroke-width="2"/>
<path d="M109.956 19.6489C131.161 19.6489 142.935 0.0834496 165.292 0.000268755C187.925 -0.0839404 197.72 19.6489 220.651 19.6489" stroke="#009CF3" stroke-width="2"/>
<path d="M220.651 19.6489C241.856 19.6489 253.631 0.0834496 275.988 0.000268755C298.621 -0.0839405 308.416 19.6489 331.347 19.6489" stroke="#009CF3" stroke-width="2"/>
<path d="M109.956 34.3223C131.161 34.3223 142.935 14.7568 165.292 14.6736C187.925 14.5894 197.72 34.3223 220.651 34.3223" stroke="#009CF3" stroke-width="2"/>
<path d="M220.651 34.3223C241.856 34.3223 253.631 14.7568 275.988 14.6736C298.621 14.5894 308.416 34.3223 331.347 34.3223" stroke="#009CF3" stroke-width="2"/>
<path d="M330.608 34.3223C351.813 34.3223 363.588 14.7568 385.944 14.6736C408.578 14.5894 418.373 34.3223 441.304 34.3223" stroke="#009CF3" stroke-width="2"/>
<path d="M109.956 48.9951C131.161 48.9951 142.935 29.4296 165.292 29.3465C187.925 29.2623 197.72 48.9951 220.651 48.9951" stroke="#009CF3" stroke-width="2"/>
<path d="M220.651 48.9951C241.856 48.9951 253.631 29.4296 275.988 29.3465C298.621 29.2623 308.416 48.9951 331.347 48.9951" stroke="#009CF3" stroke-width="2"/>
<path d="M330.608 48.9951C351.813 48.9951 363.588 29.4296 385.944 29.3465C408.578 29.2623 418.373 48.9951 441.304 48.9951" stroke="#009CF3" stroke-width="2"/>
<path d="M109.956 63.668C131.161 63.668 142.935 44.1025 165.292 44.0193C187.925 43.9351 197.72 63.668 220.651 63.668" stroke="#009CF3" stroke-width="2"/>
<path d="M220.651 63.668C241.856 63.668 253.631 44.1025 275.988 44.0193C298.621 43.9351 308.416 63.668 331.347 63.668" stroke="#009CF3" stroke-width="2"/>
<path d="M330.608 63.668C351.813 63.668 363.588 44.1025 385.944 44.0193C408.578 43.9351 418.373 63.668 441.304 63.668" stroke="#009CF3" stroke-width="2"/>
<path d="M220.652 78.3406C241.857 78.3406 253.632 58.7751 275.988 58.6919C298.622 58.6077 308.417 78.3406 331.348 78.3406" stroke="#009CF3" stroke-width="2"/>
<path d="M330.608 78.3406C351.813 78.3406 363.588 58.7751 385.945 58.6919C408.578 58.6077 418.373 78.3406 441.304 78.3406" stroke="#009CF3" stroke-width="2"/>
<path d="M109.956 93.0139C131.161 93.0139 142.935 73.4484 165.292 73.3653C187.925 73.281 197.72 93.0139 220.651 93.0139" stroke="#009CF3" stroke-width="2"/>
<path d="M220.651 93.0139C241.856 93.0139 253.631 73.4484 275.988 73.3653C298.621 73.281 308.416 93.0139 331.347 93.0139" stroke="#009CF3" stroke-width="2"/>
<path d="M330.608 93.0139C351.813 93.0139 363.588 73.4484 385.944 73.3653C408.578 73.281 418.373 93.0139 441.304 93.0139" stroke="#009CF3" stroke-width="2"/>
<path d="M441.304 93.0139C462.509 93.0139 474.283 73.4484 496.64 73.3653C519.273 73.281 529.068 93.0139 551.999 93.0139" stroke="#009CF3" stroke-width="2"/>
<path d="M109.956 107.687C131.161 107.687 142.935 88.122 165.292 88.0388C187.925 87.9546 197.72 107.687 220.651 107.687" stroke="#009CF3" stroke-width="2"/>
<path d="M220.651 107.687C241.856 107.687 253.631 88.122 275.988 88.0388C298.621 87.9546 308.416 107.687 331.347 107.687" stroke="#009CF3" stroke-width="2"/>
<path d="M330.608 107.687C351.813 107.687 363.588 88.122 385.944 88.0388C408.578 87.9546 418.373 107.687 441.304 107.687" stroke="#009CF3" stroke-width="2"/>
<path d="M441.304 107.687C462.509 107.687 474.283 88.122 496.64 88.0388C519.273 87.9546 529.068 107.687 551.999 107.687" stroke="#009CF3" stroke-width="2"/>
<path d="M0 122.361C21.205 122.361 32.9797 102.796 55.3365 102.712C77.9698 102.628 87.7647 122.361 110.696 122.361" stroke="#009CF3" stroke-width="2"/>
<path d="M109.956 122.36C131.161 122.36 142.935 102.795 165.292 102.712C187.925 102.627 197.72 122.36 220.651 122.36" stroke="#009CF3" stroke-width="2"/>
<path d="M220.652 122.36C241.857 122.36 253.632 102.795 275.988 102.712C298.622 102.627 308.417 122.36 331.348 122.36" stroke="#009CF3" stroke-width="2"/>
<path d="M0 137.034C21.205 137.034 32.9797 117.469 55.3365 117.386C77.9698 117.301 87.7647 137.034 110.696 137.034" stroke="#009CF3" stroke-width="2"/>
<path d="M109.956 137.034C131.161 137.034 142.935 117.469 165.292 117.386C187.925 117.301 197.72 137.034 220.651 137.034" stroke="#009CF3" stroke-width="2"/>
<path d="M220.652 137.034C241.857 137.034 253.632 117.469 275.988 117.386C298.622 117.301 308.417 137.034 331.348 137.034" stroke="#009CF3" stroke-width="2"/>
<path d="M330.608 137.034C351.813 137.034 363.588 117.469 385.945 117.386C408.578 117.301 418.373 137.034 441.304 137.034" stroke="#009CF3" stroke-width="2"/>
<path d="M441.304 137.034C462.509 137.034 474.284 117.469 496.641 117.386C519.274 117.301 529.069 137.034 552 137.034" stroke="#009CF3" stroke-width="2"/>
<path d="M0 151.708C21.205 151.708 32.9797 132.142 55.3365 132.059C77.9698 131.975 87.7647 151.708 110.696 151.708" stroke="#009CF3" stroke-width="2"/>
<path d="M109.956 151.707C131.161 151.707 142.935 132.142 165.292 132.058C187.925 131.974 197.72 151.707 220.651 151.707" stroke="#009CF3" stroke-width="2"/>
<path d="M220.652 151.707C241.857 151.707 253.632 132.142 275.988 132.058C298.622 131.974 308.417 151.707 331.348 151.707" stroke="#009CF3" stroke-width="2"/>
<path d="M330.608 151.707C351.813 151.707 363.588 132.142 385.945 132.058C408.578 131.974 418.373 151.707 441.304 151.707" stroke="#009CF3" stroke-width="2"/>
<path d="M441.304 151.707C462.509 151.707 474.284 132.142 496.641 132.058C519.274 131.974 529.069 151.707 552 151.707" stroke="#009CF3" stroke-width="2"/>
<path d="M0 313.114C21.205 313.114 32.9797 293.549 55.3365 293.466C77.9698 293.381 87.7647 313.114 110.696 313.114" stroke="#009CF3" stroke-width="2"/>
<path d="M109.956 313.114C131.161 313.114 142.935 293.549 165.292 293.465C187.925 293.381 197.72 313.114 220.651 313.114" stroke="#009CF3" stroke-width="2"/>
<path d="M220.652 313.114C241.857 313.114 253.632 293.549 275.988 293.465C298.622 293.381 308.417 313.114 331.348 313.114" stroke="#009CF3" stroke-width="2"/>
<path d="M330.608 313.114C351.813 313.114 363.588 293.549 385.945 293.465C408.578 293.381 418.373 313.114 441.304 313.114" stroke="#009CF3" stroke-width="2"/>
<path d="M441.304 313.114C462.509 313.114 474.284 293.549 496.641 293.465C519.274 293.381 529.069 313.114 552 313.114" stroke="#009CF3" stroke-width="2"/>
<path d="M0 327.787C21.205 327.787 32.9797 308.222 55.3365 308.138C77.9698 308.054 87.7647 327.787 110.696 327.787" stroke="#009CF3" stroke-width="2"/>
<path d="M109.956 327.787C131.161 327.787 142.935 308.222 165.292 308.138C187.925 308.054 197.72 327.787 220.651 327.787" stroke="#009CF3" stroke-width="2"/>
<path d="M220.652 327.787C241.857 327.787 253.632 308.222 275.988 308.138C298.622 308.054 308.417 327.787 331.348 327.787" stroke="#009CF3" stroke-width="2"/>
<path d="M330.608 327.787C351.813 327.787 363.588 308.222 385.945 308.138C408.578 308.054 418.373 327.787 441.304 327.787" stroke="#009CF3" stroke-width="2"/>
<path d="M441.304 327.787C462.509 327.787 474.284 308.222 496.641 308.138C519.274 308.054 529.069 327.787 552 327.787" stroke="#009CF3" stroke-width="2"/>
<path d="M0 342.46C21.205 342.46 32.9797 322.895 55.3365 322.812C77.9698 322.727 87.7647 342.46 110.696 342.46" stroke="#009CF3" stroke-width="2"/>
<path d="M109.956 342.46C131.161 342.46 142.935 322.894 165.292 322.811C187.925 322.727 197.72 342.46 220.651 342.46" stroke="#009CF3" stroke-width="2"/>
<path d="M220.652 342.46C241.857 342.46 253.632 322.894 275.988 322.811C298.622 322.727 308.417 342.46 331.348 342.46" stroke="#009CF3" stroke-width="2"/>
<path d="M330.608 342.46C351.813 342.46 363.588 322.894 385.945 322.811C408.578 322.727 418.373 342.46 441.304 342.46" stroke="#009CF3" stroke-width="2"/>
<path d="M441.304 342.46C462.509 342.46 474.284 322.894 496.641 322.811C519.274 322.727 529.069 342.46 552 342.46" stroke="#009CF3" stroke-width="2"/>
<path d="M0 357.133C21.205 357.133 32.9797 337.567 55.3365 337.484C77.9698 337.4 87.7647 357.133 110.696 357.133" stroke="#009CF3" stroke-width="2"/>
<path d="M109.956 357.133C131.161 357.133 142.935 337.568 165.292 337.484C187.925 337.4 197.72 357.133 220.651 357.133" stroke="#009CF3" stroke-width="2"/>
<path d="M220.652 357.133C241.857 357.133 253.632 337.568 275.988 337.484C298.622 337.4 308.417 357.133 331.348 357.133" stroke="#009CF3" stroke-width="2"/>
<path d="M330.608 357.133C351.813 357.133 363.588 337.568 385.945 337.484C408.578 337.4 418.373 357.133 441.304 357.133" stroke="#009CF3" stroke-width="2"/>
<path d="M441.304 357.133C462.509 357.133 474.283 337.568 496.64 337.484C519.273 337.4 529.068 357.133 551.999 357.133" stroke="#009CF3" stroke-width="2"/>
<path d="M0 371.806C21.205 371.806 32.9797 352.24 55.3365 352.157C77.9698 352.073 87.7647 371.806 110.696 371.806" stroke="#009CF3" stroke-width="2"/>
<path d="M109.956 371.806C131.161 371.806 142.935 352.24 165.292 352.157C187.925 352.073 197.72 371.806 220.651 371.806" stroke="#009CF3" stroke-width="2"/>
<path d="M220.652 371.806C241.857 371.806 253.632 352.24 275.988 352.157C298.622 352.073 308.417 371.806 331.348 371.806" stroke="#009CF3" stroke-width="2"/>
<path d="M330.608 371.806C351.813 371.806 363.588 352.24 385.945 352.157C408.578 352.073 418.373 371.806 441.304 371.806" stroke="#009CF3" stroke-width="2"/>
<path d="M441.304 371.806C462.509 371.806 474.284 352.24 496.641 352.157C519.274 352.073 529.069 371.806 552 371.806" stroke="#009CF3" stroke-width="2"/>
<path d="M0 401.152C21.205 401.152 32.9797 381.586 55.3365 381.503C77.9698 381.419 87.7647 401.152 110.696 401.152" stroke="#009CF3" stroke-width="2"/>
<path d="M109.956 401.152C131.161 401.152 142.935 381.586 165.292 381.503C187.925 381.419 197.72 401.152 220.651 401.152" stroke="#009CF3" stroke-width="2"/>
<path d="M220.652 401.152C241.857 401.152 253.632 381.586 275.988 381.503C298.622 381.419 308.417 401.152 331.348 401.152" stroke="#009CF3" stroke-width="2"/>
<path d="M330.608 401.152C351.813 401.152 363.588 381.586 385.945 381.503C408.578 381.419 418.373 401.152 441.304 401.152" stroke="#009CF3" stroke-width="2"/>
<path d="M441.304 401.152C462.509 401.152 474.284 381.586 496.641 381.503C519.274 381.419 529.069 401.152 552 401.152" stroke="#009CF3" stroke-width="2"/>
<path d="M0 386.479C21.205 386.479 32.9797 366.914 55.3365 366.831C77.9698 366.746 87.7647 386.479 110.696 386.479" stroke="#009CF3" stroke-width="2"/>
<path d="M109.956 386.479C131.161 386.479 142.935 366.913 165.292 366.83C187.925 366.746 197.72 386.479 220.651 386.479" stroke="#009CF3" stroke-width="2"/>
<path d="M220.652 386.479C241.857 386.479 253.632 366.913 275.988 366.83C298.622 366.746 308.417 386.479 331.348 386.479" stroke="#009CF3" stroke-width="2"/>
<path d="M330.608 386.479C351.813 386.479 363.588 366.913 385.945 366.83C408.578 366.746 418.373 386.479 441.304 386.479" stroke="#009CF3" stroke-width="2"/>
<path d="M441.304 386.479C462.509 386.479 474.284 366.913 496.641 366.83C519.274 366.746 529.069 386.479 552 386.479" stroke="#009CF3" stroke-width="2"/>
<path d="M0 415.826C21.205 415.826 32.9797 396.26 55.3365 396.177C77.9698 396.093 87.7647 415.826 110.696 415.826" stroke="#009CF3" stroke-width="2"/>
<path d="M109.956 415.825C131.161 415.825 142.935 396.259 165.292 396.176C187.925 396.092 197.72 415.825 220.651 415.825" stroke="#009CF3" stroke-width="2"/>
<path d="M220.652 415.825C241.857 415.825 253.632 396.259 275.988 396.176C298.622 396.092 308.417 415.825 331.348 415.825" stroke="#009CF3" stroke-width="2"/>
<path d="M330.608 415.825C351.813 415.825 363.588 396.259 385.945 396.176C408.578 396.092 418.373 415.825 441.304 415.825" stroke="#009CF3" stroke-width="2"/>
<path d="M441.304 415.825C462.509 415.825 474.284 396.259 496.641 396.176C519.274 396.092 529.069 415.825 552 415.825" stroke="#009CF3" stroke-width="2"/>
<path d="M0 430.5C21.205 430.5 32.9797 410.934 55.3365 410.851C77.9698 410.767 87.7647 430.5 110.696 430.5" stroke="#009CF3" stroke-width="2"/>
<path d="M109.956 430.499C131.161 430.499 142.935 410.933 165.292 410.85C187.925 410.766 197.72 430.499 220.651 430.499" stroke="#009CF3" stroke-width="2"/>
<path d="M220.652 430.499C241.857 430.499 253.632 410.933 275.988 410.85C298.622 410.766 308.417 430.499 331.348 430.499" stroke="#009CF3" stroke-width="2"/>
<path d="M330.608 430.499C351.813 430.499 363.588 410.933 385.945 410.85C408.578 410.766 418.373 430.499 441.304 430.499" stroke="#009CF3" stroke-width="2"/>
<path d="M441.304 430.499C462.509 430.499 474.284 410.933 496.641 410.85C519.274 410.766 529.069 430.499 552 430.499" stroke="#009CF3" stroke-width="2"/>
<path d="M0 445.173C21.205 445.173 32.9797 425.608 55.3365 425.524C77.9698 425.44 87.7647 445.173 110.696 445.173" stroke="#009CF3" stroke-width="2"/>
<path d="M109.956 445.172C131.161 445.172 142.935 425.607 165.292 425.523C187.925 425.439 197.72 445.172 220.651 445.172" stroke="#009CF3" stroke-width="2"/>
<path d="M220.652 445.172C241.857 445.172 253.632 425.607 275.988 425.523C298.622 425.439 308.417 445.172 331.348 445.172" stroke="#009CF3" stroke-width="2"/>
<path d="M330.608 445.172C351.813 445.172 363.588 425.607 385.945 425.523C408.578 425.439 418.373 445.172 441.304 445.172" stroke="#009CF3" stroke-width="2"/>
<path d="M441.304 445.172C462.509 445.172 474.284 425.607 496.641 425.523C519.274 425.439 529.069 445.172 552 445.172" stroke="#009CF3" stroke-width="2"/>
<path d="M0 459.846C21.205 459.846 32.9797 440.28 55.3365 440.197C77.9698 440.113 87.7647 459.846 110.696 459.846" stroke="#009CF3" stroke-width="2"/>
<path d="M109.956 459.846C131.161 459.846 142.935 440.281 165.292 440.198C187.925 440.114 197.72 459.846 220.651 459.846" stroke="#009CF3" stroke-width="2"/>
<path d="M220.652 459.846C241.857 459.846 253.632 440.281 275.988 440.198C298.622 440.114 308.417 459.846 331.348 459.846" stroke="#009CF3" stroke-width="2"/>
<path d="M330.608 459.846C351.813 459.846 363.588 440.281 385.945 440.198C408.578 440.114 418.373 459.846 441.304 459.846" stroke="#009CF3" stroke-width="2"/>
<path d="M441.304 459.846C462.509 459.846 474.284 440.281 496.641 440.198C519.274 440.114 529.069 459.846 552 459.846" stroke="#009CF3" stroke-width="2"/>
<path d="M0 474.52C21.205 474.52 32.9797 454.955 55.3365 454.871C77.9698 454.787 87.7647 474.52 110.696 474.52" stroke="#009CF3" stroke-width="2"/>
<path d="M109.956 474.519C131.161 474.519 142.935 454.954 165.292 454.871C187.925 454.786 197.72 474.519 220.651 474.519" stroke="#009CF3" stroke-width="2"/>
<path d="M220.652 474.519C241.857 474.519 253.632 454.954 275.988 454.871C298.622 454.786 308.417 474.519 331.348 474.519" stroke="#009CF3" stroke-width="2"/>
<path d="M330.608 474.519C351.813 474.519 363.588 454.954 385.945 454.871C408.578 454.786 418.373 474.519 441.304 474.519" stroke="#009CF3" stroke-width="2"/>
<path d="M441.304 474.519C462.509 474.519 474.284 454.954 496.641 454.871C519.274 454.786 529.069 474.519 552 474.519" stroke="#009CF3" stroke-width="2"/>
<path d="M0 489.194C21.205 489.194 32.9797 469.629 55.3365 469.545C77.9698 469.461 87.7647 489.194 110.696 489.194" stroke="#009CF3" stroke-width="2"/>
<path d="M109.956 489.193C131.161 489.193 142.935 469.627 165.292 469.544C187.925 469.46 197.72 489.193 220.651 489.193" stroke="#009CF3" stroke-width="2"/>
<path d="M220.652 489.193C241.857 489.193 253.632 469.627 275.988 469.544C298.622 469.46 308.417 489.193 331.348 489.193" stroke="#009CF3" stroke-width="2"/>
<path d="M330.608 489.193C351.813 489.193 363.588 469.627 385.945 469.544C408.578 469.46 418.373 489.193 441.304 489.193" stroke="#009CF3" stroke-width="2"/>
<path d="M441.304 489.193C462.509 489.193 474.283 469.627 496.64 469.544C519.273 469.46 529.068 489.193 551.999 489.193" stroke="#009CF3" stroke-width="2"/>
<path d="M109.956 503.867C131.161 503.867 142.935 484.301 165.292 484.218C187.925 484.134 197.72 503.867 220.651 503.867" stroke="#009CF3" stroke-width="2"/>
<path d="M330.608 503.867C351.813 503.867 363.588 484.301 385.944 484.218C408.578 484.134 418.373 503.867 441.304 503.867" stroke="#009CF3" stroke-width="2"/>
<path d="M441.304 503.867C462.509 503.867 474.283 484.301 496.64 484.218C519.273 484.134 529.068 503.867 551.999 503.867" stroke="#009CF3" stroke-width="2"/>
<path d="M0 518.541C21.205 518.541 32.9797 498.976 55.3365 498.892C77.9698 498.808 87.7647 518.541 110.696 518.541" stroke="#009CF3" stroke-width="2"/>
<path d="M109.956 518.541C131.161 518.541 142.935 498.975 165.292 498.892C187.925 498.808 197.72 518.541 220.651 518.541" stroke="#009CF3" stroke-width="2"/>
<path d="M220.652 518.541C241.857 518.541 253.632 498.975 275.988 498.892C298.622 498.808 308.417 518.541 331.348 518.541" stroke="#009CF3" stroke-width="2"/>
<path d="M330.608 518.541C351.813 518.541 363.588 498.975 385.945 498.892C408.578 498.808 418.373 518.541 441.304 518.541" stroke="#009CF3" stroke-width="2"/>
<path d="M441.304 518.541C462.509 518.541 474.284 498.975 496.641 498.892C519.274 498.808 529.069 518.541 552 518.541" stroke="#009CF3" stroke-width="2"/>
<path d="M0 533.214C21.205 533.214 32.9797 513.649 55.3365 513.565C77.9698 513.481 87.7647 533.214 110.696 533.214" stroke="#009CF3" stroke-width="2"/>
<path d="M109.956 533.215C131.161 533.215 142.935 513.649 165.292 513.566C187.925 513.482 197.72 533.215 220.651 533.215" stroke="#009CF3" stroke-width="2"/>
<path d="M220.652 533.215C241.857 533.215 253.632 513.649 275.988 513.566C298.622 513.482 308.417 533.215 331.348 533.215" stroke="#009CF3" stroke-width="2"/>
<path d="M330.608 533.215C351.813 533.215 363.588 513.649 385.945 513.566C408.578 513.482 418.373 533.215 441.304 533.215" stroke="#009CF3" stroke-width="2"/>
<path d="M441.304 533.215C462.509 533.215 474.284 513.649 496.641 513.566C519.274 513.482 529.069 533.215 552 533.215" stroke="#009CF3" stroke-width="2"/>
<path d="M220.652 547.887C241.857 547.887 253.632 528.321 275.988 528.238C298.622 528.154 308.417 547.887 331.348 547.887" stroke="#009CF3" stroke-width="2"/>
<path d="M330.608 547.887C351.813 547.887 363.588 528.321 385.945 528.238C408.578 528.154 418.373 547.887 441.304 547.887" stroke="#009CF3" stroke-width="2"/>
<path d="M441.304 547.887C462.509 547.887 474.284 528.321 496.641 528.238C519.274 528.154 529.069 547.887 552 547.887" stroke="#009CF3" stroke-width="2"/>
<path d="M0 562.56C21.205 562.56 32.9797 542.995 55.3365 542.911C77.9698 542.827 87.7647 562.56 110.696 562.56" stroke="#009CF3" stroke-width="2"/>
<path d="M109.956 562.56C131.161 562.56 142.935 542.994 165.292 542.911C187.925 542.827 197.72 562.56 220.651 562.56" stroke="#009CF3" stroke-width="2"/>
<path d="M220.652 562.56C241.857 562.56 253.632 542.994 275.988 542.911C298.622 542.827 308.417 562.56 331.348 562.56" stroke="#009CF3" stroke-width="2"/>
<path d="M330.608 562.56C351.813 562.56 363.588 542.994 385.945 542.911C408.578 542.827 418.373 562.56 441.304 562.56" stroke="#009CF3" stroke-width="2"/>
<path d="M441.304 562.56C462.509 562.56 474.284 542.994 496.641 542.911C519.274 542.827 529.069 562.56 552 562.56" stroke="#009CF3" stroke-width="2"/>
<path d="M109.956 577.233C131.161 577.233 142.935 557.667 165.292 557.584C187.925 557.5 197.72 577.233 220.651 577.233" stroke="#009CF3" stroke-width="2"/>
<path d="M220.651 577.233C241.856 577.233 253.631 557.667 275.988 557.584C298.621 557.5 308.416 577.233 331.347 577.233" stroke="#009CF3" stroke-width="2"/>
<path d="M441.304 577.233C462.509 577.233 474.283 557.667 496.64 557.584C519.273 557.5 529.068 577.233 551.999 577.233" stroke="#009CF3" stroke-width="2"/>
<path d="M109.956 591.906C131.161 591.906 142.935 572.341 165.292 572.257C187.925 572.173 197.72 591.906 220.651 591.906" stroke="#009CF3" stroke-width="2"/>
<path d="M220.651 591.906C241.856 591.906 253.631 572.341 275.988 572.257C298.621 572.173 308.416 591.906 331.347 591.906" stroke="#009CF3" stroke-width="2"/>
<path d="M330.608 591.906C351.813 591.906 363.588 572.341 385.944 572.257C408.578 572.173 418.373 591.906 441.304 591.906" stroke="#009CF3" stroke-width="2"/>
<path d="M441.304 591.906C462.509 591.906 474.283 572.341 496.64 572.257C519.273 572.173 529.068 591.906 551.999 591.906" stroke="#009CF3" stroke-width="2"/>
<path d="M109.956 606.579C131.161 606.579 142.935 587.014 165.292 586.93C187.925 586.846 197.72 606.579 220.651 606.579" stroke="#009CF3" stroke-width="2"/>
<path d="M220.651 606.579C241.856 606.579 253.631 587.014 275.988 586.93C298.621 586.846 308.416 606.579 331.347 606.579" stroke="#009CF3" stroke-width="2"/>
<path d="M330.608 606.579C351.813 606.579 363.588 587.014 385.944 586.93C408.578 586.846 418.373 606.579 441.304 606.579" stroke="#009CF3" stroke-width="2"/>
<path d="M441.304 606.579C462.509 606.579 474.283 587.014 496.64 586.93C519.273 586.846 529.068 606.579 551.999 606.579" stroke="#009CF3" stroke-width="2"/>
</g>
</g>
<defs>
<clipPath id="clip0_10007_7657">
<rect width="552" height="595" rx="16" fill="white"/>
</clipPath>
</defs>
</svg>
