<svg width="552" height="1261" viewBox="0 0 552 1261" fill="none" xmlns="http://www.w3.org/2000/svg">
<g opacity="0.1">
<path d="M0 168.178C21.205 168.178 32.9797 148.519 55.3365 148.435C77.9698 148.351 87.7647 168.178 110.696 168.178" stroke="white" stroke-opacity="0.49" stroke-width="2"/>
<path d="M109.956 168.178C131.161 168.178 142.935 148.518 165.292 148.435C187.925 148.35 197.72 168.178 220.651 168.178" stroke="white" stroke-opacity="0.49" stroke-width="2"/>
<path d="M220.652 168.178C241.857 168.178 253.632 148.518 275.988 148.435C298.622 148.35 308.417 168.178 331.348 168.178" stroke="white" stroke-opacity="0.49" stroke-width="2"/>
<path d="M330.608 168.178C351.813 168.178 363.588 148.518 385.945 148.435C408.578 148.35 418.373 168.178 441.304 168.178" stroke="white" stroke-opacity="0.49" stroke-width="2"/>
<path d="M441.304 168.178C462.509 168.178 474.283 148.518 496.64 148.435C519.273 148.35 529.068 168.178 551.999 168.178" stroke="white" stroke-opacity="0.49" stroke-width="2"/>
<path d="M0 182.923C21.205 182.923 32.9797 163.264 55.3365 163.18C77.9698 163.095 87.7647 182.923 110.696 182.923" stroke="white" stroke-opacity="0.49" stroke-width="2"/>
<path d="M109.956 182.921C131.161 182.921 142.935 163.262 165.292 163.178C187.925 163.094 197.72 182.921 220.651 182.921" stroke="white" stroke-opacity="0.49" stroke-width="2"/>
<path d="M220.652 182.921C241.857 182.921 253.632 163.262 275.988 163.178C298.622 163.094 308.417 182.921 331.348 182.921" stroke="white" stroke-opacity="0.49" stroke-width="2"/>
<path d="M330.608 182.921C351.813 182.921 363.588 163.262 385.945 163.178C408.578 163.094 418.373 182.921 441.304 182.921" stroke="white" stroke-opacity="0.49" stroke-width="2"/>
<path d="M441.304 182.921C462.509 182.921 474.283 163.262 496.64 163.178C519.273 163.094 529.068 182.921 551.999 182.921" stroke="white" stroke-opacity="0.49" stroke-width="2"/>
<path d="M0 197.666C21.205 197.666 32.9797 178.007 55.3365 177.924C77.9698 177.839 87.7647 197.666 110.696 197.666" stroke="white" stroke-opacity="0.49" stroke-width="2"/>
<path d="M109.956 197.666C131.161 197.666 142.935 178.007 165.292 177.923C187.925 177.839 197.72 197.666 220.651 197.666" stroke="white" stroke-opacity="0.49" stroke-width="2"/>
<path d="M220.652 197.666C241.857 197.666 253.632 178.007 275.988 177.923C298.622 177.839 308.417 197.666 331.348 197.666" stroke="white" stroke-opacity="0.49" stroke-width="2"/>
<path d="M330.608 197.666C351.813 197.666 363.588 178.007 385.945 177.923C408.578 177.839 418.373 197.666 441.304 197.666" stroke="white" stroke-opacity="0.49" stroke-width="2"/>
<path d="M441.304 197.666C462.509 197.666 474.284 178.007 496.641 177.923C519.274 177.839 529.069 197.666 552 197.666" stroke="white" stroke-opacity="0.49" stroke-width="2"/>
<path d="M0 212.41C21.205 212.41 32.9797 192.75 55.3365 192.667C77.9698 192.582 87.7647 212.41 110.696 212.41" stroke="white" stroke-opacity="0.49" stroke-width="2"/>
<path d="M109.956 212.41C131.161 212.41 142.935 192.75 165.292 192.667C187.925 192.582 197.72 212.41 220.651 212.41" stroke="white" stroke-opacity="0.49" stroke-width="2"/>
<path d="M220.652 212.41C241.857 212.41 253.632 192.75 275.988 192.667C298.622 192.582 308.417 212.41 331.348 212.41" stroke="white" stroke-opacity="0.49" stroke-width="2"/>
<path d="M330.608 212.41C351.813 212.41 363.588 192.75 385.945 192.667C408.578 192.582 418.373 212.41 441.304 212.41" stroke="white" stroke-opacity="0.49" stroke-width="2"/>
<path d="M441.304 212.41C462.509 212.41 474.284 192.75 496.641 192.667C519.274 192.582 529.069 212.41 552 212.41" stroke="white" stroke-opacity="0.49" stroke-width="2"/>
<path d="M0 227.153C21.205 227.153 32.9797 207.494 55.3365 207.41C77.9698 207.325 87.7647 227.153 110.696 227.153" stroke="white" stroke-opacity="0.49" stroke-width="2"/>
<path d="M109.956 227.153C131.161 227.153 142.935 207.494 165.292 207.41C187.925 207.325 197.72 227.153 220.651 227.153" stroke="white" stroke-opacity="0.49" stroke-width="2"/>
<path d="M220.652 227.153C241.857 227.153 253.632 207.494 275.988 207.41C298.622 207.325 308.417 227.153 331.348 227.153" stroke="white" stroke-opacity="0.49" stroke-width="2"/>
<path d="M330.608 227.153C351.813 227.153 363.588 207.494 385.945 207.41C408.578 207.325 418.373 227.153 441.304 227.153" stroke="white" stroke-opacity="0.49" stroke-width="2"/>
<path d="M441.304 227.153C462.509 227.153 474.284 207.494 496.641 207.41C519.274 207.325 529.069 227.153 552 227.153" stroke="white" stroke-opacity="0.49" stroke-width="2"/>
<path d="M0 241.897C21.205 241.897 32.9797 222.238 55.3365 222.154C77.9698 222.069 87.7647 241.897 110.696 241.897" stroke="white" stroke-opacity="0.49" stroke-width="2"/>
<path d="M109.956 241.896C131.161 241.896 142.935 222.237 165.292 222.153C187.925 222.068 197.72 241.896 220.651 241.896" stroke="white" stroke-opacity="0.49" stroke-width="2"/>
<path d="M220.652 241.896C241.857 241.896 253.632 222.237 275.988 222.153C298.622 222.068 308.417 241.896 331.348 241.896" stroke="white" stroke-opacity="0.49" stroke-width="2"/>
<path d="M330.608 241.896C351.813 241.896 363.588 222.237 385.945 222.153C408.578 222.068 418.373 241.896 441.304 241.896" stroke="white" stroke-opacity="0.49" stroke-width="2"/>
<path d="M441.304 241.896C462.509 241.896 474.283 222.237 496.64 222.153C519.273 222.068 529.068 241.896 551.999 241.896" stroke="white" stroke-opacity="0.49" stroke-width="2"/>
<path d="M0 256.641C21.205 256.641 32.9797 236.981 55.3365 236.898C77.9698 236.813 87.7647 256.641 110.696 256.641" stroke="white" stroke-opacity="0.49" stroke-width="2"/>
<path d="M109.956 256.64C131.161 256.64 142.935 236.981 165.292 236.897C187.925 236.813 197.72 256.64 220.651 256.64" stroke="white" stroke-opacity="0.49" stroke-width="2"/>
<path d="M220.652 256.64C241.857 256.64 253.632 236.981 275.988 236.897C298.622 236.813 308.417 256.64 331.348 256.64" stroke="white" stroke-opacity="0.49" stroke-width="2"/>
<path d="M330.608 256.64C351.813 256.64 363.588 236.981 385.945 236.897C408.578 236.813 418.373 256.64 441.304 256.64" stroke="white" stroke-opacity="0.49" stroke-width="2"/>
<path d="M441.304 256.64C462.509 256.64 474.284 236.981 496.641 236.897C519.274 236.813 529.069 256.64 552 256.64" stroke="white" stroke-opacity="0.49" stroke-width="2"/>
<path d="M0 271.384C21.205 271.384 32.9797 251.725 55.3365 251.641C77.9698 251.557 87.7647 271.384 110.696 271.384" stroke="white" stroke-opacity="0.49" stroke-width="2"/>
<path d="M109.956 271.384C131.161 271.384 142.935 251.724 165.292 251.641C187.925 251.556 197.72 271.384 220.651 271.384" stroke="white" stroke-opacity="0.49" stroke-width="2"/>
<path d="M220.652 271.384C241.857 271.384 253.632 251.724 275.988 251.641C298.622 251.556 308.417 271.384 331.348 271.384" stroke="white" stroke-opacity="0.49" stroke-width="2"/>
<path d="M330.608 271.384C351.813 271.384 363.588 251.724 385.945 251.641C408.578 251.556 418.373 271.384 441.304 271.384" stroke="white" stroke-opacity="0.49" stroke-width="2"/>
<path d="M441.304 271.384C462.509 271.384 474.283 251.724 496.64 251.641C519.273 251.556 529.068 271.384 551.999 271.384" stroke="white" stroke-opacity="0.49" stroke-width="2"/>
<path d="M0 286.127C21.205 286.127 32.9797 266.468 55.3365 266.385C77.9698 266.3 87.7647 286.127 110.696 286.127" stroke="white" stroke-opacity="0.49" stroke-width="2"/>
<path d="M109.956 286.127C131.161 286.127 142.935 266.468 165.292 266.385C187.925 266.3 197.72 286.127 220.651 286.127" stroke="white" stroke-opacity="0.49" stroke-width="2"/>
<path d="M220.652 286.127C241.857 286.127 253.632 266.468 275.988 266.385C298.622 266.3 308.417 286.127 331.348 286.127" stroke="white" stroke-opacity="0.49" stroke-width="2"/>
<path d="M330.608 286.127C351.813 286.127 363.588 266.468 385.945 266.385C408.578 266.3 418.373 286.127 441.304 286.127" stroke="white" stroke-opacity="0.49" stroke-width="2"/>
<path d="M441.304 286.127C462.509 286.127 474.284 266.468 496.641 266.385C519.274 266.3 529.069 286.127 552 286.127" stroke="white" stroke-opacity="0.49" stroke-width="2"/>
<path d="M0 300.871C21.205 300.871 32.9797 281.212 55.3365 281.128C77.9698 281.044 87.7647 300.871 110.696 300.871" stroke="white" stroke-opacity="0.49" stroke-width="2"/>
<path d="M109.956 300.871C131.161 300.871 142.935 281.211 165.292 281.128C187.925 281.043 197.72 300.871 220.651 300.871" stroke="white" stroke-opacity="0.49" stroke-width="2"/>
<path d="M220.652 300.871C241.857 300.871 253.632 281.211 275.988 281.128C298.622 281.043 308.417 300.871 331.348 300.871" stroke="white" stroke-opacity="0.49" stroke-width="2"/>
<path d="M330.608 300.871C351.813 300.871 363.588 281.211 385.945 281.128C408.578 281.043 418.373 300.871 441.304 300.871" stroke="white" stroke-opacity="0.49" stroke-width="2"/>
<path d="M441.304 300.871C462.509 300.871 474.284 281.211 496.641 281.128C519.274 281.043 529.069 300.871 552 300.871" stroke="white" stroke-opacity="0.49" stroke-width="2"/>
<path d="M0.000976562 20.7431C21.206 20.7431 32.9806 1.08385 55.3375 1.00027C77.9708 0.915657 87.7657 20.7431 110.697 20.7431" stroke="white" stroke-opacity="0.49" stroke-width="2"/>
<path d="M109.956 20.7431C131.161 20.7431 142.935 1.08385 165.292 1.00027C187.925 0.915657 197.72 20.7431 220.651 20.7431" stroke="white" stroke-opacity="0.49" stroke-width="2"/>
<path d="M220.652 20.7431C241.857 20.7431 253.632 1.08385 275.988 1.00027C298.622 0.915657 308.417 20.7431 331.348 20.7431" stroke="white" stroke-opacity="0.49" stroke-width="2"/>
<path d="M330.608 20.7431C351.813 20.7431 363.588 1.08385 385.945 1.00027C408.578 0.915657 418.373 20.7431 441.304 20.7431" stroke="white" stroke-opacity="0.49" stroke-width="2"/>
<path d="M441.304 20.7431C462.509 20.7431 474.284 1.08385 496.641 1.00027C519.274 0.915657 529.069 20.7431 552 20.7431" stroke="white" stroke-opacity="0.49" stroke-width="2"/>
<path d="M0 35.4862C21.205 35.4862 32.9797 15.827 55.3365 15.7434C77.9698 15.6588 87.7647 35.4862 110.696 35.4862" stroke="white" stroke-opacity="0.49" stroke-width="2"/>
<path d="M109.956 35.4867C131.161 35.4867 142.935 15.8275 165.292 15.7439C187.925 15.6593 197.72 35.4867 220.651 35.4867" stroke="white" stroke-opacity="0.49" stroke-width="2"/>
<path d="M220.652 35.4867C241.857 35.4867 253.632 15.8275 275.988 15.7439C298.622 15.6593 308.417 35.4867 331.348 35.4867" stroke="white" stroke-opacity="0.49" stroke-width="2"/>
<path d="M330.608 35.4867C351.813 35.4867 363.588 15.8275 385.945 15.7439C408.578 15.6593 418.373 35.4867 441.304 35.4867" stroke="white" stroke-opacity="0.49" stroke-width="2"/>
<path d="M441.304 35.4867C462.509 35.4867 474.284 15.8275 496.641 15.7439C519.274 15.6593 529.069 35.4867 552 35.4867" stroke="white" stroke-opacity="0.49" stroke-width="2"/>
<path d="M0 50.2299C21.205 50.2299 32.9797 30.5707 55.3365 30.4871C77.9698 30.4025 87.7647 50.2299 110.696 50.2299" stroke="white" stroke-opacity="0.49" stroke-width="2"/>
<path d="M109.956 50.2299C131.161 50.2299 142.935 30.5707 165.292 30.4871C187.925 30.4025 197.72 50.2299 220.651 50.2299" stroke="white" stroke-opacity="0.49" stroke-width="2"/>
<path d="M220.652 50.2299C241.857 50.2299 253.632 30.5707 275.988 30.4871C298.622 30.4025 308.417 50.2299 331.348 50.2299" stroke="white" stroke-opacity="0.49" stroke-width="2"/>
<path d="M330.608 50.2299C351.813 50.2299 363.588 30.5707 385.945 30.4871C408.578 30.4025 418.373 50.2299 441.304 50.2299" stroke="white" stroke-opacity="0.49" stroke-width="2"/>
<path d="M441.304 50.2299C462.509 50.2299 474.284 30.5707 496.641 30.4871C519.274 30.4025 529.069 50.2299 552 50.2299" stroke="white" stroke-opacity="0.49" stroke-width="2"/>
<path d="M0 64.973C21.205 64.973 32.9797 45.3138 55.3365 45.2303C77.9698 45.1456 87.7647 64.9731 110.696 64.9731" stroke="white" stroke-opacity="0.49" stroke-width="2"/>
<path d="M109.956 64.973C131.161 64.973 142.935 45.3138 165.292 45.2303C187.925 45.1456 197.72 64.9731 220.651 64.9731" stroke="white" stroke-opacity="0.49" stroke-width="2"/>
<path d="M220.652 64.973C241.857 64.973 253.632 45.3138 275.988 45.2303C298.622 45.1456 308.417 64.9731 331.348 64.9731" stroke="white" stroke-opacity="0.49" stroke-width="2"/>
<path d="M330.608 64.973C351.813 64.973 363.588 45.3138 385.945 45.2303C408.578 45.1456 418.373 64.9731 441.304 64.9731" stroke="white" stroke-opacity="0.49" stroke-width="2"/>
<path d="M441.304 64.973C462.509 64.973 474.284 45.3138 496.641 45.2303C519.274 45.1456 529.069 64.9731 552 64.9731" stroke="white" stroke-opacity="0.49" stroke-width="2"/>
<path d="M0 79.7167C21.205 79.7167 32.9797 60.0575 55.3365 59.9739C77.9698 59.8893 87.7647 79.7167 110.696 79.7167" stroke="white" stroke-opacity="0.49" stroke-width="2"/>
<path d="M109.956 79.7162C131.161 79.7162 142.935 60.057 165.292 59.9734C187.925 59.8888 197.72 79.7162 220.651 79.7162" stroke="white" stroke-opacity="0.49" stroke-width="2"/>
<path d="M220.652 79.7162C241.857 79.7162 253.632 60.057 275.988 59.9734C298.622 59.8888 308.417 79.7162 331.348 79.7162" stroke="white" stroke-opacity="0.49" stroke-width="2"/>
<path d="M330.608 79.7162C351.813 79.7162 363.588 60.057 385.945 59.9734C408.578 59.8888 418.373 79.7162 441.304 79.7162" stroke="white" stroke-opacity="0.49" stroke-width="2"/>
<path d="M441.304 79.7162C462.509 79.7162 474.284 60.057 496.641 59.9734C519.274 59.8888 529.069 79.7162 552 79.7162" stroke="white" stroke-opacity="0.49" stroke-width="2"/>
<path d="M0 94.4599C21.205 94.4599 32.9797 74.8006 55.3365 74.7171C77.9698 74.6325 87.7647 94.4599 110.696 94.4599" stroke="white" stroke-opacity="0.49" stroke-width="2"/>
<path d="M109.956 94.4594C131.161 94.4594 142.935 74.8002 165.292 74.7166C187.925 74.632 197.72 94.4594 220.651 94.4594" stroke="white" stroke-opacity="0.49" stroke-width="2"/>
<path d="M220.652 94.4594C241.857 94.4594 253.632 74.8002 275.988 74.7166C298.622 74.632 308.417 94.4594 331.348 94.4594" stroke="white" stroke-opacity="0.49" stroke-width="2"/>
<path d="M330.608 94.4594C351.813 94.4594 363.588 74.8002 385.945 74.7166C408.578 74.632 418.373 94.4594 441.304 94.4594" stroke="white" stroke-opacity="0.49" stroke-width="2"/>
<path d="M441.304 94.4594C462.509 94.4594 474.284 74.8002 496.641 74.7166C519.274 74.632 529.069 94.4594 552 94.4594" stroke="white" stroke-opacity="0.49" stroke-width="2"/>
<path d="M0 109.204C21.205 109.204 32.9797 89.5448 55.3365 89.4612C77.9698 89.3766 87.7647 109.204 110.696 109.204" stroke="white" stroke-opacity="0.49" stroke-width="2"/>
<path d="M109.956 109.204C131.161 109.204 142.935 89.5443 165.292 89.4607C187.925 89.3761 197.72 109.204 220.651 109.204" stroke="white" stroke-opacity="0.49" stroke-width="2"/>
<path d="M220.652 109.204C241.857 109.204 253.632 89.5443 275.988 89.4607C298.622 89.3761 308.417 109.204 331.348 109.204" stroke="white" stroke-opacity="0.49" stroke-width="2"/>
<path d="M330.608 109.204C351.813 109.204 363.588 89.5443 385.945 89.4607C408.578 89.3761 418.373 109.204 441.304 109.204" stroke="white" stroke-opacity="0.49" stroke-width="2"/>
<path d="M441.304 109.204C462.509 109.204 474.284 89.5443 496.641 89.4607C519.274 89.3761 529.069 109.204 552 109.204" stroke="white" stroke-opacity="0.49" stroke-width="2"/>
<path d="M0 123.947C21.205 123.947 32.9797 104.288 55.3365 104.204C77.9698 104.12 87.7647 123.947 110.696 123.947" stroke="white" stroke-opacity="0.49" stroke-width="2"/>
<path d="M109.956 123.947C131.161 123.947 142.935 104.287 165.292 104.204C187.925 104.119 197.72 123.947 220.651 123.947" stroke="white" stroke-opacity="0.49" stroke-width="2"/>
<path d="M220.652 123.947C241.857 123.947 253.632 104.287 275.988 104.204C298.622 104.119 308.417 123.947 331.348 123.947" stroke="white" stroke-opacity="0.49" stroke-width="2"/>
<path d="M330.608 123.947C351.813 123.947 363.588 104.287 385.945 104.204C408.578 104.119 418.373 123.947 441.304 123.947" stroke="white" stroke-opacity="0.49" stroke-width="2"/>
<path d="M441.304 123.947C462.509 123.947 474.284 104.287 496.641 104.204C519.274 104.119 529.069 123.947 552 123.947" stroke="white" stroke-opacity="0.49" stroke-width="2"/>
<path d="M0 138.691C21.205 138.691 32.9797 119.032 55.3365 118.948C77.9698 118.863 87.7647 138.691 110.696 138.691" stroke="white" stroke-opacity="0.49" stroke-width="2"/>
<path d="M109.956 138.691C131.161 138.691 142.935 119.032 165.292 118.948C187.925 118.863 197.72 138.691 220.651 138.691" stroke="white" stroke-opacity="0.49" stroke-width="2"/>
<path d="M220.652 138.691C241.857 138.691 253.632 119.032 275.988 118.948C298.622 118.863 308.417 138.691 331.348 138.691" stroke="white" stroke-opacity="0.49" stroke-width="2"/>
<path d="M330.608 138.691C351.813 138.691 363.588 119.032 385.945 118.948C408.578 118.863 418.373 138.691 441.304 138.691" stroke="white" stroke-opacity="0.49" stroke-width="2"/>
<path d="M441.304 138.691C462.509 138.691 474.284 119.032 496.641 118.948C519.274 118.863 529.069 138.691 552 138.691" stroke="white" stroke-opacity="0.49" stroke-width="2"/>
<path d="M0 153.435C21.205 153.435 32.9797 133.776 55.3365 133.692C77.9698 133.608 87.7647 153.435 110.696 153.435" stroke="white" stroke-opacity="0.49" stroke-width="2"/>
<path d="M109.956 153.434C131.161 153.434 142.935 133.775 165.292 133.691C187.925 133.607 197.72 153.434 220.651 153.434" stroke="white" stroke-opacity="0.49" stroke-width="2"/>
<path d="M220.652 153.434C241.857 153.434 253.632 133.775 275.988 133.691C298.622 133.607 308.417 153.434 331.348 153.434" stroke="white" stroke-opacity="0.49" stroke-width="2"/>
<path d="M330.608 153.434C351.813 153.434 363.588 133.775 385.945 133.691C408.578 133.607 418.373 153.434 441.304 153.434" stroke="white" stroke-opacity="0.49" stroke-width="2"/>
<path d="M441.304 153.434C462.509 153.434 474.284 133.775 496.641 133.691C519.274 133.607 529.069 153.434 552 153.434" stroke="white" stroke-opacity="0.49" stroke-width="2"/>
<path d="M0 315.615C21.205 315.615 32.9797 295.955 55.3365 295.872C77.9698 295.787 87.7647 315.615 110.696 315.615" stroke="white" stroke-opacity="0.49" stroke-width="2"/>
<path d="M109.956 315.614C131.161 315.614 142.935 295.955 165.292 295.871C187.925 295.787 197.72 315.614 220.651 315.614" stroke="white" stroke-opacity="0.49" stroke-width="2"/>
<path d="M220.652 315.614C241.857 315.614 253.632 295.955 275.988 295.871C298.622 295.787 308.417 315.614 331.348 315.614" stroke="white" stroke-opacity="0.49" stroke-width="2"/>
<path d="M330.608 315.614C351.813 315.614 363.588 295.955 385.945 295.871C408.578 295.787 418.373 315.614 441.304 315.614" stroke="white" stroke-opacity="0.49" stroke-width="2"/>
<path d="M441.304 315.614C462.509 315.614 474.284 295.955 496.641 295.871C519.274 295.787 529.069 315.614 552 315.614" stroke="white" stroke-opacity="0.49" stroke-width="2"/>
<path d="M0 330.358C21.205 330.358 32.9797 310.699 55.3365 310.615C77.9698 310.53 87.7647 330.358 110.696 330.358" stroke="white" stroke-opacity="0.49" stroke-width="2"/>
<path d="M109.956 330.358C131.161 330.358 142.935 310.699 165.292 310.615C187.925 310.53 197.72 330.358 220.651 330.358" stroke="white" stroke-opacity="0.49" stroke-width="2"/>
<path d="M220.652 330.358C241.857 330.358 253.632 310.699 275.988 310.615C298.622 310.53 308.417 330.358 331.348 330.358" stroke="white" stroke-opacity="0.49" stroke-width="2"/>
<path d="M330.608 330.358C351.813 330.358 363.588 310.699 385.945 310.615C408.578 310.53 418.373 330.358 441.304 330.358" stroke="white" stroke-opacity="0.49" stroke-width="2"/>
<path d="M441.304 330.358C462.509 330.358 474.284 310.699 496.641 310.615C519.274 310.53 529.069 330.358 552 330.358" stroke="white" stroke-opacity="0.49" stroke-width="2"/>
<path d="M0 345.101C21.205 345.101 32.9797 325.442 55.3365 325.358C77.9698 325.274 87.7647 345.101 110.696 345.101" stroke="white" stroke-opacity="0.49" stroke-width="2"/>
<path d="M109.956 345.101C131.161 345.101 142.935 325.442 165.292 325.358C187.925 325.274 197.72 345.101 220.651 345.101" stroke="white" stroke-opacity="0.49" stroke-width="2"/>
<path d="M220.652 345.101C241.857 345.101 253.632 325.442 275.988 325.358C298.622 325.274 308.417 345.101 331.348 345.101" stroke="white" stroke-opacity="0.49" stroke-width="2"/>
<path d="M330.608 345.101C351.813 345.101 363.588 325.442 385.945 325.358C408.578 325.274 418.373 345.101 441.304 345.101" stroke="white" stroke-opacity="0.49" stroke-width="2"/>
<path d="M441.304 345.101C462.509 345.101 474.284 325.442 496.641 325.358C519.274 325.274 529.069 345.101 552 345.101" stroke="white" stroke-opacity="0.49" stroke-width="2"/>
<path d="M0 359.844C21.205 359.844 32.9797 340.185 55.3365 340.101C77.9698 340.017 87.7647 359.844 110.696 359.844" stroke="white" stroke-opacity="0.49" stroke-width="2"/>
<path d="M109.956 359.844C131.161 359.844 142.935 340.185 165.292 340.101C187.925 340.017 197.72 359.844 220.651 359.844" stroke="white" stroke-opacity="0.49" stroke-width="2"/>
<path d="M220.652 359.844C241.857 359.844 253.632 340.185 275.988 340.101C298.622 340.017 308.417 359.844 331.348 359.844" stroke="white" stroke-opacity="0.49" stroke-width="2"/>
<path d="M330.608 359.844C351.813 359.844 363.588 340.185 385.945 340.101C408.578 340.017 418.373 359.844 441.304 359.844" stroke="white" stroke-opacity="0.49" stroke-width="2"/>
<path d="M441.304 359.844C462.509 359.844 474.283 340.185 496.64 340.101C519.273 340.017 529.068 359.844 551.999 359.844" stroke="white" stroke-opacity="0.49" stroke-width="2"/>
<path d="M0 374.587C21.205 374.587 32.9797 354.928 55.3365 354.845C77.9698 354.76 87.7647 374.587 110.696 374.587" stroke="white" stroke-opacity="0.49" stroke-width="2"/>
<path d="M109.956 374.587C131.161 374.587 142.935 354.928 165.292 354.845C187.925 354.76 197.72 374.587 220.651 374.587" stroke="white" stroke-opacity="0.49" stroke-width="2"/>
<path d="M220.652 374.587C241.857 374.587 253.632 354.928 275.988 354.845C298.622 354.76 308.417 374.587 331.348 374.587" stroke="white" stroke-opacity="0.49" stroke-width="2"/>
<path d="M330.608 374.587C351.813 374.587 363.588 354.928 385.945 354.845C408.578 354.76 418.373 374.587 441.304 374.587" stroke="white" stroke-opacity="0.49" stroke-width="2"/>
<path d="M441.304 374.587C462.509 374.587 474.284 354.928 496.641 354.845C519.274 354.76 529.069 374.587 552 374.587" stroke="white" stroke-opacity="0.49" stroke-width="2"/>
<path d="M0 404.074C21.205 404.074 32.9797 384.415 55.3365 384.331C77.9698 384.247 87.7647 404.074 110.696 404.074" stroke="white" stroke-opacity="0.49" stroke-width="2"/>
<path d="M109.956 404.074C131.161 404.074 142.935 384.415 165.292 384.331C187.925 384.247 197.72 404.074 220.651 404.074" stroke="white" stroke-opacity="0.49" stroke-width="2"/>
<path d="M220.652 404.074C241.857 404.074 253.632 384.415 275.988 384.331C298.622 384.247 308.417 404.074 331.348 404.074" stroke="white" stroke-opacity="0.49" stroke-width="2"/>
<path d="M330.608 404.074C351.813 404.074 363.588 384.415 385.945 384.331C408.578 384.247 418.373 404.074 441.304 404.074" stroke="white" stroke-opacity="0.49" stroke-width="2"/>
<path d="M441.304 404.074C462.509 404.074 474.284 384.415 496.641 384.331C519.274 384.247 529.069 404.074 552 404.074" stroke="white" stroke-opacity="0.49" stroke-width="2"/>
<path d="M0 389.331C21.205 389.331 32.9797 369.672 55.3365 369.588C77.9698 369.504 87.7647 389.331 110.696 389.331" stroke="white" stroke-opacity="0.49" stroke-width="2"/>
<path d="M109.956 389.33C131.161 389.33 142.935 369.671 165.292 369.588C187.925 369.503 197.72 389.33 220.651 389.33" stroke="white" stroke-opacity="0.49" stroke-width="2"/>
<path d="M220.652 389.33C241.857 389.33 253.632 369.671 275.988 369.588C298.622 369.503 308.417 389.33 331.348 389.33" stroke="white" stroke-opacity="0.49" stroke-width="2"/>
<path d="M330.608 389.33C351.813 389.33 363.588 369.671 385.945 369.588C408.578 369.503 418.373 389.33 441.304 389.33" stroke="white" stroke-opacity="0.49" stroke-width="2"/>
<path d="M441.304 389.33C462.509 389.33 474.284 369.671 496.641 369.588C519.274 369.503 529.069 389.33 552 389.33" stroke="white" stroke-opacity="0.49" stroke-width="2"/>
<path d="M0 418.818C21.205 418.818 32.9797 399.159 55.3365 399.075C77.9698 398.991 87.7647 418.818 110.696 418.818" stroke="white" stroke-opacity="0.49" stroke-width="2"/>
<path d="M109.956 418.817C131.161 418.817 142.935 399.158 165.292 399.074C187.925 398.99 197.72 418.817 220.651 418.817" stroke="white" stroke-opacity="0.49" stroke-width="2"/>
<path d="M220.652 418.817C241.857 418.817 253.632 399.158 275.988 399.074C298.622 398.99 308.417 418.817 331.348 418.817" stroke="white" stroke-opacity="0.49" stroke-width="2"/>
<path d="M330.608 418.817C351.813 418.817 363.588 399.158 385.945 399.074C408.578 398.99 418.373 418.817 441.304 418.817" stroke="white" stroke-opacity="0.49" stroke-width="2"/>
<path d="M441.304 418.817C462.509 418.817 474.284 399.158 496.641 399.074C519.274 398.99 529.069 418.817 552 418.817" stroke="white" stroke-opacity="0.49" stroke-width="2"/>
<path d="M0 433.562C21.205 433.562 32.9797 413.903 55.3365 413.82C77.9698 413.735 87.7647 433.562 110.696 433.562" stroke="white" stroke-opacity="0.49" stroke-width="2"/>
<path d="M109.956 433.561C131.161 433.561 142.935 413.902 165.292 413.819C187.925 413.734 197.72 433.561 220.651 433.561" stroke="white" stroke-opacity="0.49" stroke-width="2"/>
<path d="M220.652 433.561C241.857 433.561 253.632 413.902 275.988 413.819C298.622 413.734 308.417 433.561 331.348 433.561" stroke="white" stroke-opacity="0.49" stroke-width="2"/>
<path d="M330.608 433.561C351.813 433.561 363.588 413.902 385.945 413.819C408.578 413.734 418.373 433.561 441.304 433.561" stroke="white" stroke-opacity="0.49" stroke-width="2"/>
<path d="M441.304 433.561C462.509 433.561 474.284 413.902 496.641 413.819C519.274 413.734 529.069 433.561 552 433.561" stroke="white" stroke-opacity="0.49" stroke-width="2"/>
<path d="M0 448.306C21.205 448.306 32.9797 428.647 55.3365 428.563C77.9698 428.479 87.7647 448.306 110.696 448.306" stroke="white" stroke-opacity="0.49" stroke-width="2"/>
<path d="M109.956 448.305C131.161 448.305 142.935 428.646 165.292 428.562C187.925 428.478 197.72 448.305 220.651 448.305" stroke="white" stroke-opacity="0.49" stroke-width="2"/>
<path d="M220.652 448.305C241.857 448.305 253.632 428.646 275.988 428.562C298.622 428.478 308.417 448.305 331.348 448.305" stroke="white" stroke-opacity="0.49" stroke-width="2"/>
<path d="M330.608 448.305C351.813 448.305 363.588 428.646 385.945 428.562C408.578 428.478 418.373 448.305 441.304 448.305" stroke="white" stroke-opacity="0.49" stroke-width="2"/>
<path d="M441.304 448.305C462.509 448.305 474.284 428.646 496.641 428.562C519.274 428.478 529.069 448.305 552 448.305" stroke="white" stroke-opacity="0.49" stroke-width="2"/>
<path d="M0 463.049C21.205 463.049 32.9797 443.39 55.3365 443.306C77.9698 443.222 87.7647 463.049 110.696 463.049" stroke="white" stroke-opacity="0.49" stroke-width="2"/>
<path d="M109.956 463.05C131.161 463.05 142.935 443.39 165.292 443.307C187.925 443.222 197.72 463.05 220.651 463.05" stroke="white" stroke-opacity="0.49" stroke-width="2"/>
<path d="M220.652 463.05C241.857 463.05 253.632 443.39 275.988 443.307C298.622 443.222 308.417 463.05 331.348 463.05" stroke="white" stroke-opacity="0.49" stroke-width="2"/>
<path d="M330.608 463.05C351.813 463.05 363.588 443.39 385.945 443.307C408.578 443.222 418.373 463.05 441.304 463.05" stroke="white" stroke-opacity="0.49" stroke-width="2"/>
<path d="M441.304 463.05C462.509 463.05 474.284 443.39 496.641 443.307C519.274 443.222 529.069 463.05 552 463.05" stroke="white" stroke-opacity="0.49" stroke-width="2"/>
<path d="M0 477.793C21.205 477.793 32.9797 458.134 55.3365 458.051C77.9698 457.966 87.7647 477.793 110.696 477.793" stroke="white" stroke-opacity="0.49" stroke-width="2"/>
<path d="M109.956 477.793C131.161 477.793 142.935 458.134 165.292 458.05C187.925 457.965 197.72 477.793 220.651 477.793" stroke="white" stroke-opacity="0.49" stroke-width="2"/>
<path d="M220.652 477.793C241.857 477.793 253.632 458.134 275.988 458.05C298.622 457.965 308.417 477.793 331.348 477.793" stroke="white" stroke-opacity="0.49" stroke-width="2"/>
<path d="M330.608 477.793C351.813 477.793 363.588 458.134 385.945 458.05C408.578 457.965 418.373 477.793 441.304 477.793" stroke="white" stroke-opacity="0.49" stroke-width="2"/>
<path d="M441.304 477.793C462.509 477.793 474.284 458.134 496.641 458.05C519.274 457.965 529.069 477.793 552 477.793" stroke="white" stroke-opacity="0.49" stroke-width="2"/>
<path d="M0 492.538C21.205 492.538 32.9797 472.879 55.3365 472.795C77.9698 472.711 87.7647 492.538 110.696 492.538" stroke="white" stroke-opacity="0.49" stroke-width="2"/>
<path d="M109.956 492.537C131.161 492.537 142.935 472.878 165.292 472.794C187.925 472.71 197.72 492.537 220.651 492.537" stroke="white" stroke-opacity="0.49" stroke-width="2"/>
<path d="M220.652 492.537C241.857 492.537 253.632 472.878 275.988 472.794C298.622 472.71 308.417 492.537 331.348 492.537" stroke="white" stroke-opacity="0.49" stroke-width="2"/>
<path d="M330.608 492.537C351.813 492.537 363.588 472.878 385.945 472.794C408.578 472.71 418.373 492.537 441.304 492.537" stroke="white" stroke-opacity="0.49" stroke-width="2"/>
<path d="M441.304 492.537C462.509 492.537 474.283 472.878 496.64 472.794C519.273 472.71 529.068 492.537 551.999 492.537" stroke="white" stroke-opacity="0.49" stroke-width="2"/>
<path d="M0 507.282C21.205 507.282 32.9797 487.623 55.3365 487.539C77.9698 487.455 87.7647 507.282 110.696 507.282" stroke="white" stroke-opacity="0.49" stroke-width="2"/>
<path d="M109.956 507.281C131.161 507.281 142.935 487.622 165.292 487.538C187.925 487.454 197.72 507.281 220.651 507.281" stroke="white" stroke-opacity="0.49" stroke-width="2"/>
<path d="M220.652 507.281C241.857 507.281 253.632 487.622 275.988 487.538C298.622 487.454 308.417 507.281 331.348 507.281" stroke="white" stroke-opacity="0.49" stroke-width="2"/>
<path d="M330.608 507.281C351.813 507.281 363.588 487.622 385.945 487.538C408.578 487.454 418.373 507.281 441.304 507.281" stroke="white" stroke-opacity="0.49" stroke-width="2"/>
<path d="M441.304 507.281C462.509 507.281 474.284 487.622 496.641 487.538C519.274 487.454 529.069 507.281 552 507.281" stroke="white" stroke-opacity="0.49" stroke-width="2"/>
<path d="M0 522.026C21.205 522.026 32.9797 502.367 55.3365 502.283C77.9698 502.198 87.7647 522.026 110.696 522.026" stroke="white" stroke-opacity="0.49" stroke-width="2"/>
<path d="M109.956 522.025C131.161 522.025 142.935 502.366 165.292 502.282C187.925 502.198 197.72 522.025 220.651 522.025" stroke="white" stroke-opacity="0.49" stroke-width="2"/>
<path d="M220.652 522.025C241.857 522.025 253.632 502.366 275.988 502.282C298.622 502.198 308.417 522.025 331.348 522.025" stroke="white" stroke-opacity="0.49" stroke-width="2"/>
<path d="M330.608 522.025C351.813 522.025 363.588 502.366 385.945 502.282C408.578 502.198 418.373 522.025 441.304 522.025" stroke="white" stroke-opacity="0.49" stroke-width="2"/>
<path d="M441.304 522.025C462.509 522.025 474.284 502.366 496.641 502.282C519.274 502.198 529.069 522.025 552 522.025" stroke="white" stroke-opacity="0.49" stroke-width="2"/>
<path d="M0 536.769C21.205 536.769 32.9797 517.11 55.3365 517.026C77.9698 516.942 87.7647 536.769 110.696 536.769" stroke="white" stroke-opacity="0.49" stroke-width="2"/>
<path d="M109.956 536.769C131.161 536.769 142.935 517.11 165.292 517.027C187.925 516.942 197.72 536.769 220.651 536.769" stroke="white" stroke-opacity="0.49" stroke-width="2"/>
<path d="M220.652 536.769C241.857 536.769 253.632 517.11 275.988 517.027C298.622 516.942 308.417 536.769 331.348 536.769" stroke="white" stroke-opacity="0.49" stroke-width="2"/>
<path d="M330.608 536.769C351.813 536.769 363.588 517.11 385.945 517.027C408.578 516.942 418.373 536.769 441.304 536.769" stroke="white" stroke-opacity="0.49" stroke-width="2"/>
<path d="M441.304 536.769C462.509 536.769 474.284 517.11 496.641 517.027C519.274 516.942 529.069 536.769 552 536.769" stroke="white" stroke-opacity="0.49" stroke-width="2"/>
<path d="M0 551.512C21.205 551.512 32.9797 531.853 55.3365 531.769C77.9698 531.685 87.7647 551.512 110.696 551.512" stroke="white" stroke-opacity="0.49" stroke-width="2"/>
<path d="M109.956 551.512C131.161 551.512 142.935 531.853 165.292 531.769C187.925 531.685 197.72 551.512 220.651 551.512" stroke="white" stroke-opacity="0.49" stroke-width="2"/>
<path d="M220.652 551.512C241.857 551.512 253.632 531.853 275.988 531.769C298.622 531.685 308.417 551.512 331.348 551.512" stroke="white" stroke-opacity="0.49" stroke-width="2"/>
<path d="M330.608 551.512C351.813 551.512 363.588 531.853 385.945 531.769C408.578 531.685 418.373 551.512 441.304 551.512" stroke="white" stroke-opacity="0.49" stroke-width="2"/>
<path d="M441.304 551.512C462.509 551.512 474.284 531.853 496.641 531.769C519.274 531.685 529.069 551.512 552 551.512" stroke="white" stroke-opacity="0.49" stroke-width="2"/>
<path d="M0 566.255C21.205 566.255 32.9797 546.596 55.3365 546.512C77.9698 546.428 87.7647 566.255 110.696 566.255" stroke="white" stroke-opacity="0.49" stroke-width="2"/>
<path d="M109.956 566.255C131.161 566.255 142.935 546.596 165.292 546.512C187.925 546.428 197.72 566.255 220.651 566.255" stroke="white" stroke-opacity="0.49" stroke-width="2"/>
<path d="M220.652 566.255C241.857 566.255 253.632 546.596 275.988 546.512C298.622 546.428 308.417 566.255 331.348 566.255" stroke="white" stroke-opacity="0.49" stroke-width="2"/>
<path d="M330.608 566.255C351.813 566.255 363.588 546.596 385.945 546.512C408.578 546.428 418.373 566.255 441.304 566.255" stroke="white" stroke-opacity="0.49" stroke-width="2"/>
<path d="M441.304 566.255C462.509 566.255 474.284 546.596 496.641 546.512C519.274 546.428 529.069 566.255 552 566.255" stroke="white" stroke-opacity="0.49" stroke-width="2"/>
<path d="M0 580.999C21.205 580.999 32.9797 561.34 55.3365 561.256C77.9698 561.172 87.7647 580.999 110.696 580.999" stroke="white" stroke-opacity="0.49" stroke-width="2"/>
<path d="M109.956 580.999C131.161 580.999 142.935 561.34 165.292 561.256C187.925 561.172 197.72 580.999 220.651 580.999" stroke="white" stroke-opacity="0.49" stroke-width="2"/>
<path d="M220.652 580.999C241.857 580.999 253.632 561.34 275.988 561.256C298.622 561.172 308.417 580.999 331.348 580.999" stroke="white" stroke-opacity="0.49" stroke-width="2"/>
<path d="M330.608 580.999C351.813 580.999 363.588 561.34 385.945 561.256C408.578 561.172 418.373 580.999 441.304 580.999" stroke="white" stroke-opacity="0.49" stroke-width="2"/>
<path d="M441.304 580.999C462.509 580.999 474.284 561.34 496.641 561.256C519.274 561.172 529.069 580.999 552 580.999" stroke="white" stroke-opacity="0.49" stroke-width="2"/>
<path d="M0 595.743C21.205 595.743 32.9797 576.083 55.3365 576C77.9698 575.915 87.7647 595.743 110.696 595.743" stroke="white" stroke-opacity="0.49" stroke-width="2"/>
<path d="M109.956 595.742C131.161 595.742 142.935 576.083 165.292 575.999C187.925 575.915 197.72 595.742 220.651 595.742" stroke="white" stroke-opacity="0.49" stroke-width="2"/>
<path d="M220.652 595.742C241.857 595.742 253.632 576.083 275.988 575.999C298.622 575.915 308.417 595.742 331.348 595.742" stroke="white" stroke-opacity="0.49" stroke-width="2"/>
<path d="M330.608 595.742C351.813 595.742 363.588 576.083 385.945 575.999C408.578 575.915 418.373 595.742 441.304 595.742" stroke="white" stroke-opacity="0.49" stroke-width="2"/>
<path d="M441.304 595.742C462.509 595.742 474.284 576.083 496.641 575.999C519.274 575.915 529.069 595.742 552 595.742" stroke="white" stroke-opacity="0.49" stroke-width="2"/>
<path d="M0 610.488C21.205 610.488 32.9797 590.828 55.3365 590.745C77.9698 590.66 87.7647 610.488 110.696 610.488" stroke="white" stroke-opacity="0.49" stroke-width="2"/>
<path d="M109.956 610.486C131.161 610.486 142.935 590.827 165.292 590.743C187.925 590.658 197.72 610.486 220.651 610.486" stroke="white" stroke-opacity="0.49" stroke-width="2"/>
<path d="M220.652 610.486C241.857 610.486 253.632 590.827 275.988 590.743C298.622 590.658 308.417 610.486 331.348 610.486" stroke="white" stroke-opacity="0.49" stroke-width="2"/>
<path d="M330.608 610.486C351.813 610.486 363.588 590.827 385.945 590.743C408.578 590.658 418.373 610.486 441.304 610.486" stroke="white" stroke-opacity="0.49" stroke-width="2"/>
<path d="M441.304 610.486C462.509 610.486 474.284 590.827 496.641 590.743C519.274 590.658 529.069 610.486 552 610.486" stroke="white" stroke-opacity="0.49" stroke-width="2"/>
<path d="M0 625.23C21.205 625.23 32.9797 605.571 55.3365 605.488C77.9698 605.403 87.7647 625.23 110.696 625.23" stroke="white" stroke-opacity="0.49" stroke-width="2"/>
<path d="M109.956 625.23C131.161 625.23 142.935 605.571 165.292 605.488C187.925 605.403 197.72 625.23 220.651 625.23" stroke="white" stroke-opacity="0.49" stroke-width="2"/>
<path d="M220.652 625.23C241.857 625.23 253.632 605.571 275.988 605.488C298.622 605.403 308.417 625.23 331.348 625.23" stroke="white" stroke-opacity="0.49" stroke-width="2"/>
<path d="M330.608 625.23C351.813 625.23 363.588 605.571 385.945 605.488C408.578 605.403 418.373 625.23 441.304 625.23" stroke="white" stroke-opacity="0.49" stroke-width="2"/>
<path d="M441.304 625.23C462.509 625.23 474.284 605.571 496.641 605.488C519.274 605.403 529.069 625.23 552 625.23" stroke="white" stroke-opacity="0.49" stroke-width="2"/>
<path d="M0 639.974C21.205 639.974 32.9797 620.315 55.3365 620.231C77.9698 620.147 87.7647 639.974 110.696 639.974" stroke="white" stroke-opacity="0.49" stroke-width="2"/>
<path d="M109.956 639.974C131.161 639.974 142.935 620.315 165.292 620.231C187.925 620.147 197.72 639.974 220.651 639.974" stroke="white" stroke-opacity="0.49" stroke-width="2"/>
<path d="M220.652 639.974C241.857 639.974 253.632 620.315 275.988 620.231C298.622 620.147 308.417 639.974 331.348 639.974" stroke="white" stroke-opacity="0.49" stroke-width="2"/>
<path d="M330.608 639.974C351.813 639.974 363.588 620.315 385.945 620.231C408.578 620.147 418.373 639.974 441.304 639.974" stroke="white" stroke-opacity="0.49" stroke-width="2"/>
<path d="M441.304 639.974C462.509 639.974 474.284 620.315 496.641 620.231C519.274 620.147 529.069 639.974 552 639.974" stroke="white" stroke-opacity="0.49" stroke-width="2"/>
<path d="M0 654.717C21.205 654.717 32.9797 635.058 55.3365 634.974C77.9698 634.89 87.7647 654.717 110.696 654.717" stroke="white" stroke-opacity="0.49" stroke-width="2"/>
<path d="M109.956 654.717C131.161 654.717 142.935 635.058 165.292 634.974C187.925 634.89 197.72 654.717 220.651 654.717" stroke="white" stroke-opacity="0.49" stroke-width="2"/>
<path d="M220.652 654.717C241.857 654.717 253.632 635.058 275.988 634.974C298.622 634.89 308.417 654.717 331.348 654.717" stroke="white" stroke-opacity="0.49" stroke-width="2"/>
<path d="M330.608 654.717C351.813 654.717 363.588 635.058 385.945 634.974C408.578 634.89 418.373 654.717 441.304 654.717" stroke="white" stroke-opacity="0.49" stroke-width="2"/>
<path d="M441.304 654.717C462.509 654.717 474.284 635.058 496.641 634.974C519.274 634.89 529.069 654.717 552 654.717" stroke="white" stroke-opacity="0.49" stroke-width="2"/>
<path d="M0 669.461C21.205 669.461 32.9797 649.802 55.3365 649.718C77.9698 649.633 87.7647 669.461 110.696 669.461" stroke="white" stroke-opacity="0.49" stroke-width="2"/>
<path d="M109.956 669.46C131.161 669.46 142.935 649.801 165.292 649.718C187.925 649.633 197.72 669.46 220.651 669.46" stroke="white" stroke-opacity="0.49" stroke-width="2"/>
<path d="M220.652 669.46C241.857 669.46 253.632 649.801 275.988 649.718C298.622 649.633 308.417 669.46 331.348 669.46" stroke="white" stroke-opacity="0.49" stroke-width="2"/>
<path d="M330.608 669.46C351.813 669.46 363.588 649.801 385.945 649.718C408.578 649.633 418.373 669.46 441.304 669.46" stroke="white" stroke-opacity="0.49" stroke-width="2"/>
<path d="M441.304 669.46C462.509 669.46 474.283 649.801 496.64 649.718C519.273 649.633 529.068 669.46 551.999 669.46" stroke="white" stroke-opacity="0.49" stroke-width="2"/>
<path d="M0 684.204C21.205 684.204 32.9797 664.545 55.3365 664.462C77.9698 664.377 87.7647 684.204 110.696 684.204" stroke="white" stroke-opacity="0.49" stroke-width="2"/>
<path d="M109.956 684.204C131.161 684.204 142.935 664.545 165.292 664.461C187.925 664.377 197.72 684.204 220.651 684.204" stroke="white" stroke-opacity="0.49" stroke-width="2"/>
<path d="M220.652 684.204C241.857 684.204 253.632 664.545 275.988 664.461C298.622 664.377 308.417 684.204 331.348 684.204" stroke="white" stroke-opacity="0.49" stroke-width="2"/>
<path d="M330.608 684.204C351.813 684.204 363.588 664.545 385.945 664.461C408.578 664.377 418.373 684.204 441.304 684.204" stroke="white" stroke-opacity="0.49" stroke-width="2"/>
<path d="M441.304 684.204C462.509 684.204 474.284 664.545 496.641 664.461C519.274 664.377 529.069 684.204 552 684.204" stroke="white" stroke-opacity="0.49" stroke-width="2"/>
<path d="M0 698.948C21.205 698.948 32.9797 679.288 55.3365 679.205C77.9698 679.12 87.7647 698.948 110.696 698.948" stroke="white" stroke-opacity="0.49" stroke-width="2"/>
<path d="M109.956 698.947C131.161 698.947 142.935 679.288 165.292 679.204C187.925 679.12 197.72 698.947 220.651 698.947" stroke="white" stroke-opacity="0.49" stroke-width="2"/>
<path d="M220.652 698.947C241.857 698.947 253.632 679.288 275.988 679.204C298.622 679.12 308.417 698.947 331.348 698.947" stroke="white" stroke-opacity="0.49" stroke-width="2"/>
<path d="M330.608 698.947C351.813 698.947 363.588 679.288 385.945 679.204C408.578 679.12 418.373 698.947 441.304 698.947" stroke="white" stroke-opacity="0.49" stroke-width="2"/>
<path d="M441.304 698.947C462.509 698.947 474.283 679.288 496.64 679.204C519.273 679.12 529.068 698.947 551.999 698.947" stroke="white" stroke-opacity="0.49" stroke-width="2"/>
<path d="M0 713.691C21.205 713.691 32.9797 694.032 55.3365 693.949C77.9698 693.864 87.7647 713.691 110.696 713.691" stroke="white" stroke-opacity="0.49" stroke-width="2"/>
<path d="M109.956 713.691C131.161 713.691 142.935 694.032 165.292 693.948C187.925 693.863 197.72 713.691 220.651 713.691" stroke="white" stroke-opacity="0.49" stroke-width="2"/>
<path d="M220.652 713.691C241.857 713.691 253.632 694.032 275.988 693.948C298.622 693.863 308.417 713.691 331.348 713.691" stroke="white" stroke-opacity="0.49" stroke-width="2"/>
<path d="M330.608 713.691C351.813 713.691 363.588 694.032 385.945 693.948C408.578 693.863 418.373 713.691 441.304 713.691" stroke="white" stroke-opacity="0.49" stroke-width="2"/>
<path d="M441.304 713.691C462.509 713.691 474.283 694.032 496.64 693.948C519.273 693.863 529.068 713.691 551.999 713.691" stroke="white" stroke-opacity="0.49" stroke-width="2"/>
<path d="M0 728.435C21.205 728.435 32.9797 708.776 55.3365 708.692C77.9698 708.608 87.7647 728.435 110.696 728.435" stroke="white" stroke-opacity="0.49" stroke-width="2"/>
<path d="M109.956 728.434C131.161 728.434 142.935 708.775 165.292 708.692C187.925 708.607 197.72 728.434 220.651 728.434" stroke="white" stroke-opacity="0.49" stroke-width="2"/>
<path d="M220.652 728.434C241.857 728.434 253.632 708.775 275.988 708.692C298.622 708.607 308.417 728.434 331.348 728.434" stroke="white" stroke-opacity="0.49" stroke-width="2"/>
<path d="M330.608 728.434C351.813 728.434 363.588 708.775 385.945 708.692C408.578 708.607 418.373 728.434 441.304 728.434" stroke="white" stroke-opacity="0.49" stroke-width="2"/>
<path d="M441.304 728.434C462.509 728.434 474.284 708.775 496.641 708.692C519.274 708.607 529.069 728.434 552 728.434" stroke="white" stroke-opacity="0.49" stroke-width="2"/>
<path d="M0 743.178C21.205 743.178 32.9797 723.519 55.3365 723.435C77.9698 723.351 87.7647 743.178 110.696 743.178" stroke="white" stroke-opacity="0.49" stroke-width="2"/>
<path d="M109.956 743.178C131.161 743.178 142.935 723.519 165.292 723.435C187.925 723.351 197.72 743.178 220.651 743.178" stroke="white" stroke-opacity="0.49" stroke-width="2"/>
<path d="M220.652 743.178C241.857 743.178 253.632 723.519 275.988 723.435C298.622 723.351 308.417 743.178 331.348 743.178" stroke="white" stroke-opacity="0.49" stroke-width="2"/>
<path d="M330.608 743.178C351.813 743.178 363.588 723.519 385.945 723.435C408.578 723.351 418.373 743.178 441.304 743.178" stroke="white" stroke-opacity="0.49" stroke-width="2"/>
<path d="M441.304 743.178C462.509 743.178 474.284 723.519 496.641 723.435C519.274 723.351 529.069 743.178 552 743.178" stroke="white" stroke-opacity="0.49" stroke-width="2"/>
<path d="M0 757.922C21.205 757.922 32.9797 738.263 55.3365 738.179C77.9698 738.094 87.7647 757.922 110.696 757.922" stroke="white" stroke-opacity="0.49" stroke-width="2"/>
<path d="M109.956 757.921C131.161 757.921 142.935 738.262 165.292 738.178C187.925 738.094 197.72 757.921 220.651 757.921" stroke="white" stroke-opacity="0.49" stroke-width="2"/>
<path d="M220.652 757.921C241.857 757.921 253.632 738.262 275.988 738.178C298.622 738.094 308.417 757.921 331.348 757.921" stroke="white" stroke-opacity="0.49" stroke-width="2"/>
<path d="M330.608 757.921C351.813 757.921 363.588 738.262 385.945 738.178C408.578 738.094 418.373 757.921 441.304 757.921" stroke="white" stroke-opacity="0.49" stroke-width="2"/>
<path d="M441.304 757.921C462.509 757.921 474.284 738.262 496.641 738.178C519.274 738.094 529.069 757.921 552 757.921" stroke="white" stroke-opacity="0.49" stroke-width="2"/>
<path d="M0 772.667C21.205 772.667 32.9797 753.008 55.3365 752.924C77.9698 752.839 87.7647 772.667 110.696 772.667" stroke="white" stroke-opacity="0.49" stroke-width="2"/>
<path d="M109.956 772.665C131.161 772.665 142.935 753.006 165.292 752.922C187.925 752.838 197.72 772.665 220.651 772.665" stroke="white" stroke-opacity="0.49" stroke-width="2"/>
<path d="M220.652 772.665C241.857 772.665 253.632 753.006 275.988 752.922C298.622 752.838 308.417 772.665 331.348 772.665" stroke="white" stroke-opacity="0.49" stroke-width="2"/>
<path d="M330.608 772.665C351.813 772.665 363.588 753.006 385.945 752.922C408.578 752.838 418.373 772.665 441.304 772.665" stroke="white" stroke-opacity="0.49" stroke-width="2"/>
<path d="M441.304 772.665C462.509 772.665 474.284 753.006 496.641 752.922C519.274 752.838 529.069 772.665 552 772.665" stroke="white" stroke-opacity="0.49" stroke-width="2"/>
<path d="M0 787.411C21.205 787.411 32.9797 767.751 55.3365 767.668C77.9698 767.583 87.7647 787.411 110.696 787.411" stroke="white" stroke-opacity="0.49" stroke-width="2"/>
<path d="M109.956 787.41C131.161 787.41 142.935 767.751 165.292 767.667C187.925 767.583 197.72 787.41 220.651 787.41" stroke="white" stroke-opacity="0.49" stroke-width="2"/>
<path d="M220.652 787.41C241.857 787.41 253.632 767.751 275.988 767.667C298.622 767.583 308.417 787.41 331.348 787.41" stroke="white" stroke-opacity="0.49" stroke-width="2"/>
<path d="M330.608 787.41C351.813 787.41 363.588 767.751 385.945 767.667C408.578 767.583 418.373 787.41 441.304 787.41" stroke="white" stroke-opacity="0.49" stroke-width="2"/>
<path d="M441.304 787.41C462.509 787.41 474.284 767.751 496.641 767.667C519.274 767.583 529.069 787.41 552 787.41" stroke="white" stroke-opacity="0.49" stroke-width="2"/>
<path d="M0 802.154C21.205 802.154 32.9797 782.494 55.3365 782.411C77.9698 782.326 87.7647 802.154 110.696 802.154" stroke="white" stroke-opacity="0.49" stroke-width="2"/>
<path d="M109.956 802.154C131.161 802.154 142.935 782.494 165.292 782.411C187.925 782.326 197.72 802.154 220.651 802.154" stroke="white" stroke-opacity="0.49" stroke-width="2"/>
<path d="M220.652 802.154C241.857 802.154 253.632 782.494 275.988 782.411C298.622 782.326 308.417 802.154 331.348 802.154" stroke="white" stroke-opacity="0.49" stroke-width="2"/>
<path d="M330.608 802.154C351.813 802.154 363.588 782.494 385.945 782.411C408.578 782.326 418.373 802.154 441.304 802.154" stroke="white" stroke-opacity="0.49" stroke-width="2"/>
<path d="M441.304 802.154C462.509 802.154 474.283 782.494 496.64 782.411C519.273 782.326 529.068 802.154 551.999 802.154" stroke="white" stroke-opacity="0.49" stroke-width="2"/>
<path d="M0 816.897C21.205 816.897 32.9797 797.238 55.3365 797.154C77.9698 797.069 87.7647 816.897 110.696 816.897" stroke="white" stroke-opacity="0.49" stroke-width="2"/>
<path d="M109.956 816.897C131.161 816.897 142.935 797.238 165.292 797.154C187.925 797.069 197.72 816.897 220.651 816.897" stroke="white" stroke-opacity="0.49" stroke-width="2"/>
<path d="M220.652 816.897C241.857 816.897 253.632 797.238 275.988 797.154C298.622 797.069 308.417 816.897 331.348 816.897" stroke="white" stroke-opacity="0.49" stroke-width="2"/>
<path d="M330.608 816.897C351.813 816.897 363.588 797.238 385.945 797.154C408.578 797.069 418.373 816.897 441.304 816.897" stroke="white" stroke-opacity="0.49" stroke-width="2"/>
<path d="M441.304 816.897C462.509 816.897 474.283 797.238 496.64 797.154C519.273 797.069 529.068 816.897 551.999 816.897" stroke="white" stroke-opacity="0.49" stroke-width="2"/>
<path d="M0 831.641C21.205 831.641 32.9797 811.982 55.3365 811.898C77.9698 811.814 87.7647 831.641 110.696 831.641" stroke="white" stroke-opacity="0.49" stroke-width="2"/>
<path d="M109.956 831.64C131.161 831.64 142.935 811.981 165.292 811.897C187.925 811.813 197.72 831.64 220.651 831.64" stroke="white" stroke-opacity="0.49" stroke-width="2"/>
<path d="M220.652 831.64C241.857 831.64 253.632 811.981 275.988 811.897C298.622 811.813 308.417 831.64 331.348 831.64" stroke="white" stroke-opacity="0.49" stroke-width="2"/>
<path d="M330.608 831.64C351.813 831.64 363.588 811.981 385.945 811.897C408.578 811.813 418.373 831.64 441.304 831.64" stroke="white" stroke-opacity="0.49" stroke-width="2"/>
<path d="M441.304 831.64C462.509 831.64 474.284 811.981 496.641 811.897C519.274 811.813 529.069 831.64 552 831.64" stroke="white" stroke-opacity="0.49" stroke-width="2"/>
<path d="M0 846.385C21.205 846.385 32.9797 826.726 55.3365 826.642C77.9698 826.558 87.7647 846.385 110.696 846.385" stroke="white" stroke-opacity="0.49" stroke-width="2"/>
<path d="M109.956 846.384C131.161 846.384 142.935 826.725 165.292 826.641C187.925 826.557 197.72 846.384 220.651 846.384" stroke="white" stroke-opacity="0.49" stroke-width="2"/>
<path d="M220.652 846.384C241.857 846.384 253.632 826.725 275.988 826.641C298.622 826.557 308.417 846.384 331.348 846.384" stroke="white" stroke-opacity="0.49" stroke-width="2"/>
<path d="M330.608 846.384C351.813 846.384 363.588 826.725 385.945 826.641C408.578 826.557 418.373 846.384 441.304 846.384" stroke="white" stroke-opacity="0.49" stroke-width="2"/>
<path d="M441.304 846.384C462.509 846.384 474.284 826.725 496.641 826.641C519.274 826.557 529.069 846.384 552 846.384" stroke="white" stroke-opacity="0.49" stroke-width="2"/>
<path d="M0 861.128C21.205 861.128 32.9797 841.469 55.3365 841.386C77.9698 841.301 87.7647 861.128 110.696 861.128" stroke="white" stroke-opacity="0.49" stroke-width="2"/>
<path d="M109.956 861.128C131.161 861.128 142.935 841.469 165.292 841.386C187.925 841.301 197.72 861.128 220.651 861.128" stroke="white" stroke-opacity="0.49" stroke-width="2"/>
<path d="M220.652 861.128C241.857 861.128 253.632 841.469 275.988 841.386C298.622 841.301 308.417 861.128 331.348 861.128" stroke="white" stroke-opacity="0.49" stroke-width="2"/>
<path d="M330.608 861.128C351.813 861.128 363.588 841.469 385.945 841.386C408.578 841.301 418.373 861.128 441.304 861.128" stroke="white" stroke-opacity="0.49" stroke-width="2"/>
<path d="M441.304 861.128C462.509 861.128 474.284 841.469 496.641 841.386C519.274 841.301 529.069 861.128 552 861.128" stroke="white" stroke-opacity="0.49" stroke-width="2"/>
<path d="M0 875.872C21.205 875.872 32.9797 856.213 55.3365 856.129C77.9698 856.045 87.7647 875.872 110.696 875.872" stroke="white" stroke-opacity="0.49" stroke-width="2"/>
<path d="M109.956 875.871C131.161 875.871 142.935 856.212 165.292 856.129C187.925 856.044 197.72 875.871 220.651 875.871" stroke="white" stroke-opacity="0.49" stroke-width="2"/>
<path d="M220.652 875.871C241.857 875.871 253.632 856.212 275.988 856.129C298.622 856.044 308.417 875.871 331.348 875.871" stroke="white" stroke-opacity="0.49" stroke-width="2"/>
<path d="M330.608 875.871C351.813 875.871 363.588 856.212 385.945 856.129C408.578 856.044 418.373 875.871 441.304 875.871" stroke="white" stroke-opacity="0.49" stroke-width="2"/>
<path d="M441.304 875.871C462.509 875.871 474.284 856.212 496.641 856.129C519.274 856.044 529.069 875.871 552 875.871" stroke="white" stroke-opacity="0.49" stroke-width="2"/>
<path d="M0 890.616C21.205 890.616 32.9797 870.957 55.3365 870.873C77.9698 870.789 87.7647 890.616 110.696 890.616" stroke="white" stroke-opacity="0.49" stroke-width="2"/>
<path d="M109.956 890.616C131.161 890.616 142.935 870.956 165.292 870.873C187.925 870.788 197.72 890.616 220.651 890.616" stroke="white" stroke-opacity="0.49" stroke-width="2"/>
<path d="M220.652 890.616C241.857 890.616 253.632 870.956 275.988 870.873C298.622 870.788 308.417 890.616 331.348 890.616" stroke="white" stroke-opacity="0.49" stroke-width="2"/>
<path d="M330.608 890.616C351.813 890.616 363.588 870.956 385.945 870.873C408.578 870.788 418.373 890.616 441.304 890.616" stroke="white" stroke-opacity="0.49" stroke-width="2"/>
<path d="M441.304 890.616C462.509 890.616 474.284 870.956 496.641 870.873C519.274 870.788 529.069 890.616 552 890.616" stroke="white" stroke-opacity="0.49" stroke-width="2"/>
<path d="M0 905.359C21.205 905.359 32.9797 885.7 55.3365 885.616C77.9698 885.531 87.7647 905.359 110.696 905.359" stroke="white" stroke-opacity="0.49" stroke-width="2"/>
<path d="M109.956 905.359C131.161 905.359 142.935 885.7 165.292 885.616C187.925 885.531 197.72 905.359 220.651 905.359" stroke="white" stroke-opacity="0.49" stroke-width="2"/>
<path d="M220.652 905.359C241.857 905.359 253.632 885.7 275.988 885.616C298.622 885.531 308.417 905.359 331.348 905.359" stroke="white" stroke-opacity="0.49" stroke-width="2"/>
<path d="M330.608 905.359C351.813 905.359 363.588 885.7 385.945 885.616C408.578 885.531 418.373 905.359 441.304 905.359" stroke="white" stroke-opacity="0.49" stroke-width="2"/>
<path d="M441.304 905.359C462.509 905.359 474.284 885.7 496.641 885.616C519.274 885.531 529.069 905.359 552 905.359" stroke="white" stroke-opacity="0.49" stroke-width="2"/>
<path d="M0 920.103C21.205 920.103 32.9797 900.444 55.3365 900.36C77.9698 900.276 87.7647 920.103 110.696 920.103" stroke="white" stroke-opacity="0.49" stroke-width="2"/>
<path d="M109.956 920.102C131.161 920.102 142.935 900.443 165.292 900.36C187.925 900.275 197.72 920.102 220.651 920.102" stroke="white" stroke-opacity="0.49" stroke-width="2"/>
<path d="M220.652 920.102C241.857 920.102 253.632 900.443 275.988 900.36C298.622 900.275 308.417 920.102 331.348 920.102" stroke="white" stroke-opacity="0.49" stroke-width="2"/>
<path d="M330.608 920.102C351.813 920.102 363.588 900.443 385.945 900.36C408.578 900.275 418.373 920.102 441.304 920.102" stroke="white" stroke-opacity="0.49" stroke-width="2"/>
<path d="M441.304 920.102C462.509 920.102 474.284 900.443 496.641 900.36C519.274 900.275 529.069 920.102 552 920.102" stroke="white" stroke-opacity="0.49" stroke-width="2"/>
<path d="M0 934.846C21.205 934.846 32.9797 915.186 55.3365 915.103C77.9698 915.018 87.7647 934.846 110.696 934.846" stroke="white" stroke-opacity="0.49" stroke-width="2"/>
<path d="M109.956 934.846C131.161 934.846 142.935 915.186 165.292 915.103C187.925 915.018 197.72 934.846 220.651 934.846" stroke="white" stroke-opacity="0.49" stroke-width="2"/>
<path d="M220.652 934.846C241.857 934.846 253.632 915.186 275.988 915.103C298.622 915.018 308.417 934.846 331.348 934.846" stroke="white" stroke-opacity="0.49" stroke-width="2"/>
<path d="M330.608 934.846C351.813 934.846 363.588 915.186 385.945 915.103C408.578 915.018 418.373 934.846 441.304 934.846" stroke="white" stroke-opacity="0.49" stroke-width="2"/>
<path d="M441.304 934.846C462.509 934.846 474.284 915.186 496.641 915.103C519.274 915.018 529.069 934.846 552 934.846" stroke="white" stroke-opacity="0.49" stroke-width="2"/>
<path d="M0 949.589C21.205 949.589 32.9797 929.93 55.3365 929.846C77.9698 929.762 87.7647 949.589 110.696 949.589" stroke="white" stroke-opacity="0.49" stroke-width="2"/>
<path d="M109.956 949.589C131.161 949.589 142.935 929.93 165.292 929.846C187.925 929.762 197.72 949.589 220.651 949.589" stroke="white" stroke-opacity="0.49" stroke-width="2"/>
<path d="M220.652 949.589C241.857 949.589 253.632 929.93 275.988 929.846C298.622 929.762 308.417 949.589 331.348 949.589" stroke="white" stroke-opacity="0.49" stroke-width="2"/>
<path d="M330.608 949.589C351.813 949.589 363.588 929.93 385.945 929.846C408.578 929.762 418.373 949.589 441.304 949.589" stroke="white" stroke-opacity="0.49" stroke-width="2"/>
<path d="M441.304 949.589C462.509 949.589 474.284 929.93 496.641 929.846C519.274 929.762 529.069 949.589 552 949.589" stroke="white" stroke-opacity="0.49" stroke-width="2"/>
<path d="M0 964.333C21.205 964.333 32.9797 944.674 55.3365 944.59C77.9698 944.506 87.7647 964.333 110.696 964.333" stroke="white" stroke-opacity="0.49" stroke-width="2"/>
<path d="M109.956 964.332C131.161 964.332 142.935 944.673 165.292 944.59C187.925 944.505 197.72 964.332 220.651 964.332" stroke="white" stroke-opacity="0.49" stroke-width="2"/>
<path d="M220.652 964.332C241.857 964.332 253.632 944.673 275.988 944.59C298.622 944.505 308.417 964.332 331.348 964.332" stroke="white" stroke-opacity="0.49" stroke-width="2"/>
<path d="M330.608 964.332C351.813 964.332 363.588 944.673 385.945 944.59C408.578 944.505 418.373 964.332 441.304 964.332" stroke="white" stroke-opacity="0.49" stroke-width="2"/>
<path d="M441.304 964.332C462.509 964.332 474.284 944.673 496.641 944.59C519.274 944.505 529.069 964.332 552 964.332" stroke="white" stroke-opacity="0.49" stroke-width="2"/>
<path d="M0 979.076C21.205 979.076 32.9797 959.417 55.3365 959.333C77.9698 959.249 87.7647 979.076 110.696 979.076" stroke="white" stroke-opacity="0.49" stroke-width="2"/>
<path d="M109.956 979.076C131.161 979.076 142.935 959.417 165.292 959.333C187.925 959.249 197.72 979.076 220.651 979.076" stroke="white" stroke-opacity="0.49" stroke-width="2"/>
<path d="M220.652 979.076C241.857 979.076 253.632 959.417 275.988 959.333C298.622 959.249 308.417 979.076 331.348 979.076" stroke="white" stroke-opacity="0.49" stroke-width="2"/>
<path d="M330.608 979.076C351.813 979.076 363.588 959.417 385.945 959.333C408.578 959.249 418.373 979.076 441.304 979.076" stroke="white" stroke-opacity="0.49" stroke-width="2"/>
<path d="M441.304 979.076C462.509 979.076 474.284 959.417 496.641 959.333C519.274 959.249 529.069 979.076 552 979.076" stroke="white" stroke-opacity="0.49" stroke-width="2"/>
<path d="M0 993.82C21.205 993.82 32.9797 974.161 55.3365 974.077C77.9698 973.992 87.7647 993.82 110.696 993.82" stroke="white" stroke-opacity="0.49" stroke-width="2"/>
<path d="M109.956 993.819C131.161 993.819 142.935 974.16 165.292 974.076C187.925 973.992 197.72 993.819 220.651 993.819" stroke="white" stroke-opacity="0.49" stroke-width="2"/>
<path d="M220.652 993.819C241.857 993.819 253.632 974.16 275.988 974.076C298.622 973.992 308.417 993.819 331.348 993.819" stroke="white" stroke-opacity="0.49" stroke-width="2"/>
<path d="M330.608 993.819C351.813 993.819 363.588 974.16 385.945 974.076C408.578 973.992 418.373 993.819 441.304 993.819" stroke="white" stroke-opacity="0.49" stroke-width="2"/>
<path d="M441.304 993.819C462.509 993.819 474.284 974.16 496.641 974.076C519.274 973.992 529.069 993.819 552 993.819" stroke="white" stroke-opacity="0.49" stroke-width="2"/>
<path d="M0 1008.56C21.205 1008.56 32.9797 988.905 55.3365 988.821C77.9698 988.736 87.7647 1008.56 110.696 1008.56" stroke="white" stroke-opacity="0.49" stroke-width="2"/>
<path d="M109.956 1008.56C131.161 1008.56 142.935 988.904 165.292 988.82C187.925 988.735 197.72 1008.56 220.651 1008.56" stroke="white" stroke-opacity="0.49" stroke-width="2"/>
<path d="M220.652 1008.56C241.857 1008.56 253.632 988.904 275.988 988.82C298.622 988.735 308.417 1008.56 331.348 1008.56" stroke="white" stroke-opacity="0.49" stroke-width="2"/>
<path d="M330.608 1008.56C351.813 1008.56 363.588 988.904 385.945 988.82C408.578 988.735 418.373 1008.56 441.304 1008.56" stroke="white" stroke-opacity="0.49" stroke-width="2"/>
<path d="M441.304 1008.56C462.509 1008.56 474.284 988.904 496.641 988.82C519.274 988.735 529.069 1008.56 552 1008.56" stroke="white" stroke-opacity="0.49" stroke-width="2"/>
<path d="M0 1023.31C21.205 1023.31 32.9797 1003.65 55.3365 1003.56C77.9698 1003.48 87.7647 1023.31 110.696 1023.31" stroke="white" stroke-opacity="0.49" stroke-width="2"/>
<path d="M109.956 1023.31C131.161 1023.31 142.935 1003.65 165.292 1003.56C187.925 1003.48 197.72 1023.31 220.651 1023.31" stroke="white" stroke-opacity="0.49" stroke-width="2"/>
<path d="M220.652 1023.31C241.857 1023.31 253.632 1003.65 275.988 1003.56C298.622 1003.48 308.417 1023.31 331.348 1023.31" stroke="white" stroke-opacity="0.49" stroke-width="2"/>
<path d="M330.608 1023.31C351.813 1023.31 363.588 1003.65 385.945 1003.56C408.578 1003.48 418.373 1023.31 441.304 1023.31" stroke="white" stroke-opacity="0.49" stroke-width="2"/>
<path d="M441.304 1023.31C462.509 1023.31 474.284 1003.65 496.641 1003.56C519.274 1003.48 529.069 1023.31 552 1023.31" stroke="white" stroke-opacity="0.49" stroke-width="2"/>
<path d="M0 1038.05C21.205 1038.05 32.9797 1018.39 55.3365 1018.31C77.9698 1018.22 87.7647 1038.05 110.696 1038.05" stroke="white" stroke-opacity="0.49" stroke-width="2"/>
<path d="M109.956 1038.05C131.161 1038.05 142.935 1018.39 165.292 1018.31C187.925 1018.22 197.72 1038.05 220.651 1038.05" stroke="white" stroke-opacity="0.49" stroke-width="2"/>
<path d="M220.652 1038.05C241.857 1038.05 253.632 1018.39 275.988 1018.31C298.622 1018.22 308.417 1038.05 331.348 1038.05" stroke="white" stroke-opacity="0.49" stroke-width="2"/>
<path d="M330.608 1038.05C351.813 1038.05 363.588 1018.39 385.945 1018.31C408.578 1018.22 418.373 1038.05 441.304 1038.05" stroke="white" stroke-opacity="0.49" stroke-width="2"/>
<path d="M441.304 1038.05C462.509 1038.05 474.284 1018.39 496.641 1018.31C519.274 1018.22 529.069 1038.05 552 1038.05" stroke="white" stroke-opacity="0.49" stroke-width="2"/>
<path d="M0 1052.79C21.205 1052.79 32.9797 1033.13 55.3365 1033.05C77.9698 1032.97 87.7647 1052.79 110.696 1052.79" stroke="white" stroke-opacity="0.49" stroke-width="2"/>
<path d="M109.956 1052.79C131.161 1052.79 142.935 1033.13 165.292 1033.05C187.925 1032.97 197.72 1052.79 220.651 1052.79" stroke="white" stroke-opacity="0.49" stroke-width="2"/>
<path d="M220.652 1052.79C241.857 1052.79 253.632 1033.13 275.988 1033.05C298.622 1032.97 308.417 1052.79 331.348 1052.79" stroke="white" stroke-opacity="0.49" stroke-width="2"/>
<path d="M330.608 1052.79C351.813 1052.79 363.588 1033.13 385.945 1033.05C408.578 1032.97 418.373 1052.79 441.304 1052.79" stroke="white" stroke-opacity="0.49" stroke-width="2"/>
<path d="M441.304 1052.79C462.509 1052.79 474.284 1033.13 496.641 1033.05C519.274 1032.97 529.069 1052.79 552 1052.79" stroke="white" stroke-opacity="0.49" stroke-width="2"/>
<path d="M0 1067.54C21.205 1067.54 32.9797 1047.88 55.3365 1047.79C77.9698 1047.71 87.7647 1067.54 110.696 1067.54" stroke="white" stroke-opacity="0.49" stroke-width="2"/>
<path d="M109.956 1067.54C131.161 1067.54 142.935 1047.88 165.292 1047.79C187.925 1047.71 197.72 1067.54 220.651 1067.54" stroke="white" stroke-opacity="0.49" stroke-width="2"/>
<path d="M220.652 1067.54C241.857 1067.54 253.632 1047.88 275.988 1047.79C298.622 1047.71 308.417 1067.54 331.348 1067.54" stroke="white" stroke-opacity="0.49" stroke-width="2"/>
<path d="M330.608 1067.54C351.813 1067.54 363.588 1047.88 385.945 1047.79C408.578 1047.71 418.373 1067.54 441.304 1067.54" stroke="white" stroke-opacity="0.49" stroke-width="2"/>
<path d="M441.304 1067.54C462.509 1067.54 474.283 1047.88 496.64 1047.79C519.273 1047.71 529.068 1067.54 551.999 1067.54" stroke="white" stroke-opacity="0.49" stroke-width="2"/>
<path d="M0 1082.28C21.205 1082.28 32.9797 1062.62 55.3365 1062.54C77.9698 1062.45 87.7647 1082.28 110.696 1082.28" stroke="white" stroke-opacity="0.49" stroke-width="2"/>
<path d="M109.956 1082.28C131.161 1082.28 142.935 1062.62 165.292 1062.54C187.925 1062.45 197.72 1082.28 220.651 1082.28" stroke="white" stroke-opacity="0.49" stroke-width="2"/>
<path d="M220.652 1082.28C241.857 1082.28 253.632 1062.62 275.988 1062.54C298.622 1062.45 308.417 1082.28 331.348 1082.28" stroke="white" stroke-opacity="0.49" stroke-width="2"/>
<path d="M330.608 1082.28C351.813 1082.28 363.588 1062.62 385.945 1062.54C408.578 1062.45 418.373 1082.28 441.304 1082.28" stroke="white" stroke-opacity="0.49" stroke-width="2"/>
<path d="M441.304 1082.28C462.509 1082.28 474.284 1062.62 496.641 1062.54C519.274 1062.45 529.069 1082.28 552 1082.28" stroke="white" stroke-opacity="0.49" stroke-width="2"/>
<path d="M0 1097.02C21.205 1097.02 32.9797 1077.37 55.3365 1077.28C77.9698 1077.2 87.7647 1097.02 110.696 1097.02" stroke="white" stroke-opacity="0.49" stroke-width="2"/>
<path d="M109.956 1097.02C131.161 1097.02 142.935 1077.36 165.292 1077.28C187.925 1077.2 197.72 1097.02 220.651 1097.02" stroke="white" stroke-opacity="0.49" stroke-width="2"/>
<path d="M220.652 1097.02C241.857 1097.02 253.632 1077.36 275.988 1077.28C298.622 1077.2 308.417 1097.02 331.348 1097.02" stroke="white" stroke-opacity="0.49" stroke-width="2"/>
<path d="M330.608 1097.02C351.813 1097.02 363.588 1077.36 385.945 1077.28C408.578 1077.2 418.373 1097.02 441.304 1097.02" stroke="white" stroke-opacity="0.49" stroke-width="2"/>
<path d="M441.304 1097.02C462.509 1097.02 474.284 1077.36 496.641 1077.28C519.274 1077.2 529.069 1097.02 552 1097.02" stroke="white" stroke-opacity="0.49" stroke-width="2"/>
<path d="M0 1111.77C21.205 1111.77 32.9797 1092.11 55.3365 1092.03C77.9698 1091.94 87.7647 1111.77 110.696 1111.77" stroke="white" stroke-opacity="0.49" stroke-width="2"/>
<path d="M109.956 1111.77C131.161 1111.77 142.935 1092.11 165.292 1092.03C187.925 1091.94 197.72 1111.77 220.651 1111.77" stroke="white" stroke-opacity="0.49" stroke-width="2"/>
<path d="M220.652 1111.77C241.857 1111.77 253.632 1092.11 275.988 1092.03C298.622 1091.94 308.417 1111.77 331.348 1111.77" stroke="white" stroke-opacity="0.49" stroke-width="2"/>
<path d="M330.608 1111.77C351.813 1111.77 363.588 1092.11 385.945 1092.03C408.578 1091.94 418.373 1111.77 441.304 1111.77" stroke="white" stroke-opacity="0.49" stroke-width="2"/>
<path d="M441.304 1111.77C462.509 1111.77 474.284 1092.11 496.641 1092.03C519.274 1091.94 529.069 1111.77 552 1111.77" stroke="white" stroke-opacity="0.49" stroke-width="2"/>
<path d="M0 1126.51C21.205 1126.51 32.9797 1106.85 55.3365 1106.77C77.9698 1106.68 87.7647 1126.51 110.696 1126.51" stroke="white" stroke-opacity="0.49" stroke-width="2"/>
<path d="M109.956 1126.51C131.161 1126.51 142.935 1106.85 165.292 1106.77C187.925 1106.68 197.72 1126.51 220.651 1126.51" stroke="white" stroke-opacity="0.49" stroke-width="2"/>
<path d="M220.652 1126.51C241.857 1126.51 253.632 1106.85 275.988 1106.77C298.622 1106.68 308.417 1126.51 331.348 1126.51" stroke="white" stroke-opacity="0.49" stroke-width="2"/>
<path d="M330.608 1126.51C351.813 1126.51 363.588 1106.85 385.945 1106.77C408.578 1106.68 418.373 1126.51 441.304 1126.51" stroke="white" stroke-opacity="0.49" stroke-width="2"/>
<path d="M441.304 1126.51C462.509 1126.51 474.284 1106.85 496.641 1106.77C519.274 1106.68 529.069 1126.51 552 1126.51" stroke="white" stroke-opacity="0.49" stroke-width="2"/>
<path d="M0 1141.26C21.205 1141.26 32.9797 1121.6 55.3365 1121.51C77.9698 1121.43 87.7647 1141.26 110.696 1141.26" stroke="white" stroke-opacity="0.49" stroke-width="2"/>
<path d="M109.956 1141.25C131.161 1141.25 142.935 1121.6 165.292 1121.51C187.925 1121.43 197.72 1141.25 220.651 1141.25" stroke="white" stroke-opacity="0.49" stroke-width="2"/>
<path d="M220.652 1141.25C241.857 1141.25 253.632 1121.6 275.988 1121.51C298.622 1121.43 308.417 1141.25 331.348 1141.25" stroke="white" stroke-opacity="0.49" stroke-width="2"/>
<path d="M330.608 1141.25C351.813 1141.25 363.588 1121.6 385.945 1121.51C408.578 1121.43 418.373 1141.25 441.304 1141.25" stroke="white" stroke-opacity="0.49" stroke-width="2"/>
<path d="M441.304 1141.25C462.509 1141.25 474.284 1121.6 496.641 1121.51C519.274 1121.43 529.069 1141.25 552 1141.25" stroke="white" stroke-opacity="0.49" stroke-width="2"/>
<path d="M0 1156C21.205 1156 32.9797 1136.34 55.3365 1136.26C77.9698 1136.17 87.7647 1156 110.696 1156" stroke="white" stroke-opacity="0.49" stroke-width="2"/>
<path d="M109.956 1156C131.161 1156 142.935 1136.34 165.292 1136.26C187.925 1136.17 197.72 1156 220.651 1156" stroke="white" stroke-opacity="0.49" stroke-width="2"/>
<path d="M220.652 1156C241.857 1156 253.632 1136.34 275.988 1136.26C298.622 1136.17 308.417 1156 331.348 1156" stroke="white" stroke-opacity="0.49" stroke-width="2"/>
<path d="M330.608 1156C351.813 1156 363.588 1136.34 385.945 1136.26C408.578 1136.17 418.373 1156 441.304 1156" stroke="white" stroke-opacity="0.49" stroke-width="2"/>
<path d="M441.304 1156C462.509 1156 474.284 1136.34 496.641 1136.26C519.274 1136.17 529.069 1156 552 1156" stroke="white" stroke-opacity="0.49" stroke-width="2"/>
<path d="M0 1170.74C21.205 1170.74 32.9797 1151.08 55.3365 1151C77.9698 1150.92 87.7647 1170.74 110.696 1170.74" stroke="white" stroke-opacity="0.49" stroke-width="2"/>
<path d="M109.956 1170.74C131.161 1170.74 142.935 1151.08 165.292 1151C187.925 1150.92 197.72 1170.74 220.651 1170.74" stroke="white" stroke-opacity="0.49" stroke-width="2"/>
<path d="M220.652 1170.74C241.857 1170.74 253.632 1151.08 275.988 1151C298.622 1150.92 308.417 1170.74 331.348 1170.74" stroke="white" stroke-opacity="0.49" stroke-width="2"/>
<path d="M330.608 1170.74C351.813 1170.74 363.588 1151.08 385.945 1151C408.578 1150.92 418.373 1170.74 441.304 1170.74" stroke="white" stroke-opacity="0.49" stroke-width="2"/>
<path d="M441.304 1170.74C462.509 1170.74 474.284 1151.08 496.641 1151C519.274 1150.92 529.069 1170.74 552 1170.74" stroke="white" stroke-opacity="0.49" stroke-width="2"/>
<path d="M0 1185.49C21.205 1185.49 32.9797 1165.83 55.3365 1165.75C77.9698 1165.66 87.7647 1185.49 110.696 1185.49" stroke="white" stroke-opacity="0.49" stroke-width="2"/>
<path d="M109.956 1185.49C131.161 1185.49 142.935 1165.83 165.292 1165.74C187.925 1165.66 197.72 1185.49 220.651 1185.49" stroke="white" stroke-opacity="0.49" stroke-width="2"/>
<path d="M220.652 1185.49C241.857 1185.49 253.632 1165.83 275.988 1165.74C298.622 1165.66 308.417 1185.49 331.348 1185.49" stroke="white" stroke-opacity="0.49" stroke-width="2"/>
<path d="M330.608 1185.49C351.813 1185.49 363.588 1165.83 385.945 1165.74C408.578 1165.66 418.373 1185.49 441.304 1185.49" stroke="white" stroke-opacity="0.49" stroke-width="2"/>
<path d="M441.304 1185.49C462.509 1185.49 474.284 1165.83 496.641 1165.74C519.274 1165.66 529.069 1185.49 552 1185.49" stroke="white" stroke-opacity="0.49" stroke-width="2"/>
<path d="M0 1200.23C21.205 1200.23 32.9797 1180.57 55.3365 1180.49C77.9698 1180.4 87.7647 1200.23 110.696 1200.23" stroke="white" stroke-opacity="0.49" stroke-width="2"/>
<path d="M109.956 1200.23C131.161 1200.23 142.935 1180.57 165.292 1180.49C187.925 1180.4 197.72 1200.23 220.651 1200.23" stroke="white" stroke-opacity="0.49" stroke-width="2"/>
<path d="M220.652 1200.23C241.857 1200.23 253.632 1180.57 275.988 1180.49C298.622 1180.4 308.417 1200.23 331.348 1200.23" stroke="white" stroke-opacity="0.49" stroke-width="2"/>
<path d="M330.608 1200.23C351.813 1200.23 363.588 1180.57 385.945 1180.49C408.578 1180.4 418.373 1200.23 441.304 1200.23" stroke="white" stroke-opacity="0.49" stroke-width="2"/>
<path d="M441.304 1200.23C462.509 1200.23 474.284 1180.57 496.641 1180.49C519.274 1180.4 529.069 1200.23 552 1200.23" stroke="white" stroke-opacity="0.49" stroke-width="2"/>
<path d="M0 1214.98C21.205 1214.98 32.9797 1195.32 55.3365 1195.23C77.9698 1195.15 87.7647 1214.98 110.696 1214.98" stroke="white" stroke-opacity="0.49" stroke-width="2"/>
<path d="M109.956 1214.98C131.161 1214.98 142.935 1195.32 165.292 1195.23C187.925 1195.15 197.72 1214.98 220.651 1214.98" stroke="white" stroke-opacity="0.49" stroke-width="2"/>
<path d="M220.652 1214.98C241.857 1214.98 253.632 1195.32 275.988 1195.23C298.622 1195.15 308.417 1214.98 331.348 1214.98" stroke="white" stroke-opacity="0.49" stroke-width="2"/>
<path d="M330.608 1214.98C351.813 1214.98 363.588 1195.32 385.945 1195.23C408.578 1195.15 418.373 1214.98 441.304 1214.98" stroke="white" stroke-opacity="0.49" stroke-width="2"/>
<path d="M441.304 1214.98C462.509 1214.98 474.284 1195.32 496.641 1195.23C519.274 1195.15 529.069 1214.98 552 1214.98" stroke="white" stroke-opacity="0.49" stroke-width="2"/>
<path d="M0 1229.72C21.205 1229.72 32.9797 1210.06 55.3365 1209.98C77.9698 1209.89 87.7647 1229.72 110.696 1229.72" stroke="white" stroke-opacity="0.49" stroke-width="2"/>
<path d="M109.956 1229.72C131.161 1229.72 142.935 1210.06 165.292 1209.98C187.925 1209.89 197.72 1229.72 220.651 1229.72" stroke="white" stroke-opacity="0.49" stroke-width="2"/>
<path d="M220.652 1229.72C241.857 1229.72 253.632 1210.06 275.988 1209.98C298.622 1209.89 308.417 1229.72 331.348 1229.72" stroke="white" stroke-opacity="0.49" stroke-width="2"/>
<path d="M330.608 1229.72C351.813 1229.72 363.588 1210.06 385.945 1209.98C408.578 1209.89 418.373 1229.72 441.304 1229.72" stroke="white" stroke-opacity="0.49" stroke-width="2"/>
<path d="M441.304 1229.72C462.509 1229.72 474.284 1210.06 496.641 1209.98C519.274 1209.89 529.069 1229.72 552 1229.72" stroke="white" stroke-opacity="0.49" stroke-width="2"/>
<path d="M0 1244.46C21.205 1244.46 32.9797 1224.8 55.3365 1224.72C77.9698 1224.64 87.7647 1244.46 110.696 1244.46" stroke="white" stroke-opacity="0.49" stroke-width="2"/>
<path d="M109.956 1244.46C131.161 1244.46 142.935 1224.8 165.292 1224.72C187.925 1224.64 197.72 1244.46 220.651 1244.46" stroke="white" stroke-opacity="0.49" stroke-width="2"/>
<path d="M220.652 1244.46C241.857 1244.46 253.632 1224.8 275.988 1224.72C298.622 1224.64 308.417 1244.46 331.348 1244.46" stroke="white" stroke-opacity="0.49" stroke-width="2"/>
<path d="M330.608 1244.46C351.813 1244.46 363.588 1224.8 385.945 1224.72C408.578 1224.64 418.373 1244.46 441.304 1244.46" stroke="white" stroke-opacity="0.49" stroke-width="2"/>
<path d="M441.304 1244.46C462.509 1244.46 474.284 1224.8 496.641 1224.72C519.274 1224.64 529.069 1244.46 552 1244.46" stroke="white" stroke-opacity="0.49" stroke-width="2"/>
<path d="M0 1259.21C21.205 1259.21 32.9797 1239.55 55.3365 1239.46C77.9698 1239.38 87.7647 1259.21 110.696 1259.21" stroke="white" stroke-opacity="0.49" stroke-width="2"/>
<path d="M109.956 1259.21C131.161 1259.21 142.935 1239.55 165.292 1239.46C187.925 1239.38 197.72 1259.21 220.651 1259.21" stroke="white" stroke-opacity="0.49" stroke-width="2"/>
<path d="M220.652 1259.21C241.857 1259.21 253.632 1239.55 275.988 1239.46C298.622 1239.38 308.417 1259.21 331.348 1259.21" stroke="white" stroke-opacity="0.49" stroke-width="2"/>
<path d="M330.608 1259.21C351.813 1259.21 363.588 1239.55 385.945 1239.46C408.578 1239.38 418.373 1259.21 441.304 1259.21" stroke="white" stroke-opacity="0.49" stroke-width="2"/>
<path d="M441.304 1259.21C462.509 1259.21 474.284 1239.55 496.641 1239.46C519.274 1239.38 529.069 1259.21 552 1259.21" stroke="white" stroke-opacity="0.49" stroke-width="2"/>
</g>
</svg>
