<svg width="15" height="15" viewBox="0 0 15 15" fill="none" xmlns="http://www.w3.org/2000/svg">
<g clip-path="url(#clip0_4780_13841)">
<path d="M7.75086 0.258179C6.38775 0.258179 5.05526 0.662385 3.92188 1.41968C2.78851 2.17698 1.90515 3.25336 1.38351 4.5127C0.861873 5.77205 0.725389 7.15779 0.991317 8.4947C1.25725 9.83161 1.91364 11.0596 2.8775 12.0235C3.84136 12.9874 5.06939 13.6438 6.4063 13.9097C7.74321 14.1756 9.12896 14.0391 10.3883 13.5175C11.6476 12.9959 12.724 12.1125 13.4813 10.9791C14.2386 9.84574 14.6428 8.51325 14.6428 7.15015C14.6408 5.32289 13.9141 3.57104 12.622 2.27897C11.33 0.986906 9.57811 0.260155 7.75086 0.258179V0.258179ZM7.75086 12.3191C6.72853 12.3191 5.72916 12.016 4.87913 11.448C4.02909 10.88 3.36657 10.0727 2.97535 9.12823C2.58412 8.18372 2.48176 7.14441 2.6812 6.14173C2.88065 5.13905 3.37294 4.21802 4.09584 3.49513C4.81873 2.77223 5.73976 2.27994 6.74244 2.08049C7.74512 1.88104 8.78443 1.98341 9.72894 2.37464C10.6734 2.76586 11.4807 3.42838 12.0487 4.27842C12.6167 5.12845 12.9198 6.12782 12.9198 7.15015C12.9183 8.52058 12.3732 9.83444 11.4042 10.8035C10.4352 11.7725 9.12129 12.3176 7.75086 12.3191Z" fill="#C9C9C9"/>
<path d="M6.88918 6.60734L5.51078 7.46883C5.41486 7.52889 5.33171 7.60725 5.26609 7.69945C5.20046 7.79165 5.15364 7.89587 5.12831 8.00617C5.10297 8.11647 5.09962 8.23068 5.11844 8.34227C5.13725 8.45386 5.17787 8.56066 5.23798 8.65655C5.29803 8.75247 5.3764 8.83562 5.46859 8.90124C5.56079 8.96687 5.66502 9.01369 5.77531 9.03902C5.88561 9.06436 5.99982 9.06771 6.11141 9.04889C6.22301 9.03008 6.3298 8.98946 6.42569 8.92935L8.07345 7.89556C8.23877 7.79196 8.37498 7.64796 8.46924 7.47714C8.56349 7.30632 8.61268 7.1143 8.61217 6.9192V4.72182C8.61217 4.49333 8.5214 4.27421 8.35984 4.11265C8.19828 3.95109 7.97916 3.86032 7.75067 3.86032C7.52219 3.86032 7.30307 3.95109 7.1415 4.11265C6.97994 4.27421 6.88918 4.49333 6.88918 4.72182V6.60734Z" fill="#C9C9C9"/>
</g>
<defs>
<clipPath id="clip0_4780_13841">
<rect width="13.7839" height="13.7839" fill="white" transform="translate(0.858887 0.258179)"/>
</clipPath>
</defs>
</svg>
