<svg width="16" height="16" viewBox="0 0 16 16" fill="none" xmlns="http://www.w3.org/2000/svg">
<g clip-path="url(#clip0_10015_9834)">
<path d="M14.9461 6.66692C14.2151 5.67429 13.1725 4.95533 11.9848 4.62492C11.6643 3.46208 10.9705 2.43681 10.0101 1.70692C9.04745 0.979536 7.87064 0.592092 6.66412 0.605308C5.4576 0.618523 4.28956 1.03165 3.34304 1.77995C2.39651 2.52825 1.725 3.56943 1.43372 4.74034C1.14244 5.91124 1.24787 7.1457 1.73347 8.25026C1.05698 8.6946 0.53758 9.34067 0.24895 10.0968C-0.0396795 10.853 -0.0828814 11.6808 0.125473 12.4629C0.354412 13.3002 0.856142 14.0372 1.55121 14.5572C2.24627 15.0772 3.09494 15.3504 3.96281 15.3336H10.3868C11.6929 15.3576 12.9653 14.9182 13.9782 14.0933C14.9911 13.2685 15.6791 12.1115 15.9201 10.8276C16.0483 10.1043 16.0281 9.36243 15.8606 8.64718C15.6932 7.93192 15.3821 7.25819 14.9461 6.66692V6.66692ZM13.9461 10.4889C13.7761 11.3029 13.3277 12.0322 12.6781 12.5514C12.0285 13.0705 11.2183 13.3471 10.3868 13.3336H3.96281C3.54138 13.3453 3.12775 13.2185 2.7853 12.9726C2.44284 12.7267 2.19045 12.3753 2.06681 11.9723C2.00191 11.7338 1.985 11.4849 2.01705 11.2399C2.0491 10.9949 2.12946 10.7587 2.25349 10.545C2.37752 10.3313 2.54274 10.1444 2.73958 9.995C2.93641 9.84564 3.16094 9.73685 3.40014 9.67492C3.55869 9.63394 3.70474 9.55465 3.82547 9.44401C3.9462 9.33337 4.03792 9.19478 4.09256 9.04041C4.1472 8.88604 4.16309 8.72061 4.13884 8.55866C4.11459 8.3967 4.05093 8.24319 3.95347 8.11159C3.59807 7.63382 3.37247 7.07213 3.29868 6.48125C3.22488 5.89038 3.3054 5.29046 3.53238 4.73995C3.75937 4.18944 4.12508 3.70712 4.59389 3.33997C5.06269 2.97281 5.61861 2.73336 6.20747 2.64492C6.37882 2.6203 6.5517 2.60782 6.72481 2.60759C7.47506 2.60534 8.20532 2.84939 8.80347 3.30226C9.16743 3.57821 9.47341 3.92321 9.70392 4.31752C9.93442 4.71184 10.0849 5.14773 10.1468 5.60026C10.1759 5.81767 10.2756 6.0195 10.4306 6.17467C10.5857 6.32983 10.7874 6.42971 11.0048 6.45892C11.4662 6.52348 11.9099 6.67979 12.3099 6.91864C12.7098 7.15749 13.0579 7.47403 13.3335 7.84959C13.6093 8.22486 13.8059 8.65227 13.9115 9.10587C14.017 9.55946 14.0293 10.0298 13.9475 10.4883L13.9461 10.4889Z" fill="#1D1D1D"/>
</g>
<defs>
<clipPath id="clip0_10015_9834">
<rect width="16" height="16" fill="white"/>
</clipPath>
</defs>
</svg>
