<svg width="16" height="16" viewBox="0 0 16 16" fill="none" xmlns="http://www.w3.org/2000/svg">
<g clip-path="url(#clip0_10015_9828)">
<path d="M12.3333 0H3.66667C2.69459 0.00123484 1.76267 0.38794 1.07531 1.07531C0.38794 1.76267 0.00123484 2.69459 0 3.66667L0 9.66667C0.00123484 10.6387 0.38794 11.5707 1.07531 12.258C1.76267 12.9454 2.69459 13.3321 3.66667 13.3333H4.62533L7.35867 15.6187C7.53855 15.769 7.76555 15.8514 8 15.8514C8.23445 15.8514 8.46145 15.769 8.64133 15.6187L11.3747 13.3333H12.3333C13.3054 13.3321 14.2373 12.9454 14.9247 12.258C15.6121 11.5707 15.9988 10.6387 16 9.66667V3.66667C15.9988 2.69459 15.6121 1.76267 14.9247 1.07531C14.2373 0.38794 13.3054 0.00123484 12.3333 0V0ZM14 9.66667C14 10.1087 13.8244 10.5326 13.5118 10.8452C13.1993 11.1577 12.7754 11.3333 12.3333 11.3333H11.0113C10.7768 11.3335 10.5498 11.4161 10.37 11.5667L8 13.548L5.63 11.5667C5.4502 11.4161 5.22319 11.3335 4.98867 11.3333H3.66667C3.22464 11.3333 2.80072 11.1577 2.48816 10.8452C2.17559 10.5326 2 10.1087 2 9.66667V3.66667C2 3.22464 2.17559 2.80072 2.48816 2.48816C2.80072 2.17559 3.22464 2 3.66667 2H12.3333C12.7754 2 13.1993 2.17559 13.5118 2.48816C13.8244 2.80072 14 3.22464 14 3.66667V9.66667Z" fill="#1D1D1D"/>
<path d="M5 6H7C7.26522 6 7.51957 5.89464 7.70711 5.70711C7.89464 5.51957 8 5.26522 8 5C8 4.73478 7.89464 4.48043 7.70711 4.29289C7.51957 4.10536 7.26522 4 7 4H5C4.73478 4 4.48043 4.10536 4.29289 4.29289C4.10536 4.48043 4 4.73478 4 5C4 5.26522 4.10536 5.51957 4.29289 5.70711C4.48043 5.89464 4.73478 6 5 6V6Z" fill="#1D1D1D"/>
<path d="M11 7.3335H5C4.73478 7.3335 4.48043 7.43885 4.29289 7.62639C4.10536 7.81393 4 8.06828 4 8.3335C4 8.59871 4.10536 8.85307 4.29289 9.0406C4.48043 9.22814 4.73478 9.3335 5 9.3335H11C11.2652 9.3335 11.5196 9.22814 11.7071 9.0406C11.8946 8.85307 12 8.59871 12 8.3335C12 8.06828 11.8946 7.81393 11.7071 7.62639C11.5196 7.43885 11.2652 7.3335 11 7.3335Z" fill="#1D1D1D"/>
</g>
<defs>
<clipPath id="clip0_10015_9828">
<rect width="16" height="16" fill="white"/>
</clipPath>
</defs>
</svg>
