<svg width="16" height="16" viewBox="0 0 16 16" fill="none" xmlns="http://www.w3.org/2000/svg">
<g clip-path="url(#clip0_10015_9832)">
<path d="M8 0C6.41775 0 4.87103 0.469192 3.55544 1.34824C2.23985 2.22729 1.21447 3.47672 0.608967 4.93853C0.00346629 6.40034 -0.15496 8.00888 0.153721 9.56072C0.462403 11.1126 1.22433 12.538 2.34315 13.6569C3.46197 14.7757 4.88743 15.5376 6.43928 15.8463C7.99113 16.155 9.59966 15.9965 11.0615 15.391C12.5233 14.7855 13.7727 13.7602 14.6518 12.4446C15.5308 11.129 16 9.58225 16 8C15.9977 5.87897 15.1541 3.84547 13.6543 2.34568C12.1545 0.845886 10.121 0.00229405 8 0V0ZM13.9607 7.33333H11.642C11.4908 5.5966 10.9706 3.91216 10.116 2.39267C11.149 2.78333 12.0544 3.45114 12.7326 4.32274C13.4109 5.19434 13.8358 6.23601 13.9607 7.33333V7.33333ZM6.45667 9.33333H9.54334C9.28083 10.7298 8.75723 12.0643 8 13.2667C7.24266 12.0643 6.71905 10.7299 6.45667 9.33333V9.33333ZM6.36867 7.33333C6.55538 5.69585 7.11332 4.12258 8 2.73333C8.88679 4.12252 9.44475 5.69583 9.63134 7.33333H6.36867ZM5.884 2.39267C5.02945 3.91216 4.50918 5.5966 4.358 7.33333H2.03934C2.16423 6.23601 2.58915 5.19434 3.2674 4.32274C3.94565 3.45114 4.851 2.78333 5.884 2.39267V2.39267ZM2.15467 9.33333H4.42734C4.65166 10.8341 5.14513 12.282 5.884 13.6073C4.95876 13.2567 4.13433 12.6832 3.4838 11.9376C2.83326 11.1921 2.37673 10.2976 2.15467 9.33333V9.33333ZM10.116 13.6073C10.8552 12.2821 11.3487 10.8341 11.5727 9.33333H13.8453C13.6233 10.2976 13.1667 11.1921 12.5162 11.9376C11.8657 12.6832 11.0412 13.2567 10.116 13.6073V13.6073Z" fill="#1D1D1D"/>
</g>
<defs>
<clipPath id="clip0_10015_9832">
<rect width="16" height="16" fill="white"/>
</clipPath>
</defs>
</svg>
