<svg width="14" height="15" viewBox="0 0 14 15" fill="none" xmlns="http://www.w3.org/2000/svg">
<g clip-path="url(#clip0_4780_13838)">
<path d="M6.89197 0.258179C5.52887 0.258179 4.19638 0.662385 3.063 1.41968C1.92962 2.17698 1.04626 3.25336 0.524623 4.5127C0.00298619 5.77205 -0.133498 7.15779 0.13243 8.4947C0.398358 9.83161 1.05475 11.0596 2.01861 12.0235C2.98247 12.9874 4.2105 13.6438 5.54741 13.9097C6.88432 14.1756 8.27007 14.0391 9.52941 13.5175C10.7888 12.9959 11.8651 12.1125 12.6224 10.9791C13.3797 9.84574 13.7839 8.51325 13.7839 7.15015C13.782 5.32289 13.0552 3.57104 11.7631 2.27897C10.4711 0.986906 8.71923 0.260155 6.89197 0.258179V0.258179ZM11.841 5.6655L10.1921 6.16C10.0279 5.61409 9.73093 5.11739 9.32783 4.71429C8.92473 4.31119 8.42802 4.01426 7.88212 3.85004L8.37661 2.20114C9.19491 2.44825 9.93941 2.89385 10.5438 3.49828C11.1483 4.10271 11.5939 4.84721 11.841 5.6655V5.6655ZM7.31583 9.23554C7.26651 9.30139 7.20253 9.35485 7.12896 9.39167C7.05538 9.42849 6.97424 9.44766 6.89197 9.44766C6.8097 9.44766 6.72856 9.42849 6.65498 9.39167C6.58141 9.35485 6.51743 9.30139 6.46811 9.23554L5.38091 7.7865C5.24334 7.60287 5.16898 7.3796 5.16898 7.15015C5.16898 6.92069 5.24334 6.69742 5.38091 6.51379L6.46811 5.06475C6.51743 4.9989 6.58141 4.94544 6.65498 4.90862C6.72856 4.8718 6.8097 4.85263 6.89197 4.85263C6.97424 4.85263 7.05538 4.8718 7.12896 4.90862C7.20253 4.94544 7.26651 4.9989 7.31583 5.06475L8.40303 6.51379C8.5406 6.69742 8.61496 6.92069 8.61496 7.15015C8.61496 7.3796 8.5406 7.60287 8.40303 7.7865L7.31583 9.23554ZM5.40733 2.20114L5.90182 3.85004C5.35592 4.01426 4.85921 4.31119 4.45611 4.71429C4.05301 5.11739 3.75608 5.61409 3.59187 6.16L1.94296 5.6655C2.19025 4.8473 2.63592 4.1029 3.24032 3.4985C3.84472 2.89409 4.58913 2.44843 5.40733 2.20114V2.20114ZM1.94296 8.63364L3.59187 8.13914C3.75617 8.685 4.05313 9.18166 4.45622 9.58475C4.85931 9.98783 5.35597 10.2848 5.90182 10.4491L5.40733 12.098C4.58926 11.8508 3.84494 11.4053 3.24055 10.8011C2.63616 10.1969 2.19042 9.45278 1.94296 8.63479V8.63364ZM8.37547 12.098L7.88097 10.4491C8.42683 10.2848 8.92348 9.98783 9.32657 9.58475C9.72966 9.18166 10.0266 8.685 10.1909 8.13914L11.8398 8.63364C11.593 9.45202 11.1476 10.1967 10.5434 10.8013C9.93918 11.4059 9.19483 11.8518 8.37661 12.0992L8.37547 12.098Z" fill="#C9C9C9"/>
</g>
<defs>
<clipPath id="clip0_4780_13838">
<rect width="13.7839" height="13.7839" fill="white" transform="translate(0 0.258179)"/>
</clipPath>
</defs>
</svg>
