<svg width="25" height="25" viewBox="0 0 25 25" fill="none" xmlns="http://www.w3.org/2000/svg">
<g clip-path="url(#clip0_3627_13524)">
<path d="M20.0175 13.6647C19.6292 13.1744 19.7403 12.9562 20.0175 12.5179C20.0225 12.5129 23.2278 8.08365 23.5581 6.58156L23.5601 6.58055C23.7242 6.03315 23.5601 5.63086 22.7665 5.63086H20.1406C19.4721 5.63086 19.1639 5.97611 18.9987 6.36239C18.9987 6.36239 17.6618 9.56274 15.7704 11.6373C15.1599 12.2367 14.8777 12.4288 14.5445 12.4288C14.3804 12.4288 14.1252 12.2367 14.1252 11.6893V6.58055C14.1252 5.92407 13.938 5.63086 13.3846 5.63086H9.2556C8.83629 5.63086 8.58711 5.93708 8.58711 6.22229C8.58711 6.84475 9.5328 6.98785 9.63088 8.73913V12.5389C9.63088 13.3715 9.47976 13.5246 9.14452 13.5246C8.25187 13.5246 6.08528 10.3113 4.80134 6.63359C4.54215 5.92007 4.28897 5.63186 3.61547 5.63186H0.98855C0.239001 5.63186 0.0878906 5.97711 0.0878906 6.3634C0.0878906 7.0459 0.980544 10.4394 4.23893 14.9227C6.41052 17.9829 9.46876 19.6411 12.2508 19.6411C13.923 19.6411 14.1272 19.2728 14.1272 18.6394C14.1272 15.7152 13.9761 15.439 14.8137 15.439C15.202 15.439 15.8704 15.6312 17.4316 17.1073C19.2159 18.8575 19.5091 19.6411 20.5078 19.6411H23.1338C23.8823 19.6411 24.2616 19.2728 24.0434 18.5463C23.5441 17.0182 20.1696 13.8749 20.0175 13.6647Z" fill="#009CF3"/>
</g>
<defs>
<clipPath id="clip0_3627_13524">
<rect width="24.0176" height="24.0176" fill="white" transform="translate(0.0878906 0.62793)"/>
</clipPath>
</defs>
</svg>
