<svg width="25" height="25" viewBox="0 0 25 25" fill="none" xmlns="http://www.w3.org/2000/svg">
<path d="M22.7913 7.00886C22.5318 6.04424 21.7713 5.28384 20.8068 5.0241C19.0448 4.54199 11.9967 4.54199 11.9967 4.54199C11.9967 4.54199 4.94893 4.54199 3.18694 5.00582C2.24101 5.26528 1.46192 6.04437 1.20246 7.00886C0.73877 8.7707 0.73877 12.4245 0.73877 12.4245C0.73877 12.4245 0.73877 16.0968 1.20246 17.8402C1.4622 18.8047 2.22246 19.5651 3.18708 19.8249C4.96748 20.3071 11.997 20.3071 11.997 20.3071C11.997 20.3071 19.0448 20.3071 20.8068 19.8433C21.7714 19.5837 22.5318 18.8233 22.7916 17.8588C23.2551 16.0968 23.2551 12.4431 23.2551 12.4431C23.2551 12.4431 23.2737 8.7707 22.7913 7.00886ZM9.75278 15.8001V9.049L15.6136 12.4245L9.75278 15.8001Z" fill="#009CF3"/>
</svg>
